<svg width="95" height="100" viewBox="0 0 95 100" fill="none" xmlns="http://www.w3.org/2000/svg">
<g clip-path="url(#clip0_557_430)">
<path d="M82.1472 3.49389C73.2515 -1.94089 59.5398 -2.43778 47.546 12.2361C37.4233 0.000102724 24.6625 -3.22971 13.2668 3.72681C3.55824 9.64296 -3.40495 23.028 1.73309 35.1864C5.38339 43.8044 15 50.4194 24.3098 56.8324C35.9662 64.8448 46.9938 72.3604 46.9938 83.4473H48.0368C48.0368 72.3914 59.0951 64.5187 70.8282 56.1802C78.6809 50.5746 86.7484 44.8293 91.227 37.9659C92.1916 42.2715 91.8385 46.7723 90.2147 50.8697C86.8558 59.1926 77.7607 65.8231 69.0184 72.2361C58.0368 80.202 46.7331 88.5094 46.7331 100H47.776C47.776 88.9753 58.3742 81.2579 69.5859 73.0902C78.4816 66.584 87.6994 59.8759 91.181 51.351C92.9862 46.7052 93.2817 41.5977 92.0245 36.7703C92.496 35.9275 92.916 35.0563 93.2822 34.1616C98.3129 22.2982 91.5644 9.31687 82.1472 3.49389ZM91.5797 35.3417C89.5881 28.8161 85.2616 23.2785 79.4478 19.8138C68.4816 13.4318 56.3036 17.0187 46.8405 29.41L47.6687 30.0622C56.7791 18.1212 68.4662 14.6274 78.9263 20.7454C84.7635 24.3156 89.0406 30.0003 90.8895 36.6461C86.6564 43.6958 78.3282 49.643 70.23 55.4038C60.2147 62.438 49.9079 69.7672 47.546 79.2858C45.1073 69.8759 34.8619 62.8107 24.8926 55.9007C15.7208 49.6895 6.22695 43.1057 2.69934 34.7672C-2.22397 23.1367 4.47849 10.3107 13.8036 4.65849C24.8773 -2.12723 37.3159 1.14917 47.1012 13.3852L47.546 13.0591L47.9447 13.3852C57.8834 0.962835 70.4754 -2.40673 81.6871 4.39451C90.7208 9.90693 97.2086 22.4069 92.4233 33.7734C92.1711 34.3116 91.8895 34.8352 91.5797 35.3417Z" fill="#EDE9E0"/>
</g>
<defs>
<clipPath id="clip0_557_430">
<rect width="95" height="100" fill="white"/>
</clipPath>
</defs>
</svg>
