<svg width="113" height="100" viewBox="0 0 113 100" fill="none" xmlns="http://www.w3.org/2000/svg">
<g clip-path="url(#clip0_557_502)">
<path d="M107.441 72.051C95.16 72.0597 83.071 75.1152 72.2471 80.9462C72.0054 80.9637 71.7629 80.9637 71.5212 80.9462C70.2328 81.0031 68.9663 80.5977 67.9479 79.8025C66.9296 79.0072 66.2258 77.874 65.9624 76.6053C65.5725 75.2775 65.6341 73.8569 66.1375 72.5682C66.6408 71.2794 67.5572 70.196 68.7418 69.4892L69.5031 69.0978L69.2021 68.8131C76.4319 65.1437 84.4177 63.2303 92.5173 63.2269C93.6857 63.2269 94.9072 63.2269 96.3766 63.3871H97.0139V0.195457H96.4651C94.9958 -0.000238083 93.7034 -0.000238088 92.5173 -0.000238088C79.1129 -0.0689415 66.2046 5.09046 56.5089 14.3922C46.8047 5.09256 33.8918 -0.0661151 20.4827 -0.000238088C19.2966 -0.000238088 18.0042 -0.000238083 16.5349 0.159876L15.9329 0.195457V63.5828H16.5703C18.0396 63.476 19.2612 63.4226 20.4296 63.4226C29.4025 63.3997 38.2261 65.7299 46.0285 70.183C46.812 70.9561 47.3858 71.9176 47.6957 72.9762C48.0055 74.0349 48.041 75.1555 47.7988 76.2317C47.5688 77.5441 46.8737 78.7284 45.842 79.5656C44.8104 80.4028 43.512 80.8364 42.1869 80.7861C41.2083 80.7837 40.2461 80.5328 39.3898 80.0567L38.5577 79.6119V79.7543C28.2923 74.675 17.001 72.0392 5.55883 72.051C3.7885 72.051 2.10669 72.051 0 72.2823L0.0885164 73.4742C2.1598 73.3319 3.89472 73.2607 5.55883 73.2607C16.9857 73.26 28.255 75.9404 38.4692 81.0885C38.4692 81.3376 38.4692 81.5867 38.4692 81.8535C38.6162 86.5702 40.584 91.0443 43.956 94.3285C47.328 97.6126 51.8395 99.4492 56.5354 99.4492C61.2313 99.4492 65.7428 97.6126 69.1148 94.3285C72.4869 91.0443 74.4547 86.5702 74.6016 81.8535C74.6016 81.6934 74.6016 81.5333 74.6016 81.391V81.0885C84.8158 75.9404 96.0851 73.26 107.512 73.2607C109.176 73.2607 110.911 73.2607 112.982 73.4742V72.2823C110.893 72.1222 109.123 72.051 107.441 72.051ZM46.8606 69.2401C46.6032 69.0016 46.3247 68.7873 46.0285 68.5997C49.0188 66.185 52.7447 64.8776 56.5808 64.897C60.4169 64.9165 64.1295 66.2615 67.0954 68.7064C63.2859 70.8277 59.7736 73.4481 56.6505 76.4986L56.4557 76.3741H56.3495C53.4812 73.624 50.2956 71.2289 46.8606 69.2401ZM17.1899 62.2663V1.31625C18.3937 1.24509 19.4736 1.20951 20.4827 1.20951C33.7775 1.13728 46.5664 6.3266 56.084 15.6553L56.5089 16.0823L56.9337 15.6553C66.4448 6.32767 79.2278 1.13813 92.5173 1.20951C93.5264 1.20951 94.6063 1.20951 95.8101 1.33404V62.2663C94.6063 62.2663 93.5441 62.1417 92.5173 62.1417C84.0673 62.1466 75.7405 64.1776 68.2284 68.0659C64.969 65.2305 60.8022 63.6699 56.4911 63.6699C52.1801 63.6699 48.0133 65.2305 44.7539 68.0659C37.2493 64.1745 28.9274 62.1433 20.4827 62.1417C19.4736 62.1595 18.3937 62.2663 17.1899 62.2663ZM49.0558 76.4986C49.379 74.8988 49.2187 73.2383 48.5955 71.7308C51.2448 73.455 53.7124 75.4459 55.96 77.6728L56.562 77.9396L56.7213 78.1175L57.1462 77.6906C59.7538 75.1315 62.6399 72.8757 65.75 70.9658C64.6827 72.7761 64.3589 74.9328 64.8471 76.979C65.1252 78.2686 65.7787 79.446 66.7243 80.3615C67.67 81.277 68.8653 81.8892 70.1581 82.1204C65.2975 84.9548 60.7975 88.3718 56.7567 92.2965L56.5089 92.0474L56.261 92.2965C52.1592 88.3089 47.5803 84.8488 42.6295 81.9958C44.1586 81.9549 45.627 81.386 46.7877 80.3848C47.9485 79.3837 48.7306 78.0113 49.0027 76.4986H49.0558ZM73.4155 81.9781C73.066 86.2276 71.1359 90.1888 68.0098 93.0721C64.8838 95.9555 60.7914 97.5492 56.5483 97.5357C52.3052 97.5223 48.2229 95.9026 45.1151 92.9995C42.0072 90.0964 40.102 86.123 39.7793 81.8713V81.7112C45.7323 84.8337 51.1912 88.8267 55.9778 93.5596L56.4026 93.9688L56.6505 93.7375L56.8983 93.9688L57.3232 93.5596C61.8446 89.0388 66.9828 85.1872 72.5834 82.1204C72.8463 82.0842 73.1065 82.0307 73.3624 81.9603L73.4155 81.9781Z" fill="white"/>
</g>
<defs>
<clipPath id="clip0_557_502">
<rect width="113" height="100" fill="white"/>
</clipPath>
</defs>
</svg>
