<svg width="94" height="100" viewBox="0 0 94 100" fill="none" xmlns="http://www.w3.org/2000/svg">
<g clip-path="url(#clip0_557_700)">
<path d="M68.669 16.5547C58.5035 12.2105 47.0391 12.0962 36.7899 16.237C26.5407 20.3777 18.3433 28.4354 13.995 38.6431C11.047 45.5319 10.015 53.0961 11.0094 60.5284C7.07396 62.2056 3.37293 64.3917 0 67.0314L0.653102 67.8756C3.86899 65.3615 7.38458 63.2609 11.1183 61.6227C11.6089 64.7608 12.4487 67.8336 13.6218 70.7832C16.7375 78.5338 22.0843 85.1726 28.9771 89.8488C35.87 94.5249 43.9948 97.0255 52.3103 97.0299C57.6381 97.02 62.9154 95.9908 67.8604 93.9972C70.7573 92.832 73.5121 91.3372 76.0708 89.542C77.3565 92.928 78.2437 96.4536 78.7143 100.047L79.7562 99.9219C79.2602 96.1752 78.3205 92.5016 76.9572 88.9792C82.8947 84.6065 87.5749 78.7314 90.522 71.9511C93.469 65.1708 94.578 57.7271 93.736 50.3763C92.8941 43.0256 90.1313 36.0299 85.7285 30.1004C81.3257 24.1709 75.4398 19.5189 68.669 16.6172V16.5547ZM67.4561 92.9967C62.5072 94.9974 57.2147 95.9986 51.8809 95.943C46.5471 95.8875 41.2764 94.7763 36.3698 92.6729C31.4632 90.5695 27.0168 87.5151 23.2844 83.6842C19.5521 79.8532 16.6069 75.3207 14.617 70.3455C13.4315 67.3947 12.5914 64.3153 12.1135 61.1693C21.8826 57.0786 32.7214 56.3423 42.9492 59.0746C44.7334 59.6108 46.4878 60.2422 48.2051 60.9661C48.6593 61.2347 49.1322 61.4698 49.6202 61.6696C49.9156 61.8102 50.2266 61.9197 50.5221 62.0291C61.9451 67.4021 70.9499 76.8841 75.7598 88.6041C73.175 90.3943 70.3875 91.8689 67.4561 92.9967ZM54.1919 62.7169H54.845C57.5114 62.7207 60.1203 61.9376 62.3483 60.4649C64.5762 58.9921 66.3251 56.8944 67.3783 54.4318L66.8652 54.2286L66.3676 54.0097C65.1554 56.9239 62.8911 59.269 60.0297 60.574C57.1682 61.8789 53.9216 62.0469 50.9419 61.0443C50.1644 60.6691 49.3869 60.3095 48.5783 59.9656C45.9276 58.425 43.9305 55.9611 42.9648 53.0401C41.9991 50.1191 42.1319 46.9437 43.338 44.1144L42.8404 43.9112L42.3739 43.7705C41.6676 45.4196 41.2943 47.1933 41.2756 48.9886C41.2569 50.7839 41.5932 52.565 42.265 54.2286C42.9376 55.9068 43.9308 57.4363 45.1884 58.7307L43.2447 58.0897C32.8733 55.3296 21.8897 56.0431 11.958 60.1219C11.2723 54.5793 11.7242 48.9543 13.2857 43.5941C14.8473 38.234 17.4853 33.2525 21.0369 28.9574C24.5885 24.6624 28.9783 21.1448 33.9351 18.622C38.892 16.0992 44.3106 14.6248 49.8565 14.2897C55.4024 13.9546 60.9578 14.7661 66.1795 16.6739C71.4012 18.5817 76.1785 21.5454 80.2162 25.382C84.2539 29.2185 87.4664 33.8465 89.6553 38.98C91.8442 44.1136 92.963 49.6438 92.9426 55.229C92.9263 61.5772 91.4379 67.8341 88.5955 73.5029C85.7531 79.1716 81.635 84.096 76.5684 87.885C72.1148 77.2188 64.2374 68.3586 54.1919 62.7169Z" fill="white"/>
<path d="M74.5898 1.26187L72.0996 7.12805L73.0722 7.54528L75.5623 1.6791L74.5898 1.26187Z" fill="white"/>
<path d="M62.822 29.0135L60.334 34.8913L60.816 35.0945L61.2981 35.2977L63.7861 29.4356L63.304 29.2168L62.822 29.0135Z" fill="white"/>
<path d="M84.6233 10.9749L78.7363 13.3528L79.1306 14.3391L85.0175 11.9613L84.6233 10.9749Z" fill="white"/>
<path d="M56.959 22.7294L56.7724 22.2135L50.8789 24.6052L51.0655 25.1055H51.0811L51.2677 25.5901L57.1611 23.214L56.959 22.7294Z" fill="white"/>
<path d="M72.3551 29.3263L71.873 29.5139L74.2367 35.4541L75.2163 35.0477L72.8527 29.123L72.3551 29.3263Z" fill="white"/>
<path d="M61.6491 1.13518L60.668 1.53149L63.0333 7.44964L64.0145 7.05333L61.6491 1.13518Z" fill="white"/>
<path d="M67.0361 30.1548L66.834 36.5328L67.3471 36.5484V36.564H67.8914L68.0935 30.186L67.5648 30.1704L67.0361 30.1548Z" fill="white"/>
<path d="M68.0048 0.01526L67.7988 6.38989L68.8557 6.42439L69.0616 0.0497622L68.0048 0.01526Z" fill="white"/>
<path d="M58.9503 26.0278L54.3164 30.3893L54.6896 30.7801L55.0317 31.1709L59.6656 26.8094L58.9503 26.0278Z" fill="white"/>
<path d="M80.8412 5.41025L76.2148 9.77466L76.9384 10.5498L81.5648 6.18539L80.8412 5.41025Z" fill="white"/>
<path d="M56.1197 17.899L56.1353 17.3675L49.7909 17.1643L49.7753 17.6958L49.7598 18.2273L56.1042 18.4305L56.1197 17.899Z" fill="white"/>
<path d="M79.7824 18.1364L79.748 19.1989L86.0891 19.4059L86.1234 18.3434L79.7824 18.1364Z" fill="white"/>
<path d="M55.8906 4.58868L55.1191 5.31567L59.4582 9.96884L60.2296 9.24184L55.8906 4.58868Z" fill="white"/>
<path d="M80.3776 31.6085L80.7663 31.2646L76.4123 26.6062L76.0236 26.9657L75.6504 27.3253L79.9888 31.9837L80.3776 31.6085Z" fill="white"/>
</g>
<defs>
<clipPath id="clip0_557_700">
<rect width="94" height="100" fill="white"/>
</clipPath>
</defs>
</svg>
