<svg width="70" height="100" viewBox="0 0 70 100" fill="none" xmlns="http://www.w3.org/2000/svg">
<g clip-path="url(#clip0_557_119)">
<path d="M64.8685 42.3492C65.5441 42.363 66.2156 42.2408 66.8426 41.9899C67.4696 41.7389 68.0393 41.3645 68.5175 40.8889C69.0853 40.3223 69.511 39.6303 69.7601 38.8692C70.0093 38.108 70.0749 37.2991 69.9516 36.508C69.255 31.3729 67.2508 26.5009 64.1297 22.3556C61.0087 18.2102 56.8746 14.9294 52.121 12.8254C52.8534 12.119 53.3345 11.1939 53.4914 10.1905C53.6781 8.91709 53.3516 7.62179 52.5831 6.58732L49.2369 2.00002C48.4784 0.972595 47.3448 0.283516 46.0807 0.0815684C44.8167 -0.120379 43.5236 0.181008 42.4807 0.920655L37.8597 4.25399C37.3384 4.62619 36.8977 5.09906 36.5637 5.64445C36.2297 6.18984 36.0094 6.79659 35.9157 7.42859C35.7562 8.42984 35.912 9.45572 36.3618 10.3651C31.1959 10.8908 26.2514 12.7265 22.0001 15.697C17.7489 18.6675 14.3328 22.6737 12.0777 27.3334C11.7047 28.0522 11.51 28.8496 11.51 29.6588C11.51 30.4679 11.7047 31.2653 12.0777 31.9841C12.4547 32.7072 13.0029 33.3279 13.6748 33.7925C14.3466 34.2571 15.122 34.5517 15.9339 34.6508L29.8924 36.8572C24.5952 37.667 19.5755 39.7493 15.2668 42.924C10.9582 46.0988 7.49012 50.2707 5.16219 55.0794C4.7704 55.8554 4.56785 56.7125 4.571 57.5812C4.57415 58.4498 4.7829 59.3055 5.18031 60.0787C5.57771 60.8518 6.15257 61.5208 6.85819 62.0311C7.56382 62.5415 8.38033 62.8789 9.24141 63.0159L25.4945 65.5238C20.1611 66.3049 15.1009 68.3756 10.7565 71.555C6.41208 74.7343 2.9157 78.9255 0.573075 83.7619C0.175869 84.5359 -0.03125 85.3927 -0.03125 86.2619C-0.03125 87.1312 0.175869 87.988 0.573075 88.7619C0.964088 89.5296 1.53427 90.1926 2.23575 90.6952C2.93724 91.1979 3.74955 91.5256 4.60449 91.6508L56.9651 100C57.2567 100.023 57.5498 100.023 57.8415 100C58.5574 100.001 59.2664 99.8609 59.9281 99.5886C60.5897 99.3162 61.191 98.9166 61.6976 98.4127C62.324 97.8023 62.7953 97.0518 63.0724 96.2237C63.3495 95.3956 63.4245 94.5136 63.291 93.6508C62.5646 88.3471 60.5491 83.3002 57.4194 78.9489C54.2898 74.5976 50.1408 71.0734 45.3329 68.6826L61.5382 71.2381C61.8352 71.2609 62.1336 71.2609 62.4306 71.2381C63.2268 71.236 64.0133 71.0626 64.736 70.7297C65.4588 70.3969 66.1009 69.9124 66.6183 69.3095C67.1358 68.7067 67.5164 67.9996 67.7342 67.2366C67.952 66.4736 68.0018 65.6728 67.8801 64.8889C67.1477 59.6325 65.1493 54.6307 62.0555 50.3105C58.9617 45.9903 54.8643 42.4801 50.1133 40.0794L64.0559 42.2857C64.3244 42.3305 64.5963 42.3518 64.8685 42.3492ZM65.5059 68.9683C65.0166 69.4566 64.4168 69.821 63.757 70.0309C63.0972 70.2408 62.3964 70.29 61.7135 70.1746L44.1856 67.3968C44.4387 65.71 44.1856 63.9862 43.458 62.4423C42.7304 60.8983 41.5609 59.603 40.0965 58.7193C38.632 57.8355 36.938 57.4027 35.2274 57.4753C33.5167 57.5478 31.8658 58.1225 30.482 59.127C28.6427 60.4529 27.4052 62.4503 27.0402 64.6826L9.41669 61.9048C8.73972 61.796 8.09815 61.5294 7.54431 61.1267C6.99047 60.7239 6.54005 60.1965 6.2298 59.5873C5.90813 58.9608 5.7404 58.2672 5.7404 57.5635C5.7404 56.8598 5.90813 56.1662 6.2298 55.5397C8.6588 50.5071 12.3774 46.2018 17.0103 43.0582C21.6433 39.9146 27.0267 38.0439 32.6172 37.6349L32.4101 37.7937C31.8257 38.1979 31.3666 38.7572 31.085 39.4081C30.8034 40.0589 30.7104 40.7754 30.8166 41.4762C30.9324 42.1688 31.2421 42.8148 31.71 43.3399C32.1779 43.865 32.7851 44.2478 33.4618 44.4445C33.8806 44.578 34.2605 44.811 34.5686 45.1235C34.8768 45.4361 35.104 45.8186 35.2305 46.2381C35.4344 46.9157 35.8245 47.523 36.3567 47.9915C36.8889 48.4599 37.5419 48.7707 38.2421 48.8889C38.4436 48.9047 38.6461 48.9047 38.8476 48.8889C39.4528 48.8905 40.0496 48.7471 40.5876 48.4708C41.1256 48.1946 41.589 47.7936 41.9389 47.3016C42.1872 46.9388 42.5231 46.6439 42.9157 46.4442C43.3083 46.2445 43.745 46.1463 44.1856 46.1588C44.8961 46.1828 45.5982 46.0005 46.2064 45.6342C46.8147 45.2678 47.3029 44.7331 47.6115 44.0953C47.9411 43.468 48.0846 42.7603 48.0253 42.0548C47.9661 41.3493 47.7065 40.6751 47.2769 40.1111L47.1494 39.9048C52.376 42.0061 56.9496 45.4507 60.4039 49.8871C63.8582 54.3236 66.0696 59.5933 66.8125 65.1588C66.9137 65.8515 66.8479 66.5582 66.6208 67.2206C66.3936 67.883 66.0114 68.482 65.5059 68.9683ZM60.9327 97.6667C60.4382 98.1476 59.838 98.507 59.1797 98.7164C58.5214 98.9258 57.8231 98.9794 57.1403 98.873L4.77977 90.5873C4.10194 90.481 3.45929 90.2154 2.90507 89.8124C2.35086 89.4094 1.90104 88.8806 1.59288 88.2699C1.27134 87.6462 1.10362 86.9551 1.10362 86.254C1.10362 85.5529 1.27134 84.8618 1.59288 84.2381C3.94092 79.3778 7.49341 75.1936 11.9151 72.0804C16.3368 68.9671 21.4819 67.0275 26.8649 66.4445C26.9176 68.1528 27.4715 69.8083 28.4583 71.2064C29.14 72.1203 29.9963 72.8909 30.978 73.4739C31.9598 74.0568 33.0476 74.4406 34.1788 74.6032C34.6369 74.6796 35.1007 74.7168 35.5651 74.7143C37.3401 74.708 39.0709 74.1621 40.526 73.1494C41.981 72.1368 43.0911 70.7057 43.7076 69.0476C48.6584 71.2671 52.9579 74.7096 56.1983 79.0488C59.4388 83.3879 61.5127 88.4797 62.2234 93.8413C62.3266 94.5351 62.2634 95.2435 62.0391 95.9083C61.8148 96.5732 61.4356 97.1757 60.9327 97.6667ZM28.06 64.8413C28.3381 63.0678 29.2448 61.4523 30.6158 60.2875C31.9868 59.1227 33.7313 58.4858 35.5332 58.4921C35.9363 58.461 36.3412 58.461 36.7443 58.4921C38.7284 58.7977 40.5111 59.8714 41.7047 61.4795C42.8983 63.0876 43.4062 65.1002 43.118 67.0794L42.7515 68.5397C42.2467 69.9792 41.3057 71.227 40.0586 72.1111C38.9398 72.9201 37.6207 73.4098 36.2433 73.5275C34.8658 73.6452 33.4823 73.3864 32.2415 72.7791C31.0007 72.1717 29.9497 71.2387 29.2017 70.0805C28.4537 68.9224 28.0369 67.5829 27.9962 66.2064L28.06 64.8413ZM13.0497 27.8095C15.2633 23.2256 18.6404 19.297 22.8466 16.4127C27.0528 13.5284 31.9423 11.7884 37.0311 11.3651L40.1224 15.6191C40.496 16.1383 40.9707 16.5773 41.5182 16.91C42.0657 17.2427 42.6748 17.4622 43.3092 17.5556C43.569 17.5786 43.8303 17.5786 44.09 17.5556C45.1099 17.5579 46.1037 17.2353 46.9264 16.6349L51.1968 13.5397C55.902 15.5136 60.0086 18.6766 63.1106 22.7159C66.2127 26.7553 68.2027 31.5312 68.884 36.5715C68.9763 37.2049 68.9176 37.851 68.7127 38.4576C68.5079 39.0643 68.1627 39.6144 67.7049 40.0635C67.2575 40.5068 66.7104 40.8374 66.109 41.0279C65.5077 41.2184 64.8694 41.2633 64.2471 41.1588L46.7989 38.4603C46.8023 38.191 46.8452 37.9236 46.9264 37.6667C47.1604 36.9994 47.1993 36.2795 47.0385 35.591C46.8777 34.9025 46.5238 34.2737 46.0181 33.7778C45.3052 33.076 44.3434 32.6825 43.3411 32.6826C42.9248 32.6838 42.5111 32.748 42.1142 32.873C41.6989 33.015 41.255 33.0531 40.8215 32.9839C40.388 32.9147 39.9783 32.7403 39.6284 32.4762C39.0611 32.0513 38.3854 31.7935 37.6783 31.7322C36.9712 31.6708 36.261 31.8084 35.6285 32.1292C34.996 32.45 34.4665 32.9412 34.1004 33.547C33.7343 34.1527 33.5461 34.8486 33.5574 35.5556C33.5605 35.8242 33.5229 36.0918 33.4458 36.3492L16.0454 33.5873C15.4191 33.4858 14.8253 33.2396 14.3116 32.8684C13.798 32.4972 13.3787 32.0113 13.0875 31.4496C12.7963 30.888 12.6412 30.2662 12.6347 29.6341C12.6281 29.0019 12.7703 28.3771 13.0497 27.8095ZM36.9514 7.57145C37.1109 6.59299 37.6485 5.71559 38.4492 5.127L43.0862 1.79367C43.4898 1.49854 43.9489 1.28742 44.4362 1.17288C44.9235 1.05834 45.429 1.04274 45.9225 1.127C46.9105 1.28198 47.7977 1.81793 48.3923 2.61907L51.7226 7.22224C52.2925 8.01012 52.5344 8.98699 52.3978 9.94847C52.2612 10.91 51.7566 11.7816 50.9896 12.381L50.8462 12.4921L50.5116 12.6984L50.0017 13.0635L46.289 15.873C45.8885 16.1688 45.4326 16.3817 44.9482 16.4989C44.4638 16.6161 43.9606 16.6354 43.4686 16.5556C42.9716 16.468 42.4971 16.2825 42.073 16.01C41.6489 15.7374 41.2837 15.3833 40.9987 14.9683L38.2421 11.2857L37.8756 10.7778L37.5888 10.381C37.5529 10.3391 37.5258 10.2905 37.5091 10.2381C36.9974 9.44913 36.8092 8.49462 36.9833 7.57145H36.9514ZM34.0673 37.5873H34.2585H34.0832C34.1981 37.4347 34.2845 37.2626 34.3382 37.0794C34.4202 36.9191 34.4792 36.7481 34.5134 36.5715C34.5897 36.2598 34.6272 35.9399 34.625 35.6191C34.6139 35.1136 34.7474 34.6154 35.0098 34.1826C35.2722 33.7498 35.6526 33.4002 36.1069 33.1746C36.4937 32.9837 36.9182 32.8807 37.3498 32.873C37.9258 32.8898 38.4824 33.0838 38.9432 33.4286C39.5957 33.9161 40.3902 34.1781 41.2059 34.1746C41.6185 34.1758 42.0282 34.106 42.4169 33.9683C42.8967 33.8042 43.413 33.7775 43.9072 33.8914C44.4014 34.0052 44.8536 34.255 45.2122 34.6123C45.5709 34.9696 45.8217 35.42 45.936 35.9123C46.0503 36.4046 46.0235 36.919 45.8588 37.3968C45.7569 37.7001 45.6927 38.0146 45.6675 38.3334C45.6572 38.7061 45.6893 39.0789 45.7631 39.4445H45.6197H45.7791C45.8846 39.9467 46.1025 40.4187 46.4165 40.8254C46.7162 41.2296 46.8967 41.7092 46.9376 42.21C46.9785 42.7109 46.8782 43.2132 46.648 43.6603C46.4178 44.1075 46.0668 44.4817 45.6345 44.7408C45.2023 45 44.706 45.1337 44.2016 45.127C43.5829 45.1258 42.9725 45.2687 42.4192 45.5443C41.8659 45.8199 41.3849 46.2206 41.0147 46.7143C40.7278 47.1293 40.3281 47.4542 39.8624 47.651C39.3968 47.8478 38.8844 47.9083 38.3855 47.8254C37.9054 47.7425 37.4566 47.5322 37.0864 47.2165C36.7162 46.9008 36.4384 46.4916 36.2822 46.0318C36.1039 45.4456 35.7841 44.9119 35.3507 44.4775C34.9174 44.043 34.3837 43.721 33.7964 43.5397C33.284 43.3967 32.8265 43.104 32.4828 42.6994C32.1391 42.2948 31.9251 41.7969 31.8683 41.2699C31.7843 40.7666 31.8461 40.2499 32.0465 39.7804C32.2469 39.3109 32.5776 38.908 32.9997 38.6191C33.4226 38.3515 33.7859 38.0003 34.0673 37.5873Z" fill="white"/>
</g>
<defs>
<clipPath id="clip0_557_119">
<rect width="70" height="100" fill="white"/>
</clipPath>
</defs>
</svg>
