<svg width="434" height="382" viewBox="0 0 434 382" fill="none" xmlns="http://www.w3.org/2000/svg">
<g clip-path="url(#clip0_859_6507)">
<path d="M106.962 52.0388H402.914V232.742H106.962V52.0388Z" fill="#EDE9E0" stroke="#EDE9E0" stroke-miterlimit="10"/>
<path d="M402.914 75.4509H106.962" stroke="#EDE9E0" stroke-miterlimit="10"/>
<path d="M382 64.4835C381.998 65.5927 382.326 66.6775 382.941 67.6007C383.557 68.5239 384.433 69.244 385.458 69.6698C386.484 70.0956 387.613 70.208 388.702 69.9928C389.792 69.7776 390.793 69.2444 391.579 68.4608C392.365 67.6772 392.901 66.6783 393.118 65.5906C393.335 64.5029 393.225 63.3752 392.8 62.3503C392.376 61.3253 391.656 60.4492 390.733 59.8328C389.81 59.2164 388.724 58.8873 387.613 58.8873C386.126 58.8873 384.7 59.4766 383.648 60.5258C382.595 61.575 382.003 62.9984 382 64.4835Z" fill="#EDE9E0"/>
<path d="M359.11 64.4836C359.108 65.5931 359.435 66.6783 360.051 67.6017C360.667 68.5251 361.544 69.2452 362.57 69.6707C363.596 70.0962 364.726 70.2081 365.815 69.9921C366.905 69.7761 367.906 69.242 368.692 68.4574C369.477 67.6728 370.012 66.673 370.229 65.5846C370.445 64.4962 370.333 63.3682 369.907 62.3435C369.481 61.3187 368.76 60.4433 367.835 59.828C366.911 59.2128 365.824 58.8854 364.713 58.8873C363.228 58.8899 361.804 59.4804 360.754 60.5293C359.703 61.5782 359.112 63.0001 359.11 64.4836Z" fill="#EDE9E0"/>
<path d="M336.211 64.4836C336.209 65.5931 336.537 66.6783 337.153 67.6017C337.769 68.5251 338.646 69.2452 339.672 69.6707C340.698 70.0962 341.827 70.2081 342.917 69.9921C344.007 69.7761 345.008 69.242 345.793 68.4574C346.579 67.6728 347.114 66.673 347.33 65.5846C347.546 64.4962 347.434 63.3682 347.008 62.3435C346.582 61.3187 345.861 60.4433 344.937 59.828C344.012 59.2128 342.926 58.8854 341.815 58.8873C340.329 58.8899 338.905 59.4804 337.855 60.5293C336.805 61.5782 336.214 63.0001 336.211 64.4836Z" fill="#EDE9E0"/>
<path d="M370.103 120.69H385.875V125.034H370.103V120.69Z" fill="#EDE9E0"/>
<path d="M251.498 120.69H358.609V125.034H251.498V120.69Z" fill="#EDE9E0"/>
<path d="M211.856 120.69H241.812V125.034H211.856V120.69Z" fill="#EDE9E0"/>
<path d="M143.317 178.834H173.273V183.178H143.317V178.834Z" fill="#EDE9E0"/>
<path d="M153.536 120.69H205.328V125.034H153.536V120.69Z" fill="#EDE9E0"/>
<path d="M354.33 132.313H370.102V136.657H354.33V132.313Z" fill="#EDE9E0"/>
<path d="M273.703 132.313H343.227V136.657H273.703V132.313Z" fill="#EDE9E0"/>
<path d="M180.398 178.834H249.922V183.178H180.398V178.834Z" fill="#EDE9E0"/>
<path d="M294.415 167.201H358.609V171.545H294.415V167.201Z" fill="#EDE9E0"/>
<path d="M312.878 143.946H343.227V148.29H312.878V143.946Z" fill="#EDE9E0"/>
<path d="M191.425 155.578H221.773V159.922H191.425V155.578Z" fill="#EDE9E0"/>
<path d="M201.606 143.946H304.055V148.29H201.606V143.946Z" fill="#EDE9E0"/>
<path d="M256.161 178.834H358.609V183.178H256.161V178.834Z" fill="#EDE9E0"/>
<path d="M126.49 132.313H208.68V136.657H126.49V132.313Z" fill="#EDE9E0"/>
<path d="M215.183 132.313H266.25V136.657H215.183V132.313Z" fill="#EDE9E0"/>
<path d="M144.565 143.946H195.633V148.29H144.565V143.946Z" fill="#EDE9E0"/>
<path d="M354.33 143.946H370.102V148.29H354.33V143.946Z" fill="#EDE9E0"/>
<path d="M370.103 155.578H385.875V159.922H370.103V155.578Z" fill="#EDE9E0"/>
<path d="M314.605 155.578H358.609V159.922H314.605V155.578Z" fill="#EDE9E0"/>
<path d="M299.222 190.457H343.227V194.801H299.222V190.457Z" fill="#EDE9E0"/>
<path d="M172.361 202.09H243.227V206.434H172.361V202.09Z" fill="#EDE9E0"/>
<path d="M222.787 190.457H291.664V194.801H222.787V190.457Z" fill="#EDE9E0"/>
<path d="M251.38 202.09H308.148V206.434H251.38V202.09Z" fill="#EDE9E0"/>
<path d="M126.481 190.457H214.695V194.801H126.481V190.457Z" fill="#EDE9E0"/>
<path d="M316.238 202.09H343.227V206.434H316.238V202.09Z" fill="#EDE9E0"/>
<path d="M211.839 167.201H287.984V171.545H211.839V167.201Z" fill="#EDE9E0"/>
<path d="M141.222 167.201H205.328V171.545H141.222V167.201Z" fill="#EDE9E0"/>
<path d="M229.107 155.578H305.125V159.922H229.107V155.578Z" fill="#EDE9E0"/>
<path d="M370.103 167.201H385.875V171.545H370.103V167.201Z" fill="#EDE9E0"/>
<path d="M370.103 178.834H385.875V183.178H370.103V178.834Z" fill="#EDE9E0"/>
<path d="M354.33 190.457H370.102V194.801H354.33V190.457Z" fill="#EDE9E0"/>
<path d="M354.33 202.09H370.102V206.434H354.33V202.09Z" fill="#EDE9E0"/>
<path d="M384.356 106.542V105.285L374.243 100.135V102.145L382.001 105.882L381.938 105.757V106.071L382.001 105.945L374.243 109.682V111.692L384.356 106.542ZM364.631 95.3611L369.813 114.613H371.509L366.327 95.3611H364.631ZM351.788 106.542L361.901 111.692V109.682L354.143 105.945L354.206 106.071V105.757L354.143 105.882L361.901 102.145V100.135L351.788 105.285V106.542Z" fill="#EDE9E0"/>
<path d="M423.139 214.26H388.588C386.468 214.26 384.435 215.101 382.936 216.599C381.437 218.096 380.594 220.126 380.594 222.244V256.692L388.715 249.246H423.139C425.259 249.246 427.292 248.405 428.792 246.908C430.291 245.411 431.133 243.38 431.133 241.263V222.214C431.125 220.102 430.279 218.079 428.781 216.588C427.283 215.097 425.254 214.26 423.139 214.26Z" fill="#EDE9E0" stroke="#EDE9E0" stroke-miterlimit="10"/>
<path d="M397.953 232.36C397.962 233.049 397.767 233.725 397.391 234.303C397.014 234.88 396.475 235.333 395.84 235.604C395.206 235.874 394.505 235.95 393.827 235.821C393.149 235.693 392.525 235.366 392.034 234.882C391.543 234.399 391.207 233.78 391.068 233.105C390.93 232.43 390.996 231.729 391.258 231.091C391.52 230.454 391.965 229.909 392.538 229.525C393.111 229.141 393.785 228.936 394.475 228.936C395.39 228.933 396.268 229.292 396.92 229.933C397.571 230.574 397.942 231.447 397.953 232.36Z" fill="#EDE9E0"/>
<path d="M406.569 235.833C404.649 235.833 403.092 234.278 403.092 232.36C403.092 230.442 404.649 228.887 406.569 228.887C408.49 228.887 410.047 230.442 410.047 232.36C410.047 234.278 408.49 235.833 406.569 235.833Z" fill="#EDE9E0"/>
<path d="M418.663 235.833C416.742 235.833 415.185 234.278 415.185 232.36C415.185 230.442 416.742 228.887 418.663 228.887C420.584 228.887 422.141 230.442 422.141 232.36C422.141 234.278 420.584 235.833 418.663 235.833Z" fill="#EDE9E0"/>
<path d="M62.4417 25.1438C62.4435 27.0882 63.18 28.9604 64.5039 30.386C65.8279 31.8117 67.6418 32.6858 69.5831 32.8337H113.294C115.627 32.8363 117.872 31.9405 119.562 30.3325C121.251 28.7246 122.255 26.5283 122.365 24.2001C122.475 21.8719 121.682 19.5911 120.151 17.8318C118.62 16.0724 116.47 14.97 114.146 14.7536C114.035 11.2109 112.693 7.81717 110.35 5.15483C108.007 2.49249 104.81 0.727538 101.306 0.162858C97.8023 -0.401822 94.2111 0.268981 91.1486 2.06015C88.0861 3.85132 85.7433 6.65117 84.5223 9.97921C83.2663 9.33903 81.8768 9.00383 80.4667 9.00085C78.1579 9.00146 75.9362 9.88125 74.2544 11.4609C72.5726 13.0406 71.5571 15.2014 71.415 17.5028C70.3098 17.316 69.177 17.3727 68.096 17.669C67.0151 17.9654 66.012 18.4942 65.1572 19.2184C64.3023 19.9426 63.6164 20.8446 63.1473 21.8614C62.6782 22.8782 62.4374 23.9851 62.4417 25.1046V25.1438Z" fill="#EDE9E0"/>
<path d="M35.5528 194.693H73.1211C76.9245 194.693 80.0078 197.773 80.0078 201.571V223.115C80.0078 226.913 76.9245 229.992 73.1211 229.992H35.5528C31.7493 229.992 28.666 226.913 28.666 223.115V201.571C28.666 197.773 31.7493 194.693 35.5528 194.693Z" fill="#EDE9E0"/>
<path d="M69.5714 212.031V210.923L60.6478 206.378V208.151L67.493 211.449L67.4375 211.338V211.616L67.493 211.505L60.6478 214.803V216.576L69.5714 212.031ZM52.1659 202.165L56.7386 219.154H58.2351L53.6624 202.165H52.1659ZM60.6478 236.031L69.5714 240.576V238.803L62.7263 235.505L62.7817 235.616V235.338L62.7263 235.449L69.5714 232.151V230.378L60.6478 234.923V236.031Z" fill="#EDE9E0"/>
<path d="M99.1931 166.697V165.669C98.2707 165.669 97.6272 165.476 97.2627 165.089C96.8927 164.703 96.7076 164.057 96.7076 163.151V160.5C96.7076 159.737 96.6358 159.077 96.4922 158.52C96.3431 157.962 96.1028 157.5 95.7714 157.136C95.4401 156.771 94.9982 156.501 94.4459 156.324C93.8936 156.147 93.2114 156.059 92.3995 156.059V157.683C93.0402 157.683 93.5456 157.782 93.9156 157.981C94.2802 158.18 94.5398 158.489 94.6944 158.909C94.8435 159.323 94.9181 159.853 94.9181 160.5V163.813C94.9181 164.244 94.9761 164.636 95.0921 164.99C95.2026 165.343 95.4097 165.647 95.7135 165.901C96.0172 166.155 96.4508 166.351 97.0142 166.489C97.572 166.628 98.2983 166.697 99.1931 166.697ZM92.3995 177.268C93.2114 177.268 93.8936 177.18 94.4459 177.003C94.9982 176.826 95.4401 176.556 95.7714 176.191C96.1028 175.826 96.3431 175.365 96.4922 174.807C96.6358 174.25 96.7076 173.59 96.7076 172.827V170.176C96.7076 169.27 96.8927 168.624 97.2627 168.238C97.6272 167.851 98.2707 167.658 99.1931 167.658V166.63C98.2983 166.63 97.572 166.699 97.0142 166.837C96.4508 166.976 96.0172 167.172 95.7135 167.426C95.4097 167.68 95.2026 167.984 95.0921 168.337C94.9761 168.69 94.9181 169.083 94.9181 169.513V172.827C94.9181 173.474 94.8435 174.004 94.6944 174.418C94.5398 174.832 94.2802 175.139 93.9156 175.338C93.5456 175.542 93.0402 175.644 92.3995 175.644V177.268ZM99.1931 167.658V165.669H97.2379V167.658H99.1931ZM92.4658 194.63V195.658C93.3882 195.658 94.0344 195.851 94.4045 196.238C94.769 196.624 94.9513 197.27 94.9513 198.176V200.827C94.9513 201.59 95.0258 202.25 95.1749 202.807C95.3185 203.365 95.556 203.826 95.8874 204.191C96.2188 204.556 96.6607 204.826 97.213 205.003C97.7653 205.18 98.4474 205.268 99.2593 205.268V203.644C98.6187 203.644 98.116 203.542 97.7515 203.338C97.3815 203.139 97.1219 202.832 96.9727 202.418C96.8181 202.004 96.7408 201.474 96.7408 200.827V197.513C96.7408 197.083 96.6855 196.69 96.5751 196.337C96.4591 195.984 96.2492 195.68 95.9454 195.426C95.6416 195.172 95.2108 194.976 94.653 194.837C94.0896 194.699 93.3606 194.63 92.4658 194.63ZM99.2593 184.059C98.4474 184.059 97.7653 184.147 97.213 184.324C96.6607 184.501 96.2188 184.771 95.8874 185.136C95.556 185.5 95.3185 185.962 95.1749 186.52C95.0258 187.077 94.9513 187.737 94.9513 188.5V191.151C94.9513 192.057 94.769 192.703 94.4045 193.089C94.0344 193.476 93.3882 193.669 92.4658 193.669V194.697C93.3606 194.697 94.0896 194.628 94.653 194.489C95.2108 194.351 95.6416 194.155 95.9454 193.901C96.2492 193.647 96.4591 193.343 96.5751 192.99C96.6855 192.636 96.7408 192.244 96.7408 191.813V188.5C96.7408 187.853 96.8181 187.323 96.9727 186.909C97.1219 186.489 97.3815 186.18 97.7515 185.981C98.116 185.782 98.6187 185.683 99.2593 185.683V184.059ZM92.4658 193.669V195.658H94.421V193.669H92.4658Z" fill="#EDE9E0"/>
<path d="M391.503 10.9082V10.1015C390.779 10.1015 390.274 9.94966 389.987 9.64606C389.697 9.34246 389.551 8.83502 389.551 8.12373V6.04192C389.551 5.44339 389.495 4.92511 389.382 4.48706C389.265 4.04901 389.076 3.68686 388.816 3.40061C388.556 3.11436 388.209 2.90184 387.775 2.76305C387.342 2.62426 386.806 2.55487 386.168 2.55487V3.82998C386.672 3.82998 387.068 3.90805 387.359 4.06419C387.645 4.22032 387.849 4.4632 387.971 4.79282C388.088 5.11811 388.146 5.53447 388.146 6.04192V8.64419C388.146 8.98248 388.192 9.29042 388.283 9.56799C388.37 9.84557 388.532 10.0841 388.771 10.2836C389.009 10.4831 389.35 10.6371 389.792 10.7455C390.23 10.854 390.8 10.9082 391.503 10.9082ZM386.168 19.2094C386.806 19.2094 387.342 19.14 387.775 19.0012C388.209 18.8624 388.556 18.6499 388.816 18.3637C389.076 18.0774 389.265 17.7153 389.382 17.2772C389.495 16.8392 389.551 16.3209 389.551 15.7224V13.6406C389.551 12.9293 389.697 12.4218 389.987 12.1182C390.274 11.8146 390.779 11.6628 391.503 11.6628V10.8561C390.8 10.8561 390.23 10.9103 389.792 11.0188C389.35 11.1272 389.009 11.2812 388.771 11.4807C388.532 11.6802 388.37 11.9187 388.283 12.1963C388.192 12.4739 388.146 12.7818 388.146 13.1201V15.7224C388.146 16.2298 388.088 16.6462 387.971 16.9715C387.849 17.2967 387.645 17.5375 387.359 17.6936C387.068 17.8541 386.672 17.9343 386.168 17.9343V19.2094ZM391.503 11.6628V10.1015H389.968V11.6628H391.503ZM379.583 10.8561V11.6628C380.307 11.6628 380.815 11.8146 381.105 12.1182C381.392 12.4218 381.535 12.9293 381.535 13.6406V15.7224C381.535 16.3209 381.593 16.8392 381.71 17.2772C381.823 17.7153 382.01 18.0774 382.27 18.3637C382.53 18.6499 382.877 18.8624 383.311 19.0012C383.745 19.14 384.28 19.2094 384.918 19.2094V17.9343C384.415 17.9343 384.02 17.8541 383.734 17.6936C383.443 17.5375 383.239 17.2967 383.122 16.9715C383.001 16.6462 382.94 16.2298 382.94 15.7224V13.1201C382.94 12.7818 382.897 12.4739 382.81 12.1963C382.719 11.9187 382.554 11.6802 382.315 11.4807C382.077 11.2812 381.739 11.1272 381.301 11.0188C380.858 10.9103 380.286 10.8561 379.583 10.8561ZM384.918 2.55487C384.28 2.55487 383.745 2.62426 383.311 2.76305C382.877 2.90184 382.53 3.11436 382.27 3.40061C382.01 3.68686 381.823 4.04901 381.71 4.48706C381.593 4.92511 381.535 5.44339 381.535 6.04192V8.12373C381.535 8.83502 381.392 9.34246 381.105 9.64606C380.815 9.94966 380.307 10.1015 379.583 10.1015V10.9082C380.286 10.9082 380.858 10.854 381.301 10.7455C381.739 10.6371 382.077 10.4831 382.315 10.2836C382.554 10.0841 382.719 9.84557 382.81 9.56799C382.897 9.29042 382.94 8.98248 382.94 8.64419V6.04192C382.94 5.53447 383.001 5.11811 383.122 4.79282C383.239 4.4632 383.443 4.22032 383.734 4.06419C384.02 3.90805 384.415 3.82998 384.918 3.82998V2.55487ZM379.583 10.1015V11.6628H381.118V10.1015H379.583Z" fill="#EDE9E0"/>
<path d="M224.14 13.198H328.813C333.308 13.198 336.953 16.838 336.953 21.3282V97.2879C336.953 101.778 333.308 105.418 328.813 105.418H224.14C219.644 105.418 216 101.778 216 97.2879V21.3282C216 16.838 219.644 13.198 224.14 13.198Z" fill="#A6A6A6"/>
<path d="M254.745 33.2336V32.3899L247.952 28.9305V30.2805L253.162 32.7907L253.12 32.7063V32.9172L253.162 32.8329L247.952 35.343V36.693L254.745 33.2336ZM241.496 25.7243L244.977 38.6547H246.116L242.635 25.7243H241.496ZM247.952 51.2336L254.745 54.693V53.343L249.534 50.8329L249.577 50.9172V50.7063L249.534 50.7907L254.745 48.2805V46.9305L247.952 50.3899V51.2336Z" fill="#EDE9E0"/>
<path d="M300.382 34.4871H268.182C267.988 34.4871 267.801 34.4098 267.663 34.2722C267.525 34.1345 267.448 33.9479 267.448 33.7533C267.448 33.5587 267.525 33.3721 267.663 33.2344C267.801 33.0968 267.988 33.0195 268.182 33.0195H300.382C300.577 33.0195 300.764 33.0968 300.902 33.2344C301.04 33.3721 301.117 33.5587 301.117 33.7533C301.117 33.9479 301.04 34.1345 300.902 34.2722C300.764 34.4098 300.577 34.4871 300.382 34.4871Z" fill="#EDE9E0"/>
<path d="M325.734 47.0785H236.256C235.061 47.0785 233.817 47.1861 232.621 47.0785H232.455C232.26 47.0785 232.073 47.0012 231.935 46.8636C231.798 46.726 231.72 46.5394 231.72 46.3448C231.72 46.1501 231.798 45.9635 231.935 45.8259C232.073 45.6883 232.26 45.611 232.455 45.611H321.943C323.128 45.611 324.382 45.5132 325.567 45.611C325.623 45.6157 325.679 45.6157 325.734 45.611C325.929 45.611 326.116 45.6883 326.254 45.8259C326.391 45.9635 326.469 46.1501 326.469 46.3448C326.469 46.5394 326.391 46.726 326.254 46.8636C326.116 47.0012 325.929 47.0785 325.734 47.0785Z" fill="#EDE9E0"/>
<path d="M243.054 61.9006H232.455C232.26 61.9006 232.073 61.8233 231.935 61.6857C231.798 61.5481 231.72 61.3615 231.72 61.1669C231.72 60.9723 231.798 60.7856 231.935 60.648C232.073 60.5104 232.26 60.4331 232.455 60.4331H243.054C243.249 60.4331 243.436 60.5104 243.574 60.648C243.712 60.7856 243.789 60.9723 243.789 61.1669C243.789 61.3615 243.712 61.5481 243.574 61.6857C243.436 61.8233 243.249 61.9006 243.054 61.9006Z" fill="#EDE9E0"/>
<path d="M299.242 61.9006H254.591C254.396 61.9006 254.209 61.8233 254.071 61.6857C253.934 61.5481 253.856 61.3615 253.856 61.1669C253.856 60.9723 253.934 60.7856 254.071 60.648C254.209 60.5104 254.396 60.4331 254.591 60.4331H299.242C299.437 60.4331 299.624 60.5104 299.761 60.648C299.899 60.7856 299.977 60.9723 299.977 61.1669C299.977 61.3615 299.899 61.5481 299.761 61.6857C299.624 61.8233 299.437 61.9006 299.242 61.9006Z" fill="#EDE9E0"/>
<path d="M325.734 74.1791H236.256C235.061 74.1791 233.817 74.2769 232.621 74.1791H232.455C232.26 74.1791 232.073 74.1018 231.935 73.9641C231.798 73.8265 231.72 73.6399 231.72 73.4453C231.72 73.2507 231.798 73.0641 231.935 72.9264C232.073 72.7888 232.26 72.7115 232.455 72.7115H321.943C323.128 72.7115 324.382 72.6039 325.567 72.7115H325.734C325.929 72.7115 326.116 72.7888 326.254 72.9264C326.391 73.0641 326.469 73.2507 326.469 73.4453C326.469 73.6399 326.391 73.8265 326.254 73.9641C326.116 74.1018 325.929 74.1791 325.734 74.1791Z" fill="#EDE9E0"/>
<path d="M259.703 87.7195H232.45C232.255 87.7195 232.068 87.6422 231.93 87.5046C231.793 87.367 231.715 87.1803 231.715 86.9857C231.715 86.7911 231.793 86.6045 231.93 86.4669C232.068 86.3293 232.255 86.252 232.45 86.252H259.703C259.898 86.252 260.085 86.3293 260.222 86.4669C260.36 86.6045 260.438 86.7911 260.438 86.9857C260.438 87.1803 260.36 87.367 260.222 87.5046C260.085 87.6422 259.898 87.7195 259.703 87.7195Z" fill="#EDE9E0"/>
<path d="M299.242 87.7195H268.178C267.983 87.7195 267.796 87.6422 267.659 87.5046C267.521 87.367 267.443 87.1803 267.443 86.9857C267.443 86.7911 267.521 86.6045 267.659 86.4669C267.796 86.3293 267.983 86.252 268.178 86.252H299.242C299.437 86.252 299.624 86.3293 299.761 86.4669C299.899 86.6045 299.977 86.7911 299.977 86.9857C299.977 87.1803 299.899 87.367 299.761 87.5046C299.624 87.6422 299.437 87.7195 299.242 87.7195Z" fill="#EDE9E0"/>
<path d="M214.71 158.553H285.242V198.206H214.71V158.553Z" fill="#EDE9E0" stroke="#7BBC48" stroke-miterlimit="10"/>
<path d="M278.575 162.173C278.575 162.529 278.681 162.878 278.879 163.174C279.078 163.47 279.36 163.701 279.69 163.837C280.02 163.973 280.383 164.008 280.732 163.937C281.082 163.867 281.404 163.695 281.655 163.442C281.907 163.189 282.078 162.868 282.146 162.518C282.215 162.168 282.178 161.806 282.04 161.477C281.902 161.148 281.669 160.868 281.371 160.671C281.074 160.474 280.724 160.371 280.367 160.372C279.891 160.375 279.435 160.566 279.099 160.903C278.763 161.24 278.575 161.697 278.575 162.173Z" fill="#7BBC48"/>
<path d="M271.223 162.173C271.223 162.529 271.329 162.878 271.528 163.174C271.726 163.47 272.008 163.701 272.338 163.837C272.668 163.973 273.031 164.008 273.381 163.937C273.731 163.867 274.052 163.695 274.304 163.442C274.555 163.189 274.726 162.868 274.795 162.518C274.863 162.168 274.826 161.806 274.688 161.477C274.55 161.148 274.318 160.868 274.02 160.671C273.722 160.474 273.373 160.371 273.016 160.372C272.539 160.375 272.084 160.566 271.748 160.903C271.412 161.24 271.223 161.697 271.223 162.173Z" fill="#7BBC48"/>
<path d="M263.872 162.173C263.872 162.529 263.977 162.877 264.175 163.173C264.373 163.469 264.655 163.7 264.984 163.836C265.314 163.972 265.676 164.008 266.026 163.938C266.375 163.869 266.697 163.697 266.949 163.446C267.201 163.194 267.372 162.873 267.442 162.524C267.511 162.175 267.476 161.813 267.339 161.484C267.203 161.155 266.972 160.874 266.675 160.676C266.379 160.478 266.031 160.372 265.674 160.372C265.197 160.375 264.74 160.565 264.402 160.903C264.065 161.24 263.874 161.696 263.872 162.173Z" fill="#7BBC48"/>
<path d="M285.281 165.695H214.71" stroke="#7BBC48" stroke-miterlimit="10"/>
<path d="M325.54 27.9419H373.953V60.5604H325.54V27.9419Z" fill="#EDE9E0" stroke="#7BBC48" stroke-miterlimit="10"/>
<path d="M369.911 32.4031C369.094 32.4031 368.432 31.7417 368.432 30.9258C368.432 30.1099 369.094 29.4485 369.911 29.4485C370.728 29.4485 371.391 30.1099 371.391 30.9258C371.391 31.7417 370.728 32.4031 369.911 32.4031Z" fill="#7BBC48"/>
<path d="M362.393 30.9258C362.393 31.218 362.48 31.5036 362.642 31.7466C362.805 31.9895 363.036 32.1789 363.306 32.2907C363.577 32.4025 363.874 32.4317 364.161 32.3747C364.448 32.3177 364.711 32.177 364.918 31.9704C365.125 31.7638 365.266 31.5006 365.323 31.214C365.38 30.9274 365.351 30.6304 365.239 30.3605C365.127 30.0905 364.937 29.8598 364.694 29.6975C364.451 29.5351 364.165 29.4485 363.872 29.4485C363.678 29.4485 363.486 29.4867 363.306 29.5609C363.127 29.6352 362.964 29.744 362.826 29.8812C362.689 30.0184 362.58 30.1812 362.506 30.3605C362.431 30.5397 362.393 30.7318 362.393 30.9258Z" fill="#7BBC48"/>
<path d="M356.346 30.9258C356.346 31.218 356.433 31.5036 356.596 31.7466C356.758 31.9895 356.989 32.1789 357.259 32.2907C357.53 32.4025 357.827 32.4317 358.114 32.3747C358.401 32.3177 358.665 32.177 358.871 31.9704C359.078 31.7638 359.219 31.5006 359.276 31.214C359.333 30.9274 359.304 30.6304 359.192 30.3605C359.08 30.0905 358.891 29.8598 358.647 29.6975C358.404 29.5351 358.118 29.4485 357.825 29.4485C357.434 29.4511 357.059 29.6075 356.782 29.884C356.505 30.1605 356.349 30.5348 356.346 30.9258Z" fill="#7BBC48"/>
<path d="M373.953 33.8218H325.54" stroke="#7BBC48" stroke-miterlimit="10"/>
<path d="M3.70024 75.901H97.3125V134.945H3.70024" fill="#7BBC48"/>
<path d="M3.69044 75.901H97.3125V87.1815H3.69044V75.901Z" fill="#7BBC48"/>
<g opacity="0.2">
<path d="M3.69044 75.901H97.3125V87.1815H3.69044V75.901Z" fill="#2A2A2A"/>
</g>
<path d="M86.7166 81.6146C86.7166 82.1757 86.8833 82.7243 87.1954 83.1909C87.5076 83.6575 87.9513 84.0211 88.4704 84.2359C88.9895 84.4506 89.5607 84.5068 90.1118 84.3973C90.6628 84.2878 91.1691 84.0176 91.5664 83.6208C91.9637 83.224 92.2342 82.7185 92.3439 82.1681C92.4535 81.6177 92.3972 81.0473 92.1822 80.5288C91.9672 80.0104 91.603 79.5673 91.1359 79.2555C90.6687 78.9437 90.1194 78.7773 89.5576 78.7773C88.8041 78.7773 88.0815 79.0763 87.5487 79.6084C87.016 80.1404 86.7166 80.8621 86.7166 81.6146Z" fill="#EDE9E0"/>
<path d="M75.1112 81.6146C75.1092 82.1785 75.275 82.7303 75.5875 83.2C75.9 83.6697 76.3451 84.0361 76.8664 84.2528C77.3877 84.4695 77.9617 84.5267 78.5155 84.4172C79.0694 84.3076 79.5783 84.0363 79.9776 83.6375C80.3768 83.2388 80.6485 82.7306 80.7582 82.1774C80.8679 81.6242 80.8106 81.051 80.5936 80.5304C80.3767 80.0097 80.0098 79.5652 79.5395 79.2531C79.0692 78.941 78.5167 78.7754 77.952 78.7774C77.1986 78.7774 76.476 79.0763 75.9432 79.6084C75.4104 80.1405 75.1112 80.8621 75.1112 81.6146Z" fill="#EDE9E0"/>
<path d="M63.5018 81.6146C63.4998 82.1781 63.6653 82.7295 63.9774 83.199C64.2895 83.6684 64.734 84.0349 65.2547 84.2519C65.7754 84.4688 66.3489 84.5266 66.9026 84.4179C67.4562 84.3091 67.965 84.0388 68.3647 83.641C68.7644 83.2432 69.0368 82.7359 69.1476 82.1834C69.2584 81.6309 69.2025 81.0579 68.9871 80.5371C68.7716 80.0163 68.4062 79.5711 67.9372 79.2578C67.4682 78.9446 66.9167 78.7773 66.3525 78.7773C65.5981 78.7773 64.8745 79.076 64.3402 79.6078C63.8058 80.1396 63.5044 80.8612 63.5018 81.6146Z" fill="#EDE9E0"/>
<path d="M342.672 116.249H420.18V165.166H342.672" fill="#7BBC48"/>
<path d="M342.682 116.249H420.18V125.582H342.682V116.249Z" fill="#7BBC48"/>
<g opacity="0.2">
<path d="M342.682 116.249H420.18V125.582H342.682V116.249Z" fill="#2A2A2A"/>
</g>
<path d="M411.399 120.993C411.401 121.457 411.541 121.91 411.8 122.295C412.06 122.68 412.428 122.98 412.858 123.156C413.287 123.332 413.76 123.377 414.215 123.285C414.671 123.194 415.089 122.969 415.416 122.641C415.744 122.312 415.967 121.893 416.057 121.438C416.147 120.983 416.1 120.511 415.922 120.083C415.743 119.654 415.442 119.288 415.056 119.031C414.669 118.773 414.215 118.636 413.75 118.636C413.441 118.636 413.134 118.697 412.849 118.815C412.563 118.934 412.303 119.108 412.085 119.327C411.866 119.546 411.693 119.806 411.576 120.092C411.458 120.378 411.398 120.684 411.399 120.993Z" fill="#EDE9E0"/>
<path d="M401.79 120.993C401.792 121.457 401.932 121.91 402.191 122.295C402.451 122.68 402.818 122.98 403.248 123.156C403.678 123.332 404.15 123.377 404.606 123.285C405.061 123.194 405.479 122.969 405.807 122.641C406.135 122.312 406.358 121.893 406.448 121.438C406.538 120.983 406.491 120.511 406.312 120.083C406.134 119.654 405.833 119.288 405.446 119.031C405.06 118.773 404.606 118.636 404.141 118.636C403.832 118.636 403.525 118.697 403.239 118.815C402.953 118.934 402.694 119.108 402.475 119.327C402.257 119.546 402.084 119.806 401.966 120.092C401.849 120.378 401.789 120.684 401.79 120.993Z" fill="#EDE9E0"/>
<path d="M392.177 120.993C392.177 121.46 392.315 121.916 392.575 122.304C392.835 122.692 393.204 122.995 393.636 123.173C394.068 123.351 394.544 123.397 395.002 123.305C395.46 123.214 395.881 122.988 396.21 122.657C396.54 122.327 396.764 121.905 396.854 121.447C396.944 120.989 396.896 120.515 396.716 120.084C396.536 119.654 396.232 119.286 395.842 119.028C395.453 118.77 394.995 118.634 394.528 118.636C393.903 118.638 393.305 118.888 392.865 119.33C392.424 119.772 392.177 120.37 392.177 120.993Z" fill="#EDE9E0"/>
<path d="M434 348.638H0.685736" stroke="#2A2A2A" stroke-miterlimit="10"/>
<path d="M268.443 212.177C270.403 209.026 271.696 202.96 271.049 197.11C270.403 191.259 270.177 182.356 277.564 181.926C284.95 181.495 287.448 196.347 287.879 199.536C288.31 202.726 301.447 204.633 311.987 201.366C322.528 198.098 342.169 194.331 350.829 196.474C359.489 198.616 356.266 206.189 356.266 206.189C362.232 210.386 355.678 215.699 355.678 215.699C361.762 221.187 355.002 226.989 350.702 227.556C350.842 228.123 350.858 228.714 350.751 229.288C349.595 235.647 323.253 233.338 308.196 239.981C293.14 246.625 282.726 274.684 282.726 274.684L251.31 237.017C251.31 237.017 266.484 215.327 268.443 212.177Z" fill="#F0858F"/>
<path d="M319.502 212.793C319.502 212.793 349.615 210.19 355.699 215.728C361.782 221.265 355.023 226.979 350.732 227.546" stroke="#2A2A2A" stroke-miterlimit="10"/>
<path d="M319.5 206.14C319.5 206.14 342.227 200.074 353.522 204.692C364.004 208.987 355.697 215.689 355.697 215.689" stroke="#2A2A2A" stroke-miterlimit="10"/>
<path d="M356.295 206.169C356.295 206.169 359.547 198.607 350.858 196.454C342.168 194.302 322.547 198.039 312.006 201.346C301.465 204.653 288.338 202.667 287.907 199.516C287.476 196.366 284.969 181.524 277.592 181.906C270.216 182.288 270.421 191.23 271.078 197.09C271.734 202.951 270.421 209.007 268.472 212.157C266.522 215.307 251.319 236.988 251.319 236.988L282.735 274.654C282.735 274.654 293.158 246.605 308.205 239.952C323.252 233.299 349.614 235.637 350.73 229.278C351.847 222.919 340.307 220.023 322.645 222.048" stroke="#2A2A2A" stroke-miterlimit="10"/>
<path d="M295.211 261.388L247.876 234.141C247.876 234.141 206.859 308.124 153.97 327.192L216.969 350.947L267.468 347.699C267.468 347.699 287.619 305.346 295.211 261.388Z" fill="#FDC844"/>
<path d="M154.411 327.016L155.391 326.644V327.75L154.411 327.378V327.016Z" fill="#EDE9E0"/>
<path d="M174.952 319.923V335.068L173.973 334.696V319.923H169.408L171.092 318.945H173.973V317.174L174.952 316.548V318.945H193.565V302.313L194.545 301.432V318.945H213.157V299.475H196.719L197.777 298.497H213.099V282.579L214.078 281.464V298.536H232.691V279.067H216.135C216.419 278.744 216.694 278.421 216.968 278.088H232.642V258.629H232.025L233.641 256.33V257.611H252.254V238.142H245.534C245.739 237.79 245.935 237.467 246.121 237.164H252.254V236.606L254.918 238.142H253.233V257.611H271.846V247.828L272.826 248.395V257.572H288.705L290.4 258.551H272.767V278.01H291.38V259.167L292.359 259.734V275.613C292.046 276.993 291.713 278.372 291.38 279.742V279.067H272.767V298.536H286.149C286.051 298.869 285.953 299.192 285.845 299.515H272.767V318.945H279.223C279.105 319.277 278.978 319.6 278.86 319.923H272.718V335.645C272.385 336.457 272.052 337.24 271.738 337.984V319.923H253.126V339.392H271.19C271.053 339.725 270.906 340.058 270.769 340.371H253.204V348.579L252.224 348.638V340.371H233.612V349.831L232.632 349.9V340.371H214.019V349.822L213.04 349.45V340.371H194.427V342.445L193.447 342.073V340.371H188.931L186.335 339.392H193.447V319.923H174.952ZM253.204 318.945H271.817V299.475H253.204V318.945ZM253.204 298.497H271.817V279.028H253.204V298.497ZM253.204 278.049H271.817V258.629H253.204V278.049ZM233.612 339.392H252.224V319.923H233.612V339.392ZM233.612 318.945H252.224V299.475H233.612V318.945ZM233.612 298.497H252.224V279.028H233.612V298.497ZM233.612 278.049H252.224V258.629H233.612V278.049ZM214.019 339.392H232.632V319.923H214.019V339.392ZM214.019 318.945H232.632V299.475H214.019V318.945ZM194.427 339.392H213.04V319.923H194.427V339.392Z" fill="#EDE9E0"/>
<path d="M295.211 261.388L247.876 234.141C247.876 234.141 206.859 308.124 153.97 327.192L216.969 350.947L267.468 347.699C267.468 347.699 287.619 305.346 295.211 261.388Z" stroke="#2A2A2A" stroke-miterlimit="10"/>
<path d="M291.023 280.349L237.125 251.947" stroke="#2A2A2A" stroke-miterlimit="10"/>
<path d="M245.912 247.525C245.912 248.322 246.149 249.101 246.593 249.764C247.036 250.427 247.666 250.944 248.404 251.249C249.141 251.554 249.953 251.634 250.736 251.478C251.519 251.322 252.238 250.939 252.802 250.375C253.367 249.811 253.751 249.093 253.907 248.311C254.063 247.529 253.983 246.719 253.677 245.982C253.372 245.246 252.854 244.616 252.191 244.173C251.527 243.73 250.747 243.494 249.948 243.494C248.878 243.494 247.851 243.918 247.094 244.674C246.338 245.43 245.912 246.456 245.912 247.525Z" fill="#2A2A2A"/>
<path d="M94.8737 277.433C94.8737 277.433 82.2464 310.697 128.592 322.438C174.938 334.178 229.493 332.153 229.493 332.153C229.493 332.153 235.037 332.231 234.704 317.722C234.371 303.213 235.028 274.547 216.366 242.887C197.704 211.228 186.096 199.624 176.633 196.014C173.341 194.762 150.487 192.854 137.869 200.153C114.211 213.869 95.9415 245.969 94.8737 277.433Z" fill="#FDC844"/>
<path d="M109.355 295.64H94.3865C94.2984 295.308 94.2102 294.985 94.1318 294.662H109.355V275.193H94.9939C94.9939 274.86 94.9939 274.537 95.0527 274.214H109.355V254.745H98.5205C98.6087 254.422 98.6969 254.089 98.7948 253.767H109.355V234.297H106.73L107.269 233.319H109.355V229.64C109.669 229.102 110.002 228.584 110.335 228.055V233.319H128.947V213.85H121.111C121.414 213.517 121.728 213.204 122.031 212.871H128.889V206.434C129.212 206.169 129.535 205.905 129.868 205.651V212.861H148.481V196.356L149.461 196.151V212.871H168.073V194.948L169.053 194.997V212.871H187.666V203.322L188.645 204.301V212.92H196.384L197.158 213.898H188.645V233.368H207.258V228.085L208.238 229.582V233.368H210.55L211.157 234.346H208.15V253.815H222.089C222.246 254.138 222.403 254.471 222.55 254.794H208.15V274.263H226.762V265.057C227.095 266.035 227.428 266.955 227.742 267.904V274.263H229.701L229.966 275.241H227.781V294.711H233.59L233.708 295.689H227.781V315.149H234.727C234.727 315.481 234.727 315.814 234.727 316.127H227.761V332.28H226.782V316.078H208.169V332.172H207.19V316.078H188.577V331.282L187.597 331.223V316.078H168.984V329.55L168.005 329.443V316.078H149.392V326.84L148.412 326.674V316.078H129.8V322.79L128.82 322.545V316.078H111.716C110.864 315.609 110.041 315.1 109.257 314.63L109.355 295.64ZM208.15 315.1H226.762V295.64H208.15V315.1ZM208.15 294.662H226.762V275.193H208.15V294.662ZM188.557 315.1H207.17V295.64H188.557V315.1ZM188.557 294.662H207.17V275.193H188.557V294.662ZM188.557 274.214H207.17V254.745H188.557V274.214ZM188.557 253.767H207.17V234.297H188.557V253.767ZM168.965 315.1H187.578V295.64H168.965V315.1ZM168.965 294.662H187.578V275.193H168.965V294.662ZM168.965 274.214H187.578V254.745H168.965V274.214ZM168.965 253.767H187.578V234.297H168.965V253.767ZM168.965 233.319H187.578V213.85H168.965V233.319ZM149.372 315.1H167.985V295.64H149.372V315.1ZM149.372 294.662H167.985V275.193H149.372V294.662ZM149.372 274.214H167.985V254.745H149.372V274.214ZM149.372 253.767H167.985V234.297H149.372V253.767ZM149.372 233.319H167.985V213.85H149.372V233.319ZM129.78 315.1H148.393V295.64H129.78V315.1ZM129.78 294.662H148.393V275.193H129.78V294.662ZM129.78 274.214H148.393V254.745H129.78V274.214ZM129.78 253.767H148.393V234.297H129.78V253.767ZM129.78 233.319H148.393V213.85H129.78V233.319ZM110.188 315.1H128.801V295.64H110.188V315.1ZM110.188 294.662H128.801V275.193H110.188V294.662ZM110.188 274.214H128.801V254.745H110.188V274.214ZM110.188 253.767H128.801V234.297H110.188V253.767Z" fill="#EDE9E0"/>
<path d="M180.025 196.043C180.025 196.043 243.789 250.049 233.61 329.951" stroke="#2A2A2A" stroke-miterlimit="10"/>
<path d="M136.197 312.096L132.563 362.726L192.936 356.7C194.759 356.222 196.674 356.219 198.499 356.69C200.323 357.161 201.996 358.09 203.36 359.39C207.944 363.89 207.866 366.307 208.258 367.843C208.649 369.379 209.972 375.093 212.646 378.096C215.321 381.1 217.544 381.031 219.504 379.075L221.463 377.118C221.463 377.118 222.227 376.727 223.256 377.734C224.284 378.742 226.939 379.916 228.399 377.91C229.858 375.905 229.917 376.13 229.917 376.13C229.917 376.13 230.377 375.288 231.21 376.13C232.043 376.971 235.707 378.351 237.607 376.13C238.619 374.968 239.508 373.706 240.262 372.363C240.836 372.266 241.427 372.355 241.947 372.617C243.083 373.058 247.736 374.183 250.293 368.704C252.85 363.225 251.273 354.87 250.293 349.391C249.313 343.912 244.592 332.055 240.34 327.261C236.089 322.467 228.056 316.91 219.651 315.52C211.245 314.131 187.862 313.192 177.997 312.957C168.132 312.722 136.197 312.096 136.197 312.096Z" fill="#F0858F"/>
<path d="M212.603 341.789C212.603 341.789 221.419 357.375 223.055 365.945C224.691 374.516 219.813 380.62 217.021 380.454C214.229 380.288 210.261 377.382 208.527 369.076C206.793 360.77 201.141 356.514 196.997 356.426C192.854 356.338 129.404 363.03 129.404 363.03" stroke="#2A2A2A" stroke-miterlimit="10"/>
<path d="M223.687 339.735C223.687 339.735 230.985 356.435 231.691 365.172C232.396 373.909 228.409 378.732 226.499 379.006C224.589 379.28 221.699 376.492 221.699 376.492" stroke="#2A2A2A" stroke-miterlimit="10"/>
<path d="M233.373 333.62C233.373 333.62 241.327 349.381 241.836 358.49C242.346 367.599 240.553 374.056 237.066 376.404C233.578 378.752 230.071 375.298 230.071 375.298" stroke="#2A2A2A" stroke-miterlimit="10"/>
<path d="M134.572 312.096C134.572 312.096 194.868 312.556 214.391 314.611C233.915 316.665 242.301 327.329 246.719 338.199C251.137 349.068 252.596 363.333 250.04 368.254C245.602 376.697 240.557 371.629 240.557 371.629" stroke="#2A2A2A" stroke-miterlimit="10"/>
<path d="M129.798 243.523C129.798 243.523 95.8734 273.285 100.615 292.539C105.356 311.793 182.805 309.934 182.805 309.934V364.722C182.805 364.722 148.832 363.959 119.717 367.804C85.6658 372.285 32.0611 359.664 26.6537 319.375C21.2462 279.086 54.3278 206.15 143.865 194.145L129.798 243.523Z" fill="#FDC844"/>
<path d="M31.1011 315.1V295.64H27.4569C27.5059 295.308 27.5745 294.985 27.6333 294.662H31.1011V281.229C31.4048 280.251 31.7379 279.331 32.0807 278.382V294.662H50.6935V275.192H33.2955L33.6873 274.214H50.6641V254.745H43.6598C43.8655 254.422 44.0712 254.089 44.2868 253.766H50.6641V244.795C50.9874 244.384 51.3106 243.963 51.6437 243.552V253.766H70.2564V234.297H59.7843L60.7639 233.319H70.2075V224.748L71.1871 223.956V233.319H89.7998V213.849H85.6854L87.3214 212.871H89.7998V211.462L90.7794 210.934V212.891H109.392V202.52L110.372 202.178V212.94H128.985V196.738L129.964 196.523V212.871H138.575L138.301 213.849H129.964V233.319H132.766L132.492 234.297H129.964V243.21L129.866 243.523L128.985 244.325V234.297H110.372V253.766H119.531L118.64 254.745H110.372V264.871C110.039 265.321 109.715 265.781 109.392 266.241V254.745H90.7794V274.214H104.435C104.259 274.537 104.092 274.86 103.926 275.192H90.7696V294.662H101.487C101.679 295 101.892 295.327 102.123 295.64H90.7696V315.1H109.382V301.002C109.696 301.158 110.029 301.305 110.362 301.452V315.1H128.975V306.539L129.954 306.705V315.1H148.567V308.897L149.547 308.975V315.1H168.159V309.875H169.139V315.08H182.805V316.059H169.021V335.577H182.805V336.555H169.021V356.024H182.805V357.003H169.021V364.693H168.042V356.993H149.429V365.26L148.45 365.309V356.993H129.837V366.63L128.857 366.728V356.993H110.244V368.557H109.265V356.973H90.6521V367.647L89.6725 367.53V356.973H71.0597V363.489L70.0801 363.186V356.973H55.1605C54.563 356.651 53.9654 356.328 53.3776 355.995H70.2271V336.555H51.6143V354.919L50.6347 354.322V336.555H32.6097C32.0612 335.655 31.5517 334.726 31.0717 333.777V316.078H26.2814C26.2814 315.755 26.2226 315.432 26.203 315.1H31.1011ZM110.333 233.319H128.945V213.849H110.333V233.319ZM149.459 355.995H168.071V336.555H149.459V355.995ZM149.459 335.547H168.071V316.078H149.459V335.547ZM129.866 355.995H148.479V336.555H129.866V355.995ZM129.866 335.547H148.479V316.078H129.866V335.547ZM110.274 355.995H128.887V336.555H110.274V355.995ZM110.274 335.547H128.887V316.078H110.274V335.547ZM90.6815 355.995H109.294V336.555H90.6815V355.995ZM90.6815 335.547H109.294V316.078H90.6815V335.547ZM90.6815 253.766H109.294V234.297H90.6815V253.766ZM90.6815 233.319H109.294V213.849H90.6815V233.319ZM71.0891 355.995H89.7019V336.555H71.0891V355.995ZM71.0891 335.547H89.7019V316.078H71.0891V335.547ZM71.0891 315.1H89.7019V295.64H71.0891V315.1ZM71.0891 294.662H89.7019V275.192H71.0891V294.662ZM71.0891 274.214H89.7019V254.745H71.0891V274.214ZM71.0891 253.766H89.7019V234.297H71.0891V253.766ZM51.4968 335.547H70.1095V316.078H51.4968V335.547ZM51.4968 315.1H70.1095V295.64H51.4968V315.1ZM51.4968 294.662H70.1095V275.192H51.4968V294.662ZM51.4968 274.214H70.1095V254.745H51.4968V274.214ZM31.9044 335.547H50.5172V316.078H31.9044V335.547ZM31.9044 315.1H50.5172V295.64H31.9044V315.1Z" fill="#EDE9E0"/>
<path d="M129.798 243.523C129.798 243.523 95.8734 273.285 100.615 292.539C105.356 311.793 182.805 309.934 182.805 309.934V364.722C182.805 364.722 148.832 363.959 119.717 367.804C85.6658 372.285 32.0611 359.664 26.6536 319.375C21.2462 279.086 54.3278 206.15 143.865 194.145" stroke="#2A2A2A" stroke-miterlimit="10"/>
<path d="M168.522 354.303C168.522 355.1 168.759 355.88 169.203 356.543C169.646 357.206 170.277 357.723 171.015 358.028C171.754 358.332 172.566 358.412 173.349 358.255C174.132 358.099 174.851 357.714 175.415 357.149C175.979 356.585 176.363 355.865 176.517 355.083C176.672 354.3 176.591 353.49 176.284 352.753C175.977 352.017 175.458 351.388 174.793 350.946C174.128 350.505 173.347 350.27 172.548 350.272C172.018 350.272 171.494 350.376 171.005 350.579C170.516 350.781 170.071 351.079 169.697 351.453C169.323 351.827 169.027 352.272 168.825 352.761C168.624 353.25 168.52 353.774 168.522 354.303Z" fill="#2A2A2A"/>
<path d="M163.031 309.719V364.673" stroke="#2A2A2A" stroke-miterlimit="10"/>
<path d="M132.123 149.307C132.099 151.634 132.769 153.915 134.046 155.861C135.324 157.807 137.151 159.331 139.297 160.237C141.443 161.144 143.81 161.393 146.098 160.953C148.386 160.514 150.492 159.405 152.148 157.768C153.804 156.131 154.935 154.039 155.398 151.759C155.861 149.478 155.636 147.111 154.749 144.959C153.863 142.807 152.357 140.967 150.421 139.671C148.485 138.376 146.208 137.684 143.878 137.684C142.342 137.675 140.819 137.969 139.396 138.548C137.973 139.128 136.679 139.982 135.587 141.061C134.495 142.141 133.627 143.425 133.033 144.84C132.438 146.255 132.129 147.773 132.123 149.307Z" stroke="#2A2A2A" stroke-width="2" stroke-miterlimit="10"/>
<path d="M183.222 113.245H168.528C158.731 113.245 150.718 122.363 150.718 133.507V156.312C150.718 156.964 150.747 157.6 150.806 158.22C150.637 158.905 150.551 159.608 150.552 160.314V188.823C150.546 191.255 151.508 193.59 153.226 195.314C154.943 197.039 157.276 198.012 159.711 198.02H165.589C168.02 198.014 170.35 197.048 172.07 195.332C173.79 193.616 174.76 191.29 174.768 188.862V176.574H183.222C193.018 176.574 201.031 167.456 201.031 156.312V133.507C201.051 122.363 193.018 113.245 183.222 113.245Z" fill="#F0858F" stroke="#2A2A2A" stroke-miterlimit="10"/>
<path d="M154.548 148.935L157.272 131.1C157.272 131.1 206.733 137.264 222.818 113.245C238.903 89.2263 222.005 79.7264 213.845 81.0863C205.684 82.4462 196.143 94.118 196.143 94.118C196.143 94.118 203.735 83.7964 196.143 82.1723C188.551 80.5482 180.156 88.4142 175.786 96.5639C175.786 96.5639 143.155 93.531 132.125 113.196C121.094 132.861 130.028 146.959 150.209 167.299L151.56 155.901L154.548 148.935Z" fill="#2A2A2A"/>
<path d="M174.255 140.639C174.253 141.236 174.428 141.82 174.759 142.317C175.09 142.814 175.561 143.202 176.113 143.431C176.664 143.66 177.272 143.721 177.858 143.605C178.444 143.489 178.983 143.201 179.405 142.779C179.828 142.357 180.115 141.82 180.232 141.234C180.348 140.649 180.287 140.042 180.058 139.491C179.828 138.94 179.44 138.47 178.942 138.139C178.444 137.809 177.86 137.633 177.262 137.635C176.465 137.638 175.702 137.955 175.138 138.518C174.575 139.081 174.257 139.843 174.255 140.639Z" fill="#2A2A2A"/>
<path d="M193.996 140.208C193.996 140.717 194.147 141.215 194.43 141.638C194.713 142.061 195.115 142.391 195.586 142.586C196.057 142.78 196.575 142.831 197.075 142.732C197.574 142.633 198.034 142.388 198.394 142.028C198.754 141.668 199 141.21 199.099 140.71C199.198 140.211 199.147 139.694 198.952 139.224C198.757 138.754 198.427 138.352 198.003 138.069C197.58 137.786 197.082 137.635 196.572 137.635C195.889 137.635 195.233 137.906 194.75 138.389C194.267 138.872 193.996 139.526 193.996 140.208Z" fill="#2A2A2A"/>
<path d="M191.055 152.497C191.055 152.497 189.546 156.899 186.343 157.203C183.139 157.506 180.641 153.964 180.465 151.205L191.055 152.497Z" fill="#EDE9E0"/>
<path d="M191.4 152.624C190.888 154.187 189.944 155.575 188.677 156.625C186.433 158.367 183.573 157.477 181.898 155.412C180.912 154.23 180.311 152.776 180.174 151.244C180.172 151.201 180.18 151.157 180.196 151.117C180.213 151.076 180.237 151.04 180.269 151.009C180.3 150.979 180.337 150.955 180.378 150.94C180.419 150.925 180.463 150.919 180.507 150.922L189.774 152.047L191.087 152.213C191.498 152.262 191.508 152.917 191.087 152.868L181.819 151.734L180.507 151.567L180.83 151.244C181.006 153.583 182.681 156.195 185.042 156.811C187.403 157.428 189.039 155.735 190.078 153.876C190.354 153.406 190.587 152.912 190.773 152.399C190.91 152.017 191.547 152.184 191.4 152.624Z" fill="#2A2A2A"/>
<path d="M162.026 138.927C162.026 145.404 166.738 150.667 172.538 150.667C178.337 150.667 183.039 145.423 183.039 138.927C183.039 132.431 178.337 127.187 172.538 127.187C166.738 127.187 162.026 132.411 162.026 138.927Z" stroke="#2A2A2A" stroke-miterlimit="10"/>
<path d="M190.075 137.41C190.075 143.202 193.993 147.898 198.725 147.898C203.457 147.898 207.375 143.202 207.375 137.41C207.375 131.618 203.457 126.932 198.725 126.932C193.993 126.932 190.075 131.618 190.075 137.41Z" stroke="#2A2A2A" stroke-miterlimit="10"/>
<path d="M187.011 137.675V147.859L192.359 144.611L187.011 137.675Z" fill="#EDE9E0"/>
<path d="M190.336 140.551C190.336 140.551 185.869 138.858 182.803 141.392" stroke="#2A2A2A" stroke-miterlimit="10"/>
<path d="M162.047 139.318L147.793 142.292" stroke="#2A2A2A" stroke-miterlimit="10"/>
<path d="M132.123 149.307C132.099 151.634 132.769 153.915 134.046 155.861C135.324 157.807 137.151 159.331 139.297 160.237C141.443 161.144 143.81 161.393 146.098 160.953C148.386 160.514 150.492 159.405 152.148 157.768C153.804 156.131 154.935 154.039 155.398 151.759C155.861 149.478 155.636 147.111 154.749 144.959C153.863 142.807 152.357 140.967 150.421 139.671C148.485 138.376 146.208 137.684 143.878 137.684C142.342 137.675 140.819 137.969 139.396 138.548C137.973 139.128 136.679 139.982 135.587 141.061C134.495 142.141 133.627 143.425 133.033 144.84C132.438 146.255 132.129 147.773 132.123 149.307Z" fill="#F0858F"/>
<path d="M149.792 150.843C149.939 148.495 148.93 145.785 146.637 144.719C145.36 144.197 143.966 144.028 142.601 144.23C142.082 144.288 142.082 143.476 142.601 143.427C144.913 143.183 147.421 143.623 148.969 145.511C149.923 146.753 150.483 148.253 150.575 149.816C150.6 150.158 150.6 150.501 150.575 150.843C150.575 151.362 149.733 151.362 149.762 150.843H149.792Z" fill="#2A2A2A"/>
<path d="M140.645 190.173H182.915C184.446 190.173 185.688 191.413 185.688 192.942V200.192C185.688 201.721 184.446 202.96 182.915 202.96H140.645C139.114 202.96 137.872 201.721 137.872 200.192V192.942C137.872 191.413 139.114 190.173 140.645 190.173Z" fill="#FDC844"/>
<path d="M175.783 196.298C175.781 196.744 175.912 197.18 176.158 197.552C176.405 197.923 176.757 198.213 177.169 198.385C177.581 198.556 178.035 198.601 178.473 198.515C178.911 198.428 179.313 198.214 179.629 197.899C179.945 197.583 180.16 197.181 180.246 196.744C180.333 196.307 180.287 195.853 180.116 195.442C179.944 195.03 179.654 194.679 179.282 194.432C178.91 194.186 178.473 194.055 178.026 194.057C177.431 194.057 176.861 194.293 176.44 194.713C176.019 195.134 175.783 195.704 175.783 196.298Z" fill="#2A2A2A"/>
<path d="M148.483 202.96V193.412H137.874V192.942C137.876 192.771 137.892 192.601 137.923 192.433H148.483V190.173H149.463V192.433H168.076V190.173H169.055V192.433H185.709C185.74 192.601 185.756 192.771 185.758 192.942V193.412H169.104V202.96H168.125V193.412H149.512V202.96H148.483Z" fill="#EDE9E0"/>
<path d="M140.645 190.173H182.915C184.446 190.173 185.688 191.413 185.688 192.942V200.192C185.688 201.721 184.446 202.96 182.915 202.96H140.645C139.114 202.96 137.872 201.721 137.872 200.192V192.942C137.872 191.413 139.114 190.173 140.645 190.173Z" stroke="#2A2A2A" stroke-miterlimit="10"/>
<path d="M41.3521 334.598C44.9075 334.598 48.3829 335.651 51.3391 337.624C54.2952 339.597 56.5992 342.401 57.9598 345.681C59.3203 348.961 59.6763 352.571 58.9827 356.054C58.2891 359.536 56.5771 362.735 54.0631 365.246C51.5491 367.757 48.3461 369.466 44.8591 370.159C41.3721 370.852 37.7577 370.496 34.473 369.138C31.1883 367.779 28.3809 365.478 26.4057 362.525C24.4304 359.573 23.3761 356.102 23.3761 352.551C23.3787 347.791 25.2735 343.226 28.6441 339.86C32.0147 336.493 36.5854 334.601 41.3521 334.598ZM41.3521 363.89C43.5977 363.89 45.7928 363.225 47.66 361.979C49.5271 360.733 50.9823 358.963 51.8417 356.891C52.701 354.819 52.9258 352.539 52.4878 350.339C52.0497 348.14 50.9683 346.119 49.3805 344.533C47.7926 342.947 45.7696 341.867 43.5672 341.43C41.3647 340.992 39.0819 341.217 37.0072 342.075C34.9326 342.933 33.1594 344.387 31.9118 346.252C30.6643 348.116 29.9984 350.309 29.9984 352.551C30.0113 355.551 31.2129 358.424 33.3405 360.541C35.4681 362.659 38.3485 363.849 41.3521 363.851V363.89Z" fill="#EDE9E0" stroke="#2A2A2A" stroke-miterlimit="10"/>
<path d="M46.3361 324.335H84.3746C87.5505 324.335 90.125 326.907 90.125 330.078V375.582C90.125 378.754 87.5505 381.325 84.3746 381.325H46.3361C43.1602 381.325 40.5857 378.754 40.5857 375.582V330.078C40.5857 326.907 43.1602 324.335 46.3361 324.335Z" fill="#EDE9E0" stroke="#2A2A2A" stroke-miterlimit="10"/>
<path d="M61.0068 352.512H69.7157C74.0709 352.512 77.6016 356.038 77.6016 360.388V361.249C77.6016 365.599 74.0709 369.125 69.7157 369.125H61.0068C56.6516 369.125 53.1209 365.599 53.1209 361.249V360.388C53.1209 356.038 56.6516 352.512 61.0068 352.512Z" fill="#7BBC48"/>
<path d="M73.2143 363.127H74.0764C75.4235 363.127 76.5156 364.218 76.5156 365.564V370.954C76.5156 372.3 75.4235 373.39 74.0764 373.39H73.2143C71.8672 373.39 70.7751 372.3 70.7751 370.954V365.564C70.7751 364.218 71.8672 363.127 73.2143 363.127Z" fill="#7BBC48"/>
<path d="M56.683 363.44H57.5451C58.8923 363.44 59.9844 364.531 59.9844 365.877V371.267C59.9844 372.613 58.8923 373.703 57.5451 373.703H56.683C55.3359 373.703 54.2438 372.613 54.2438 371.267V365.877C54.2438 364.531 55.3359 363.44 56.683 363.44Z" fill="#7BBC48"/>
<path d="M71.7767 357.101C72.606 353.536 73.1822 349.916 73.5008 346.27C74.02 339.559 70.6893 336.418 63.7047 337.397C60.0017 337.905 58.4049 332.25 62.1471 331.732C69.1318 330.754 77.4487 332.427 79.2414 340.381C80.5247 346.094 78.7026 353.041 77.4585 358.647C76.6454 362.335 70.9734 360.77 71.7963 357.081L71.7767 357.101Z" fill="#7BBC48"/>
<path d="M58.1669 357.678C57.9416 357.394 56.7563 357.805 56.4134 357.913C54.0721 358.676 45.0009 360.74 45.6376 368.567C46.0687 373.782 48.939 375.817 51.437 376.648C51.6276 376.719 51.8369 376.721 52.0286 376.653C52.2204 376.586 52.3825 376.454 52.4871 376.28C52.5917 376.106 52.6321 375.901 52.6013 375.7C52.5706 375.499 52.4706 375.316 52.3186 375.181C51.3541 374.319 50.5743 373.27 50.0263 372.099C48.7038 369.046 51.4468 366.63 58.8429 363.127C59.3425 362.883 58.9996 359.547 58.6469 359.116L58.1669 357.678Z" fill="#7BBC48"/>
<path d="M64.0859 333.258C64.0859 333.427 64.153 333.589 64.2724 333.708C64.3918 333.827 64.5538 333.894 64.7226 333.894C64.8915 333.894 65.0535 333.827 65.1729 333.708C65.2923 333.589 65.3594 333.427 65.3594 333.258C65.3594 333.089 65.2923 332.928 65.1729 332.808C65.0535 332.689 64.8915 332.622 64.7226 332.622C64.5538 332.622 64.3918 332.689 64.2724 332.808C64.153 332.928 64.0859 333.089 64.0859 333.258Z" fill="#2A2A2A"/>
<path d="M64.7952 335.577C64.7372 335.781 64.6371 335.971 64.5014 336.134C64.1878 336.541 63.7622 336.847 63.2768 337.015C62.8496 337.154 62.4036 337.226 61.9543 337.23C61.8564 337.23 61.8564 337.093 61.9543 337.083C62.4775 337.121 63.001 337.013 63.4663 336.772C63.9316 336.53 64.3205 336.163 64.5895 335.714C64.6251 335.67 64.6578 335.624 64.6875 335.577C64.6875 335.489 64.854 335.528 64.8246 335.577H64.7952Z" fill="#2A2A2A"/>
<path d="M66.468 356.24C66.468 356.817 67.2224 357.277 68.153 357.277C69.0836 357.277 69.8281 356.817 69.8281 356.24C69.8281 355.663 69.0738 355.213 68.153 355.213C67.2321 355.213 66.468 355.672 66.468 356.24Z" fill="#7BBC48"/>
<path d="M63.4392 358.177C63.4392 358.5 63.8702 358.764 64.4188 358.764C64.9674 358.764 65.3984 358.5 65.3984 358.177C65.3984 357.854 64.9674 357.58 64.4188 357.58C63.8702 357.58 63.4392 357.844 63.4392 358.177Z" fill="#7BBC48"/>
<path d="M60.3556 354.841C60.3556 355.281 61.1883 355.633 62.2169 355.633C63.2455 355.633 64.0781 355.281 64.0781 354.841C64.0781 354.4 63.2455 354.038 62.2169 354.038C61.1883 354.038 60.3556 354.4 60.3556 354.841Z" fill="#7BBC48"/>
<path d="M58.4563 357.58C57.9748 357.58 57.5844 357.348 57.5844 357.062C57.5844 356.775 57.9748 356.543 58.4563 356.543C58.9378 356.543 59.3281 356.775 59.3281 357.062C59.3281 357.348 58.9378 357.58 58.4563 357.58Z" fill="#7BBC48"/>
<g opacity="0.6">
<path d="M66.468 356.24C66.468 356.817 67.2224 357.277 68.153 357.277C69.0836 357.277 69.8281 356.817 69.8281 356.24C69.8281 355.663 69.0738 355.213 68.153 355.213C67.2321 355.213 66.468 355.672 66.468 356.24Z" fill="#00A481"/>
<path d="M63.4392 358.177C63.4392 358.5 63.8702 358.764 64.4188 358.764C64.9674 358.764 65.3984 358.5 65.3984 358.177C65.3984 357.854 64.9674 357.58 64.4188 357.58C63.8702 357.58 63.4392 357.844 63.4392 358.177Z" fill="#00A481"/>
<path d="M60.3556 354.841C60.3556 355.281 61.1883 355.633 62.2169 355.633C63.2455 355.633 64.0781 355.281 64.0781 354.841C64.0781 354.4 63.2455 354.038 62.2169 354.038C61.1883 354.038 60.3556 354.4 60.3556 354.841Z" fill="#00A481"/>
<path d="M58.4563 357.58C57.9748 357.58 57.5844 357.348 57.5844 357.062C57.5844 356.775 57.9748 356.543 58.4563 356.543C58.9378 356.543 59.3281 356.775 59.3281 357.062C59.3281 357.348 58.9378 357.58 58.4563 357.58Z" fill="#00A481"/>
</g>
<path d="M45.4868 306.148C45.4922 307.956 46.055 309.719 47.0986 311.197C48.1422 312.674 49.6161 313.795 51.3199 314.407C53.0237 315.019 54.8748 315.092 56.6217 314.617C58.3686 314.141 59.9266 313.14 61.0839 311.749C62.2412 310.359 62.9416 308.646 63.0901 306.844C63.2386 305.041 62.828 303.237 61.9139 301.676C60.9998 300.115 59.6267 298.873 57.9812 298.119C56.3356 297.365 54.4974 297.135 52.7163 297.46C50.6935 297.854 48.8692 298.935 47.5518 300.518C46.2345 302.101 45.505 304.09 45.4868 306.148C45.4609 306.422 45.3336 306.676 45.1298 306.862C44.9259 307.047 44.6603 307.149 44.3847 307.149C44.1091 307.149 43.8435 307.047 43.6396 306.862C43.4358 306.676 43.3085 306.422 43.2826 306.148C43.2824 303.877 43.9839 301.661 45.2914 299.802C46.5988 297.944 48.4485 296.534 50.5881 295.764C52.7277 294.994 55.053 294.903 57.2467 295.502C59.4403 296.101 61.3955 297.361 62.8455 299.111C64.2955 300.86 65.1696 303.014 65.3485 305.278C65.5275 307.543 65.0026 309.807 63.8455 311.762C62.6884 313.717 60.9554 315.268 58.883 316.204C56.8106 317.139 54.4997 317.413 52.2657 316.988C49.7518 316.482 47.4881 315.129 45.853 313.156C44.2179 311.183 43.3106 308.709 43.2826 306.148C43.3085 305.874 43.4358 305.619 43.6396 305.434C43.8435 305.249 44.1091 305.146 44.3847 305.146C44.6603 305.146 44.9259 305.249 45.1298 305.434C45.3336 305.619 45.4609 305.874 45.4868 306.148Z" fill="#EDE9E0"/>
<path d="M2.20449 271.553C2.28972 276.352 3.85721 281.008 6.69259 284.883C9.52797 288.759 13.4928 291.665 18.0449 293.204C22.6554 294.773 27.628 294.944 32.3352 293.693C37.0425 292.443 41.2736 289.829 44.4946 286.18C47.596 282.563 49.4689 278.058 49.8439 273.311C50.2188 268.564 49.0765 263.821 46.5812 259.764C43.9316 255.634 40.097 252.398 35.5777 250.478C31.0585 248.558 26.0647 248.044 21.2483 249.002C10.4725 251.174 2.27306 260.459 2.19469 271.504C2.16879 271.778 2.04148 272.033 1.83767 272.218C1.63386 272.403 1.36819 272.506 1.09262 272.506C0.817039 272.506 0.551373 272.403 0.347557 272.218C0.143745 272.033 0.0164413 271.778 -0.00945282 271.504C0.0856476 266.283 1.77956 261.216 4.84442 256.985C7.90928 252.754 12.1981 249.562 17.1339 247.838C22.2041 246.063 27.6911 245.85 32.8838 247.227C38.0766 248.603 42.7358 251.505 46.2579 255.557C49.6486 259.57 51.6758 264.555 52.0473 269.793C52.4188 275.031 51.1154 280.252 48.3249 284.702C45.4257 289.111 41.2821 292.561 36.4185 294.616C31.5549 296.671 26.1901 297.239 21.0034 296.247C15.201 295.159 9.94981 292.112 6.13089 287.615C2.31197 283.119 0.157749 277.448 0.0297394 271.553C0.0779915 271.3 0.21299 271.072 0.411476 270.908C0.609962 270.744 0.859489 270.655 1.1171 270.655C1.37471 270.655 1.62427 270.744 1.82275 270.908C2.02124 271.072 2.15624 271.3 2.20449 271.553Z" fill="#EDE9E0"/>
<path d="M365.125 381.677L261.344 381.873C250.568 381.873 245.004 373.537 248.903 363.215L276.107 291.287C280.025 280.965 291.908 272.59 302.674 272.571L406.455 272.375C417.23 272.375 422.795 280.71 418.896 291.022L391.692 362.971C387.793 373.283 375.891 381.658 365.125 381.677Z" fill="#2A2A2A"/>
<path d="M349.46 321.42C348.235 325.989 343.582 329.697 338.978 329.707C334.373 329.716 331.679 326.018 332.904 321.449C334.129 316.88 338.782 313.172 343.376 313.163C347.971 313.153 350.674 316.851 349.46 321.42Z" fill="#EDE9E0"/>
<path d="M293.189 381.827L188.644 382.009C187.27 382.012 186.154 380.901 186.152 379.529L186.133 368.992C186.131 367.619 187.243 366.505 188.617 366.502L293.162 366.32C294.536 366.318 295.652 367.428 295.655 368.801L295.673 379.338C295.675 380.71 294.563 381.825 293.189 381.827Z" fill="#2A2A2A"/>
</g>
<defs>
<clipPath id="clip0_859_6507">
<rect width="434" height="382" fill="white" transform="matrix(-1 0 0 1 434 0)"/>
</clipPath>
</defs>
</svg>
