<svg width="190" height="60" viewBox="0 0 190 60" fill="none" xmlns="http://www.w3.org/2000/svg">
<g clip-path="url(#clip0_614_2524)">
<path d="M5.27107 12.6476L21.2304 28.308L37.1897 12.6476V43.4723L42.4607 38.2995V0L21.2304 20.8303L0 0V38.2995L5.27107 43.4723V12.6476Z" fill="#EDE9E0"/>
<path d="M83.1748 33.5922C78.4264 33.5922 74.5742 37.5135 74.5742 42.3491C74.5742 47.1846 78.4264 51.1031 83.1748 51.1031C87.9233 51.1031 91.7782 47.1846 91.7782 42.3491C91.7782 37.5135 87.9261 33.5922 83.1748 33.5922ZM83.1748 47.99C80.1206 47.99 77.6312 45.4594 77.6312 42.3491C77.6312 39.2387 80.1206 36.7053 83.1748 36.7053C86.229 36.7053 88.7184 39.2359 88.7184 42.3491C88.7184 45.4622 86.2318 47.9789 83.1748 47.9789V47.99Z" fill="#EDE9E0"/>
<path d="M129.791 33.5922C125.04 33.5922 121.188 37.494 121.188 42.3379C121.188 47.1818 125.037 51.092 129.788 51.092C134.539 51.092 138.392 47.1734 138.392 42.3379C138.392 37.5024 134.542 33.5922 129.791 33.5922ZM129.791 47.99C126.734 47.99 124.247 45.4594 124.247 42.3491C124.247 39.2387 126.734 36.7053 129.791 36.7053C132.848 36.7053 135.335 39.2359 135.335 42.3491C135.335 45.4622 132.848 47.9789 129.791 47.9789V47.99Z" fill="#EDE9E0"/>
<path d="M112.818 33.765L106.822 48.174H105.305V51.2871H120.345V48.174H118.828L112.818 33.765ZM110.143 48.174L112.818 41.7471L115.493 48.174H110.143Z" fill="#EDE9E0"/>
<path d="M100.518 33.9907H94.7773V51.092H97.84V45.7966H100.518C103.718 45.7966 106.32 43.1489 106.32 39.8909C106.32 36.6328 103.718 33.9907 100.518 33.9907ZM100.518 42.6863H97.84V37.1122H100.518C101.263 37.1122 101.977 37.4058 102.504 37.9285C103.031 38.4512 103.327 39.1601 103.327 39.8993C103.327 40.6384 103.031 41.3473 102.504 41.87C101.977 42.3927 101.263 42.6863 100.518 42.6863Z" fill="#EDE9E0"/>
<path d="M150.226 40.6099C150.565 39.9587 150.741 39.236 150.74 38.5029C150.754 37.3212 150.295 36.1822 149.463 35.3361C148.631 34.4901 147.495 34.0061 146.303 33.9907H141.465V51.2871H147.489C150.58 51.2871 153.092 48.7286 153.092 45.5848C153.096 44.5791 152.833 43.59 152.33 42.7168C151.827 41.8435 151.101 41.117 150.226 40.6099ZM144.522 37.1039H146.303C146.676 37.0695 147.047 37.1833 147.335 37.4204C147.623 37.6574 147.804 37.9982 147.839 38.3678C147.873 38.7374 147.759 39.1055 147.52 39.3911C147.281 39.6767 146.937 39.8565 146.565 39.8909H146.3V39.916H144.522V37.1039ZM147.489 48.174H144.522V43.018H146.303C146.46 43.0181 146.617 43.0097 146.772 42.9929H147.489C148.167 43.0149 148.809 43.2975 149.281 43.7809C149.753 44.2644 150.016 44.9107 150.016 45.5834C150.016 46.2561 149.753 46.9025 149.281 47.3859C148.809 47.8693 148.167 48.1519 147.489 48.174Z" fill="#EDE9E0"/>
<path d="M159.463 34.0242H156.406V50.9861L167.288 40.8385V51.0921H170.345V33.765L159.463 43.9126V34.0242Z" fill="#EDE9E0"/>
<path d="M177.099 34.0242H174.039V50.9861L184.921 40.8385V51.0921H187.981V33.765L177.099 43.9126V34.0242Z" fill="#EDE9E0"/>
<path d="M53.4961 34.0576V51.092H56.6767V41.722L62.3889 47.5859L68.118 41.722V51.092H71.2845V34.0576L62.3889 43.0542L53.4961 34.0576Z" fill="#EDE9E0"/>
<path d="M34.2335 19.6514L21.23 32.4132L8.22656 19.6514V46.3735L21.23 59.1326L34.2335 46.3735V19.6514Z" fill="#EDE9E0"/>
<path d="M115.885 25.5851C120.636 25.5851 124.485 21.6637 124.485 16.8282C124.485 11.9927 120.636 8.0741 115.885 8.0741C111.133 8.0741 107.281 11.9927 107.281 16.8282C107.281 21.6637 111.133 25.5851 115.885 25.5851ZM115.885 11.1872C118.939 11.1872 121.428 13.7179 121.428 16.8282C121.428 19.9385 118.939 22.472 115.885 22.472C114.398 22.4392 112.983 21.8303 111.943 20.7757C110.904 19.7212 110.321 18.3047 110.321 16.8296C110.321 15.3545 110.904 13.938 111.943 12.8834C112.983 11.8289 114.398 11.22 115.885 11.1872Z" fill="#EDE9E0"/>
<path d="M82.8858 25.5851C87.637 25.5851 91.4892 21.6637 91.4892 16.8282C91.4892 11.9927 87.637 8.0741 82.8858 8.0741C78.1345 8.0741 74.2852 11.9927 74.2852 16.8282C74.2852 21.6637 78.1373 25.5851 82.8858 25.5851ZM82.8858 11.1872C85.9428 11.1872 88.4294 13.7179 88.4294 16.8282C88.4294 19.9385 85.9428 22.472 82.8858 22.472C79.8288 22.472 77.3422 19.9413 77.3422 16.8282C77.3422 13.7151 79.8316 11.1872 82.8858 11.1872Z" fill="#EDE9E0"/>
<path d="M132.974 7.84265L126.978 22.2516H125.461V25.3648H140.487V22.2516H138.97L132.974 7.84265ZM130.299 22.2516L132.974 15.8247L135.649 22.2516H130.299Z" fill="#EDE9E0"/>
<path d="M99.4982 15.8247L103.451 25.323H106.77L99.4982 7.84265L92.2266 25.323H95.5449L99.4982 15.8247Z" fill="#EDE9E0"/>
<path d="M143.461 25.3648H153.205V22.2544H146.521V18.386H151.471V15.2729H146.521V11.332H153.205V8.21887H143.461V25.3648Z" fill="#EDE9E0"/>
<path d="M184.198 13.5562H181.521V8.26086H178.461V25.3622H184.198C187.396 25.3622 190.001 22.7145 190.001 19.4592C190.001 16.2039 187.396 13.5562 184.198 13.5562ZM184.198 22.2518H181.521V16.6777H184.198C184.944 16.6777 185.658 16.9714 186.185 17.494C186.712 18.0167 187.008 18.7256 187.008 19.4648C187.008 20.2039 186.712 20.9128 186.185 21.4355C185.658 21.9582 184.944 22.2518 184.198 22.2518Z" fill="#EDE9E0"/>
<path d="M53.4961 8.28589V25.3231H56.6767V15.9503L62.3889 21.8142L68.118 15.9503V25.3231H71.2845V8.28589L62.3889 17.2825L53.4961 8.28589Z" fill="#EDE9E0"/>
<path d="M172.5 16.8059L176.009 8.25529H172.727L169.864 15.2396H167.476V8.21069H164.416V15.2396H162.028L159.167 8.25529H155.883L159.392 16.8059L155.883 25.3566H159.167L162.042 18.3499H164.416V25.3789H167.476V18.3499H169.85L172.727 25.3566H176.009L172.5 16.8059Z" fill="#EDE9E0"/>
</g>
<defs>
<clipPath id="clip0_614_2524">
<rect width="190" height="59.1327" fill="white"/>
</clipPath>
</defs>
</svg>
