<svg width="260" height="82" viewBox="0 0 260 82" fill="none" xmlns="http://www.w3.org/2000/svg">
<g clip-path="url(#clip0_264_98)">
<path d="M7.21304 17.5386L29.0521 39.255L50.8911 17.5386V60.2836L58.1042 53.1104V0L29.0521 28.8857L0 0V53.1104L7.21304 60.2836V17.5386Z" fill="#2A2A2A"/>
<path d="M113.821 46.5828C107.323 46.5828 102.052 52.0206 102.052 58.7261C102.052 65.4315 107.323 70.8655 113.821 70.8655C120.319 70.8655 125.594 65.4315 125.594 58.7261C125.594 52.0206 120.323 46.5828 113.821 46.5828ZM113.821 66.5485C109.642 66.5485 106.235 63.0392 106.235 58.7261C106.235 54.4129 109.642 50.8998 113.821 50.8998C118 50.8998 121.407 54.409 121.407 58.7261C121.407 63.0431 118.004 66.533 113.821 66.533V66.5485Z" fill="#2A2A2A"/>
<path d="M177.611 46.5828C171.109 46.5828 165.838 51.9935 165.838 58.7106C165.838 65.4277 171.105 70.85 177.607 70.85C184.109 70.85 189.38 65.4161 189.38 58.7106C189.38 52.0051 184.113 46.5828 177.611 46.5828ZM177.611 66.5485C173.428 66.5485 170.025 63.0392 170.025 58.7261C170.025 54.4129 173.428 50.8998 177.611 50.8998C181.794 50.8998 185.197 54.409 185.197 58.7261C185.197 63.0431 181.794 66.533 177.611 66.533V66.5485Z" fill="#2A2A2A"/>
<path d="M154.385 46.8224L146.18 66.8035H144.104V71.1205H164.685V66.8035H162.609L154.385 46.8224ZM150.724 66.8035L154.385 57.8913L158.045 66.8035H150.724Z" fill="#2A2A2A"/>
<path d="M137.551 47.1354H129.696V70.85H133.887V63.5068H137.551C141.931 63.5068 145.491 59.8352 145.491 55.3172C145.491 50.7992 141.931 47.1354 137.551 47.1354ZM137.551 59.1936H133.887V51.464H137.551C138.571 51.464 139.549 51.8712 140.27 52.596C140.991 53.3208 141.396 54.3038 141.396 55.3288C141.396 56.3538 140.991 57.3369 140.27 58.0617C139.549 58.7865 138.571 59.1936 137.551 59.1936Z" fill="#2A2A2A"/>
<path d="M205.575 56.3143C206.04 55.4113 206.281 54.4091 206.279 53.3925C206.298 51.7538 205.67 50.1743 204.532 49.0011C203.393 47.8278 201.838 47.1568 200.208 47.1354H193.587V71.1205H201.83C206.06 71.1205 209.497 67.5726 209.497 63.2131C209.503 61.8184 209.144 60.4468 208.455 59.2359C207.767 58.025 206.774 57.0174 205.575 56.3143ZM197.77 51.4524H200.208C200.718 51.4047 201.226 51.5626 201.62 51.8913C202.014 52.22 202.262 52.6926 202.309 53.2051C202.356 53.7176 202.199 54.228 201.872 54.6241C201.545 55.0202 201.075 55.2696 200.565 55.3172H200.204V55.352H197.77V51.4524ZM201.83 66.8035H197.77V59.6536H200.208C200.422 59.6537 200.637 59.6421 200.85 59.6188H201.83C202.758 59.6494 203.637 60.0412 204.283 60.7116C204.928 61.3819 205.289 62.2783 205.289 63.2111C205.289 64.144 204.928 65.0403 204.283 65.7107C203.637 66.381 202.758 66.7729 201.83 66.8035Z" fill="#2A2A2A"/>
<path d="M218.214 47.1818H214.03V70.7031L228.922 56.6313V70.85H233.105V46.8224L218.214 60.8942V47.1818Z" fill="#2A2A2A"/>
<path d="M242.348 47.1818H238.161V70.7031L253.052 56.6313V70.85H257.24V46.8224L242.348 60.8942V47.1818Z" fill="#2A2A2A"/>
<path d="M73.207 47.2281V70.85H77.5595V57.8564L85.3762 65.988L93.2159 57.8564V70.85H97.5491V47.2281L85.3762 59.7038L73.207 47.2281Z" fill="#2A2A2A"/>
<path d="M46.8462 27.2509L29.052 44.9479L11.2578 27.2509V64.3068L29.052 82L46.8462 64.3068V27.2509Z" fill="#2A2A2A"/>
<path d="M158.583 35.4791C165.084 35.4791 170.352 30.0413 170.352 23.3358C170.352 16.6304 165.084 11.1964 158.583 11.1964C152.081 11.1964 146.81 16.6304 146.81 23.3358C146.81 30.0413 152.081 35.4791 158.583 35.4791ZM158.583 15.5134C162.762 15.5134 166.169 19.0227 166.169 23.3358C166.169 27.649 162.762 31.1621 158.583 31.1621C156.548 31.1166 154.612 30.2723 153.189 28.8099C151.766 27.3475 150.97 25.3833 150.97 23.3378C150.97 21.2922 151.766 19.328 153.189 17.8656C154.612 16.4032 156.548 15.5589 158.583 15.5134Z" fill="#2A2A2A"/>
<path d="M113.421 35.4791C119.922 35.4791 125.194 30.0413 125.194 23.3358C125.194 16.6304 119.922 11.1964 113.421 11.1964C106.919 11.1964 101.651 16.6304 101.651 23.3358C101.651 30.0413 106.923 35.4791 113.421 35.4791ZM113.421 15.5134C117.604 15.5134 121.007 19.0227 121.007 23.3358C121.007 27.649 117.604 31.1621 113.421 31.1621C109.237 31.1621 105.835 27.6528 105.835 23.3358C105.835 19.0188 109.241 15.5134 113.421 15.5134Z" fill="#2A2A2A"/>
<path d="M181.964 10.8756L173.759 30.8568H171.683V35.1738H192.245V30.8568H190.169L181.964 10.8756ZM178.304 30.8568L181.964 21.9445L185.624 30.8568H178.304Z" fill="#2A2A2A"/>
<path d="M136.16 21.9445L141.569 35.1158H146.11L136.16 10.8756L126.209 35.1158H130.75L136.16 21.9445Z" fill="#2A2A2A"/>
<path d="M196.316 35.1737H209.651V30.8606H200.503V25.4962H207.278V21.1792H200.503V15.7143H209.651V11.3973H196.316V35.1737Z" fill="#2A2A2A"/>
<path d="M252.06 18.7985H248.396V11.4553H244.209V35.1699H252.06C256.436 35.1699 260 31.4983 260 26.9842C260 22.4701 256.436 18.7985 252.06 18.7985ZM252.06 30.8567H248.396V23.1271H252.06C253.08 23.1271 254.058 23.5343 254.779 24.2591C255.5 24.9839 255.905 25.9669 255.905 26.9919C255.905 28.0169 255.5 29 254.779 29.7248C254.058 30.4496 253.08 30.8567 252.06 30.8567Z" fill="#2A2A2A"/>
<path d="M73.207 11.4901V35.1158H77.5595V22.1184L85.3762 30.25L93.2159 22.1184V35.1158H97.5491V11.4901L85.3762 23.9658L73.207 11.4901Z" fill="#2A2A2A"/>
<path d="M236.054 23.3049L240.856 11.4476H236.366L232.448 21.1328H229.18V11.3857H224.992V21.1328H221.724L217.81 11.4476H213.315L218.118 23.3049L213.315 35.1622H217.81L221.743 25.446H224.992V35.1931H229.18V25.446H232.428L236.366 35.1622H240.856L236.054 23.3049Z" fill="#2A2A2A"/>
</g>
<defs>
<clipPath id="clip0_264_98">
<rect width="260" height="82" fill="white"/>
</clipPath>
</defs>
</svg>
