<svg width="430" height="401" viewBox="0 0 430 401" fill="none" xmlns="http://www.w3.org/2000/svg">
<path d="M224.936 58.9243L216.21 83.192C216.184 83.2698 216.14 83.3407 216.083 83.3996C216.026 83.4585 215.957 83.504 215.881 83.5328L191.942 92.8451C191.603 92.9609 191.303 93.1696 191.076 93.4479C190.848 93.7262 190.702 94.0632 190.654 94.421C190.605 94.7788 190.657 95.1435 190.802 95.4742C190.947 95.8049 191.18 96.0887 191.476 96.2937L212.003 111.855C212.075 111.912 212.132 111.985 212.172 112.068C212.211 112.151 212.231 112.242 212.23 112.334L212.173 138.978C212.166 139.346 212.261 139.708 212.45 140.024C212.638 140.34 212.911 140.596 213.236 140.762C213.562 140.928 213.928 140.998 214.291 140.964C214.654 140.929 214.999 140.791 215.288 140.566L237.396 124.051C237.47 123.997 237.555 123.96 237.645 123.945C237.735 123.93 237.827 123.936 237.915 123.963L263.688 132.387C264.034 132.505 264.405 132.522 264.759 132.436C265.114 132.35 265.436 132.164 265.69 131.9C265.943 131.637 266.117 131.306 266.192 130.946C266.266 130.586 266.238 130.211 266.11 129.866L257.759 104.754C257.734 104.668 257.727 104.577 257.739 104.487C257.751 104.398 257.781 104.312 257.829 104.236L272.255 82.6847C272.467 82.3942 272.595 82.0497 272.624 81.6897C272.653 81.3297 272.582 80.9683 272.419 80.6461C272.256 80.3238 272.008 80.0533 271.702 79.8648C271.396 79.6763 271.044 79.5773 270.686 79.5788L244.845 78.6464C244.756 78.6541 244.667 78.6404 244.585 78.6065C244.503 78.5725 244.43 78.5193 244.372 78.4513L228.366 58.3469C228.153 58.0508 227.863 57.8203 227.528 57.6814C227.193 57.5425 226.826 57.5007 226.47 57.5608C226.113 57.6208 225.78 57.7803 225.509 58.0212C225.238 58.2622 225.04 58.575 224.936 58.9243Z" fill="#FDC844"/>
<path d="M392.081 136.148C393.948 134.639 396.275 133.816 398.675 133.816C401.075 133.816 403.403 134.639 405.27 136.148C411.975 141.648 406.992 150.192 406.992 150.192C406.992 150.192 413.202 149.843 415.272 155.05C417.342 160.257 412.781 164.547 412.781 164.547C414.873 164.908 416.798 165.918 418.284 167.435C419.77 168.952 420.742 170.898 421.061 172.999C422.251 181.78 411.443 188.454 411.443 188.454L381.786 176.812L384.369 144.178L392.081 136.148Z" fill="#2A2A2A"/>
<path d="M395.507 172.467C398.676 172.9 401.763 173.802 404.666 175.143C408.184 177.087 412.727 189.095 412.727 189.095L396.24 209.592L380.12 201.415L395.507 172.467Z" fill="#00A481"/>
<path d="M309.28 187.665C309.28 187.665 324.521 212.489 343.683 215.257C362.844 218.025 381.254 190.617 381.254 190.617L366.306 170.45C366.306 170.45 356.469 180.497 343.39 183.082C335.787 184.585 323.825 170.67 323.825 170.67L309.28 187.665Z" fill="#EDE9E0"/>
<path d="M345.443 189.169C345.57 189.086 345.675 188.975 345.752 188.845C345.828 188.714 345.873 188.568 345.882 188.417C346.084 186.584 342.475 182.807 342.072 182.367C342.008 182.322 341.931 182.298 341.852 182.298C341.774 182.298 341.697 182.322 341.633 182.367C341.561 182.401 341.501 182.456 341.462 182.525C341.422 182.593 341.405 182.673 341.413 182.752C341.413 183.339 342.164 188.582 343.996 189.425C344.172 189.512 344.367 189.556 344.564 189.554C344.889 189.519 345.196 189.384 345.443 189.169ZM345.131 188.344C345.136 188.384 345.128 188.426 345.108 188.462C345.088 188.498 345.058 188.527 345.022 188.545C344.927 188.633 344.809 188.691 344.681 188.711C344.554 188.73 344.423 188.711 344.307 188.655C343.409 188.252 342.713 185.814 342.347 183.815C343.703 185.392 345.315 187.482 345.131 188.344Z" fill="#EDE9E0"/>
<path d="M370.665 151.218C370.665 151.218 365.06 141.795 377.992 135.451C390.925 129.108 399.462 139.448 399.242 144.618C399.257 146.036 398.965 147.44 398.386 148.735C397.808 150.029 396.956 151.183 395.89 152.117C395.89 152.117 396.366 163.648 385.485 162.182C382.303 161.719 379.284 160.477 376.698 158.564C374.113 156.651 372.04 154.127 370.665 151.218Z" fill="#2A2A2A"/>
<path d="M345.496 361.778C345.496 361.778 325.492 372.412 319.703 378.37C313.915 384.329 313.768 388.234 314.537 390.104C315.307 391.974 357.439 388.27 357.439 388.27C357.439 388.27 357.439 376.647 361.946 377.27C366.452 377.894 364.455 388.27 364.455 388.27L377.278 387.61C377.278 387.61 377.388 376.042 376.271 371.569C375.143 367.679 373.697 363.89 371.948 360.238L345.496 361.778Z" fill="#2A2A2A"/>
<path d="M365.333 286.703C365.333 286.703 360.479 302.8 371.818 323.26C378.378 335.485 385.721 347.274 393.8 358.552L415.27 352.887C415.27 352.887 395.907 304.596 395.559 285.053C395.211 265.509 365.333 286.703 365.333 286.703Z" fill="#F0858F"/>
<path d="M343.81 278.948C343.321 293.743 343.933 308.555 345.642 323.26C348.481 346.47 350.569 360.202 350.569 360.202H371.8C371.8 360.202 369.969 309.491 373.412 290.259C376.856 271.028 343.81 278.948 343.81 278.948Z" fill="#F0858F"/>
<path d="M391.109 363.318C391.109 363.318 375.832 380.057 372.369 387.61C368.907 395.164 370.08 398.885 371.435 400.444C372.791 402.002 411.26 384.31 411.26 384.31C411.26 384.31 407.339 373.31 411.791 372.375C416.242 371.44 417.854 381.964 417.854 381.964L429.578 377.05C429.578 377.05 425.805 366.05 423.24 362.273C420.711 358.725 417.977 355.327 415.052 352.098L391.109 363.318Z" fill="#2A2A2A"/>
<path d="M349.71 358.222C349.71 358.222 332.564 368.873 335.806 369.772C339.048 370.67 357.165 370.065 362.386 367.938C366.089 366.08 369.317 363.395 371.82 360.092L359.529 354.885L349.71 358.222Z" fill="#F0858F"/>
<path d="M378.285 290.718C376.197 290.828 373.999 290.901 371.727 290.919C368.499 290.949 365.273 290.747 362.073 290.314C355.265 289.411 348.629 287.502 342.381 284.649C343.627 246.149 360.296 211.499 360.296 211.499L369.859 213.625L371.544 213.992L378.285 290.718Z" fill="#7BBC48"/>
<path d="M404.335 252.859C401.88 276.051 399.554 284.026 399.554 284.026L400.799 287.583C393.402 289.291 385.868 290.34 378.286 290.718C376.198 290.828 373.999 290.901 371.728 290.92C368.5 290.949 365.273 290.747 362.074 290.315C360.865 286.171 360.077 283.329 359.912 282.559C358.978 278.306 365.884 213.589 365.884 213.589H369.768L396.275 216.449C396.275 216.449 406.808 229.649 404.335 252.859Z" fill="#7BBC48"/>
<path d="M386.656 160.422L386.308 169.588C386.308 169.588 384.476 172.174 379.146 172.412C377.312 172.675 375.442 172.401 373.76 171.624L374.493 166.985L375.207 162.457L385.008 160.623L386.656 160.422Z" fill="#F0858F"/>
<path d="M386.656 159.982C386.599 160.289 386.494 160.586 386.345 160.862C384.128 165.372 376.819 166.893 374.493 167.022L375.207 162.493L386.656 159.982Z" fill="#2A2A2A"/>
<path d="M373.944 141.447C373.944 141.447 368.686 152.795 370.28 159.285C371.874 165.775 377.827 164.785 381.271 163.703C383.276 163.102 385.08 161.968 386.492 160.422C387.484 160.733 388.549 160.724 389.536 160.394C390.523 160.065 391.38 159.433 391.988 158.588C394.241 155.582 392.958 152.043 391.108 151.255C390.429 151.044 389.713 150.978 389.006 151.06C388.3 151.142 387.618 151.371 387.005 151.732L388.837 148.432C388.837 148.432 381.949 131.29 373.944 141.447Z" fill="#F0858F"/>
<path d="M372.258 146.085C372.17 146.086 372.084 146.055 372.017 145.998C371.949 145.94 371.905 145.861 371.892 145.773C371.884 145.726 371.886 145.678 371.898 145.631C371.909 145.585 371.93 145.542 371.96 145.504C371.989 145.466 372.026 145.435 372.067 145.411C372.109 145.388 372.155 145.374 372.203 145.37L374.438 145.022C374.486 145.014 374.535 145.017 374.582 145.028C374.629 145.04 374.674 145.061 374.713 145.09C374.752 145.119 374.785 145.155 374.81 145.197C374.835 145.239 374.852 145.285 374.859 145.333C374.866 145.381 374.864 145.43 374.852 145.478C374.841 145.525 374.82 145.569 374.791 145.609C374.762 145.648 374.725 145.681 374.684 145.706C374.642 145.731 374.596 145.748 374.548 145.755L372.313 146.085H372.258Z" fill="#2A2A2A"/>
<path d="M380.614 147.02C380.572 147.035 380.527 147.035 380.485 147.02L377.866 145.938C377.776 145.899 377.705 145.826 377.669 145.735C377.633 145.644 377.635 145.542 377.674 145.452C377.712 145.363 377.785 145.292 377.876 145.256C377.967 145.219 378.069 145.221 378.159 145.26L380.76 146.36C380.85 146.397 380.922 146.467 380.959 146.557C380.997 146.646 380.998 146.747 380.962 146.837C380.926 146.896 380.874 146.944 380.813 146.976C380.752 147.008 380.683 147.024 380.614 147.02Z" fill="#2A2A2A"/>
<path d="M374.02 155.398C373.928 155.399 373.84 155.365 373.773 155.304C373.705 155.243 373.662 155.159 373.653 155.068C373.291 152.992 373.765 150.856 374.972 149.128C375.005 149.093 375.044 149.064 375.089 149.045C375.133 149.026 375.18 149.016 375.229 149.016C375.277 149.016 375.325 149.026 375.369 149.045C375.413 149.064 375.453 149.093 375.485 149.128C375.552 149.197 375.59 149.289 375.59 149.385C375.59 149.481 375.552 149.573 375.485 149.642C374.435 151.228 374.029 153.156 374.349 155.032C374.354 155.08 374.35 155.129 374.336 155.175C374.322 155.221 374.299 155.265 374.269 155.302C374.238 155.34 374.2 155.371 374.157 155.394C374.115 155.416 374.068 155.43 374.02 155.435V155.398Z" fill="#2A2A2A"/>
<path d="M387.17 156.315C387.099 156.319 387.028 156.3 386.968 156.26C386.909 156.22 386.864 156.163 386.84 156.095C386.819 156.052 386.807 156.005 386.805 155.957C386.803 155.909 386.811 155.861 386.828 155.817C386.845 155.772 386.871 155.731 386.905 155.697C386.939 155.663 386.979 155.636 387.024 155.618L391.64 153.51C391.683 153.489 391.73 153.477 391.778 153.475C391.825 153.473 391.873 153.481 391.918 153.498C391.963 153.515 392.003 153.541 392.037 153.575C392.071 153.609 392.098 153.649 392.116 153.693C392.137 153.738 392.15 153.786 392.152 153.835C392.154 153.884 392.147 153.934 392.13 153.98C392.112 154.026 392.086 154.068 392.052 154.104C392.019 154.14 391.978 154.169 391.933 154.188L387.317 156.315H387.17Z" fill="#2A2A2A"/>
<path d="M391.291 157.415C391.243 157.417 391.195 157.407 391.151 157.388C391.106 157.369 391.067 157.341 391.035 157.305L388.983 155.307C388.922 155.231 388.889 155.138 388.889 155.041C388.889 154.944 388.922 154.85 388.983 154.775C389.055 154.707 389.15 154.668 389.249 154.668C389.348 154.668 389.443 154.707 389.514 154.775L391.548 156.792C391.615 156.86 391.652 156.952 391.652 157.048C391.652 157.144 391.615 157.236 391.548 157.305C391.48 157.374 391.388 157.414 391.291 157.415Z" fill="#2A2A2A"/>
<path d="M393.801 358.552C393.801 358.552 381.235 374.337 384.642 374.098C388.049 373.86 404.811 367.15 409.006 363.483C413.201 359.817 415.051 352.135 415.051 352.135H401.953L393.801 358.552Z" fill="#F0858F"/>
<path d="M370.426 320.271C370.365 320.272 370.304 320.258 370.25 320.229C370.195 320.2 370.149 320.158 370.115 320.106C362.788 308.905 361.817 292.258 361.798 292.093C361.798 291.997 361.833 291.904 361.898 291.833C361.962 291.762 362.051 291.717 362.146 291.708C362.195 291.705 362.243 291.712 362.288 291.729C362.333 291.745 362.375 291.77 362.411 291.802C362.447 291.835 362.476 291.874 362.496 291.917C362.517 291.961 362.529 292.008 362.531 292.056C362.531 292.221 363.52 308.666 370.719 319.703C370.787 319.772 370.824 319.864 370.824 319.96C370.824 320.056 370.787 320.148 370.719 320.216C370.632 320.27 370.528 320.289 370.426 320.271Z" fill="#E9503E"/>
<path d="M359.967 284.264C359.882 284.261 359.801 284.228 359.737 284.171C359.674 284.114 359.632 284.037 359.619 283.953C357.036 267.031 365.115 230.932 365.939 227.669L360.224 223.434C360.188 223.401 360.16 223.362 360.14 223.317C360.121 223.273 360.111 223.225 360.111 223.177C360.111 223.129 360.121 223.081 360.14 223.037C360.16 222.993 360.188 222.953 360.224 222.921C360.294 222.857 360.386 222.823 360.48 222.823C360.575 222.823 360.666 222.857 360.737 222.921L366.635 227.302C366.696 227.339 366.743 227.395 366.769 227.461C366.796 227.527 366.8 227.6 366.782 227.669C366.782 228.054 357.751 266.408 360.407 283.916C360.415 283.963 360.413 284.012 360.401 284.058C360.389 284.104 360.368 284.148 360.339 284.186C360.31 284.223 360.273 284.255 360.231 284.278C360.189 284.301 360.143 284.315 360.096 284.319L359.967 284.264Z" fill="#EDE9E0"/>
<path d="M370.665 151.218C371.604 148.452 373.172 145.942 375.245 143.885L378.908 140.072C378.908 140.072 378.505 147.295 381.73 150.412C384.954 153.528 387.225 151.677 387.225 151.677L393.398 146.177L382.407 136.038C382.407 136.038 370.079 135.653 370.665 151.218Z" fill="#2A2A2A"/>
<path d="M374.621 169.387L366.323 170.523C366.323 170.523 358.904 178.609 358.703 187.592C358.501 196.575 360.406 200.7 360.406 200.7L357.512 214.836C363.296 219.024 370.109 221.559 377.223 222.169C384.957 222.901 392.76 222.085 400.176 219.767C400.176 219.767 398.344 175.419 398.344 171.66C398.307 169.148 374.621 169.387 374.621 169.387Z" fill="#00A481"/>
<path d="M374.203 168.837L370.649 169.937C370.649 169.937 369.458 176.739 377.61 177.16C386.183 177.6 392.961 170.028 392.961 170.028L385.487 168.837H374.203Z" fill="#F0858F"/>
<path d="M378.286 177.545C377.076 177.653 375.858 177.492 374.718 177.073C373.578 176.655 372.545 175.99 371.691 175.125C371.111 174.389 370.685 173.544 370.436 172.641C370.187 171.737 370.122 170.793 370.244 169.863C370.251 169.817 370.267 169.773 370.291 169.734C370.315 169.694 370.346 169.659 370.384 169.632C370.421 169.604 370.464 169.585 370.509 169.574C370.554 169.564 370.601 169.562 370.647 169.57C370.695 169.577 370.742 169.593 370.784 169.618C370.826 169.643 370.862 169.676 370.891 169.715C370.92 169.755 370.941 169.799 370.953 169.847C370.964 169.894 370.966 169.944 370.959 169.992C370.784 171.662 371.271 173.334 372.314 174.649C373.095 175.419 374.033 176.011 375.063 176.384C376.094 176.758 377.194 176.904 378.286 176.812C386.914 176.812 392.556 169.863 392.611 169.808C392.685 169.744 392.779 169.708 392.877 169.708C392.974 169.708 393.069 169.744 393.142 169.808C393.207 169.882 393.242 169.977 393.242 170.074C393.242 170.172 393.207 170.267 393.142 170.34C393.142 170.34 387.207 177.674 378.268 177.674L378.286 177.545Z" fill="#EDE9E0"/>
<path d="M399.571 284.466C399.648 284.461 399.721 284.431 399.78 284.382C399.84 284.332 399.882 284.266 399.901 284.191C399.925 284.117 399.924 284.037 399.897 283.964C399.87 283.891 399.82 283.829 399.754 283.788C399.241 283.458 394.753 280.726 393.086 282.578C392.956 282.695 392.866 282.85 392.83 283.021C392.794 283.193 392.813 283.371 392.885 283.531C393.27 284.338 395.578 284.521 397.519 284.521C398.307 284.521 399.04 284.484 399.571 284.466ZM398.234 283.769C396.651 283.956 395.046 283.774 393.544 283.238C393.544 283.238 393.544 283.238 393.636 283.073C393.782 282.929 393.958 282.819 394.151 282.749C394.344 282.68 394.549 282.652 394.753 282.669C395.976 282.795 397.161 283.169 398.234 283.769Z" fill="#EDE9E0"/>
<path d="M358.997 194.815C358.926 194.817 358.856 194.799 358.794 194.764C358.733 194.728 358.683 194.676 358.649 194.614C354.6 186.382 362.129 175.547 362.441 175.089C362.512 175.02 362.607 174.982 362.706 174.982C362.805 174.982 362.9 175.02 362.972 175.089C363.008 175.123 363.037 175.164 363.056 175.21C363.076 175.255 363.086 175.305 363.086 175.354C363.086 175.404 363.076 175.453 363.056 175.499C363.037 175.545 363.008 175.586 362.972 175.62C362.972 175.73 355.388 186.62 359.308 194.375C359.33 194.419 359.343 194.466 359.347 194.514C359.35 194.563 359.344 194.611 359.329 194.657C359.314 194.703 359.289 194.746 359.258 194.783C359.226 194.819 359.187 194.849 359.143 194.87C359.09 194.867 359.039 194.848 358.997 194.815Z" fill="#EDE9E0"/>
<path d="M398.933 147.46C398.881 147.46 398.831 147.45 398.784 147.429C398.737 147.408 398.694 147.378 398.66 147.34C398.625 147.302 398.599 147.257 398.583 147.208C398.567 147.159 398.561 147.108 398.566 147.057C399.427 138.073 393.291 135.451 393.236 135.415C393.188 135.399 393.145 135.373 393.107 135.34C393.07 135.307 393.04 135.266 393.019 135.22C392.999 135.175 392.987 135.126 392.986 135.076C392.985 135.026 392.994 134.976 393.013 134.929C393.032 134.883 393.06 134.841 393.095 134.806C393.131 134.771 393.173 134.743 393.22 134.725C393.267 134.707 393.316 134.699 393.366 134.701C393.416 134.703 393.465 134.715 393.51 134.736C393.51 134.736 400.27 137.615 399.299 147.148C399.286 147.236 399.242 147.315 399.174 147.373C399.107 147.43 399.021 147.461 398.933 147.46Z" fill="#FDC844"/>
<path d="M326.866 125.918L349.288 165.482C349.358 165.609 349.455 165.719 349.572 165.805C349.689 165.89 349.824 165.949 349.966 165.977L394.608 175.144C395.236 175.246 395.822 175.52 396.302 175.937C396.782 176.353 397.137 176.895 397.328 177.502C397.518 178.109 397.535 178.757 397.379 179.373C397.222 179.989 396.897 180.55 396.44 180.992L365.097 213.992C364.989 214.112 364.91 214.256 364.865 214.412C364.821 214.567 364.812 214.731 364.841 214.891L372.791 261.109C372.913 261.745 372.852 262.403 372.616 263.006C372.379 263.609 371.977 264.133 371.456 264.516C370.934 264.9 370.315 265.128 369.67 265.174C369.024 265.22 368.379 265.082 367.808 264.776L324.247 242.574C324.102 242.501 323.942 242.464 323.78 242.464C323.618 242.464 323.458 242.501 323.313 242.574L280.685 264.721C280.115 265.027 279.47 265.165 278.824 265.119C278.179 265.073 277.559 264.845 277.038 264.461C276.517 264.078 276.114 263.554 275.878 262.951C275.642 262.348 275.581 261.69 275.703 261.054L282.92 215.037C282.94 214.879 282.925 214.719 282.878 214.568C282.83 214.416 282.751 214.276 282.646 214.157L251.046 180.974C250.589 180.531 250.264 179.971 250.108 179.355C249.951 178.738 249.969 178.09 250.159 177.484C250.349 176.877 250.704 176.335 251.184 175.918C251.664 175.502 252.251 175.227 252.878 175.125L297.832 165.958C297.988 165.946 298.14 165.896 298.274 165.813C298.408 165.73 298.52 165.617 298.601 165.482L320.693 125.918C320.978 125.342 321.418 124.857 321.963 124.519C322.509 124.18 323.138 124 323.78 124C324.422 124 325.051 124.18 325.596 124.519C326.142 124.857 326.582 125.342 326.866 125.918Z" fill="#FDC844"/>
<path d="M271.818 178.132C271.606 178.135 271.4 178.064 271.235 177.93C271.071 177.795 270.96 177.607 270.921 177.399C270.897 177.281 270.896 177.159 270.919 177.041C270.942 176.923 270.988 176.81 271.054 176.71C271.12 176.609 271.206 176.523 271.306 176.455C271.405 176.388 271.517 176.341 271.635 176.317L298.252 170.817C298.369 170.79 298.49 170.787 298.608 170.807C298.726 170.828 298.838 170.872 298.939 170.937C299.04 171.002 299.127 171.086 299.194 171.185C299.262 171.284 299.309 171.396 299.333 171.513C299.382 171.754 299.334 172.004 299.201 172.21C299.067 172.416 298.858 172.561 298.618 172.613L272.001 178.114L271.818 178.132Z" fill="#EDE9E0"/>
<path d="M386.036 206.769C386.036 206.769 370.337 203.579 366.38 205.155C362.423 206.732 365.592 219.822 366.783 222.132C367.974 224.442 384.167 220.959 384.167 220.959L388.875 214.249L386.036 206.769Z" fill="#F0858F"/>
<path d="M366.378 205.155C366.378 205.155 356.834 211.645 356.468 215.679C356.102 219.712 367.844 211.315 367.844 211.315L366.378 205.155Z" fill="#F0858F"/>
<path d="M372.606 221.564C372.606 221.564 380.666 223.397 378.102 225.597C375.537 227.797 367.55 224.186 366.781 222.132C366.011 220.079 371.873 217.512 371.873 217.512L372.606 221.564Z" fill="#F0858F"/>
<path d="M394.113 170.175C394.113 170.175 427.251 176.152 428.149 201.03C428.826 219.822 384.532 225.561 384.532 225.561L382.371 204.697L409.28 185.869L394.113 170.175Z" fill="#00A481"/>
<path d="M384.019 202.864C383.949 202.863 383.881 202.841 383.822 202.802C383.764 202.763 383.718 202.708 383.69 202.644C383.662 202.606 383.643 202.562 383.632 202.516C383.622 202.47 383.621 202.423 383.63 202.377C383.638 202.33 383.656 202.286 383.682 202.247C383.708 202.208 383.742 202.174 383.781 202.149C384.441 201.837 400.176 194.815 406.899 194.815C406.996 194.815 407.09 194.854 407.158 194.923C407.227 194.991 407.266 195.085 407.266 195.182C407.266 195.279 407.227 195.372 407.158 195.441C407.09 195.51 406.996 195.549 406.899 195.549C400.323 195.549 384.239 202.699 384.074 202.772L384.019 202.864Z" fill="#EDE9E0"/>
<path d="M396.258 198.079C398.254 196.74 402.816 193.477 402.504 192.102C402.504 191.864 402.248 191.57 401.662 191.497H401.387C398.621 191.497 396.02 196.997 395.726 197.639C395.689 197.708 395.677 197.789 395.694 197.867C395.711 197.944 395.755 198.013 395.818 198.06C395.895 198.09 395.98 198.09 396.056 198.06C396.12 198.085 396.19 198.092 396.258 198.079ZM401.57 192.23C401.643 192.223 401.717 192.223 401.79 192.23C401.882 192.725 399.793 194.614 397.045 196.575C398.09 194.742 399.848 192.157 401.387 192.157L401.57 192.23Z" fill="#EDE9E0"/>
<path d="M375.922 222.829H373.394C373.297 222.829 373.204 222.79 373.135 222.722C373.066 222.653 373.028 222.559 373.028 222.462C373.028 222.365 373.066 222.272 373.135 222.203C373.204 222.134 373.297 222.096 373.394 222.096H375.226L374.328 220.702C374.278 220.619 374.262 220.519 374.282 220.424C374.303 220.329 374.358 220.245 374.438 220.189C374.522 220.139 374.621 220.122 374.716 220.143C374.811 220.163 374.895 220.219 374.951 220.299L376.215 222.316C376.251 222.373 376.27 222.44 376.27 222.508C376.27 222.576 376.251 222.643 376.215 222.701C376.18 222.744 376.135 222.778 376.084 222.8C376.033 222.823 375.977 222.833 375.922 222.829Z" fill="#2A2A2A"/>
<path d="M364.454 213.259C364.377 213.284 364.293 213.284 364.216 213.259C364.149 213.19 364.111 213.098 364.111 213.002C364.111 212.906 364.149 212.814 364.216 212.746C365.316 211.445 366.585 210.298 367.989 209.335C368.036 209.308 368.088 209.291 368.142 209.286C368.196 209.281 368.251 209.288 368.302 209.306C368.353 209.325 368.399 209.354 368.437 209.393C368.475 209.431 368.504 209.478 368.522 209.529C368.54 209.58 368.547 209.635 368.541 209.689C368.535 209.743 368.518 209.795 368.49 209.841C368.461 209.888 368.423 209.927 368.378 209.957C368.333 209.987 368.281 210.006 368.228 210.014C366.937 210.91 365.761 211.963 364.729 213.149C364.695 213.187 364.652 213.217 364.604 213.236C364.557 213.256 364.505 213.263 364.454 213.259Z" fill="#2A2A2A"/>
<path d="M365.372 217.879C365.324 217.88 365.276 217.871 365.232 217.852C365.188 217.833 365.148 217.805 365.116 217.769C365.08 217.736 365.052 217.697 365.033 217.652C365.013 217.608 365.003 217.56 365.003 217.512C365.003 217.464 365.013 217.416 365.033 217.372C365.052 217.328 365.08 217.288 365.116 217.256L369.769 213.002C369.837 212.935 369.929 212.897 370.025 212.897C370.121 212.897 370.213 212.935 370.282 213.002C370.317 213.035 370.346 213.074 370.365 213.119C370.385 213.163 370.395 213.211 370.395 213.259C370.395 213.307 370.385 213.355 370.365 213.399C370.346 213.443 370.317 213.483 370.282 213.515L365.629 217.751C365.598 217.789 365.559 217.82 365.514 217.842C365.47 217.864 365.422 217.877 365.372 217.879Z" fill="#2A2A2A"/>
<path d="M297.683 160.88C297.683 160.88 293.452 155.087 297.335 154.463C301.219 153.84 311.129 162.255 309.224 165.867C307.319 169.479 297.683 160.88 297.683 160.88Z" fill="#F0858F"/>
<path d="M293.873 165.482C293.873 165.482 289.641 159.707 293.525 159.083C297.408 158.46 307.318 166.857 305.432 170.487C303.545 174.117 293.873 165.482 293.873 165.482Z" fill="#F0858F"/>
<path d="M291.476 170.872C291.476 170.872 286.914 166.472 290.212 165.372C293.509 164.272 303.401 170.065 302.302 173.512C301.203 176.959 291.476 170.872 291.476 170.872Z" fill="#F0858F"/>
<path d="M300.176 174.997C299.006 174.925 297.867 174.593 296.842 174.025C296.799 174.001 296.762 173.969 296.733 173.931C296.703 173.892 296.681 173.848 296.669 173.802C296.656 173.755 296.652 173.706 296.658 173.658C296.665 173.61 296.68 173.563 296.704 173.521C296.728 173.479 296.76 173.442 296.799 173.412C296.837 173.382 296.881 173.361 296.928 173.348C296.974 173.335 297.023 173.332 297.071 173.338C297.119 173.344 297.166 173.359 297.208 173.383C297.208 173.383 300.762 175.382 301.989 173.383C302.081 173.234 302.14 173.067 302.162 172.893C302.184 172.719 302.169 172.543 302.117 172.375C301.769 171.348 300.157 170.432 299.553 170.175L293.654 165.793C293.619 165.761 293.59 165.721 293.571 165.677C293.551 165.633 293.541 165.585 293.541 165.537C293.541 165.488 293.551 165.441 293.571 165.397C293.59 165.352 293.619 165.313 293.654 165.28C293.726 165.22 293.817 165.188 293.911 165.188C294.004 165.188 294.095 165.22 294.167 165.28L299.992 169.607C299.992 169.607 302.374 170.67 302.887 172.228C302.976 172.492 303.005 172.773 302.97 173.049C302.935 173.326 302.838 173.59 302.685 173.823C302.418 174.234 302.042 174.562 301.598 174.769C301.154 174.977 300.662 175.056 300.176 174.997Z" fill="#2A2A2A"/>
<path d="M303.382 171.844C301.912 171.67 300.538 171.027 299.462 170.01C299.406 169.942 299.377 169.855 299.38 169.766C299.383 169.678 299.417 169.594 299.478 169.529C299.538 169.464 299.62 169.423 299.708 169.414C299.796 169.405 299.884 169.428 299.956 169.479C300.964 170.41 302.253 170.978 303.62 171.092C303.929 171.063 304.228 170.967 304.496 170.812C304.765 170.657 304.997 170.446 305.177 170.194C306.093 169.002 304.151 166.307 303.345 165.372L296.714 159.872C296.647 159.803 296.609 159.711 296.609 159.615C296.609 159.519 296.647 159.427 296.714 159.358C296.785 159.295 296.876 159.26 296.97 159.26C297.065 159.26 297.156 159.295 297.227 159.358L303.895 164.858C304.28 165.298 307.265 168.782 305.727 170.652C305.49 170.988 305.181 171.268 304.823 171.471C304.465 171.674 304.067 171.795 303.657 171.825L303.382 171.844Z" fill="#2A2A2A"/>
<path d="M307.173 167.058C305.743 166.964 304.388 166.389 303.326 165.427C303.258 165.355 303.219 165.26 303.219 165.161C303.219 165.062 303.258 164.967 303.326 164.895C303.359 164.86 303.398 164.831 303.442 164.812C303.486 164.792 303.534 164.782 303.582 164.782C303.631 164.782 303.678 164.792 303.722 164.812C303.767 164.831 303.806 164.86 303.839 164.895C303.967 165.005 306.916 167.572 308.986 165.628C309.075 165.537 309.144 165.427 309.188 165.307C309.232 165.187 309.251 165.059 309.243 164.932C309.133 162.677 303.747 157.947 301.915 156.315C301.88 156.282 301.851 156.243 301.832 156.199C301.813 156.154 301.803 156.107 301.803 156.058C301.803 156.01 301.813 155.962 301.832 155.918C301.851 155.874 301.88 155.834 301.915 155.802C301.989 155.737 302.083 155.702 302.181 155.702C302.279 155.702 302.373 155.737 302.447 155.802C302.74 156.058 310.012 161.907 310.14 164.968C310.157 165.203 310.122 165.438 310.036 165.657C309.951 165.876 309.817 166.073 309.646 166.233C309.313 166.535 308.921 166.764 308.496 166.906C308.07 167.048 307.62 167.1 307.173 167.058Z" fill="#2A2A2A"/>
<path d="M377.9 151.31H377.79C377.742 151.294 377.697 151.268 377.659 151.234C377.62 151.2 377.589 151.159 377.567 151.113C377.545 151.066 377.532 151.016 377.53 150.965C377.527 150.914 377.534 150.863 377.552 150.815L377.991 149.312L377.662 147.937C377.648 147.891 377.644 147.843 377.649 147.795C377.655 147.748 377.67 147.702 377.694 147.661C377.718 147.62 377.751 147.584 377.789 147.555C377.828 147.527 377.872 147.507 377.918 147.497C378.013 147.473 378.113 147.487 378.198 147.535C378.283 147.582 378.346 147.66 378.376 147.753L378.724 149.238C378.743 149.304 378.743 149.374 378.724 149.44L378.248 151.017C378.239 151.101 378.197 151.178 378.133 151.233C378.068 151.288 377.984 151.315 377.9 151.31Z" fill="#2A2A2A"/>
<path d="M372.26 150.54H372.15C372.103 150.528 372.059 150.506 372.021 150.475C371.983 150.445 371.952 150.407 371.929 150.364C371.907 150.321 371.894 150.273 371.891 150.225C371.888 150.176 371.895 150.127 371.912 150.082L372.351 148.578L372.003 147.203C371.993 147.156 371.991 147.108 371.999 147.06C372.007 147.013 372.024 146.967 372.05 146.926C372.075 146.885 372.109 146.85 372.148 146.822C372.187 146.794 372.231 146.774 372.278 146.763C372.324 146.75 372.372 146.745 372.419 146.751C372.467 146.757 372.513 146.772 372.554 146.796C372.595 146.82 372.631 146.852 372.659 146.891C372.687 146.929 372.707 146.973 372.718 147.02L373.084 148.505C373.102 148.571 373.102 148.641 373.084 148.707L372.608 150.283C372.582 150.356 372.535 150.419 372.473 150.465C372.411 150.511 372.337 150.537 372.26 150.54Z" fill="#2A2A2A"/>
<path d="M376.859 159.34C377.757 159.065 378.343 156.993 378.489 156.352C378.509 156.286 378.509 156.217 378.489 156.152C378.47 156.087 378.432 156.029 378.379 155.985C378.322 155.949 378.255 155.93 378.187 155.93C378.119 155.93 378.053 155.949 377.995 155.985L375.045 157.287C375 157.305 374.959 157.332 374.924 157.367C374.89 157.402 374.862 157.443 374.844 157.488C374.807 157.583 374.807 157.687 374.844 157.782C374.991 158.075 375.687 159.432 376.584 159.432L376.859 159.34ZM377.573 156.92C377.299 157.763 376.914 158.552 376.657 158.625C376.401 158.698 376.016 158.258 375.705 157.727L377.573 156.92Z" fill="#2A2A2A"/>
<path d="M107.071 119.764C107.071 119.764 107.474 136.264 102.162 136.869C98.2919 137.212 94.3994 137.212 90.5295 136.869C90.5295 136.869 83.257 125.668 85.7484 121.084C93.2406 107.004 107.071 119.764 107.071 119.764Z" fill="#F0858F"/>
<path d="M98.7753 129.774H98.8852C98.9787 129.741 99.0556 129.673 99.1 129.584C99.1444 129.495 99.1528 129.393 99.1234 129.298C98.5654 128.078 97.769 126.982 96.7811 126.075C95.7932 125.168 94.6338 124.469 93.3713 124.018C93.2789 123.987 93.1783 123.993 93.0899 124.034C93.0015 124.075 92.9319 124.148 92.895 124.238C92.8656 124.333 92.874 124.435 92.9184 124.524C92.9628 124.613 93.0397 124.681 93.1332 124.714C95.4645 125.569 97.3662 127.308 98.4272 129.554C98.4585 129.62 98.5078 129.676 98.5694 129.715C98.631 129.754 98.7024 129.774 98.7753 129.774Z" fill="#2A2A2A"/>
<path d="M126.781 146.953C126.781 146.953 121.011 132.011 111.43 140.408C101.85 148.805 118.465 158.888 123.429 156.285C128.393 153.681 126.781 146.953 126.781 146.953Z" fill="#2A2A2A"/>
<path d="M175.399 234.495C175.399 234.495 184.559 242.195 191.739 244.799C198.92 247.402 201.87 246.632 202.419 245.66C202.969 244.689 198.902 241.994 198.902 241.994C198.902 241.994 205.643 244.249 206.816 241.994C207.988 239.739 202.291 237.117 202.291 237.117C202.291 237.117 207.457 237.74 207.219 235.559C206.98 233.377 198.059 230.059 198.059 230.059C198.059 230.059 204.892 229.619 204.727 227.932C204.562 226.245 194.029 222.597 190.714 222.762C188.042 223.053 185.415 223.669 182.892 224.595L175.399 234.495Z" fill="#F0858F"/>
<path d="M189.397 232.479C194.764 232.479 196.907 229.93 197.017 229.802C197.053 229.765 197.08 229.722 197.098 229.674C197.116 229.626 197.123 229.575 197.12 229.524C197.117 229.473 197.104 229.423 197.08 229.378C197.057 229.333 197.024 229.293 196.985 229.261C196.945 229.229 196.899 229.205 196.85 229.192C196.801 229.179 196.749 229.176 196.699 229.184C196.648 229.192 196.6 229.21 196.557 229.237C196.514 229.265 196.477 229.301 196.449 229.344C196.449 229.344 193.079 233.267 184.249 231.049C184.203 231.035 184.155 231.031 184.108 231.036C184.061 231.042 184.015 231.057 183.974 231.081C183.932 231.105 183.896 231.138 183.868 231.176C183.84 231.215 183.82 231.259 183.809 231.305C183.796 231.352 183.791 231.402 183.797 231.45C183.802 231.499 183.817 231.546 183.841 231.589C183.865 231.631 183.897 231.669 183.936 231.699C183.974 231.729 184.019 231.751 184.066 231.764C185.807 232.219 187.597 232.46 189.397 232.479Z" fill="#2A2A2A"/>
<path d="M189.672 222.615C189.672 222.615 176.483 213.687 169.961 204.282C164.292 196.02 157.924 188.261 150.928 181.09L129.477 207.27L152.504 231.764L175.695 242.764L189.672 222.615Z" fill="#E9503E"/>
<path d="M141.566 143.158C137.576 141.686 133.192 141.686 129.201 143.158C127.363 143.947 125.749 145.181 124.505 146.749C123.262 148.317 122.427 150.17 122.076 152.141C121.251 153.107 120.798 154.336 120.798 155.606C120.798 156.877 121.251 158.105 122.076 159.071C124.215 161.821 127.003 163.994 130.191 165.396L141.566 143.158Z" fill="#2A2A2A"/>
<path d="M125.06 364.516L126.306 376.507H151.109V362.518L125.06 364.516Z" fill="#F0858F"/>
<path d="M51.0547 281.484L38.8179 279.926L33.1758 303.484L47.1345 306.674L51.0547 281.484Z" fill="#F0858F"/>
<path d="M47.7 278.257C47.7 278.257 77.2478 281.502 88.7518 266.836C98.0078 254.536 106.016 241.344 112.657 227.455L158.069 229.912C158.069 229.912 162.575 277.744 161.953 309.828C161.33 341.911 158.161 368.348 157.043 369.54C155.926 370.732 120.791 369.98 118.721 369.54C116.651 369.1 120.058 332.653 120.333 322.056C120.608 311.459 120.333 295.693 120.333 295.693C112.745 305.53 101.85 312.279 89.6677 314.686C69.7372 318.224 44.1279 314.686 42.4059 313.586C40.684 312.486 47.7 278.257 47.7 278.257Z" fill="#A3358C"/>
<path d="M162.652 386.003H162.762C163.256 385.857 174.522 382.19 175.731 378.542C175.841 378.237 175.874 377.91 175.826 377.59C175.778 377.27 175.651 376.967 175.456 376.708C175.256 376.402 174.985 376.149 174.666 375.97C174.347 375.792 173.99 375.693 173.624 375.682C171.243 375.517 167.634 378.542 165.363 380.723C166.865 377.973 168.807 373.756 168.092 371.556C168.001 371.248 167.84 370.964 167.62 370.729C167.401 370.493 167.13 370.312 166.828 370.2C166.52 370.071 166.185 370.015 165.851 370.038C165.518 370.06 165.194 370.159 164.905 370.328C161.809 372.051 160.05 380.998 159.977 381.328C159.961 381.423 159.983 381.52 160.038 381.599C160.092 381.678 160.176 381.732 160.27 381.75C160.317 381.76 160.366 381.761 160.413 381.752C160.461 381.743 160.506 381.724 160.545 381.696C160.585 381.668 160.618 381.633 160.644 381.592C160.669 381.55 160.685 381.504 160.692 381.457C160.692 381.457 162.523 372.473 165.253 370.915C165.455 370.816 165.678 370.765 165.903 370.765C166.129 370.765 166.351 370.816 166.553 370.915C166.757 370.989 166.94 371.111 167.086 371.271C167.233 371.43 167.339 371.622 167.396 371.831C168.385 374.893 163.256 382.942 163.201 383.015C163.174 383.053 163.154 383.096 163.144 383.142C163.134 383.188 163.133 383.236 163.141 383.282C163.15 383.328 163.168 383.372 163.194 383.411C163.22 383.451 163.253 383.484 163.293 383.51C163.36 383.572 163.449 383.606 163.54 383.606C163.632 383.606 163.72 383.572 163.787 383.51C163.787 383.51 170.034 376.507 173.46 376.507H173.588C173.844 376.509 174.096 376.576 174.32 376.701C174.544 376.826 174.733 377.005 174.87 377.222C175.002 377.387 175.088 377.584 175.121 377.793C175.153 378.002 175.129 378.216 175.053 378.413C174.137 381.145 165.729 384.372 162.56 385.398C162.471 385.432 162.397 385.497 162.353 385.582C162.309 385.666 162.298 385.764 162.322 385.857C162.36 385.907 162.41 385.948 162.467 385.973C162.525 385.999 162.589 386.009 162.652 386.003Z" fill="#E37329"/>
<path d="M186.886 399.937C186.099 400.248 162.01 400.89 145.322 401C144.222 400.193 143.984 394.327 140.98 394.327C137.976 394.327 137.316 396.362 136.272 398.892C136.043 399.528 135.619 400.075 135.059 400.454C134.499 400.833 133.833 401.024 133.158 401C130.556 401.019 127.964 400.661 125.464 399.937C124.887 398.16 124.584 396.305 124.567 394.437C124.09 388.002 124.09 378.45 124.09 378.45C123.868 376.871 123.752 375.278 123.742 373.683C123.742 372.18 152.044 372.748 152.044 372.748L170.363 386.865C173.861 386.345 177.416 386.345 180.914 386.865C183.827 387.323 185.696 390.788 186.63 394.07C187.472 397.003 187.546 399.68 186.886 399.937Z" fill="#2A2A2A"/>
<path d="M25.4442 327.116C25.6804 327.114 25.9149 327.077 26.1403 327.006C26.496 326.898 26.8211 326.708 27.0886 326.449C27.3561 326.191 27.5585 325.873 27.6791 325.521C28.4668 323.266 26.5433 319.123 25.0229 316.354C27.2944 318.518 30.8482 321.488 33.2296 321.488C33.5752 321.509 33.921 321.448 34.2391 321.311C34.5572 321.175 34.8388 320.965 35.0614 320.699C35.2699 320.448 35.4167 320.151 35.4898 319.833C35.563 319.514 35.5606 319.183 35.4827 318.866C34.7317 315.474 26.3235 311.276 25.9754 311.111C25.9333 311.091 25.8876 311.079 25.8409 311.076C25.7942 311.073 25.7474 311.079 25.7031 311.095C25.6589 311.11 25.6181 311.134 25.5831 311.165C25.5481 311.196 25.5196 311.234 25.4991 311.276C25.4787 311.318 25.4667 311.364 25.464 311.411C25.4612 311.457 25.4676 311.504 25.4829 311.549C25.4982 311.593 25.5221 311.634 25.5532 311.669C25.5842 311.704 25.6219 311.732 25.664 311.753C27.9905 312.926 34.2004 316.501 34.8233 319.086C34.8794 319.288 34.8854 319.5 34.8407 319.705C34.796 319.909 34.7019 320.1 34.5668 320.259C34.4341 320.428 34.2642 320.564 34.0704 320.656C33.8765 320.749 33.664 320.795 33.4494 320.791C30.0421 320.791 23.6307 313.788 23.5574 313.733C23.4934 313.677 23.4123 313.646 23.3277 313.644C23.2432 313.641 23.1605 313.669 23.0937 313.72C23.0268 313.772 22.9799 313.845 22.9609 313.928C22.9419 314.01 22.9521 314.097 22.9895 314.173C22.9895 314.173 28.2286 322.166 27.1295 325.283C27.0466 325.529 26.9047 325.751 26.7164 325.93C26.528 326.109 26.2988 326.239 26.0487 326.309C25.8345 326.381 25.6062 326.4 25.383 326.365C25.1599 326.33 24.9484 326.242 24.7664 326.108C21.8721 324.054 21.4507 312.596 21.4324 312.486C21.4324 312.389 21.3938 312.296 21.3251 312.227C21.2564 312.158 21.1632 312.119 21.0661 312.119C20.9687 312.128 20.8779 312.172 20.8105 312.243C20.7431 312.314 20.7037 312.407 20.6997 312.504C20.6997 312.999 21.1577 324.458 24.3634 326.694C24.6776 326.933 25.0518 327.079 25.4442 327.116Z" fill="#E37329"/>
<path d="M-0.00131607 331.15C-0.00131607 330.325 6.06211 307.591 10.6417 291.953C11.7409 291.128 17.5845 292.558 18.4271 289.753C19.2698 286.947 17.4746 285.682 15.258 284.051C14.7042 283.677 14.2867 283.134 14.0686 282.502C13.8505 281.871 13.8436 281.185 14.049 280.549C14.7742 278.106 15.8544 275.784 17.2547 273.656C19.1789 273.606 21.0994 273.847 22.9518 274.371C29.4182 275.727 38.8156 278.404 38.8156 278.404C40.4355 278.645 42.0385 278.988 43.6151 279.431C45.0622 279.907 36.5808 306.161 36.5808 306.161L17.5295 319.379C17.0593 322.8 16.0645 326.126 14.5802 329.243C13.3162 331.846 9.35944 332.616 5.86061 332.58C2.76477 332.525 0.0902786 331.846 -0.00131607 331.15Z" fill="#2A2A2A"/>
<path d="M120.408 296.022C120.479 296.046 120.556 296.046 120.627 296.022C120.902 295.839 127.424 291.182 132.773 276.791C135.268 269.773 137.402 262.632 139.166 255.395L152.135 253.745C152.231 253.727 152.316 253.674 152.374 253.596C152.432 253.518 152.458 253.42 152.447 253.324C152.445 253.275 152.433 253.227 152.411 253.184C152.389 253.14 152.357 253.102 152.319 253.073C152.28 253.043 152.236 253.022 152.188 253.011C152.141 253.001 152.091 253.001 152.044 253.012L138.818 254.699C138.744 254.708 138.675 254.739 138.619 254.788C138.564 254.837 138.524 254.902 138.506 254.974C136.741 262.266 134.601 269.462 132.095 276.534C126.837 290.687 120.279 295.381 120.206 295.417C120.143 295.488 120.108 295.579 120.108 295.674C120.108 295.769 120.143 295.86 120.206 295.931C120.262 295.982 120.332 296.015 120.408 296.022Z" fill="#EDE9E0"/>
<path d="M106.614 246.779C106.706 246.779 115.15 246.485 116.616 238.125C116.632 238.031 116.61 237.933 116.555 237.854C116.501 237.776 116.417 237.721 116.323 237.704C116.276 237.693 116.227 237.692 116.18 237.702C116.132 237.711 116.087 237.73 116.048 237.757C116.008 237.785 115.975 237.821 115.949 237.862C115.924 237.903 115.908 237.949 115.902 237.997C115.515 240.203 114.38 242.208 112.688 243.674C110.996 245.14 108.851 245.978 106.614 246.045C106.517 246.045 106.424 246.084 106.355 246.153C106.286 246.221 106.248 246.315 106.248 246.412C106.252 246.508 106.292 246.598 106.36 246.666C106.428 246.734 106.518 246.774 106.614 246.779Z" fill="#EDE9E0"/>
<path d="M130.188 168.348L130.445 178.12C130.445 178.12 132.277 180.888 138.194 181.218C142.572 181.457 143.891 179.238 143.891 179.238L142.627 170.713L131.965 168.696L130.188 168.348Z" fill="#F0858F"/>
<path d="M130.19 167.835C130.251 168.159 130.356 168.474 130.501 168.77C132.864 173.591 140.815 175.425 143.324 175.59L142.61 170.786L130.19 167.835Z" fill="#2A2A2A"/>
<path d="M144.277 148.365C144.277 148.365 149.443 161.693 147.941 167.358C146.109 174.233 139.643 173.207 135.796 171.905C133.637 171.244 131.695 170.016 130.172 168.348C129.089 168.672 127.933 168.654 126.861 168.296C125.79 167.938 124.854 167.259 124.182 166.35C121.764 163.141 123.193 159.401 125.226 158.54C125.968 158.32 126.747 158.254 127.516 158.345C128.284 158.436 129.026 158.684 129.696 159.071L127.772 155.551C127.772 155.551 135.613 137.493 144.277 148.365Z" fill="#F0858F"/>
<path d="M129.713 159.071C131.541 159.291 133.393 158.953 135.027 158.103C136.661 157.252 138.001 155.929 138.872 154.305C142.536 148.475 142.261 146.073 142.261 146.073L145.925 152.105C146.379 149.79 146.071 147.39 145.045 145.266C143.342 142.608 141.565 143.158 141.565 143.158L129.713 146.036L126.598 155.203L129.713 159.071Z" fill="#2A2A2A"/>
<path d="M143.854 163.82C143.933 163.823 144.01 163.799 144.073 163.752C144.136 163.705 144.182 163.639 144.202 163.563C144.398 162.643 144.396 161.691 144.197 160.772C143.998 159.852 143.607 158.985 143.048 158.228C143.021 158.188 142.986 158.154 142.945 158.128C142.904 158.101 142.859 158.084 142.811 158.075C142.763 158.067 142.714 158.068 142.667 158.078C142.62 158.089 142.575 158.108 142.535 158.136C142.476 158.209 142.443 158.299 142.443 158.393C142.443 158.487 142.476 158.577 142.535 158.65C143.019 159.323 143.361 160.088 143.541 160.898C143.72 161.708 143.734 162.546 143.58 163.361C143.555 163.454 143.566 163.552 143.61 163.636C143.654 163.721 143.728 163.786 143.818 163.82H143.854Z" fill="#2A2A2A"/>
<path d="M129.201 164.773C129.298 164.772 129.39 164.732 129.458 164.663C129.525 164.595 129.562 164.502 129.562 164.406C129.562 164.31 129.525 164.218 129.458 164.15L126.051 160.648C125.982 160.581 125.89 160.543 125.794 160.543C125.698 160.543 125.606 160.581 125.538 160.648C125.469 160.72 125.431 160.815 125.431 160.914C125.431 161.013 125.469 161.108 125.538 161.18L128.945 164.681C129.015 164.744 129.107 164.777 129.201 164.773Z" fill="#2A2A2A"/>
<path d="M125.608 163.838L128.008 163.471C128.056 163.467 128.102 163.453 128.144 163.43C128.186 163.407 128.222 163.375 128.252 163.338C128.281 163.3 128.302 163.256 128.314 163.21C128.325 163.164 128.327 163.115 128.32 163.068C128.313 163.02 128.297 162.973 128.272 162.931C128.247 162.889 128.214 162.853 128.174 162.824C128.135 162.794 128.091 162.774 128.043 162.762C127.996 162.751 127.946 162.749 127.898 162.756L125.554 163.105C125.458 163.123 125.373 163.176 125.315 163.254C125.257 163.333 125.231 163.43 125.242 163.526C125.255 163.614 125.3 163.694 125.367 163.751C125.434 163.808 125.52 163.839 125.608 163.838Z" fill="#2A2A2A"/>
<path d="M146.255 158.851H146.365C146.412 158.839 146.456 158.817 146.494 158.787C146.532 158.756 146.563 158.718 146.586 158.675C146.608 158.632 146.621 158.585 146.624 158.536C146.627 158.487 146.62 158.439 146.603 158.393L145.962 156.34L146.585 155.093C146.629 155.006 146.636 154.904 146.605 154.811C146.574 154.719 146.507 154.642 146.42 154.598C146.333 154.554 146.231 154.547 146.139 154.578C146.046 154.609 145.969 154.676 145.925 154.763L145.248 156.138C145.212 156.226 145.212 156.325 145.248 156.413L145.907 158.668C145.942 158.729 145.993 158.778 146.054 158.81C146.116 158.843 146.186 158.857 146.255 158.851Z" fill="#2A2A2A"/>
<path d="M132.955 177.221C132.955 177.221 113.867 144.001 110.734 126.566L84.8868 134.339C89.6496 172.29 108.701 194.712 108.701 194.712C108.701 194.712 109.031 229.875 109.525 230.517C110.02 231.159 123.557 234.184 138.835 233.285C154.113 232.387 157.318 230.37 158.161 229.875C159.004 229.38 150.943 181.126 150.943 181.126C150.943 181.126 144.88 177.368 132.955 177.221Z" fill="#E9503E"/>
<path d="M139.953 159.438H140.044C140.136 159.409 140.213 159.344 140.258 159.258C140.302 159.172 140.311 159.072 140.282 158.98L139.641 156.945L140.246 155.9C140.272 155.859 140.289 155.814 140.296 155.766C140.304 155.719 140.302 155.671 140.29 155.624C140.278 155.578 140.256 155.534 140.226 155.496C140.197 155.459 140.16 155.427 140.117 155.405C140.035 155.357 139.936 155.344 139.844 155.368C139.752 155.392 139.672 155.451 139.623 155.533L138.927 156.706C138.904 156.752 138.892 156.802 138.892 156.853C138.892 156.904 138.904 156.954 138.927 157L139.623 159.2C139.646 159.269 139.69 159.329 139.749 159.372C139.808 159.415 139.88 159.438 139.953 159.438Z" fill="#2A2A2A"/>
<path d="M146.254 153.846C146.335 153.828 146.407 153.782 146.459 153.718C146.511 153.653 146.539 153.572 146.539 153.489C146.539 153.406 146.511 153.325 146.459 153.26C146.407 153.195 146.335 153.15 146.254 153.131L144.038 152.746C143.939 152.735 143.839 152.76 143.758 152.818C143.677 152.875 143.62 152.961 143.598 153.058C143.591 153.154 143.619 153.249 143.676 153.326C143.733 153.404 143.816 153.458 143.909 153.48L146.126 153.846H146.254Z" fill="#2A2A2A"/>
<path d="M137.04 155.276H137.205L140.869 153.443C140.95 153.393 141.012 153.316 141.042 153.226C141.072 153.135 141.069 153.037 141.033 152.948C141.012 152.904 140.982 152.866 140.946 152.834C140.909 152.802 140.867 152.777 140.821 152.762C140.775 152.747 140.726 152.741 140.678 152.744C140.629 152.748 140.582 152.761 140.539 152.783L136.875 154.616C136.832 154.638 136.793 154.668 136.761 154.704C136.729 154.741 136.705 154.783 136.689 154.829C136.674 154.875 136.668 154.924 136.672 154.972C136.675 155.021 136.688 155.068 136.71 155.111C136.747 155.164 136.797 155.207 136.854 155.236C136.912 155.265 136.976 155.279 137.04 155.276Z" fill="#2A2A2A"/>
<path d="M158.198 227.895C158.25 227.895 158.3 227.885 158.347 227.864C158.394 227.844 158.437 227.813 158.471 227.775C158.506 227.737 158.532 227.692 158.548 227.643C158.564 227.595 158.57 227.543 158.565 227.492L156.531 205.143C156.529 205.094 156.517 205.046 156.495 205.002C156.473 204.958 156.442 204.919 156.404 204.888C156.366 204.857 156.321 204.834 156.274 204.821C156.226 204.808 156.177 204.806 156.128 204.813C156.081 204.816 156.034 204.828 155.992 204.848C155.949 204.869 155.911 204.899 155.88 204.935C155.849 204.971 155.826 205.013 155.812 205.058C155.798 205.103 155.793 205.151 155.798 205.198L157.832 227.565C157.841 227.656 157.884 227.74 157.951 227.801C158.019 227.862 158.107 227.896 158.198 227.895Z" fill="#EDE9E0"/>
<path d="M132.954 177.222C132.954 177.222 140.905 183.455 143.121 178.817C145.338 174.178 132.954 177.222 132.954 177.222Z" fill="#F0858F"/>
<path d="M141.036 167.083C141.242 167.119 141.452 167.119 141.659 167.083C141.705 167.073 141.749 167.052 141.787 167.024C141.826 166.996 141.858 166.96 141.882 166.919C141.906 166.878 141.922 166.832 141.927 166.784C141.933 166.737 141.929 166.689 141.915 166.643C141.902 166.596 141.88 166.551 141.85 166.513C141.82 166.474 141.783 166.442 141.74 166.418C141.697 166.394 141.65 166.379 141.602 166.374C141.553 166.368 141.504 166.372 141.457 166.386C140.211 166.735 139.625 165.396 139.625 165.341C139.582 165.254 139.506 165.186 139.414 165.152C139.322 165.117 139.221 165.12 139.131 165.158C139.044 165.198 138.977 165.27 138.942 165.359C138.908 165.448 138.91 165.547 138.947 165.635C139.125 166.048 139.415 166.402 139.784 166.658C140.153 166.914 140.587 167.061 141.036 167.083Z" fill="#2A2A2A"/>
<path d="M139.605 180.87H139.825C140.533 180.855 141.229 180.683 141.863 180.366C142.497 180.049 143.052 179.595 143.489 179.036C143.524 179.004 143.553 178.964 143.572 178.92C143.592 178.876 143.602 178.828 143.602 178.78C143.602 178.732 143.592 178.684 143.572 178.64C143.553 178.595 143.524 178.556 143.489 178.523C143.42 178.456 143.328 178.418 143.232 178.418C143.136 178.418 143.044 178.456 142.976 178.523C142.609 178.984 142.148 179.362 141.624 179.631C141.099 179.9 140.524 180.053 139.935 180.081H139.734C136.619 180.081 133.377 176.928 133.34 176.891C133.272 176.824 133.18 176.787 133.084 176.787C132.988 176.787 132.896 176.824 132.827 176.891C132.792 176.924 132.764 176.964 132.744 177.008C132.725 177.052 132.715 177.1 132.715 177.148C132.715 177.196 132.725 177.244 132.744 177.288C132.764 177.332 132.792 177.372 132.827 177.405C132.846 177.625 136.18 180.87 139.605 180.87Z" fill="#EDE9E0"/>
<path d="M96.081 2.83339L118.063 41.6637C118.223 41.9117 118.473 42.0889 118.759 42.1587L162.541 51.2155C163.161 51.3073 163.743 51.5712 164.22 51.9774C164.698 52.3836 165.053 52.9157 165.243 53.5133C165.434 54.1109 165.454 54.7501 165.3 55.3583C165.146 55.9664 164.825 56.5192 164.372 56.9538L133.634 89.4041C133.523 89.5192 133.44 89.6587 133.392 89.8115C133.345 89.9643 133.333 90.1262 133.359 90.2841L141.053 135.513C141.157 136.131 141.087 136.766 140.851 137.346C140.615 137.927 140.221 138.43 139.715 138.799C139.209 139.168 138.611 139.389 137.986 139.437C137.362 139.485 136.736 139.358 136.18 139.07L93.4798 117.344C93.3361 117.267 93.1756 117.227 93.0126 117.227C92.8496 117.227 92.6892 117.267 92.5455 117.344L50.7243 139.07C50.1688 139.365 49.5414 139.498 48.9138 139.454C48.2862 139.409 47.6839 139.189 47.1756 138.818C46.6672 138.447 46.2735 137.94 46.0394 137.356C45.8053 136.771 45.7402 136.133 45.8516 135.513L52.9226 90.3758C52.9484 90.2206 52.937 90.0616 52.8892 89.9117C52.8415 89.7619 52.7587 89.6256 52.6478 89.5141L21.6712 56.9538C21.2191 56.5192 20.8979 55.9664 20.7439 55.3583C20.59 54.7501 20.6095 54.1109 20.8003 53.5133C20.9911 52.9157 21.3454 52.3836 21.8232 51.9774C22.3009 51.5712 22.8829 51.3073 23.503 51.2155L67.614 42.1587C67.7562 42.1245 67.8898 42.0612 68.0064 41.9728C68.1231 41.8845 68.2202 41.773 68.2918 41.6454L89.9626 2.83339C90.2327 2.24897 90.6643 1.75413 91.2064 1.40732C91.7485 1.06051 92.3784 0.876221 93.0218 0.876221C93.6652 0.876221 94.2951 1.06051 94.8372 1.40732C95.3793 1.75413 95.8109 2.24897 96.081 2.83339Z" fill="#FDC844"/>
<path d="M42.0038 54.1672H42.187L68.3092 48.6671C68.5449 48.6142 68.751 48.472 68.8842 48.2704C69.0174 48.0687 69.0674 47.8232 69.0236 47.5854C68.9708 47.3495 68.8287 47.1433 68.6272 47.01C68.4257 46.8767 68.1804 46.8267 67.9428 46.8704L41.8206 52.3705C41.7027 52.3945 41.5907 52.4416 41.491 52.509C41.3913 52.5764 41.3058 52.6628 41.2395 52.7632C41.1732 52.8636 41.1272 52.9762 41.1044 53.0944C41.0815 53.2126 41.0821 53.3342 41.1062 53.4522C41.1489 53.6575 41.262 53.8413 41.426 53.9719C41.5899 54.1025 41.7943 54.1716 42.0038 54.1672Z" fill="#EDE9E0"/>
<path d="M108.521 112.248C105.352 112.559 100.442 121.671 100.992 123.449C101.541 125.228 106.671 127.281 106.671 127.281C106.671 127.281 111.672 111.954 108.521 112.248Z" fill="#F0858F"/>
</svg>
