<svg width="334" height="366" viewBox="0 0 334 366" fill="none" xmlns="http://www.w3.org/2000/svg">
<g clip-path="url(#clip0_603_2173)">
<path d="M196.23 311.505L197.979 333.504L222.047 331.661V312.38L196.23 311.505Z" fill="#F0858F"/>
<path d="M225.557 353.493C224.701 354.908 214.397 353.493 213.578 353.791C212.76 354.089 210.193 348.393 208.501 349.231C206.808 350.068 204.781 352.693 202.307 353.902C199.833 355.112 162.094 354.759 154.765 353.791C154.622 353.773 154.483 353.726 154.359 353.653C154.234 353.579 154.126 353.481 154.04 353.364C153.955 353.248 153.894 353.114 153.862 352.973C153.83 352.832 153.827 352.686 153.854 352.544C154.316 349.995 155.039 347.5 156.011 345.099C157.017 342.373 158.747 339.972 161.015 338.157C166.892 333.951 179.206 332.313 183.688 329.502C188.171 326.692 193.193 319.936 195.853 321.22C198.512 322.504 203.534 328.442 210.733 327.604C217.931 326.767 221.372 325.11 223.325 326.804C224.552 327.865 225.427 337.673 225.687 345.099C225.969 347.893 225.926 350.71 225.557 353.493Z" fill="#2A2A2A"/>
<path d="M185.367 333.913C184.846 333.913 174.542 331.866 173.147 328.33C173.04 328.129 172.997 327.9 173.023 327.674C173.05 327.447 173.145 327.235 173.296 327.064C174.486 325.78 180.364 327.269 183.898 328.311C181.647 326.562 178.318 323.602 177.983 321.425C177.937 321.15 177.954 320.869 178.031 320.602C178.108 320.334 178.244 320.088 178.429 319.88C178.584 319.691 178.781 319.541 179.003 319.441C179.226 319.341 179.469 319.294 179.713 319.303C182.986 319.303 189.143 327.027 189.831 327.902C189.908 327.982 189.952 328.088 189.952 328.199C189.952 328.311 189.908 328.417 189.831 328.497C189.795 328.537 189.75 328.569 189.7 328.591C189.651 328.613 189.597 328.624 189.543 328.624C189.489 328.624 189.435 328.613 189.385 328.591C189.336 328.569 189.291 328.537 189.255 328.497C187.395 326.208 182.224 320.271 179.824 320.215C179.696 320.205 179.567 320.226 179.448 320.274C179.328 320.323 179.222 320.398 179.136 320.494C179.035 320.618 178.962 320.761 178.92 320.915C178.879 321.069 178.87 321.23 178.894 321.388C179.211 323.751 184.474 327.809 186.446 329.186C186.533 329.237 186.598 329.319 186.625 329.416C186.653 329.514 186.642 329.618 186.595 329.707C186.548 329.795 186.473 329.865 186.382 329.905C186.291 329.946 186.189 329.955 186.093 329.93C180.754 328.162 174.784 326.859 173.984 327.716C173.984 327.716 173.984 327.809 173.984 328.088C175.007 330.638 182.633 332.573 185.497 333.113C185.604 333.136 185.699 333.198 185.761 333.288C185.823 333.378 185.849 333.489 185.832 333.597C185.81 333.699 185.749 333.789 185.663 333.848C185.576 333.907 185.47 333.93 185.367 333.913Z" fill="#179FDB"/>
<path d="M231.159 241.953L229.299 321.779L185.812 320.271C185.812 320.271 186.835 291.237 188.398 251.035C189.384 225.277 191.82 198.922 193.42 183.307C194.331 174.56 194.982 169.199 194.982 169.199H230.136L231.159 241.953Z" fill="#E37329"/>
<path d="M222.718 194.698L193.441 183.326C194.353 174.578 195.004 169.218 195.004 169.218H221.992L222.718 194.698Z" fill="#E37329"/>
<path d="M277.714 233.503L291.273 216.101L272.32 201.174L259.281 215.375L277.714 233.503Z" fill="#F0858F"/>
<path d="M284.465 182.693C286.009 182.209 292.203 189.691 292.984 190.138C293.765 190.584 291.682 196.28 293.412 196.726C295.141 197.173 298.341 196.559 300.852 197.247C303.363 197.936 329.328 222.224 333.774 227.603C333.859 227.717 333.921 227.847 333.955 227.985C333.989 228.124 333.995 228.268 333.973 228.408C333.95 228.549 333.899 228.684 333.824 228.804C333.748 228.925 333.649 229.029 333.532 229.111C331.508 230.7 329.326 232.079 327.022 233.224C324.513 234.556 321.695 235.199 318.856 235.085C311.937 234.434 302.284 227.808 297.299 227.008C292.314 226.207 284.279 228.013 283.256 225.351C282.233 222.69 282.791 215.152 277.174 211.132C271.557 207.112 268.116 206.2 267.874 203.687C267.725 202.124 273.751 194.381 278.587 188.798C280.317 186.553 282.288 184.506 284.465 182.693Z" fill="#2A2A2A"/>
<path d="M296.332 239.347C296.11 239.346 295.89 239.302 295.686 239.215C295.482 239.129 295.296 239.003 295.141 238.845C292.816 236.611 293.467 226.803 293.56 225.686C293.56 225.578 293.603 225.473 293.68 225.397C293.757 225.32 293.861 225.277 293.969 225.277C294.078 225.277 294.182 225.32 294.259 225.397C294.335 225.473 294.379 225.578 294.379 225.686C294.174 228.59 293.988 236.5 295.736 238.175C295.822 238.269 295.929 238.341 296.05 238.383C296.17 238.426 296.299 238.437 296.425 238.417C296.585 238.4 296.74 238.346 296.875 238.259C297.011 238.172 297.124 238.054 297.206 237.914C298.582 236.053 297.448 229.427 296.908 227.063C296.884 226.965 296.897 226.861 296.945 226.771C296.993 226.682 297.073 226.613 297.169 226.579C297.261 226.552 297.36 226.555 297.451 226.589C297.541 226.622 297.618 226.684 297.671 226.766C300.405 231.66 303.939 236.648 305.111 236.593C305.111 236.593 305.241 236.593 305.353 236.313C306.301 233.745 301.986 227.138 300.238 224.811C300.176 224.718 300.151 224.606 300.168 224.496C300.186 224.385 300.243 224.286 300.331 224.216C300.407 224.14 300.511 224.097 300.619 224.097C300.727 224.097 300.83 224.14 300.907 224.216C301.186 224.569 307.454 232.982 306.134 236.5C306.078 236.722 305.955 236.921 305.782 237.071C305.609 237.221 305.394 237.314 305.167 237.337C303.307 237.337 300.07 232.368 298.192 229.241C298.675 232.07 299.159 236.518 297.894 238.305C297.744 238.542 297.542 238.743 297.304 238.891C297.065 239.039 296.797 239.131 296.518 239.161L296.332 239.347Z" fill="#179FDB"/>
<path d="M43.1498 72.3811C43.1498 72.3811 36.491 65.7181 28.4186 68.8635C20.3462 72.0089 18.3002 81.1287 25.1822 87.1216C32.0642 93.1146 40.1924 88.8339 40.1924 88.8339L43.1498 72.3811Z" fill="#2A2A2A"/>
<path d="M214.233 78.5231C214.233 78.5231 204.505 79.342 203.631 70.0175C202.682 60.0789 211.852 58.8505 215.907 62.6845C217.078 63.6614 218.009 64.8945 218.628 66.2885C219.247 67.6826 219.538 69.2004 219.478 70.7248C219.872 70.3646 220.335 70.0875 220.838 69.9098C221.341 69.7321 221.875 69.6576 222.408 69.6906C222.941 69.7236 223.461 69.8634 223.939 70.1019C224.417 70.3403 224.841 70.6724 225.188 71.0784C225.854 71.8711 226.317 72.814 226.537 73.8256C226.757 74.8372 226.729 75.8873 226.453 76.8853C226.453 76.8853 231.475 76.4944 231.159 80.9054C231.074 82.1987 230.732 83.462 230.154 84.6219C229.576 85.7818 228.773 86.8151 227.792 87.6615L214.233 78.5231Z" fill="#2A2A2A"/>
<path d="M223.777 95.4225L223.201 105.826C223.201 105.826 221.136 108.693 215.035 108.823C210.478 108.823 208.953 107.781 208.953 107.781L209.92 102.551L210.85 97.4512L222.01 95.7203L223.777 95.4225Z" fill="#F0858F"/>
<path d="M221.9 95.7203C221.835 96.0657 221.716 96.3985 221.547 96.7068C218.887 101.751 212.47 102.476 209.848 102.551L210.778 97.4512L221.9 95.7203Z" fill="#2A2A2A"/>
<path d="M209.922 73.6096C209.922 73.6096 203.672 86.3215 205.365 93.6917C207.058 101.062 213.754 100.224 217.79 98.9961C220.074 98.372 222.144 97.1365 223.779 95.4226C224.889 95.8159 226.095 95.8477 227.224 95.5133C228.354 95.179 229.348 94.4958 230.066 93.5614C232.688 90.2299 231.349 86.1167 229.285 85.1861C228.52 84.9281 227.711 84.8313 226.907 84.9018C226.104 84.9722 225.324 85.2085 224.616 85.5956L226.755 81.8733C226.755 81.8733 219.352 62.3681 209.922 73.6096Z" fill="#F0858F"/>
<path d="M224.683 91.1976C224.613 91.2013 224.543 91.1859 224.481 91.1532C224.419 91.1204 224.366 91.0715 224.33 91.0115C224.299 90.9654 224.278 90.9136 224.268 90.8593C224.258 90.8049 224.26 90.7491 224.272 90.6952C224.284 90.6413 224.307 90.5904 224.339 90.5456C224.372 90.5008 224.413 90.463 224.46 90.4345L229.333 87.345C229.428 87.2883 229.54 87.2702 229.648 87.2944C229.755 87.3187 229.849 87.3835 229.91 87.4753C229.94 87.5213 229.961 87.5731 229.971 87.6275C229.981 87.6818 229.98 87.7377 229.968 87.7916C229.956 87.8455 229.933 87.8964 229.9 87.9412C229.868 87.986 229.827 88.0237 229.78 88.0522L224.906 91.1976C224.833 91.2144 224.757 91.2144 224.683 91.1976Z" fill="#2A2A2A"/>
<path d="M228.949 91.4024H228.782L225.75 90.416C225.699 90.3989 225.652 90.3718 225.611 90.3364C225.57 90.3009 225.536 90.2578 225.512 90.2094C225.488 90.161 225.474 90.1083 225.47 90.0544C225.466 90.0004 225.473 89.9462 225.49 89.8949C225.507 89.8435 225.534 89.7961 225.569 89.7552C225.605 89.7143 225.648 89.6808 225.696 89.6567C225.745 89.6325 225.797 89.618 225.851 89.6142C225.905 89.6104 225.959 89.6172 226.011 89.6343L229.042 90.6207C229.147 90.655 229.234 90.7283 229.286 90.8254C229.338 90.9224 229.351 91.0358 229.321 91.1419C229.288 91.2146 229.236 91.2772 229.171 91.323C229.106 91.3688 229.029 91.3963 228.949 91.4024Z" fill="#2A2A2A"/>
<path d="M218.308 79.6397C218.24 79.642 218.174 79.6259 218.115 79.5931C218.056 79.5603 218.007 79.5121 217.973 79.4536C217.68 78.9514 217.216 78.5715 216.666 78.3835C216.116 78.1956 215.517 78.212 214.978 78.43C214.877 78.4744 214.763 78.4768 214.66 78.4367C214.557 78.3965 214.474 78.3171 214.43 78.2159C214.385 78.1147 214.383 78 214.423 77.8971C214.463 77.7941 214.542 77.7113 214.644 77.6669C215.36 77.3684 216.16 77.3376 216.898 77.5802C217.635 77.8227 218.261 78.3225 218.661 78.9883C218.692 79.0333 218.714 79.084 218.726 79.1377C218.737 79.1913 218.738 79.2466 218.727 79.3004C218.717 79.3542 218.696 79.4054 218.665 79.4509C218.635 79.4964 218.595 79.5353 218.55 79.5653C218.48 79.6176 218.395 79.6439 218.308 79.6397Z" fill="#2A2A2A"/>
<path d="M208.317 78.5231C208.252 78.5254 208.187 78.5113 208.128 78.4821C208.07 78.4528 208.019 78.4093 207.982 78.3556C207.906 78.2789 207.863 78.1752 207.863 78.0671C207.863 77.959 207.906 77.8553 207.982 77.7786C209.6 76.6061 210.474 77.2016 210.586 77.2761C210.675 77.3402 210.735 77.4371 210.752 77.5453C210.769 77.6535 210.743 77.7642 210.679 77.853C210.615 77.9419 210.518 78.0016 210.41 78.0191C210.302 78.0365 210.191 78.0103 210.102 77.9461C210.102 77.9461 209.544 77.6669 208.466 78.4486C208.422 78.4844 208.371 78.5098 208.317 78.5231Z" fill="#2A2A2A"/>
<path d="M210.062 90.2856C209.994 90.2841 209.926 90.2643 209.867 90.2284C209.809 90.1924 209.76 90.1415 209.728 90.0809C207.626 86.8052 210.992 82.8968 211.141 82.7293C211.179 82.6887 211.226 82.6564 211.277 82.6343C211.328 82.6122 211.383 82.6008 211.439 82.6008C211.495 82.6008 211.55 82.6122 211.601 82.6343C211.652 82.6564 211.698 82.6887 211.736 82.7293C211.813 82.806 211.855 82.9097 211.855 83.0177C211.855 83.1258 211.813 83.2295 211.736 83.3062C211.736 83.3062 208.63 86.9355 210.379 89.6714C210.41 89.7164 210.432 89.7672 210.443 89.8208C210.455 89.8744 210.455 89.9297 210.445 89.9835C210.434 90.0373 210.413 90.0885 210.383 90.134C210.352 90.1795 210.313 90.2184 210.267 90.2484C210.202 90.2745 210.132 90.2871 210.062 90.2856Z" fill="#2A2A2A"/>
<path d="M207.999 83.5294H207.869C207.763 83.4914 207.677 83.4136 207.628 83.3127C207.58 83.2118 207.573 83.0958 207.608 82.9897L208.408 80.6446C208.425 80.5931 208.452 80.5454 208.487 80.5043C208.523 80.4633 208.566 80.4296 208.614 80.4054C208.663 80.3812 208.715 80.3668 208.769 80.3631C208.824 80.3595 208.878 80.3665 208.929 80.384C209.034 80.422 209.121 80.4998 209.169 80.6007C209.218 80.7016 209.225 80.8176 209.189 80.9237L208.315 83.2502C208.291 83.3201 208.249 83.3826 208.194 83.4315C208.138 83.4804 208.071 83.5142 207.999 83.5294Z" fill="#2A2A2A"/>
<path d="M214.565 84.0693H214.435C214.33 84.0313 214.244 83.9536 214.195 83.8526C214.146 83.7517 214.139 83.6357 214.175 83.5296L214.975 81.1845C214.991 81.133 215.018 81.0853 215.054 81.0442C215.089 81.0032 215.132 80.9696 215.181 80.9453C215.229 80.9211 215.282 80.9067 215.336 80.903C215.39 80.8994 215.444 80.9065 215.495 80.9239C215.601 80.9619 215.687 81.0397 215.736 81.1406C215.784 81.2415 215.792 81.3575 215.756 81.4637L214.956 83.7529C214.933 83.8401 214.882 83.9177 214.812 83.9746C214.742 84.0314 214.656 84.0645 214.565 84.0693Z" fill="#2A2A2A"/>
<path d="M208.654 76.4944C209.081 75.8789 209.66 75.3841 210.335 75.0581C211.009 74.732 211.757 74.5857 212.504 74.6332C213.273 74.6811 214.023 74.8877 214.708 75.2401C215.394 75.5924 215.998 76.0828 216.485 76.6805C216.102 77.8911 216.088 79.1879 216.442 80.407C216.796 81.6261 217.504 82.7128 218.475 83.5296C220.176 84.9862 222.378 85.7207 224.613 85.5769L227.235 84.8325L229.337 81.1101L222.437 72.679L213.137 67.0955L207.984 71.2273L208.654 76.4944Z" fill="#2A2A2A"/>
<path d="M212.165 92.8539C211.998 92.8746 211.829 92.8746 211.662 92.8539C211.608 92.8471 211.556 92.8295 211.509 92.8023C211.462 92.7751 211.421 92.7388 211.388 92.6955C211.355 92.6522 211.331 92.6027 211.318 92.55C211.304 92.4973 211.301 92.4425 211.309 92.3886C211.327 92.2817 211.385 92.1857 211.472 92.1201C211.558 92.0544 211.666 92.024 211.774 92.035C212.386 92.1233 213.01 92.0269 213.566 91.7584C214.123 91.4898 214.587 91.0613 214.899 90.5275C214.924 90.4795 214.959 90.4371 215.001 90.4027C215.043 90.3683 215.091 90.3425 215.143 90.327C215.195 90.3114 215.249 90.3063 215.303 90.3119C215.357 90.3176 215.409 90.3339 215.457 90.3599C215.555 90.4149 215.627 90.5062 215.659 90.6141C215.69 90.7221 215.678 90.838 215.624 90.9369C215.275 91.5396 214.768 92.0362 214.159 92.3738C213.55 92.7114 212.861 92.8773 212.165 92.8539Z" fill="#2A2A2A"/>
<path d="M207.371 188.611C207.314 188.609 207.259 188.596 207.208 188.572C207.157 188.548 207.111 188.515 207.073 188.473C207.035 188.432 207.006 188.383 206.987 188.33C206.967 188.277 206.959 188.221 206.961 188.165L208.077 172.066C208.095 171.96 208.15 171.865 208.232 171.797C208.314 171.729 208.417 171.692 208.524 171.693C208.58 171.693 208.636 171.704 208.687 171.727C208.739 171.751 208.785 171.784 208.822 171.827C208.859 171.869 208.886 171.919 208.902 171.973C208.918 172.027 208.922 172.084 208.914 172.14L207.78 188.221C207.78 188.274 207.769 188.326 207.748 188.375C207.728 188.423 207.697 188.467 207.659 188.504C207.621 188.54 207.575 188.569 207.526 188.587C207.476 188.606 207.423 188.614 207.371 188.611Z" fill="#FDC844"/>
<path d="M199.783 185.15C199.728 185.152 199.673 185.143 199.621 185.124C199.569 185.104 199.522 185.075 199.482 185.036C199.442 184.998 199.41 184.952 199.388 184.901C199.367 184.85 199.355 184.795 199.355 184.74V171.116C199.355 171.061 199.367 171.006 199.388 170.955C199.41 170.904 199.442 170.858 199.482 170.82C199.522 170.782 199.569 170.752 199.621 170.733C199.673 170.713 199.728 170.704 199.783 170.707C199.892 170.707 199.996 170.75 200.073 170.827C200.149 170.904 200.192 171.008 200.192 171.116V184.74C200.192 184.794 200.182 184.847 200.161 184.897C200.141 184.946 200.111 184.992 200.073 185.03C200.035 185.068 199.99 185.098 199.94 185.118C199.89 185.139 199.837 185.15 199.783 185.15Z" fill="#FDC844"/>
<path d="M148.797 62.2192C148.797 62.2192 148.257 80.9612 154.6 82.3571C158.144 83.2154 161.834 83.2789 165.406 82.5432C165.406 82.5432 177.738 71.6367 174.279 66.444C164.476 51.9269 148.797 62.2192 148.797 62.2192Z" fill="#F0858F"/>
<path d="M118.668 57.2871C118.668 57.2871 113.088 78.6534 106.336 78.3928C102.598 78.3331 98.9193 77.4431 95.5667 75.7872C95.5667 75.7872 87.1409 62.6287 92.1815 58.683C102.411 50.6613 118.668 57.2871 118.668 57.2871Z" fill="#F0858F"/>
<path d="M247.82 165.123C247.82 165.123 252.674 181.613 255.26 195.014C257.845 208.414 261.081 229.576 261.081 229.576C261.081 229.576 272.837 272.383 246.518 278.134C227.732 282.284 220.478 260.732 215.325 243.423C211.977 232.088 210.434 201.398 210.434 189.579V169.106L247.82 165.123Z" fill="#E37329"/>
<path d="M288.93 229.576L259.71 208.191L252.493 220.345L249.852 277.129C249.852 277.129 266.387 271.62 288.93 229.576Z" fill="#E37329"/>
<path d="M247.766 278.246C247.059 278.246 231.026 276.868 220.945 246.475C210.864 216.083 218.043 172.475 218.118 172.029C218.124 171.973 218.142 171.92 218.171 171.872C218.199 171.824 218.238 171.783 218.284 171.751C218.329 171.719 218.381 171.698 218.436 171.688C218.491 171.678 218.547 171.68 218.601 171.693C218.712 171.712 218.811 171.773 218.877 171.863C218.943 171.954 218.971 172.067 218.955 172.177C218.955 172.605 211.757 216.194 221.745 246.215C231.733 276.236 247.617 277.408 247.785 277.408C247.895 277.418 247.997 277.47 248.07 277.553C248.143 277.636 248.181 277.744 248.175 277.855C248.166 277.959 248.12 278.056 248.045 278.128C247.969 278.2 247.87 278.242 247.766 278.246Z" fill="#FDC844"/>
<path d="M253.72 267.767C253.143 267.767 252.566 267.767 251.971 267.674C245.238 266.948 239.119 262.091 233.818 253.38C216.687 225.072 227.773 171.489 227.884 171.042C227.896 170.983 227.92 170.928 227.954 170.878C227.987 170.829 228.031 170.786 228.081 170.753C228.131 170.72 228.187 170.698 228.246 170.687C228.304 170.676 228.365 170.676 228.424 170.688C228.482 170.701 228.538 170.724 228.587 170.758C228.637 170.792 228.679 170.835 228.712 170.885C228.745 170.935 228.767 170.991 228.779 171.05C228.79 171.109 228.789 171.169 228.777 171.228C228.665 171.768 217.617 224.942 234.617 252.971C239.77 261.495 245.666 266.167 252.139 266.855C261.29 267.86 268.525 260.322 268.6 260.248C268.634 260.196 268.679 260.151 268.732 260.118C268.785 260.085 268.845 260.064 268.907 260.056C268.969 260.049 269.032 260.055 269.092 260.075C269.151 260.094 269.205 260.127 269.251 260.169C269.297 260.212 269.332 260.265 269.356 260.323C269.379 260.381 269.389 260.443 269.385 260.506C269.382 260.569 269.364 260.63 269.335 260.685C269.305 260.74 269.264 260.788 269.213 260.825C269.213 260.825 262.443 267.767 253.72 267.767Z" fill="#FDC844"/>
<path d="M274.696 56.0027C274.696 56.0027 282.787 43.3839 284.963 34.2083C287.139 25.0327 285.8 21.4221 284.48 20.9195C283.159 20.417 280.536 25.833 280.536 25.833C280.536 25.833 282.396 17.16 279.439 16.0991C276.482 15.0382 274.101 22.4643 274.101 22.4643C274.101 22.4643 274.119 16.006 271.553 16.7505C268.986 17.495 265.619 31.4352 265.619 31.4352C265.619 31.4352 264.95 23.9905 262.904 24.493C260.858 24.9955 257.677 35.1017 258.365 39.159C259.12 42.3898 260.269 45.5152 261.788 48.4649L274.696 56.0027Z" fill="#F0858F"/>
<path d="M222.004 104.375C222.004 104.375 237.089 85.6142 242.873 72.5859C248.658 59.5577 254.647 41.9696 254.647 41.9696L281.971 55.5748C279.711 69.4852 275.273 82.9519 268.82 95.4784C258.237 115.765 249.718 132.385 249.718 132.385C249.718 132.385 250.853 169.609 250.258 170.484C249.662 171.358 234.931 176.477 216.647 175.453C198.364 174.429 192.784 170.298 191.798 169.683C190.812 169.069 199.368 112.117 199.368 112.117C199.368 112.117 217.038 109.902 222.004 104.375Z" fill="#7BBC48"/>
<path d="M268.788 45.6546C268.73 45.6523 268.673 45.6383 268.621 45.6134C268.568 45.5884 268.522 45.5532 268.483 45.5097C268.445 45.4661 268.416 45.4153 268.398 45.3603C268.38 45.3052 268.373 45.247 268.378 45.1893C269.569 35.567 265.309 31.7144 265.254 31.6772C265.201 31.6444 265.155 31.6004 265.121 31.5484C265.087 31.4963 265.065 31.4374 265.055 31.3758C265.046 31.3141 265.051 31.2513 265.068 31.1915C265.086 31.1318 265.117 31.0766 265.158 31.0299C265.199 30.9831 265.25 30.946 265.307 30.921C265.364 30.896 265.426 30.8837 265.488 30.8851C265.55 30.8865 265.612 30.9015 265.667 30.929C265.723 30.9565 265.773 30.9959 265.812 31.0444C265.998 31.2119 270.462 35.1948 269.215 45.2824C269.202 45.386 269.151 45.481 269.072 45.5496C268.993 45.6181 268.892 45.6555 268.788 45.6546Z" fill="#2A2A2A"/>
<path d="M280.003 36.4232C279.936 36.4397 279.866 36.4397 279.798 36.4232L267.076 29.7788C267.028 29.7531 266.986 29.7183 266.952 29.6764C266.918 29.6344 266.892 29.5862 266.877 29.5343C266.861 29.4825 266.856 29.4281 266.861 29.3742C266.867 29.3203 266.883 29.2681 266.909 29.2204C266.934 29.1728 266.969 29.1306 267.011 29.0964C267.053 29.0622 267.101 29.0366 267.153 29.021C267.205 29.0055 267.259 29.0003 267.313 29.0058C267.367 29.0112 267.419 29.0273 267.467 29.0529L280.189 35.6601C280.27 35.7055 280.333 35.7759 280.371 35.8606C280.408 35.9453 280.417 36.0398 280.396 36.13C280.375 36.2201 280.325 36.301 280.254 36.3606C280.184 36.4202 280.095 36.4552 280.003 36.4604V36.4232Z" fill="#2A2A2A"/>
<path d="M209.325 106.589C209.325 106.589 189.721 105.752 183.546 100.838C177.37 95.9249 172.758 79.4907 172.758 79.4907L147.331 80.0305C147.331 80.0305 143.965 118.873 165.225 132.404C187.359 146.474 213.027 141.58 213.027 141.58L209.325 106.589Z" fill="#7BBC48"/>
<path d="M223.778 102.365C222.18 104.806 219.753 106.585 216.945 107.372C214.137 108.159 211.139 107.901 208.507 106.645L200.379 132.534L236.705 165.216L231.608 110.684L223.778 102.365Z" fill="#7BBC48"/>
<path d="M158.099 77.5924C157.991 77.5658 157.898 77.4986 157.839 77.4049C157.78 77.3112 157.76 77.1983 157.782 77.0899C159.642 68.8635 164.943 66.6859 165.222 66.6115C165.272 66.5902 165.326 66.5791 165.38 66.5789C165.435 66.5786 165.489 66.5892 165.539 66.61C165.589 66.6308 165.635 66.6614 165.673 66.7C165.711 66.7386 165.741 66.7844 165.762 66.8348C165.783 66.8849 165.794 66.9386 165.794 66.993C165.795 67.0474 165.784 67.1013 165.763 67.1515C165.742 67.2018 165.712 67.2474 165.673 67.2857C165.635 67.324 165.589 67.3542 165.539 67.3746C165.539 67.3746 160.405 69.4963 158.657 77.276C158.644 77.3354 158.619 77.3914 158.583 77.4404C158.547 77.4894 158.502 77.5302 158.449 77.5601C158.396 77.5901 158.338 77.6084 158.277 77.614C158.217 77.6195 158.156 77.6122 158.099 77.5924Z" fill="#2A2A2A"/>
<path d="M188.155 258.573C188.095 258.571 188.037 258.557 187.983 258.531C187.93 258.504 187.882 258.467 187.843 258.422C187.805 258.376 187.776 258.323 187.759 258.266C187.743 258.209 187.738 258.148 187.746 258.089L198.069 184.089C198.076 184.035 198.093 183.983 198.12 183.936C198.148 183.889 198.184 183.847 198.227 183.815C198.271 183.782 198.32 183.758 198.373 183.744C198.425 183.73 198.48 183.728 198.534 183.735C198.644 183.749 198.745 183.806 198.814 183.893C198.883 183.979 198.916 184.09 198.906 184.201L188.564 258.201C188.555 258.303 188.508 258.398 188.432 258.467C188.356 258.536 188.257 258.574 188.155 258.573Z" fill="#FDC844"/>
<path d="M251.931 224.755C251.712 224.771 251.493 224.727 251.297 224.629C251.101 224.53 250.934 224.381 250.815 224.197C249.55 222.112 255.539 213.942 256.767 212.341C256.816 212.267 256.889 212.212 256.973 212.185C257.058 212.158 257.149 212.161 257.232 212.192C257.312 212.222 257.382 212.275 257.431 212.345C257.481 212.415 257.509 212.498 257.511 212.583C257.511 213.049 257.232 223.899 252.377 224.7L251.931 224.755ZM256.674 214.035C253.958 217.757 250.964 222.764 251.596 223.825C251.708 223.992 252.043 223.974 252.303 223.936C255.484 223.341 256.358 216.864 256.674 214.035Z" fill="#FDC844"/>
<path d="M254.482 233.242C254.087 233.248 253.692 233.198 253.311 233.093C245.48 231.121 246.001 196.093 246.094 191.813C244.234 191.496 236.924 189.598 234.766 178.915C234.753 178.862 234.75 178.807 234.759 178.753C234.768 178.7 234.788 178.648 234.818 178.603C234.847 178.557 234.886 178.518 234.932 178.489C234.978 178.459 235.029 178.439 235.083 178.431C235.136 178.417 235.192 178.414 235.247 178.423C235.302 178.432 235.355 178.451 235.402 178.481C235.449 178.511 235.489 178.55 235.521 178.595C235.552 178.641 235.574 178.693 235.585 178.747C237.91 190.231 246.187 191.012 246.54 191.031C246.594 191.033 246.647 191.046 246.695 191.069C246.744 191.092 246.788 191.124 246.824 191.164C246.86 191.204 246.889 191.25 246.907 191.301C246.925 191.351 246.933 191.405 246.931 191.459C246.652 202.291 247.284 230.711 253.515 232.293C260.955 234.154 267 213.961 267.056 213.681C267.071 213.628 267.096 213.579 267.131 213.535C267.165 213.492 267.208 213.457 267.257 213.431C267.306 213.405 267.359 213.389 267.414 213.384C267.469 213.379 267.524 213.385 267.577 213.402C267.685 213.433 267.776 213.504 267.832 213.602C267.888 213.699 267.903 213.815 267.874 213.923C267.633 214.817 262.09 233.242 254.482 233.242Z" fill="#FDC844"/>
<path d="M181.181 110.554C180.887 110.592 180.589 110.542 180.324 110.409C180.058 110.277 179.839 110.068 179.693 109.809C178.726 107.799 183.413 102.365 184.269 101.248C184.32 101.185 184.389 101.138 184.468 101.114C184.546 101.091 184.629 101.091 184.707 101.115C184.785 101.139 184.854 101.186 184.905 101.249C184.956 101.313 184.987 101.39 184.994 101.471C184.994 101.695 185.682 107.055 183.692 109.381C183.404 109.732 183.044 110.017 182.637 110.216C182.229 110.415 181.783 110.524 181.33 110.535L181.181 110.554ZM184.25 102.569C182.204 105.063 179.972 108.451 180.53 109.437C180.629 109.636 180.908 109.729 181.367 109.716C181.704 109.704 182.035 109.619 182.336 109.468C182.638 109.318 182.903 109.104 183.116 108.842C184.325 107.297 184.343 104.226 184.25 102.569Z" fill="white"/>
<path d="M147.288 88.1268C147.179 88.1226 147.075 88.0786 146.996 88.0032C146.917 87.9278 146.869 87.8261 146.86 87.7173C146.857 87.662 146.866 87.6067 146.885 87.5549C146.905 87.503 146.935 87.4557 146.973 87.4157C147.011 87.3756 147.057 87.3438 147.108 87.3221C147.159 87.3003 147.214 87.2892 147.269 87.2892L173.886 86.6564C173.941 86.6539 173.996 86.6626 174.048 86.6821C174.1 86.7015 174.147 86.7313 174.187 86.7696C174.227 86.8078 174.259 86.8538 174.281 86.9048C174.302 86.9557 174.313 87.0105 174.313 87.0659C174.316 87.1212 174.307 87.1765 174.288 87.2283C174.268 87.2801 174.239 87.3275 174.2 87.3675C174.162 87.4075 174.116 87.4394 174.065 87.4611C174.014 87.4828 173.96 87.494 173.904 87.494L147.288 88.1268Z" fill="white"/>
<path d="M280.002 63.6893H279.816L252.958 51.052C252.871 50.9947 252.808 50.9078 252.781 50.8075C252.753 50.7072 252.763 50.6003 252.809 50.5069C252.855 50.4134 252.933 50.3397 253.028 50.2996C253.124 50.2595 253.231 50.2557 253.33 50.2889L280.188 62.889C280.239 62.911 280.286 62.9432 280.324 62.9837C280.362 63.0241 280.392 63.0719 280.411 63.1241C280.43 63.1764 280.438 63.232 280.435 63.2876C280.432 63.3432 280.418 63.3975 280.393 63.4474C280.358 63.5207 280.302 63.5824 280.233 63.6253C280.164 63.6681 280.084 63.6903 280.002 63.6893Z" fill="white"/>
<path d="M115.318 74.3353C115.318 74.3353 126.478 105.678 115.318 124.699C104.158 143.72 66.4555 140.705 66.4555 140.705L56.6719 107.204C56.6719 107.204 79.9777 111.131 86.8783 101.62C92.0491 94.4174 89.7985 75.2659 89.7985 75.2659L115.318 74.3353Z" fill="#DF0172"/>
<path d="M90.8926 106.776C90.6622 106.778 90.436 106.713 90.2416 106.59C88.549 105.51 87.6934 99.5357 87.6004 98.8471C87.5843 98.761 87.5976 98.672 87.6381 98.5944C87.6785 98.5168 87.7439 98.455 87.8236 98.419C87.8925 98.3646 87.9777 98.3351 88.0654 98.3351C88.1531 98.3351 88.2383 98.3646 88.3072 98.419C88.7908 98.9029 92.9572 103.221 92.4178 105.473C92.34 105.754 92.1886 106.009 91.9794 106.212C91.7701 106.415 91.5105 106.558 91.2274 106.627L90.8926 106.776ZM88.642 100.094C89.0698 102.439 89.851 105.343 90.688 105.882C90.8182 105.882 90.9112 105.882 90.967 105.882C91.4506 105.752 91.5622 105.491 91.5994 105.324C91.8784 104.226 90.1858 101.862 88.642 100.094Z" fill="white"/>
<path d="M93.4488 323.007C93.4488 323.007 115.676 334.825 122.111 341.451C128.547 348.077 128.696 352.395 127.84 354.48C126.985 356.564 80.1684 352.488 80.1684 352.488C80.1684 352.488 80.1684 339.571 75.165 340.186C70.1616 340.8 72.375 352.469 72.375 352.469L58.2018 351.762C58.2018 351.762 58.0902 338.92 59.3364 333.932C60.5902 329.614 62.1952 325.406 64.1352 321.351L93.4488 323.007Z" fill="#00A481"/>
<path d="M71.4008 239.571C71.4008 239.571 76.7762 257.475 64.184 280.2C49.7504 306.256 39.7436 319.415 39.7436 319.415L15.8984 313.124C15.8984 313.124 37.4186 259.485 37.7906 237.765C38.1626 216.045 71.4008 239.571 71.4008 239.571Z" fill="#F0858F"/>
<path d="M95.3243 230.972C95.8302 247.411 95.1215 263.865 93.2039 280.2C90.0419 305.996 87.6239 321.257 87.6239 321.257H64.0391C64.0391 321.257 66.0851 264.901 62.1791 243.553C58.2731 222.206 95.3243 230.972 95.3243 230.972Z" fill="#F0858F"/>
<path d="M42.7777 324.719C42.7777 324.719 59.7595 343.331 63.5911 351.706C67.4227 360.081 66.1393 364.232 64.6327 365.907C63.1261 367.582 20.4578 348.04 20.4578 348.04C20.4578 348.04 24.8102 335.886 19.8626 334.788C14.915 333.69 13.1294 345.415 13.1294 345.415L0.109375 339.981C0.109375 339.981 4.31297 327.846 7.14017 323.565C9.95663 319.62 12.9998 315.841 16.2542 312.249L42.7777 324.719Z" fill="#00A481"/>
<path d="M88.7542 319.043C88.7542 319.043 107.801 330.88 104.192 331.885C100.584 332.89 80.4772 332.22 74.674 329.819C68.8708 327.418 64.1836 321.109 64.1836 321.109L77.836 315.339L88.7542 319.043Z" fill="#F0858F"/>
<path d="M102.298 273.984C97.2204 276.329 90.3756 276.571 82.266 276.589H80.1084C71.4222 276.589 64.8006 276.589 62.457 276.589L64.4844 158.777L66.3444 158.349L76.9464 155.985C76.9464 155.985 80.1828 162.444 84.3864 173.462C92.403 194.605 103.879 232.647 102.298 273.984Z" fill="#FDC844"/>
<path d="M102.3 273.984C97.2224 276.329 90.3776 276.571 82.268 276.589C82.6028 270.075 82.7331 262.202 82.4169 253.008C81.7659 233.838 77.6739 211.765 74.5677 197.359C72.5403 188.053 70.8477 181.837 70.8477 181.837L72.9867 180.534L84.3884 173.369C92.405 194.605 103.881 232.647 102.3 273.984Z" fill="#FDC844"/>
<path d="M28.045 201.993C30.7792 227.752 33.3646 236.686 33.3646 236.686C33.3646 236.686 28.4914 268.214 27.6172 270.708C33.532 272.085 51.7972 275.994 62.4364 276.533C64.7614 276.664 61.6552 244.261 64.1848 244.279C67.7673 244.311 71.3476 244.087 74.8984 243.609C76.2562 238.993 77.1304 235.829 77.3164 234.992C78.3394 230.264 70.6762 158.367 70.6762 158.367H66.361L36.8986 161.494C36.8986 161.494 25.2922 176.216 28.045 201.993Z" fill="#FDC844"/>
<path d="M39.7479 319.415C39.7479 319.415 53.7351 336.966 49.9965 336.686C46.2579 336.407 27.5277 329.056 22.8591 324.849C18.1905 320.643 16.1445 312.249 16.1445 312.249H30.7083L39.7479 319.415Z" fill="#F0858F"/>
<path d="M54.3459 186.453C53.6697 186.455 53.0132 186.225 52.4859 185.801C49.3983 183.493 50.1795 178.021 50.6259 176.235C48.9519 176.346 44.1159 176.458 42.0513 174.374C41.7129 174.061 41.4499 173.676 41.2824 173.247C41.1148 172.819 41.047 172.357 41.0841 171.898C41.3445 167.487 48.5241 166.315 50.5887 166.035C50.0121 164.472 48.7287 159.968 51.7977 158.07C52.1227 157.894 52.481 157.788 52.8494 157.759C53.2179 157.73 53.5883 157.779 53.9367 157.902C56.3547 158.721 58.2519 162.76 58.7541 163.932C60.6141 163.653 68.0541 162.704 68.8353 166.277C69.4491 169.423 65.1153 172.159 63.4599 173.089C64.8735 174.039 68.2587 176.607 68.7051 179.324C68.8003 179.82 68.7811 180.331 68.6489 180.818C68.5168 181.305 68.2751 181.755 67.9425 182.135C67.5862 182.619 67.1251 183.016 66.5936 183.296C66.0621 183.577 65.474 183.733 64.8735 183.754C63.1384 183.558 61.536 182.73 60.3723 181.427C59.5911 182.674 57.3591 185.876 54.9225 186.378C54.7324 186.417 54.5397 186.442 54.3459 186.453ZM51.0909 175.286C51.1527 175.283 51.2143 175.293 51.272 175.315C51.3296 175.338 51.3819 175.372 51.4257 175.416C51.4528 175.477 51.4669 175.544 51.4669 175.611C51.4669 175.679 51.4528 175.745 51.4257 175.807C51.4257 175.807 49.7517 182.674 52.9509 185.113C53.2059 185.324 53.507 185.473 53.83 185.548C54.153 185.622 54.489 185.62 54.8109 185.541C57.4149 185.001 59.9631 180.553 60.0003 180.497C60.0401 180.443 60.0919 180.399 60.1517 180.369C60.2114 180.339 60.2774 180.323 60.3444 180.323C60.4113 180.323 60.4773 180.339 60.5371 180.369C60.5969 180.399 60.6487 180.443 60.6885 180.497C61.7564 181.805 63.2641 182.678 64.9293 182.954C65.4043 182.932 65.8684 182.804 66.287 182.579C66.7056 182.353 67.0681 182.036 67.3473 181.651C67.6014 181.362 67.787 181.02 67.8901 180.649C67.9932 180.278 68.0111 179.889 67.9425 179.51C67.4403 176.514 62.5299 173.462 62.4741 173.443C62.4103 173.4 62.3582 173.342 62.3225 173.273C62.2868 173.205 62.2686 173.129 62.2695 173.052C62.2799 172.979 62.3072 172.908 62.3491 172.847C62.3911 172.786 62.4465 172.735 62.5113 172.698C62.5113 172.698 68.6865 169.665 68.0913 166.464C67.5705 163.877 61.0977 164.435 58.6425 164.863C58.5473 164.875 58.4506 164.857 58.3669 164.81C58.2831 164.763 58.2167 164.69 58.1775 164.602C58.1775 164.602 56.1501 159.559 53.7507 158.74C53.4898 158.652 53.2127 158.623 52.9393 158.655C52.6659 158.687 52.403 158.78 52.1697 158.926C49.0635 160.787 51.4815 166.371 51.5187 166.371C51.5458 166.432 51.5599 166.499 51.5599 166.566C51.5599 166.633 51.5458 166.7 51.5187 166.761C51.4795 166.816 51.4296 166.863 51.3721 166.898C51.3146 166.933 51.2506 166.956 51.1839 166.966C51.0909 166.966 42.1443 167.766 41.8839 172.084C41.8513 172.428 41.898 172.775 42.0206 173.097C42.1431 173.42 42.3382 173.71 42.5907 173.945C44.7669 176.03 51.0165 175.434 51.0723 175.434L51.0909 175.286Z" fill="white"/>
<path d="M77.54 218.074C77.431 218.07 77.3273 218.026 77.2485 217.95C77.1697 217.875 77.1212 217.773 77.1122 217.664C76.6844 202.998 70.6208 182.172 70.565 181.967C70.5365 181.884 70.5356 181.794 70.5624 181.71C70.5892 181.626 70.6423 181.553 70.7138 181.502L77.2982 176.644C77.387 176.58 77.4976 176.554 77.6057 176.571C77.7139 176.589 77.8107 176.648 77.8748 176.737C77.9389 176.826 77.9651 176.937 77.9477 177.045C77.9303 177.153 77.8706 177.25 77.7818 177.314L71.4392 182.004C72.1832 184.554 77.54 203.799 77.9492 217.646C77.9517 217.7 77.9436 217.753 77.9253 217.804C77.907 217.855 77.8789 217.901 77.8426 217.941C77.8063 217.981 77.7626 218.013 77.7138 218.036C77.6651 218.058 77.6123 218.071 77.5586 218.074H77.54Z" fill="white"/>
<path d="M62.869 107.948L72.3736 109.27C72.3736 109.27 80.8366 118.576 81.0598 128.775C81.283 138.974 79.1998 143.664 79.1998 143.664L82.492 159.819C75.8721 164.646 68.0552 167.562 59.893 168.25C51.0501 169.089 42.1287 168.159 33.6484 165.514C33.6484 165.514 35.7688 114.797 35.7688 110.498C35.7688 107.576 62.869 107.948 62.869 107.948Z" fill="#DF0172"/>
<path d="M49.7922 150.625C49.7922 150.625 67.7598 146.903 72.2796 148.764C76.7994 150.625 73.1724 165.514 71.8146 168.176C70.4568 170.837 51.9312 166.817 51.9312 166.817L46.5 159.168L49.7922 150.625Z" fill="#F0858F"/>
<path d="M72.2785 148.782C72.2785 148.782 83.1781 156.227 83.6059 160.824C84.0337 165.421 70.5859 155.78 70.5859 155.78L72.2785 148.782Z" fill="#F0858F"/>
<path d="M65.0986 167.506C65.0986 167.506 55.7986 169.609 58.8118 172.122C61.825 174.634 70.8832 170.54 71.8318 168.176C72.7804 165.812 66.01 162.89 66.01 162.89L65.0986 167.506Z" fill="#F0858F"/>
<path d="M40.5624 108.786C40.5624 108.786 2.65559 115.616 1.61399 144.074C0.851395 165.645 51.4992 172.103 51.4992 172.103L53.9358 148.261L40.5624 108.786Z" fill="#DF0172"/>
<path d="M52.0805 146.158H51.9131C51.7271 146.158 33.3131 137.894 25.8731 137.894C25.7611 137.89 25.6549 137.843 25.5757 137.764C25.4964 137.685 25.4499 137.578 25.4453 137.466C25.4453 137.411 25.4564 137.356 25.4781 137.305C25.4999 137.254 25.5317 137.208 25.5717 137.17C25.6117 137.132 25.659 137.102 25.7108 137.083C25.7626 137.063 25.8178 137.054 25.8731 137.057C33.5549 137.057 51.5597 145.06 52.3223 145.395C52.4221 145.443 52.4991 145.529 52.5373 145.633C52.5755 145.737 52.5717 145.852 52.5269 145.953C52.4825 146.029 52.4158 146.09 52.336 146.126C52.2561 146.163 52.1669 146.174 52.0805 146.158Z" fill="white"/>
<path d="M38.3325 140.761C38.2527 140.777 38.1705 140.777 38.0907 140.761C35.8401 139.234 30.6508 135.512 30.967 133.93C30.967 133.67 31.246 133.335 31.9342 133.242C35.2077 132.795 38.3697 139.476 38.7045 140.24C38.7589 140.308 38.7884 140.394 38.7884 140.481C38.7884 140.569 38.7589 140.654 38.7045 140.723C38.6489 140.756 38.5869 140.776 38.5226 140.783C38.4584 140.789 38.3936 140.782 38.3325 140.761ZM32.2318 134.005H32.0272C31.9337 134.012 31.844 134.045 31.7668 134.098C31.7668 134.637 34.0546 136.796 37.1979 139.067C36.0075 136.908 33.9988 134.005 32.2318 134.005Z" fill="white"/>
<path d="M64.2386 168.995H61.3742C61.3007 168.993 61.2291 168.971 61.1669 168.932C61.1047 168.892 61.0542 168.837 61.0208 168.771C60.9792 168.708 60.957 168.633 60.957 168.557C60.957 168.481 60.9792 168.407 61.0208 168.343L62.453 166.091C62.4823 166.045 62.5205 166.005 62.5653 165.973C62.6102 165.941 62.6608 165.919 62.7143 165.907C62.7679 165.895 62.8233 165.893 62.8774 165.902C62.9315 165.912 62.9832 165.932 63.0296 165.961C63.076 165.99 63.1162 166.029 63.1479 166.073C63.1795 166.118 63.202 166.169 63.2141 166.222C63.2262 166.276 63.2276 166.331 63.2183 166.386C63.209 166.44 63.1891 166.492 63.1598 166.538L62.1368 168.157H64.2386C64.2939 168.155 64.3491 168.163 64.4009 168.183C64.4527 168.202 64.5001 168.232 64.5401 168.27C64.58 168.309 64.6119 168.355 64.6336 168.406C64.6553 168.456 64.6665 168.511 64.6664 168.567C64.6664 168.623 64.6553 168.679 64.6338 168.73C64.6123 168.782 64.5808 168.83 64.5411 168.869C64.5014 168.909 64.4542 168.941 64.4023 168.962C64.3504 168.984 64.2948 168.995 64.2386 168.995Z" fill="#2A2A2A"/>
<path d="M74.3968 158.051C74.2761 158.044 74.1627 157.991 74.0806 157.902C72.9242 156.497 71.5927 155.246 70.1188 154.18C70.0135 154.142 69.9272 154.064 69.8785 153.963C69.8298 153.862 69.8226 153.746 69.8584 153.64C69.8999 153.538 69.9792 153.456 70.0796 153.411C70.1801 153.366 70.2941 153.361 70.3978 153.398C72.0006 154.499 73.4515 155.807 74.713 157.288C74.7903 157.368 74.8335 157.474 74.8335 157.586C74.8335 157.697 74.7903 157.804 74.713 157.883C74.6764 157.933 74.629 157.975 74.5742 158.004C74.5194 158.033 74.4588 158.049 74.3968 158.051Z" fill="#2A2A2A"/>
<path d="M73.4144 163.337C73.3113 163.333 73.2128 163.294 73.1354 163.225L67.8158 158.386C67.7753 158.348 67.743 158.302 67.721 158.25C67.6989 158.199 67.6875 158.144 67.6875 158.088C67.6875 158.033 67.6989 157.977 67.721 157.926C67.743 157.875 67.7753 157.829 67.8158 157.791C67.8925 157.714 67.9961 157.672 68.1042 157.672C68.2122 157.672 68.3158 157.714 68.3924 157.791L73.7306 162.648C73.8067 162.725 73.8495 162.829 73.8495 162.937C73.8495 163.045 73.8067 163.148 73.7306 163.225C73.6895 163.266 73.6398 163.297 73.5851 163.317C73.5304 163.336 73.4721 163.343 73.4144 163.337Z" fill="#2A2A2A"/>
<path d="M80.1264 140.761H79.9776C79.9239 140.744 79.8742 140.717 79.8321 140.68C79.7899 140.643 79.7562 140.597 79.7333 140.546C79.7104 140.495 79.6987 140.439 79.6991 140.383C79.6996 140.327 79.7121 140.272 79.7358 140.221C84.6462 127.193 76.1646 115.132 76.0158 115.021C75.9542 114.928 75.9295 114.815 75.9468 114.705C75.964 114.594 76.0218 114.495 76.1088 114.425C76.1552 114.393 76.2074 114.371 76.2624 114.359C76.3175 114.348 76.3743 114.347 76.4295 114.357C76.4848 114.368 76.5375 114.389 76.5846 114.42C76.6317 114.45 76.6723 114.49 76.704 114.537C76.704 114.648 85.539 127.007 80.424 140.593C80.3509 140.686 80.2439 140.746 80.1264 140.761Z" fill="white"/>
<path d="M65.6343 88.5919C65.6343 88.5919 71.7537 78.3182 57.6177 71.3947C43.4817 64.4711 34.2003 75.7498 34.4421 81.4822C34.4372 83.0346 34.7671 84.5698 35.409 85.983C36.051 87.3963 36.99 88.6543 38.1621 89.6714C38.1621 89.6714 37.6785 102.141 49.5267 100.541C52.9878 100.032 56.2694 98.6745 59.0797 96.5898C61.8899 94.5051 64.1416 91.7577 65.6343 88.5919Z" fill="#2A2A2A"/>
<path d="M48.207 98.6423L48.579 108.674C48.579 108.674 50.439 111.503 56.3724 111.745C60.762 111.95 62.2686 110.907 62.2686 110.907L61.4688 105.845L60.669 100.913L49.9926 99.0518L48.207 98.6423Z" fill="#F0858F"/>
<path d="M48.207 98.1583C48.2693 98.4875 48.3756 98.8068 48.5232 99.1075C50.9598 104.04 58.9206 105.696 61.5432 105.826L60.7434 100.894L48.207 98.1583Z" fill="#2A2A2A"/>
<path d="M62.069 77.9462C62.069 77.9462 67.7978 90.323 65.975 97.3955C64.1522 104.468 57.7538 103.482 53.9408 102.216C51.7956 101.534 49.87 100.295 48.3608 98.6238C47.2795 98.9724 46.1157 98.9692 45.0364 98.6148C43.957 98.2604 43.0176 97.5729 42.353 96.651C39.8792 93.3753 41.2742 89.5227 43.3016 88.6107C44.0399 88.3804 44.8179 88.3061 45.5864 88.3926C46.3548 88.4791 47.0969 88.7245 47.7656 89.1132L45.6452 85.6142C45.6452 85.6142 53.2526 66.8722 62.069 77.9462Z" fill="#F0858F"/>
<path d="M62.6658 86.619H62.5542C62.4488 86.5846 62.3599 86.5122 62.3049 86.4159C62.2499 86.3196 62.2327 86.2062 62.2566 86.0979C62.4117 85.6105 62.7434 85.1988 63.1866 84.9439C63.4556 84.8227 63.7472 84.76 64.0422 84.76C64.3372 84.76 64.6288 84.8227 64.8978 84.9439C65.0024 84.9782 65.0897 85.0515 65.1417 85.1486C65.1936 85.2456 65.2062 85.359 65.1768 85.4651C65.1599 85.519 65.1325 85.569 65.0962 85.6122C65.0599 85.6555 65.0153 85.6911 64.9652 85.717C64.9151 85.743 64.8603 85.7588 64.804 85.7634C64.7478 85.7681 64.6911 85.7616 64.6374 85.7442C64.4741 85.6691 64.2964 85.6301 64.1166 85.6301C63.9368 85.6301 63.7592 85.6691 63.5958 85.7442C63.3483 85.8902 63.1629 86.122 63.075 86.3957C63.0376 86.4701 62.9784 86.5314 62.9053 86.5713C62.8322 86.6112 62.7486 86.6279 62.6658 86.619Z" fill="#2A2A2A"/>
<path d="M55.2377 87.4753C55.1473 87.5065 55.049 87.5065 54.9587 87.4753C54.8826 87.3986 54.8398 87.2949 54.8398 87.1868C54.8398 87.0787 54.8826 86.975 54.9587 86.8983C55.1467 86.6278 55.388 86.3986 55.6678 86.2248C55.9475 86.0509 56.2598 85.9361 56.5855 85.8873C56.9111 85.8385 57.2433 85.8568 57.5617 85.941C57.88 86.0252 58.1779 86.1737 58.4369 86.3772C58.513 86.4539 58.5557 86.5576 58.5557 86.6656C58.5557 86.7737 58.513 86.8774 58.4369 86.9541C58.4003 86.9942 58.3557 87.0262 58.3061 87.0481C58.2564 87.07 58.2028 87.0813 58.1485 87.0813C58.0943 87.0813 58.0407 87.07 57.991 87.0481C57.9414 87.0262 57.8969 86.9942 57.8603 86.9541C57.6859 86.8209 57.486 86.7249 57.273 86.6722C57.06 86.6196 56.8385 86.6113 56.6222 86.648C56.4058 86.6846 56.1994 86.7654 56.0156 86.8853C55.8318 87.0052 55.6746 87.1617 55.5539 87.345C55.5154 87.3904 55.4666 87.426 55.4116 87.4486C55.3566 87.4713 55.2969 87.4804 55.2377 87.4753Z" fill="#2A2A2A"/>
<path d="M61.9946 93.1704C61.9368 93.1705 61.8796 93.1588 61.8265 93.1361C61.7733 93.1135 61.7253 93.0803 61.6854 93.0385C61.6454 92.9968 61.6143 92.9474 61.5939 92.8933C61.5735 92.8392 61.5643 92.7815 61.5668 92.7237C61.9022 90.6788 61.4646 88.5821 60.3392 86.8424C60.2619 86.7626 60.2188 86.6558 60.2188 86.5446C60.2187 86.4335 60.2619 86.3267 60.3392 86.2468C60.3775 86.2063 60.4236 86.174 60.4748 86.1519C60.526 86.1298 60.5811 86.1184 60.6368 86.1184C60.6926 86.1184 60.7477 86.1298 60.7989 86.1519C60.85 86.174 60.8962 86.2063 60.9344 86.2468C62.2387 88.1429 62.7525 90.4732 62.3666 92.7423C62.3718 92.8479 62.3361 92.9515 62.2667 93.0313C62.1974 93.1111 62.0999 93.1609 61.9946 93.1704Z" fill="#2A2A2A"/>
<path d="M47.6328 94.2127H47.4654L42.4248 91.9234C42.325 91.875 42.2479 91.7898 42.2097 91.6856C42.1716 91.5815 42.1753 91.4666 42.2202 91.3651C42.2748 91.2718 42.3628 91.2027 42.4663 91.1716C42.5698 91.1405 42.6812 91.1498 42.7782 91.1976L47.8188 93.4868C47.9185 93.5352 47.9956 93.6205 48.0338 93.7247C48.0719 93.8288 48.0682 93.9437 48.0234 94.0452C47.9785 94.1047 47.9188 94.1515 47.8503 94.1809C47.7818 94.2103 47.7068 94.2212 47.6328 94.2127Z" fill="#2A2A2A"/>
<path d="M43.1486 95.3666C43.0388 95.369 42.9322 95.329 42.851 95.255C42.8105 95.2167 42.7782 95.1705 42.7561 95.1193C42.734 95.0681 42.7227 95.0129 42.7227 94.9572C42.7227 94.9014 42.734 94.8462 42.7561 94.795C42.7782 94.7438 42.8105 94.6977 42.851 94.6594L45.083 92.4632C45.1196 92.4231 45.1641 92.3911 45.2138 92.3693C45.2634 92.3474 45.3171 92.3361 45.3713 92.3361C45.4255 92.3361 45.4792 92.3474 45.5288 92.3693C45.5785 92.3911 45.623 92.4231 45.6596 92.4632C45.7001 92.5015 45.7324 92.5476 45.7545 92.5988C45.7766 92.65 45.7879 92.7052 45.7879 92.761C45.7879 92.8168 45.7766 92.8719 45.7545 92.9231C45.7324 92.9744 45.7001 93.0205 45.6596 93.0588L43.4462 95.255C43.3632 95.326 43.2578 95.3655 43.1486 95.3666Z" fill="#2A2A2A"/>
<path d="M65.6413 88.5919C64.614 85.5883 62.9081 82.8624 60.6565 80.626L56.6761 76.457C56.6761 76.457 57.1225 84.3298 53.6071 87.7357C50.0917 91.1417 47.6179 89.113 47.6179 89.113L40.9219 83.1945L52.9189 72.1391C52.9189 72.1391 66.2737 71.6179 65.6413 88.5919Z" fill="#2A2A2A"/>
<path d="M59.0934 96.9672H58.9818C57.9026 96.5898 56.9755 95.8712 56.3406 94.9199C56.3088 94.8735 56.2864 94.8212 56.2748 94.7661C56.2632 94.7111 56.2626 94.6543 56.273 94.5989C56.2833 94.5436 56.3045 94.4909 56.3352 94.4438C56.366 94.3966 56.4057 94.356 56.4522 94.3243C56.5444 94.2658 56.6555 94.2447 56.7627 94.2655C56.8699 94.2863 56.9651 94.3473 57.0288 94.436C57.5536 95.2197 58.3166 95.8136 59.205 96.1296C59.3104 96.164 59.3993 96.2364 59.4543 96.3327C59.5093 96.4291 59.5265 96.5424 59.5026 96.6508C59.4812 96.7426 59.4288 96.8242 59.3543 96.8819C59.2797 96.9395 59.1876 96.9696 59.0934 96.9672Z" fill="#2A2A2A"/>
<path d="M36.3196 87.4752C36.2279 87.4787 36.1377 87.4512 36.0635 87.3972C35.9893 87.3432 35.9354 87.2658 35.9104 87.1775C35.0237 84.402 35.0141 81.4204 35.8829 78.6392C36.7517 75.8581 38.4565 73.4128 40.765 71.6366C40.8099 71.6053 40.8607 71.5833 40.9142 71.5719C40.9678 71.5605 41.0231 71.56 41.0769 71.5704C41.1307 71.5809 41.1818 71.602 41.2273 71.6325C41.2727 71.6631 41.3116 71.7025 41.3416 71.7483C41.3738 71.7921 41.397 71.8419 41.4098 71.8948C41.4226 71.9477 41.4247 72.0026 41.4161 72.0563C41.4074 72.11 41.3882 72.1615 41.3594 72.2077C41.3306 72.2539 41.293 72.2938 41.2486 72.3253C39.0601 73.9797 37.4452 76.2791 36.6311 78.9C35.8169 81.5209 35.8446 84.3312 36.7102 86.9355C36.7273 86.988 36.7336 87.0435 36.7287 87.0985C36.7238 87.1535 36.7079 87.2069 36.6818 87.2556C36.6557 87.3043 36.6201 87.3472 36.577 87.3818C36.534 87.4163 36.4844 87.4418 36.4312 87.4566L36.3196 87.4752Z" fill="#DF0172"/>
<path d="M63.9029 83.0272L61.3733 82.6549C61.3194 82.6481 61.2673 82.6305 61.2202 82.6033C61.1731 82.5761 61.1319 82.5398 61.099 82.4965C61.0661 82.4531 61.0422 82.4037 61.0286 82.351C61.015 82.2983 61.0121 82.2435 61.0199 82.1896C61.0382 82.0791 61.0991 81.9801 61.1895 81.914C61.28 81.8479 61.3927 81.8199 61.5035 81.836L63.9401 82.1896C63.9959 82.1963 64.0497 82.2144 64.0982 82.2427C64.1467 82.2711 64.1889 82.3092 64.2221 82.3546C64.2552 82.4 64.2787 82.4518 64.291 82.5066C64.3033 82.5615 64.3041 82.6183 64.2935 82.6735C64.2804 82.769 64.2341 82.8569 64.1626 82.9216C64.0912 82.9863 63.9992 83.0237 63.9029 83.0272Z" fill="#2A2A2A"/>
<path d="M54.7948 84.0321C54.6914 84.0478 54.5859 84.0233 54.5 83.9636C54.4141 83.904 54.3543 83.8136 54.3329 83.7112C54.3115 83.6088 54.3301 83.502 54.3848 83.4129C54.4396 83.3237 54.5264 83.2589 54.6274 83.2318L57.4732 82.0407C57.5232 82.0194 57.577 82.0083 57.6313 82.0081C57.6857 82.0078 57.7395 82.0184 57.7897 82.0392C57.8399 82.06 57.8855 82.0906 57.9238 82.1292C57.962 82.1678 57.9922 82.2136 58.0126 82.264C58.0339 82.3141 58.045 82.3678 58.0452 82.4222C58.0455 82.4766 58.0349 82.5305 58.0141 82.5807C57.9933 82.631 57.9628 82.6766 57.9242 82.7149C57.8856 82.7531 57.8398 82.7834 57.7894 82.8038L54.9436 83.9949C54.8994 84.0231 54.8471 84.0362 54.7948 84.0321Z" fill="#2A2A2A"/>
<path d="M213.995 108.078C212.306 108.092 210.637 107.709 209.122 106.962C209.073 106.935 209.03 106.898 208.996 106.854C208.962 106.81 208.937 106.759 208.923 106.705C208.909 106.651 208.906 106.595 208.915 106.54C208.924 106.485 208.943 106.432 208.973 106.385C208.998 106.337 209.033 106.294 209.075 106.26C209.118 106.226 209.167 106.201 209.219 106.187C209.272 106.173 209.327 106.17 209.38 106.179C209.434 106.187 209.485 106.207 209.531 106.236C209.81 106.385 216.004 109.958 222.421 103.332C222.457 103.281 222.503 103.238 222.557 103.206C222.611 103.175 222.672 103.155 222.734 103.15C222.797 103.144 222.86 103.152 222.919 103.174C222.977 103.195 223.031 103.229 223.075 103.273C223.12 103.318 223.154 103.371 223.175 103.43C223.196 103.489 223.204 103.552 223.199 103.615C223.193 103.677 223.174 103.737 223.142 103.792C223.111 103.846 223.068 103.892 223.016 103.928C221.876 105.2 220.487 106.224 218.935 106.938C217.384 107.652 215.702 108.04 213.995 108.078Z" fill="white"/>
<path d="M56.2038 112.322C50.3448 112.322 48.2988 109.084 48.1872 108.897C48.1537 108.847 48.1309 108.79 48.1202 108.73C48.1095 108.67 48.1112 108.608 48.1251 108.549C48.1391 108.49 48.165 108.434 48.2012 108.385C48.2375 108.336 48.2834 108.295 48.336 108.265C48.44 108.202 48.5644 108.182 48.6825 108.21C48.8007 108.238 48.9033 108.311 48.9684 108.414C49.0986 108.618 52.1862 113.401 62.1186 110.442C62.1772 110.422 62.2392 110.415 62.3008 110.42C62.3624 110.426 62.4222 110.444 62.4764 110.474C62.5306 110.503 62.578 110.544 62.6157 110.593C62.6534 110.642 62.6804 110.699 62.6952 110.759C62.7152 110.815 62.7232 110.874 62.7188 110.934C62.7144 110.993 62.6976 111.051 62.6696 111.104C62.6416 111.156 62.603 111.202 62.5561 111.239C62.5093 111.276 62.4553 111.302 62.3976 111.317C60.3923 111.949 58.3061 112.288 56.2038 112.322Z" fill="#9364ED"/>
<path d="M33.3648 237.114C33.2889 237.111 33.215 237.089 33.1499 237.05C33.0848 237.011 33.0307 236.956 32.9928 236.89C32.9394 236.791 32.9271 236.676 32.9584 236.568C32.9897 236.46 33.0622 236.368 33.1602 236.313L38.052 233.764C38.1013 233.724 38.1586 233.696 38.2199 233.682C38.2812 233.667 38.345 233.666 38.4067 233.679C38.4683 233.692 38.5263 233.719 38.5766 233.757C38.6269 233.795 38.6681 233.844 38.6974 233.899C38.7267 233.955 38.7433 234.017 38.746 234.08C38.7487 234.143 38.7375 234.206 38.7132 234.264C38.6889 234.322 38.652 234.374 38.6052 234.416C38.5584 234.458 38.5029 234.49 38.4426 234.508L33.4764 237.058C33.4428 237.083 33.405 237.102 33.3648 237.114Z" fill="white"/>
<path d="M48.2112 106.366C48.2112 106.366 52.3032 110.591 56.6742 110.256C61.0452 109.921 61.7892 107.948 61.7892 107.948C61.7892 107.948 62.2356 106.925 62.868 107.948C63.5004 108.972 65.1 113.364 63.24 114.741C61.6031 115.801 59.7403 116.461 57.8018 116.668C55.8633 116.874 53.9034 116.623 52.08 115.933C50.5152 115.441 49.1399 114.478 48.1415 113.176C47.143 111.874 46.5698 110.295 46.5 108.655C46.6059 108.174 46.8133 107.721 47.1084 107.326C47.4035 106.931 47.7795 106.604 48.2112 106.366Z" fill="#179FDB"/>
<path d="M57.7525 113.941C59.5188 116.491 60.5485 119.479 60.7285 122.577C60.8401 127.304 57.6595 135.866 57.6595 135.866C57.6595 135.866 52.9909 129.594 52.2841 124.903C51.5773 120.213 54.9811 113.96 54.9811 113.96L57.7525 113.941Z" fill="#179FDB"/>
<path d="M57.9735 113.941C60.6878 115.437 62.9445 117.644 64.5021 120.325C66.7155 124.513 67.6455 133.595 67.6455 133.595C67.6455 133.595 60.6519 130.077 57.9177 126.15C55.1835 122.223 55.4067 115.151 55.4067 115.151L57.9735 113.941Z" fill="#179FDB"/>
<path d="M56.9159 117.254C56.1809 117.26 55.4468 117.204 54.7211 117.086C54.6107 117.068 54.5118 117.007 54.4457 116.917C54.3796 116.826 54.3516 116.713 54.3677 116.603C54.3767 116.548 54.3964 116.497 54.4257 116.45C54.4551 116.404 54.4935 116.364 54.5386 116.332C54.5837 116.301 54.6346 116.279 54.6884 116.268C54.7421 116.257 54.7975 116.257 54.8513 116.268C56.8228 116.586 58.8432 116.38 60.7103 115.672C60.7598 115.644 60.8147 115.626 60.8714 115.62C60.9281 115.614 60.9855 115.62 61.0398 115.637C61.0941 115.655 61.1441 115.684 61.1867 115.722C61.2292 115.76 61.2634 115.806 61.2869 115.858C61.3123 115.907 61.3276 115.96 61.3319 116.015C61.3363 116.07 61.3296 116.125 61.3122 116.177C61.2949 116.229 61.2672 116.277 61.2309 116.318C61.1946 116.359 61.1504 116.393 61.1009 116.416C59.7897 117.016 58.357 117.303 56.9159 117.254Z" fill="white"/>
<path d="M62.5479 125.313C59.6463 125.313 58.0467 117.738 57.8793 116.845C57.8614 116.756 57.873 116.665 57.9124 116.584C57.9518 116.503 58.0168 116.437 58.0973 116.397C58.1778 116.357 58.2693 116.344 58.3576 116.361C58.446 116.378 58.5263 116.424 58.5861 116.491C59.9439 117.98 64.2777 122.987 63.6081 124.68C63.5372 124.865 63.4123 125.024 63.2498 125.137C63.0872 125.25 62.8945 125.311 62.6967 125.313H62.5479ZM59.0697 118.315C59.8323 121.237 61.1901 124.569 62.6223 124.475C62.8083 124.475 62.8269 124.475 62.8455 124.475C63.1059 123.675 61.2459 120.976 59.0697 118.315Z" fill="white"/>
<path d="M155.886 61.2139C155.135 61.2171 154.406 60.9662 153.815 60.5019C153.225 60.0377 152.809 59.3874 152.634 58.6567C152.46 57.9259 152.537 57.1576 152.854 56.4765C153.171 55.7954 153.709 55.2414 154.38 54.9046C168.199 47.9252 187.004 34.6364 185.516 26.9869C183.898 18.6117 165.856 20.1192 159.662 21.4034C158.838 21.4805 158.014 21.2477 157.353 20.7502C156.691 20.2527 156.238 19.5263 156.082 18.7128C155.926 17.8992 156.079 17.0568 156.511 16.3499C156.942 15.6429 157.621 15.1222 158.416 14.8893C159.662 14.6474 188.845 9.19411 192.063 25.833C195.021 40.9457 163.68 57.6963 157.393 60.8603C156.926 61.0956 156.409 61.2168 155.886 61.2139Z" fill="#FDC844"/>
<path d="M133.434 77.5738C124.643 76.871 116.49 72.7047 110.767 65.9903C105.043 59.2758 102.218 50.5625 102.912 41.7648L105.72 6.53275C105.791 5.64539 106.035 4.78063 106.44 3.98789C106.845 3.19515 107.401 2.48997 108.078 1.91266C108.756 1.33535 109.54 0.897229 110.386 0.623339C111.233 0.349448 112.125 0.245157 113.012 0.316427L165.817 4.52268C166.704 4.59319 167.568 4.83788 168.36 5.24277C169.152 5.64765 169.857 6.2048 170.434 6.88236C171.011 7.55992 171.449 8.34461 171.723 9.19158C171.996 10.0385 172.1 10.9312 172.029 11.8185L169.258 47.0319C168.913 51.3921 167.712 55.6413 165.724 59.5367C163.736 63.4321 161.001 66.8972 157.673 69.7338C154.346 72.5704 150.493 74.7229 146.334 76.0681C142.175 77.4134 137.791 77.925 133.434 77.5738Z" fill="#FDC844"/>
<path d="M140.94 62.6048L128.406 61.6089L125.247 101.424L137.781 102.42L140.94 62.6048Z" fill="#FDC844"/>
<path d="M121.464 92.9698L142.842 94.6684C146.548 94.9727 149.982 96.735 152.39 99.5689C154.799 102.403 155.987 106.077 155.693 109.786L155.517 111.993L106.178 108.073L106.353 105.865C106.499 104.026 107.006 102.233 107.844 100.589C108.683 98.9458 109.836 97.4836 111.239 96.2861C112.643 95.0886 114.268 94.1795 116.022 93.6104C117.776 93.0414 119.625 92.8238 121.464 92.9698Z" fill="#FDC844"/>
<path d="M129.512 77.2761C120.721 76.5733 112.568 72.407 106.845 65.6925C101.122 58.9781 98.2963 50.2648 98.9898 41.4671L101.78 6.23504C101.922 4.44148 102.77 2.77771 104.137 1.60881C105.504 0.439909 107.278 -0.138643 109.071 0.000102913L161.821 4.22497C162.709 4.29316 163.575 4.53615 164.37 4.94002C165.164 5.34388 165.871 5.90068 166.45 6.57848C167.029 7.25628 167.468 8.04176 167.743 8.88986C168.018 9.73797 168.123 10.632 168.052 11.5208L165.299 46.7342C164.953 51.091 163.754 55.337 161.768 59.2298C159.783 63.1226 157.051 66.5859 153.728 69.4221C150.404 72.2582 146.556 74.4115 142.401 75.7591C138.246 77.1067 133.866 77.6222 129.512 77.2761Z" fill="#FDC844"/>
<path d="M137.015 62.3119L124.48 61.316L121.321 101.132L133.855 102.127L137.015 62.3119Z" fill="#FDC844"/>
<path d="M117.542 92.6786L138.902 94.3757C142.615 94.6707 146.058 96.4294 148.475 99.265C150.892 102.101 152.084 105.781 151.789 109.496L151.611 111.741L102.253 107.819L102.431 105.574C102.726 101.859 104.484 98.4132 107.318 95.9948C110.151 93.5765 113.829 92.3836 117.542 92.6786Z" fill="#FDC844"/>
<path d="M104.59 57.138C103.92 57.1214 103.271 56.9006 102.73 56.5052C97.0007 52.3548 68.6916 30.9513 74.0298 16.341C79.7772 0.428003 107.714 10.4225 108.905 10.8692C109.329 11.0089 109.72 11.2325 110.056 11.5267C110.392 11.8209 110.666 12.1797 110.86 12.5818C111.055 12.9838 111.167 13.421 111.189 13.8671C111.211 14.3133 111.144 14.7594 110.99 15.1789C110.837 15.5984 110.601 15.9828 110.296 16.3091C109.991 16.6354 109.623 16.897 109.215 17.0783C108.807 17.2597 108.367 17.3571 107.921 17.3647C107.474 17.3723 107.031 17.29 106.617 17.1227C100.702 14.8893 83.1252 10.6086 80.205 18.6117C77.5266 25.9261 94.0061 42.0066 106.543 51.0892C107.113 51.502 107.537 52.085 107.755 52.7544C107.974 53.4238 107.975 54.1451 107.758 54.8149C107.541 55.4848 107.117 56.0686 106.548 56.4826C105.979 56.8966 105.293 57.1196 104.59 57.1194V57.138Z" fill="#FDC844"/>
<path d="M141.209 9.64085L110.24 7.1841C110.185 7.18182 110.13 7.16827 110.08 7.14429C110.03 7.12031 109.985 7.0864 109.949 7.04462C109.912 7.00284 109.885 6.95407 109.868 6.90126C109.85 6.84844 109.844 6.7927 109.849 6.73742C109.852 6.68195 109.865 6.62753 109.889 6.57746C109.913 6.52739 109.947 6.48272 109.989 6.44616C110.031 6.4096 110.079 6.38192 110.132 6.3648C110.185 6.34768 110.241 6.34148 110.296 6.34658L141.246 8.80333C141.302 8.80801 141.357 8.82378 141.407 8.84975C141.457 8.87571 141.502 8.91134 141.538 8.95459C141.575 8.99785 141.602 9.04786 141.619 9.10176C141.636 9.15565 141.642 9.21236 141.637 9.26862C141.623 9.37222 141.572 9.46726 141.493 9.53582C141.415 9.60439 141.313 9.64175 141.209 9.64085Z" fill="white"/>
<path d="M109.531 100.615H109.382C109.329 100.595 109.281 100.564 109.24 100.525C109.2 100.485 109.167 100.438 109.145 100.387C109.122 100.335 109.11 100.279 109.109 100.222C109.109 100.166 109.119 100.109 109.14 100.057C109.14 100.057 111.205 95.0131 118.794 95.59C118.847 95.5947 118.9 95.61 118.948 95.635C118.996 95.6601 119.038 95.6943 119.073 95.7358C119.107 95.7774 119.133 95.8253 119.149 95.877C119.165 95.9286 119.171 95.9829 119.166 96.0367C119.152 96.1453 119.099 96.245 119.017 96.3171C118.934 96.3891 118.828 96.4284 118.719 96.4276C111.781 95.8506 109.996 100.15 109.921 100.373C109.886 100.447 109.83 100.508 109.761 100.551C109.692 100.594 109.612 100.616 109.531 100.615Z" fill="white"/>
<path d="M165.707 63.7266C165.707 63.7266 163.847 51.2009 167.567 51.9454C171.287 52.6898 175.323 66.8348 174.449 68.9565C173.192 71.0801 171.674 73.0373 169.929 74.782L165.707 63.7266Z" fill="#F0858F"/>
<path d="M101.165 63.2799C101.165 63.2799 108.289 48.9488 104.718 48.7441C101.147 48.5394 89.0939 58.8131 91.0097 62.1818C92.0261 64.2225 92.9326 66.3162 93.7253 68.4539L101.165 63.2799Z" fill="#F0858F"/>
<path d="M105.331 70.5943C105.234 70.596 105.14 70.5632 105.065 70.5019C104.99 70.4405 104.939 70.3546 104.922 70.2593C104.047 65.8484 99.3416 63.3358 99.3416 63.2985C99.2922 63.2748 99.248 63.2413 99.2117 63.2002C99.1754 63.159 99.1477 63.1109 99.1304 63.0588C99.113 63.0067 99.1063 62.9517 99.1107 62.8969C99.115 62.8422 99.1303 62.7889 99.1557 62.7402C99.2108 62.6423 99.3007 62.5688 99.4076 62.5343C99.5144 62.4998 99.6304 62.5068 99.7322 62.5541C101.192 63.3469 102.479 64.4238 103.517 65.7214C104.555 67.0191 105.324 68.5113 105.777 70.1104C105.794 70.2186 105.768 70.3291 105.706 70.4191C105.644 70.5091 105.549 70.5718 105.442 70.5943H105.331Z" fill="#2A2A2A"/>
<path d="M32.5139 253.436H32.0675C31.9715 253.416 31.8855 253.363 31.8238 253.287C31.7621 253.211 31.7284 253.116 31.7284 253.018C31.7284 252.919 31.7621 252.824 31.8238 252.748C31.8855 252.672 31.9715 252.619 32.0675 252.599C35.7089 252.628 39.2766 251.572 42.3161 249.565C42.8698 249.282 43.3439 248.864 43.6948 248.351C44.0457 247.837 44.2623 247.243 44.3249 246.624C44.2312 245.983 44.004 245.368 43.6579 244.82C43.3119 244.272 42.8548 243.802 42.3161 243.442C42.2546 243.403 42.2039 243.35 42.1687 243.286C42.1336 243.223 42.1151 243.151 42.1151 243.079C42.1151 243.006 42.1336 242.935 42.1687 242.871C42.2039 242.808 42.2546 242.754 42.3161 242.716C42.3161 242.716 50.1839 238.603 50.1281 233.41C50.1683 232.547 50.0231 231.684 49.7023 230.882C49.3814 230.079 48.8924 229.355 48.2681 228.757C45.5897 226.412 40.9583 226.896 40.9211 226.896C40.8561 226.903 40.7905 226.894 40.7293 226.872C40.668 226.849 40.6127 226.813 40.5677 226.766C40.5214 226.724 40.4867 226.672 40.4671 226.613C40.4475 226.554 40.4437 226.491 40.4561 226.431C40.4561 226.431 41.1629 220.68 38.7263 219.209C38.3635 218.96 37.948 218.799 37.5123 218.737C37.0766 218.676 36.6326 218.716 36.2153 218.856C33.3881 219.786 31.3793 224.569 31.3607 224.625C31.3157 224.728 31.2319 224.81 31.1275 224.852C31.023 224.893 30.9063 224.892 30.8027 224.849C30.7523 224.828 30.7065 224.798 30.6679 224.76C30.6293 224.721 30.5987 224.676 30.578 224.626C30.5572 224.575 30.5466 224.521 30.5469 224.467C30.5471 224.413 30.5582 224.359 30.5795 224.309C30.6725 224.086 32.7743 219.116 35.9363 218.074C36.4714 217.892 37.0409 217.834 37.6017 217.905C38.1625 217.976 38.6997 218.174 39.1727 218.483C41.6093 219.972 41.4605 224.476 41.3303 225.928C43.9736 225.685 46.6157 226.405 48.7703 227.957C49.4998 228.625 50.0756 229.443 50.4578 230.356C50.8399 231.269 51.0194 232.254 50.9837 233.243C50.9837 238.063 45.1619 241.823 43.2833 242.883C43.8128 243.307 44.2507 243.834 44.5705 244.432C44.8902 245.031 45.0851 245.688 45.1433 246.364C45.096 247.136 44.8526 247.883 44.4359 248.534C44.0193 249.186 43.4432 249.72 42.7625 250.086C39.7439 252.175 36.1827 253.339 32.5139 253.436Z" fill="white"/>
<path d="M74.7493 273.593C74.4361 273.591 74.124 273.554 73.8193 273.481C68.4997 272.253 68.6299 263.096 68.7601 260.676C66.9001 261.048 60.9667 261.867 59.3299 257.643C59.1466 257.202 59.0648 256.725 59.0906 256.248C59.1163 255.771 59.249 255.307 59.4787 254.888C61.0039 252.115 66.4165 250.663 67.8301 250.328C67.8301 248.337 68.2579 238.677 72.6661 238.584C76.7023 238.584 79.0831 244.54 79.7899 246.606C81.1477 245.191 85.0537 241.45 88.4947 241.45C89.1054 241.443 89.71 241.572 90.2638 241.83C90.8175 242.088 91.3063 242.467 91.6939 242.939C92.2 243.46 92.5803 244.089 92.806 244.78C93.0317 245.47 93.0966 246.203 92.9959 246.922C92.3884 249.011 91.0216 250.797 89.1643 251.929C90.4291 253.045 94.0003 256.489 94.0933 259.597C94.133 260.12 94.055 260.646 93.8652 261.136C93.6753 261.625 93.3782 262.066 92.9959 262.426C89.4991 265.72 82.8775 263.487 80.9431 262.724C80.7385 264.585 79.8829 270.745 77.0185 272.848C76.3706 273.351 75.5689 273.614 74.7493 273.593ZM69.1693 259.727C69.2638 259.73 69.355 259.762 69.4297 259.82C69.4843 259.864 69.5267 259.922 69.5528 259.987C69.5788 260.052 69.5877 260.123 69.5785 260.192C69.5785 260.304 68.6485 271.452 73.9495 272.681C74.3702 272.787 74.8094 272.797 75.2345 272.71C75.6596 272.623 76.0597 272.442 76.4047 272.178C79.4365 269.945 80.0131 262.184 80.1247 262.091C80.1238 262.026 80.1407 261.962 80.1735 261.906C80.2063 261.851 80.2537 261.805 80.3107 261.774C80.3711 261.743 80.4381 261.727 80.506 261.727C80.5739 261.727 80.6409 261.743 80.7013 261.774C80.7943 261.774 88.7551 265.273 92.3821 261.774C92.6896 261.5 92.9325 261.16 93.0933 260.781C93.2541 260.401 93.3288 259.99 93.3121 259.578C93.1819 256.247 88.2715 252.133 88.2343 252.133C88.1781 252.095 88.1342 252.041 88.1078 251.979C88.0814 251.916 88.0737 251.847 88.0855 251.78C88.084 251.713 88.1026 251.647 88.1391 251.59C88.1756 251.534 88.2282 251.49 88.2901 251.463C88.2901 251.463 91.7497 249.416 92.1961 246.717C92.2778 246.121 92.2213 245.514 92.0311 244.942C91.8408 244.371 91.5218 243.851 91.0987 243.423C90.7927 243.043 90.4041 242.739 89.9624 242.532C89.5208 242.326 89.0379 242.223 88.5505 242.232C84.8305 242.232 80.0131 247.592 79.9573 247.648C79.9079 247.706 79.8434 247.748 79.7712 247.771C79.6989 247.794 79.6217 247.797 79.5481 247.778C79.4762 247.76 79.4105 247.723 79.3581 247.671C79.3057 247.618 79.2685 247.552 79.2505 247.481C79.2505 247.481 76.8511 239.366 72.7963 239.366C69.4111 239.366 68.7043 247.499 68.7043 250.533C68.7059 250.63 68.6732 250.724 68.6119 250.799C68.5506 250.874 68.4647 250.925 68.3695 250.942C68.3695 250.942 61.7851 252.357 60.2599 255.167C60.0863 255.477 59.9859 255.823 59.9666 256.178C59.9472 256.533 60.0094 256.887 60.1483 257.214C61.8037 261.458 69.0763 259.634 69.1507 259.615L69.1693 259.727Z" fill="white"/>
<path d="M30.0159 204.115C29.5165 204.13 29.0171 204.086 28.5279 203.985C28.4742 203.976 28.4229 203.956 28.3772 203.927C28.3316 203.897 28.2927 203.858 28.2629 203.813C28.2331 203.767 28.2132 203.716 28.2044 203.662C28.1956 203.609 28.1981 203.554 28.2117 203.501C28.2203 203.447 28.2401 203.396 28.2697 203.35C28.2993 203.304 28.3381 203.266 28.3836 203.236C28.4291 203.206 28.4804 203.186 28.534 203.177C28.5877 203.168 28.6426 203.171 28.6953 203.185C30.6045 203.537 32.5766 203.159 34.2201 202.125C35.8635 201.09 37.0584 199.476 37.5675 197.601C39.9483 190.789 32.6571 186.583 32.3595 186.434C32.2882 186.398 32.2291 186.341 32.1894 186.272C32.1497 186.202 32.1313 186.123 32.1363 186.043C32.1437 185.966 32.1719 185.893 32.2177 185.83C32.2636 185.768 32.3254 185.719 32.3967 185.689C32.3967 185.689 36.8979 183.698 36.4887 179.659C36.4906 179.35 36.4108 179.046 36.2572 178.778C36.1037 178.51 35.8819 178.288 35.6145 178.133C34.0707 177.296 30.7971 178.691 29.6625 179.287C29.5637 179.34 29.4478 179.353 29.3399 179.321C29.232 179.29 29.1408 179.218 29.0859 179.12C29.0599 179.072 29.0436 179.02 29.0379 178.966C29.0323 178.912 29.0374 178.857 29.0529 178.805C29.0685 178.753 29.0942 178.705 29.1286 178.663C29.163 178.621 29.2054 178.587 29.2533 178.561C29.4393 178.449 33.7545 176.197 36.0237 177.389C36.4094 177.609 36.7318 177.925 36.9598 178.307C37.1879 178.688 37.3139 179.122 37.3257 179.566C37.3736 180.912 37.0368 182.243 36.3548 183.403C35.6727 184.564 34.6739 185.505 33.4755 186.118C35.3355 187.402 40.6179 191.701 38.4417 197.917C37.9401 199.749 36.8352 201.358 35.3059 202.482C33.7767 203.607 31.9127 204.183 30.0159 204.115Z" fill="white"/>
<path d="M72.8547 226.691C72.4756 226.704 72.0979 226.638 71.7456 226.497C71.3934 226.356 71.0743 226.143 70.8087 225.872C69.857 224.445 69.503 222.7 69.8229 221.015C67.9629 221.517 62.3829 222.727 58.8489 220.605C58.0935 220.148 57.4493 219.529 56.9634 218.792C56.4776 218.054 56.1622 217.218 56.0403 216.343C54.7383 209.01 62.5317 204.915 64.5033 204.003C63.8151 202.738 61.8993 198.829 62.6433 195.87C62.7938 195.296 63.0638 194.761 63.4357 194.299C63.8075 193.837 64.2728 193.459 64.8009 193.19C69.3951 190.752 75.6633 201.249 75.9609 201.696C76.0114 201.793 76.0242 201.906 75.9967 202.012C75.9693 202.119 75.9035 202.211 75.8121 202.272C75.7155 202.327 75.6013 202.343 75.4937 202.315C75.3861 202.287 75.2935 202.218 75.2355 202.124C73.5429 199.276 68.4279 192.241 65.2101 193.934C64.7806 194.147 64.402 194.45 64.1002 194.823C63.7985 195.195 63.5807 195.629 63.4617 196.093C62.5875 199.257 65.3217 203.948 65.3217 203.985C65.3531 204.038 65.3727 204.097 65.3792 204.158C65.3858 204.219 65.3791 204.28 65.3597 204.339C65.3403 204.397 65.3086 204.45 65.2667 204.495C65.2249 204.54 65.1739 204.576 65.1171 204.599C65.1171 204.599 55.3707 208.545 56.7285 216.194C56.829 216.956 57.0982 217.685 57.5166 218.329C57.9349 218.973 58.4918 219.515 59.1465 219.916C63.0153 222.262 70.0089 220.103 70.0833 220.084C70.142 220.048 70.2096 220.029 70.2786 220.029C70.3476 220.029 70.4152 220.048 70.4739 220.084C70.5282 220.132 70.5689 220.193 70.5917 220.262C70.6146 220.33 70.6189 220.404 70.6041 220.475C70.6041 220.475 69.9717 223.899 71.2923 225.258C71.5346 225.493 71.8315 225.663 72.1563 225.754C72.4811 225.845 72.8234 225.854 73.1523 225.779C77.0583 225.221 76.8723 217.702 76.8723 217.627C76.8591 217.565 76.86 217.5 76.8749 217.438C76.8898 217.376 76.9183 217.318 76.9584 217.269C76.9985 217.219 77.0492 217.179 77.1067 217.152C77.1642 217.125 77.2271 217.11 77.2908 217.11C77.3545 217.11 77.4174 217.125 77.4749 217.152C77.5324 217.179 77.5831 217.219 77.6232 217.269C77.6633 217.318 77.6919 217.376 77.7068 217.438C77.7217 217.5 77.7225 217.565 77.7093 217.627C77.7093 217.962 77.8767 225.965 73.2453 226.635L72.8547 226.691Z" fill="white"/>
<path d="M100.433 237.114C99.4941 236.778 98.6396 236.241 97.9295 235.54C97.2195 234.839 96.6711 233.991 96.3227 233.056C94.8905 229.985 95.0579 223.49 95.1137 222.131C93.9047 221.331 88.1387 217.162 88.3247 211.15C88.3742 209.185 88.8122 207.248 89.6135 205.453C90.4148 203.658 91.5635 202.039 92.9933 200.69C93.0316 200.65 93.0777 200.618 93.1289 200.595C93.18 200.573 93.2352 200.562 93.2909 200.562C93.3466 200.562 93.4018 200.573 93.453 200.595C93.5041 200.618 93.5503 200.65 93.5885 200.69C93.6285 200.727 93.6605 200.772 93.6824 200.821C93.7043 200.871 93.7156 200.925 93.7156 200.979C93.7156 201.033 93.7043 201.087 93.6824 201.137C93.6605 201.186 93.6285 201.231 93.5885 201.267C90.8972 203.848 89.3048 207.368 89.1431 211.094C88.9571 217.199 95.6717 221.443 95.7275 221.48C95.791 221.519 95.8433 221.573 95.8792 221.639C95.9151 221.704 95.9333 221.777 95.9321 221.852C95.9321 221.852 95.5787 229.446 97.0667 232.61C97.3618 233.43 97.8303 234.178 98.4401 234.801C99.05 235.424 99.7869 235.908 100.601 236.22C100.708 236.247 100.801 236.314 100.86 236.408C100.919 236.501 100.939 236.614 100.917 236.723C100.915 236.782 100.901 236.84 100.875 236.893C100.848 236.946 100.811 236.992 100.765 237.03C100.719 237.067 100.666 237.093 100.608 237.108C100.551 237.122 100.491 237.124 100.433 237.114Z" fill="white"/>
<path d="M89.9635 190.045H89.8334C86.474 188.734 83.7046 186.247 82.04 183.047C79.901 178.189 82.505 171.284 82.6166 170.986C82.6581 170.884 82.7373 170.802 82.8378 170.757C82.9382 170.712 83.0522 170.707 83.156 170.744C83.208 170.763 83.2557 170.792 83.2963 170.829C83.3369 170.867 83.3694 170.912 83.392 170.963C83.4146 171.013 83.4268 171.067 83.4277 171.123C83.4287 171.178 83.4185 171.233 83.3978 171.284C83.3978 171.284 80.7938 178.17 82.8212 182.712C84.3967 185.688 86.9821 188.005 90.1124 189.244C90.1644 189.263 90.2121 189.292 90.2527 189.329C90.2933 189.367 90.3258 189.412 90.3484 189.463C90.371 189.513 90.3832 189.568 90.3841 189.623C90.3851 189.678 90.3749 189.733 90.3542 189.784C90.3236 189.862 90.2698 189.929 90.1999 189.976C90.13 190.023 90.0475 190.047 89.9635 190.045Z" fill="white"/>
<path d="M221.581 168.194C211.544 168.288 201.568 166.632 192.1 163.299C192.049 163.279 192.003 163.249 191.965 163.211C191.926 163.172 191.896 163.127 191.875 163.076C191.854 163.026 191.843 162.972 191.844 162.918C191.844 162.864 191.855 162.81 191.876 162.76C191.897 162.709 191.927 162.663 191.965 162.625C192.003 162.586 192.049 162.556 192.099 162.535C192.149 162.514 192.203 162.504 192.258 162.504C192.312 162.504 192.366 162.515 192.416 162.536C211.165 168.991 231.531 168.991 250.28 162.536C250.386 162.501 250.502 162.508 250.603 162.556C250.704 162.605 250.782 162.692 250.82 162.797C250.856 162.903 250.848 163.019 250.8 163.12C250.751 163.221 250.665 163.299 250.559 163.337C241.245 166.591 231.446 168.234 221.581 168.194Z" fill="white"/>
<path d="M256.085 258.573C251.528 258.573 247.25 256.321 243.325 251.891C227.534 233.987 234.993 183.14 235.327 180.981C235.334 180.927 235.352 180.875 235.379 180.828C235.406 180.78 235.442 180.739 235.486 180.706C235.529 180.673 235.578 180.649 235.631 180.636C235.684 180.622 235.739 180.619 235.792 180.627C235.903 180.645 236.002 180.706 236.068 180.797C236.134 180.887 236.162 181 236.146 181.111C236.146 181.632 228.427 233.726 243.958 251.333C248.106 256.042 252.663 258.145 257.48 257.661C266.334 256.731 273.867 247.313 276.601 242.455C279.322 237.284 281.45 231.821 282.943 226.17C282.956 226.117 282.98 226.068 283.012 226.024C283.045 225.98 283.085 225.943 283.132 225.916C283.179 225.888 283.231 225.87 283.284 225.862C283.338 225.855 283.393 225.858 283.446 225.872C283.553 225.899 283.646 225.966 283.705 226.06C283.764 226.153 283.784 226.266 283.762 226.375C282.235 232.093 280.076 237.624 277.326 242.865C274.518 247.853 266.761 257.531 257.554 258.499C257.071 258.536 256.569 258.573 256.085 258.573Z" fill="#FDC844"/>
<path d="M254.52 246.55C253.373 246.553 252.235 246.332 251.172 245.899C237.632 240.52 241.184 191.664 241.333 189.598C241.347 189.489 241.4 189.39 241.482 189.318C241.564 189.246 241.67 189.206 241.78 189.207C241.835 189.209 241.889 189.223 241.939 189.247C241.989 189.271 242.034 189.305 242.071 189.347C242.107 189.388 242.135 189.437 242.152 189.49C242.169 189.543 242.175 189.599 242.17 189.654C242.17 190.156 238.45 239.906 251.47 245.117C252.547 245.545 253.701 245.746 254.86 245.708C256.019 245.669 257.157 245.392 258.203 244.894C268.136 240.557 275.966 220.475 276.041 220.27C276.061 220.22 276.091 220.174 276.13 220.135C276.168 220.097 276.213 220.066 276.264 220.045C276.314 220.025 276.368 220.014 276.422 220.014C276.476 220.014 276.53 220.026 276.58 220.047C276.682 220.088 276.764 220.168 276.809 220.268C276.854 220.369 276.859 220.483 276.822 220.587C276.487 221.424 268.787 241.171 258.557 245.657C257.288 246.231 255.913 246.535 254.52 246.55Z" fill="#FDC844"/>
<path d="M221.335 321.481C221.28 321.481 221.225 321.47 221.174 321.448C221.124 321.426 221.078 321.394 221.039 321.354C221.001 321.314 220.971 321.267 220.952 321.215C220.932 321.163 220.924 321.108 220.926 321.053L222.935 265.627C222.932 265.571 222.941 265.515 222.962 265.462C222.983 265.41 223.014 265.363 223.055 265.324C223.096 265.285 223.144 265.255 223.197 265.237C223.25 265.219 223.307 265.212 223.363 265.217C223.473 265.222 223.577 265.269 223.653 265.349C223.73 265.429 223.772 265.535 223.772 265.645L221.763 321.071C221.758 321.182 221.711 321.286 221.632 321.362C221.552 321.438 221.446 321.481 221.335 321.481Z" fill="#FDC844"/>
<path d="M212.036 321.481C211.979 321.481 211.922 321.469 211.87 321.446C211.818 321.424 211.771 321.39 211.733 321.348C211.694 321.306 211.665 321.256 211.646 321.202C211.628 321.148 211.622 321.091 211.627 321.034L215.57 248.002C215.579 247.89 215.63 247.785 215.713 247.71C215.796 247.634 215.904 247.592 216.016 247.592C216.072 247.594 216.126 247.608 216.176 247.632C216.226 247.656 216.271 247.69 216.307 247.732C216.344 247.773 216.372 247.822 216.389 247.875C216.406 247.928 216.412 247.984 216.407 248.039L212.464 321.09C212.454 321.197 212.405 321.296 212.326 321.369C212.247 321.441 212.143 321.481 212.036 321.481Z" fill="#FDC844"/>
<path d="M202.554 321.295C202.498 321.292 202.443 321.279 202.392 321.255C202.341 321.231 202.295 321.198 202.257 321.156C202.219 321.115 202.19 321.066 202.17 321.013C202.151 320.96 202.142 320.904 202.145 320.848L210.534 215.431C210.538 215.377 210.554 215.325 210.579 215.277C210.604 215.229 210.638 215.187 210.679 215.152C210.721 215.117 210.769 215.091 210.82 215.075C210.872 215.059 210.926 215.054 210.98 215.059C211.035 215.061 211.09 215.075 211.14 215.099C211.19 215.123 211.234 215.157 211.271 215.198C211.308 215.24 211.335 215.289 211.352 215.342C211.369 215.394 211.376 215.45 211.371 215.506L202.982 320.904C202.973 321.011 202.923 321.11 202.844 321.183C202.765 321.255 202.661 321.295 202.554 321.295Z" fill="#FDC844"/>
<path d="M192.266 320.941C192.208 320.939 192.152 320.925 192.099 320.9C192.047 320.875 192 320.839 191.962 320.796C191.924 320.752 191.895 320.702 191.877 320.647C191.859 320.592 191.852 320.533 191.857 320.476L204.877 187.886C204.879 187.829 204.893 187.773 204.918 187.723C204.943 187.672 204.979 187.627 205.024 187.592C205.068 187.556 205.119 187.531 205.174 187.517C205.229 187.504 205.287 187.502 205.342 187.513C205.396 187.518 205.448 187.533 205.496 187.558C205.544 187.583 205.587 187.618 205.621 187.659C205.656 187.701 205.682 187.749 205.698 187.8C205.714 187.852 205.719 187.906 205.714 187.96L192.694 320.55C192.685 320.657 192.636 320.757 192.556 320.829C192.477 320.901 192.374 320.941 192.266 320.941Z" fill="#FDC844"/>
<path d="M229.671 274.281C229.577 274.279 229.485 274.246 229.411 274.188C229.057 273.909 220.762 267.153 214.865 245.619C209.285 225.146 209.936 193.171 210.011 189.784L198.311 184.461C198.212 184.413 198.135 184.327 198.096 184.223C198.058 184.119 198.062 184.004 198.107 183.903C198.155 183.803 198.24 183.726 198.345 183.687C198.449 183.649 198.563 183.653 198.665 183.698L210.625 189.132C210.698 189.168 210.76 189.223 210.802 189.293C210.845 189.362 210.867 189.442 210.866 189.523C210.866 189.858 209.825 223.992 215.665 245.359C221.506 266.725 229.838 273.425 229.931 273.5C230.008 273.576 230.05 273.68 230.05 273.788C230.05 273.896 230.008 274 229.931 274.076C229.904 274.126 229.867 274.17 229.822 274.205C229.777 274.24 229.726 274.266 229.671 274.281Z" fill="#FDC844"/>
</g>
<defs>
<clipPath id="clip0_603_2173">
<rect width="334" height="366" fill="white"/>
</clipPath>
</defs>
</svg>
