<svg width="232" height="232" viewBox="0 0 232 232" fill="none" xmlns="http://www.w3.org/2000/svg">
<g clip-path="url(#clip0_264_631)">
<path d="M116 232C180.065 232 232 180.065 232 116C232 51.935 180.065 0 116 0C51.935 0 0 51.935 0 116C0 180.065 51.935 232 116 232Z" fill="#FDC844"/>
<path d="M29.0579 90.19L16.5879 85.608L24.9979 81.722L21.1119 73.312L33.5819 77.894L32.5379 80.678L26.5059 78.474L28.6519 83.114L24.0119 85.26L30.0439 87.464L29.0579 90.19Z" fill="#2A2A2A"/>
<path d="M39.0336 64.612C39.4976 66.41 39.2656 68.092 38.3376 69.716C37.4096 71.282 36.0176 72.326 34.2196 72.79C32.4216 73.254 30.7396 73.022 29.1156 72.094C27.5496 71.166 26.5056 69.774 26.0416 67.976C25.5776 66.178 25.8096 64.496 26.7376 62.872C27.6656 61.306 29.0576 60.262 30.8556 59.798C32.6536 59.334 34.3356 59.566 35.9596 60.494C37.5256 61.422 38.5696 62.814 39.0336 64.612ZM33.5236 69.948C34.5096 69.716 35.3216 69.136 35.8436 68.208C36.3656 67.28 36.4816 66.352 36.2496 65.366C35.9596 64.38 35.3796 63.568 34.4516 63.046C33.5236 62.524 32.5376 62.35 31.5516 62.582C30.5656 62.814 29.7536 63.394 29.2316 64.322C28.7096 65.25 28.5936 66.178 28.8256 67.164C29.1156 68.15 29.6956 68.962 30.6236 69.484C31.5516 70.064 32.5376 70.18 33.5236 69.948Z" fill="#2A2A2A"/>
<path d="M41.7597 63.626L35.5537 50.228L49.9377 53.592L47.9657 56.028L40.4837 54.288L43.7317 61.248L41.7597 63.626Z" fill="#2A2A2A"/>
<path d="M57.3617 44.312C57.2457 46.168 56.5497 47.734 55.1577 48.952C53.7657 50.17 52.1997 50.808 50.3437 50.692C48.4877 50.576 46.9217 49.88 45.7037 48.488C44.4277 47.096 43.8477 45.53 43.9637 43.674C44.0217 41.818 44.7757 40.252 46.1677 39.034C47.5597 37.758 49.1257 37.178 50.9817 37.294C52.8377 37.41 54.4037 38.106 55.6217 39.498C56.8397 40.832 57.4197 42.456 57.3617 44.312ZM50.5177 47.792C51.5617 47.85 52.4897 47.56 53.2437 46.806C54.0557 46.11 54.4037 45.24 54.4617 44.196C54.4617 43.152 54.1137 42.224 53.4177 41.47C52.7217 40.658 51.7937 40.252 50.8077 40.194C49.7637 40.136 48.8357 40.426 48.0817 41.18C47.2697 41.876 46.9217 42.746 46.8637 43.79C46.8637 44.834 47.2117 45.762 47.9077 46.516C48.6037 47.27 49.4737 47.734 50.5177 47.792Z" fill="#2A2A2A"/>
<path d="M62.4076 45.936L59.3916 41.238L60.6676 40.426L59.3916 28.826L69.4836 34.742L70.7596 33.93L73.7756 38.628L71.3976 40.194L69.8896 37.874L63.2196 42.166L64.7276 44.486L62.4076 45.936ZM66.8156 36.366L62.6396 33.814L63.2776 38.686L66.8156 36.366Z" fill="#2A2A2A"/>
<path d="M74.2981 35.38L68.7881 23.432L76.2121 20.01L77.4301 22.678L72.7321 24.824L73.6601 26.854L77.3721 25.172L78.5901 27.782L74.8781 29.464L75.8061 31.494L80.5041 29.348L81.7221 32.016L74.2981 35.38Z" fill="#2A2A2A"/>
<path d="M82.7075 31.088L86.0135 23.49L79.9814 18.212L83.2875 17.342L89.2614 22.562L87.5794 16.24L90.4214 15.486L92.1034 21.866L94.7714 14.384L98.0775 13.514L95.4094 21.112L102.021 26.1L98.4834 27.028L92.2194 22.272L93.7854 28.246L90.9434 29L89.3194 23.026L86.2454 30.16L82.7075 31.088Z" fill="#2A2A2A"/>
<path d="M106.14 17.516L108.054 17.342C109.33 17.226 110.432 17.574 111.36 18.27C112.288 19.024 112.81 20.01 112.868 21.228C112.984 22.446 112.636 23.49 111.824 24.36C111.012 25.23 110.026 25.694 108.692 25.81L103.82 26.216L102.776 13.108L105.734 12.876L106.14 17.516ZM106.604 23.258L108.46 23.084C108.924 23.026 109.33 22.91 109.62 22.62C109.91 22.33 110.026 21.982 109.968 21.46C109.91 20.996 109.736 20.648 109.446 20.358C109.098 20.126 108.692 20.01 108.228 20.068L106.372 20.242L106.604 23.258Z" fill="#2A2A2A"/>
<path d="M123.888 216.978L121.916 203.812L129.398 209.322L134.908 201.84L136.88 215.006L133.98 215.47L132.994 209.09L129.978 213.208L125.918 210.192L126.904 216.572L123.888 216.978Z" fill="#2A2A2A"/>
<path d="M150.51 208.974C149.64 210.656 148.364 211.758 146.624 212.338C144.884 212.918 143.144 212.802 141.52 211.932C139.838 211.062 138.736 209.786 138.156 208.046C137.576 206.306 137.692 204.566 138.562 202.942C139.432 201.26 140.708 200.158 142.448 199.578C144.188 198.998 145.928 199.114 147.552 199.984C149.234 200.854 150.336 202.13 150.916 203.87C151.496 205.61 151.38 207.292 150.51 208.974ZM142.854 209.322C143.782 209.844 144.71 209.902 145.754 209.554C146.74 209.206 147.494 208.568 147.958 207.64C148.422 206.712 148.48 205.726 148.132 204.682C147.784 203.638 147.204 202.884 146.276 202.42C145.348 201.898 144.42 201.84 143.376 202.188C142.332 202.536 141.636 203.174 141.172 204.102C140.708 205.03 140.65 206.016 140.998 207.06C141.346 208.104 141.926 208.858 142.854 209.322Z" fill="#2A2A2A"/>
<path d="M156.31 208.51L150.568 196.678L154.454 194.764C155.614 194.184 156.774 194.126 157.876 194.532C159.036 194.938 159.906 195.692 160.428 196.794C160.95 197.896 161.066 199.056 160.66 200.216C160.254 201.376 159.5 202.246 158.34 202.768L157.122 203.348L158.978 207.118L156.31 208.51ZM155.904 200.97L157.122 200.39C157.528 200.158 157.818 199.868 157.992 199.404C158.108 198.94 158.108 198.534 157.876 198.128C157.702 197.722 157.354 197.432 156.948 197.258C156.542 197.084 156.078 197.142 155.672 197.316L154.454 197.896L155.904 200.97Z" fill="#2A2A2A"/>
<path d="M167.04 206.364L163.966 201.666L165.242 200.796L163.966 189.196L174.116 195.054L175.392 194.184L178.466 198.882L176.088 200.448L174.58 198.186L167.968 202.536L169.476 204.856L167.04 206.364ZM171.448 196.794L167.272 194.242L167.91 199.114L171.448 196.794Z" fill="#2A2A2A"/>
<path d="M185.832 186.354C185.716 188.21 185.02 189.776 183.628 190.994C182.236 192.212 180.612 192.792 178.756 192.676C176.9 192.56 175.334 191.864 174.116 190.472C172.898 189.08 172.318 187.456 172.434 185.6C172.55 183.744 173.246 182.178 174.638 180.96C176.03 179.742 177.654 179.162 179.51 179.278C181.366 179.394 182.932 180.09 184.15 181.482C185.368 182.874 185.89 184.498 185.832 186.354ZM178.988 189.834C180.032 189.892 180.96 189.602 181.714 188.906C182.526 188.21 182.932 187.34 182.932 186.296C182.99 185.252 182.642 184.324 181.888 183.57C181.192 182.758 180.322 182.352 179.278 182.236C178.234 182.178 177.306 182.468 176.552 183.164C175.74 183.86 175.334 184.73 175.334 185.774C175.276 186.818 175.624 187.746 176.378 188.558C177.074 189.312 177.944 189.718 178.988 189.834Z" fill="#2A2A2A"/>
<path d="M190.878 183.686L180.786 175.276L183.918 171.448C184.614 170.636 185.484 170.172 186.586 170.056C187.688 169.94 188.616 170.23 189.428 170.926C190.124 171.506 190.472 172.202 190.588 173.072C191.168 172.84 191.806 172.782 192.444 172.84C193.082 172.898 193.662 173.188 194.184 173.594C194.996 174.29 195.46 175.16 195.576 176.262C195.692 177.364 195.344 178.292 194.648 179.162L190.878 183.686ZM186.76 176.378L187.804 175.102C188.036 174.812 188.152 174.464 188.152 174.116C188.152 173.768 187.978 173.478 187.688 173.246C187.398 173.014 187.108 172.898 186.702 172.956C186.354 173.014 186.064 173.188 185.774 173.478L184.73 174.754L186.76 176.378ZM190.704 179.684L192.328 177.712C192.56 177.422 192.676 177.074 192.676 176.726C192.676 176.378 192.502 176.088 192.212 175.856C191.922 175.624 191.632 175.508 191.226 175.566C190.878 175.624 190.588 175.798 190.298 176.088L188.674 178.06L190.704 179.684Z" fill="#2A2A2A"/>
<path d="M199.404 173.304L188.094 166.344L189.66 163.792L195.518 167.388L193.894 156.658L205.204 163.618L203.638 166.17L197.78 162.574L199.404 173.304Z" fill="#2A2A2A"/>
<path d="M207.234 159.906L194.996 154.744L196.156 152.018L202.478 154.686L199.23 144.304L211.468 149.466L210.308 152.192L203.986 149.524L207.234 159.906Z" fill="#2A2A2A"/>
<path d="M87.1161 198.534L84.7961 206.306L89.5521 207.756L91.8721 199.984L92.7421 200.274L90.1321 208.974L83.5781 207.002L86.1881 198.302L87.1161 198.534Z" fill="#2A2A2A"/>
<path d="M73.428 194.068C74.646 193.662 75.806 193.72 76.966 194.3C78.126 194.88 78.938 195.75 79.344 196.91C79.75 198.07 79.692 199.288 79.112 200.448C78.532 201.608 77.662 202.42 76.502 202.826C75.342 203.232 74.124 203.174 72.964 202.594C71.804 202.014 70.992 201.144 70.586 199.984C70.18 198.824 70.238 197.606 70.818 196.446C71.34 195.286 72.268 194.474 73.428 194.068ZM78.474 197.2C78.126 196.272 77.488 195.576 76.56 195.112C75.632 194.648 74.704 194.59 73.718 194.938C72.79 195.286 72.094 195.924 71.63 196.852C71.166 197.78 71.108 198.766 71.456 199.694C71.804 200.622 72.384 201.318 73.37 201.782C74.298 202.246 75.226 202.304 76.212 201.956C77.14 201.608 77.836 200.97 78.3 200.042C78.764 199.114 78.822 198.186 78.474 197.2Z" fill="#2A2A2A"/>
<path d="M70.4119 188.906L68.8459 191.226L68.1499 190.762L60.3779 195.46L61.8859 186.528L61.1899 186.064L62.7559 183.744L63.5099 184.266L62.4659 185.832L68.6139 190.008L69.6579 188.442L70.4119 188.906ZM67.3379 190.182L62.6979 186.992L61.5379 193.72L67.3379 190.182Z" fill="#2A2A2A"/>
<path d="M59.8565 181.366L57.9425 183.454L57.3045 182.874L48.8945 186.354L51.7365 177.712L51.0985 177.132L53.0125 175.044L53.7085 175.682L52.4325 177.074L57.8845 182.12L59.1605 180.728L59.8565 181.366ZM56.6085 182.178L52.4905 178.35L50.3445 184.846L56.6085 182.178Z" fill="#2A2A2A"/>
<path d="M48.8363 173.13L41.8763 178.93L38.5703 174.986L39.2663 174.406L41.9923 177.654L44.3123 175.682L42.1083 173.014L42.8043 172.434L45.0083 175.102L47.5023 173.014L44.7763 169.766L45.4723 169.186L48.8363 173.13Z" fill="#2A2A2A"/>
<path d="M42.862 165.59L35.322 170.636L33.93 168.49C33.408 167.678 33.176 166.924 33.292 166.228C33.408 165.532 33.814 164.894 34.452 164.488C35.148 164.024 35.844 163.908 36.54 164.082C37.236 164.256 37.874 164.72 38.396 165.532L39.266 166.866L42.34 164.836L42.862 165.59ZM38.57 167.33L37.7 165.996C37.294 165.416 36.888 165.068 36.424 164.952C35.96 164.836 35.496 164.952 35.032 165.242C34.568 165.532 34.278 165.938 34.22 166.402C34.162 166.866 34.278 167.388 34.684 167.968L35.554 169.302L38.57 167.33Z" fill="#2A2A2A"/>
<path d="M37.99 158.166L32.016 156.02L29.638 161.704L29.116 160.66L31.494 155.034L27.376 157.006L26.97 156.136L31.088 154.164L25.23 152.424L24.708 151.38L30.624 153.12L32.712 147.146L33.234 148.306L31.204 154.106L35.09 152.25L35.496 153.12L31.61 154.976L37.41 157.006L37.99 158.166Z" fill="#2A2A2A"/>
<path d="M31.2621 142.564L22.5621 145.174L22.2721 144.304L26.6801 142.97L21.0541 140.128L20.7061 139.026L26.3901 141.868L29.2901 136.068L29.6381 137.286L26.7961 142.912L30.9721 141.694L31.2621 142.564Z" fill="#2A2A2A"/>
<path d="M28.6522 133.284L18.9082 130.442L27.2602 124.642L27.4342 125.628L25.1142 127.194L25.8102 131.428L28.5362 132.182L28.6522 133.284ZM24.8242 131.254L24.2442 127.774L20.8802 130.094L24.8242 131.254Z" fill="#2A2A2A"/>
<path d="M151.264 36.25L152.54 33.756L153.294 34.162L160.486 28.594L160.022 37.7L160.776 38.106L159.5 40.6L158.688 40.194L159.558 38.512L153.004 35.09L152.134 36.772L151.264 36.25ZM154.164 34.626L159.152 37.236L159.558 30.392L154.164 34.626Z" fill="#2A2A2A"/>
<path d="M170.809 44.66C169.533 44.834 168.431 44.544 167.387 43.79C166.343 43.036 165.705 41.992 165.531 40.774C165.357 39.556 165.647 38.396 166.401 37.294C167.155 36.25 168.199 35.612 169.417 35.438C170.635 35.264 171.795 35.554 172.839 36.308C173.883 37.062 174.521 38.106 174.695 39.324C174.869 40.542 174.579 41.702 173.825 42.804C173.013 43.848 172.027 44.486 170.809 44.66ZM166.401 40.658C166.575 41.644 167.039 42.456 167.851 43.094C168.663 43.732 169.591 43.906 170.577 43.79C171.563 43.616 172.375 43.152 173.013 42.282C173.651 41.412 173.883 40.484 173.709 39.498C173.535 38.512 173.071 37.7 172.259 37.062C171.447 36.424 170.519 36.192 169.533 36.366C168.547 36.54 167.735 37.004 167.097 37.874C166.517 38.744 166.227 39.672 166.401 40.658Z" fill="#2A2A2A"/>
<path d="M175.044 49.938L181.424 43.5L183.512 45.588C184.092 46.168 184.44 46.806 184.44 47.444C184.44 48.082 184.208 48.662 183.744 49.126C183.106 49.764 182.41 49.938 181.598 49.764C182.12 50.808 182.004 51.736 181.192 52.548C180.612 53.128 179.974 53.36 179.278 53.302C178.582 53.244 177.886 52.838 177.248 52.2L175.044 49.938ZM176.32 49.996L177.944 51.62C178.408 52.084 178.872 52.316 179.336 52.316C179.8 52.316 180.206 52.142 180.554 51.794C180.902 51.446 181.076 51.04 181.076 50.576C181.076 50.112 180.786 49.648 180.322 49.184L178.698 47.56L176.32 49.996ZM179.278 46.98L180.728 48.372C181.076 48.72 181.482 48.952 181.888 48.952C182.294 48.952 182.7 48.778 182.99 48.43C183.28 48.14 183.454 47.734 183.454 47.328C183.454 46.922 183.28 46.516 182.874 46.168L181.424 44.776L179.278 46.98Z" fill="#2A2A2A"/>
<path d="M182.468 57.71L189.544 52.026L192.792 56.028L192.096 56.608L189.428 53.302L187.05 55.216L189.254 57.942L188.558 58.522L186.354 55.796L183.802 57.826L186.47 61.132L185.774 61.712L182.468 57.71Z" fill="#2A2A2A"/>
<path d="M188.268 65.366L195.924 60.494L197.316 62.64C197.838 63.452 198.012 64.206 197.896 64.902C197.78 65.598 197.374 66.178 196.678 66.642C195.982 67.106 195.286 67.222 194.59 66.99C193.894 66.816 193.256 66.294 192.792 65.482L191.922 64.148L188.79 66.12L188.268 65.366ZM192.618 63.684L193.488 65.018C193.836 65.598 194.242 65.946 194.706 66.062C195.17 66.178 195.634 66.12 196.098 65.772C196.562 65.482 196.852 65.076 196.91 64.612C196.968 64.148 196.852 63.626 196.504 63.046L195.634 61.712L192.618 63.684Z" fill="#2A2A2A"/>
<path d="M193.546 74.298L201.84 70.412L202.246 71.282L195.982 74.182L205.146 77.198L196.852 81.084L196.446 80.214L202.71 77.314L193.546 74.298Z" fill="#2A2A2A"/>
<path d="M198.708 86.304L207.35 83.578L208.916 88.508L208.046 88.798L206.77 84.738L203.87 85.666L204.914 88.972L204.044 89.262L203 85.956L199.868 86.942L201.144 91.002L200.274 91.292L198.708 86.304Z" fill="#2A2A2A"/>
<path d="M113.97 160.486C112.056 160.486 110.2 160.37 108.286 160.138C95.5258 158.63 84.0998 152.25 76.1538 142.158C68.2078 132.066 64.6118 119.48 66.1198 106.72C67.6278 93.96 74.0078 82.534 84.0998 74.588C104.922 58.116 135.256 61.712 151.67 82.534C168.142 103.356 164.546 133.69 143.724 150.104C135.082 156.89 124.7 160.486 113.97 160.486ZM113.796 65.366C103.588 65.366 93.3218 68.672 84.7378 75.458C74.8778 83.23 68.6718 94.366 67.2218 106.836C65.7718 119.306 69.2518 131.602 77.0238 141.404C84.7958 151.264 95.9318 157.47 108.402 158.92C120.872 160.37 133.168 156.89 142.97 149.118C163.27 133.052 166.75 103.472 150.684 83.172C141.462 71.514 127.716 65.366 113.796 65.366Z" fill="#2A2A2A"/>
<path d="M121.336 157.876C107.996 157.876 95.1203 150.452 88.8563 137.692C80.0403 119.828 87.4643 98.078 105.328 89.32C123.192 80.504 144.942 87.928 153.7 105.792C162.516 123.656 155.092 145.406 137.228 154.164C132.124 156.658 126.672 157.876 121.336 157.876ZM89.9003 137.17C98.4263 154.454 119.422 161.646 136.764 153.12C154.106 144.594 161.24 123.598 152.714 106.256C144.188 88.972 123.192 81.78 105.85 90.306C88.5083 98.832 81.3743 119.828 89.9003 137.17Z" fill="#2A2A2A"/>
<path d="M129.108 155.15C120.408 155.15 111.998 150.278 107.88 141.984C105.096 136.3 104.69 129.92 106.72 123.946C108.75 117.972 112.984 113.158 118.668 110.374C124.352 107.59 130.732 107.184 136.706 109.214C142.68 111.244 147.494 115.478 150.278 121.162C153.062 126.846 153.468 133.226 151.438 139.2C149.408 145.174 145.174 149.988 139.49 152.772C136.126 154.396 132.588 155.15 129.108 155.15ZM128.992 109.098C125.686 109.098 122.322 109.852 119.132 111.418C107.996 116.87 103.414 130.384 108.866 141.462C114.318 152.54 127.832 157.18 138.91 151.728C150.046 146.276 154.628 132.762 149.176 121.684C145.29 113.738 137.286 109.098 128.992 109.098Z" fill="#2A2A2A"/>
<path d="M143.319 162.69C150.526 162.69 156.369 156.847 156.369 149.64C156.369 142.433 150.526 136.59 143.319 136.59C136.111 136.59 130.269 142.433 130.269 149.64C130.269 156.847 136.111 162.69 143.319 162.69Z" fill="#FDC844"/>
<path d="M143.318 163.27C141.868 163.27 140.36 163.038 138.91 162.516C135.488 161.356 132.704 158.92 131.08 155.614C129.456 152.366 129.224 148.654 130.384 145.232C131.544 141.81 133.98 139.026 137.286 137.402C144.014 134.096 152.192 136.88 155.498 143.608C157.122 146.856 157.354 150.568 156.194 153.99C155.034 157.412 152.598 160.196 149.292 161.82C147.436 162.806 145.406 163.27 143.318 163.27ZM143.318 137.17C141.462 137.17 139.606 137.576 137.866 138.446C134.908 139.896 132.646 142.448 131.544 145.58C130.442 148.712 130.674 152.134 132.182 155.092C133.632 158.05 136.184 160.312 139.374 161.414C142.506 162.458 145.928 162.284 148.886 160.776C151.844 159.326 154.106 156.774 155.208 153.642C156.31 150.51 156.078 147.088 154.57 144.13C152.366 139.722 147.9 137.17 143.318 137.17Z" fill="#2A2A2A"/>
<path d="M134.154 146.276C138.703 146.276 142.39 142.589 142.39 138.04C142.39 133.491 138.703 129.804 134.154 129.804C129.605 129.804 125.918 133.491 125.918 138.04C125.918 142.589 129.605 146.276 134.154 146.276Z" fill="#FDC844"/>
<path d="M134.154 146.856C133.168 146.856 132.24 146.682 131.312 146.392C129.05 145.638 127.252 144.072 126.208 141.926C125.164 139.838 124.99 137.402 125.744 135.198C126.498 132.936 128.064 131.138 130.21 130.094C134.56 127.948 139.896 129.746 142.042 134.096C143.086 136.184 143.26 138.62 142.448 140.824C141.694 143.086 140.128 144.884 137.982 145.928C136.822 146.566 135.488 146.856 134.154 146.856ZM134.154 130.384C132.994 130.384 131.892 130.616 130.79 131.196C128.934 132.124 127.6 133.69 126.904 135.604C126.266 137.518 126.382 139.606 127.31 141.462C128.238 143.318 129.804 144.652 131.718 145.348C133.632 145.986 135.72 145.87 137.576 144.942C141.346 143.086 142.97 138.446 141.056 134.676C139.722 131.95 136.996 130.384 134.154 130.384Z" fill="#2A2A2A"/>
</g>
<defs>
<clipPath id="clip0_264_631">
<rect width="232" height="232" fill="white"/>
</clipPath>
</defs>
</svg>
