<svg width="232" height="232" viewBox="0 0 232 232" fill="none" xmlns="http://www.w3.org/2000/svg">
<g clip-path="url(#clip0_264_890)">
<path d="M116 232C180.065 232 232 180.065 232 116C232 51.935 180.065 0 116 0C51.935 0 0 51.935 0 116C0 180.065 51.935 232 116 232Z" fill="#179FDB"/>
<path d="M32.4798 88.102L20.2998 82.824L28.9418 79.402L25.5198 70.76L37.6998 76.038L36.5398 78.764L30.6238 76.212L32.4798 80.91L27.7818 82.766L33.6978 85.318L32.4798 88.102Z" fill="#2A2A2A"/>
<path d="M43.8481 63.104C44.1961 64.902 43.9061 66.584 42.8621 68.15C41.8181 69.716 40.4261 70.644 38.5701 70.992C36.7721 71.34 35.0901 71.05 33.5241 70.006C31.9581 68.962 31.0301 67.57 30.6821 65.714C30.3341 63.916 30.6241 62.234 31.6681 60.668C32.7121 59.102 34.1041 58.174 35.9601 57.826C37.7581 57.478 39.4401 57.768 41.0061 58.812C42.5141 59.856 43.5001 61.306 43.8481 63.104ZM38.0481 68.15C39.0921 67.976 39.9041 67.454 40.4841 66.584C41.0641 65.714 41.2381 64.728 41.0061 63.742C40.7741 62.756 40.1941 61.944 39.3241 61.306C38.4541 60.668 37.4681 60.494 36.4241 60.668C35.3801 60.842 34.5681 61.364 33.9881 62.234C33.4081 63.104 33.2341 64.09 33.4661 65.076C33.6981 66.062 34.2781 66.874 35.1481 67.512C36.0761 68.15 37.0041 68.324 38.0481 68.15Z" fill="#2A2A2A"/>
<path d="M46.6317 62.292L41.1797 48.546L55.3897 52.664L53.2437 54.984L45.8777 52.78L48.7197 59.914L46.6317 62.292Z" fill="#2A2A2A"/>
<path d="M63.2778 43.848C63.1038 45.704 62.2918 47.212 60.8418 48.372C59.3918 49.532 57.7678 50.054 55.9118 49.822C54.0558 49.648 52.5478 48.836 51.3878 47.386C50.2278 45.936 49.7058 44.312 49.9378 42.456C50.1118 40.6 50.9238 39.092 52.3738 37.932C53.8238 36.772 55.4478 36.25 57.3038 36.482C59.1598 36.656 60.6678 37.468 61.8278 38.918C62.9298 40.368 63.4518 42.05 63.2778 43.848ZM56.2598 46.98C57.3038 47.096 58.2318 46.864 59.0438 46.168C59.8558 45.472 60.3198 44.66 60.3778 43.616C60.4358 42.572 60.1458 41.644 59.5078 40.832C58.8118 40.02 57.9998 39.498 56.9558 39.382C55.9118 39.266 54.9838 39.498 54.1718 40.194C53.3598 40.89 52.8958 41.702 52.8378 42.746C52.7798 43.79 53.0698 44.718 53.7078 45.53C54.3458 46.4 55.2158 46.864 56.2598 46.98Z" fill="#2A2A2A"/>
<path d="M68.2078 45.82L65.4238 40.948L66.7578 40.194L66.1778 28.536L75.9218 34.974L77.2558 34.22L80.0398 39.092L77.5458 40.484L76.2118 38.106L69.3098 42.05L70.6438 44.428L68.2078 45.82ZM73.1958 36.54L69.1358 33.756L69.4838 38.628L73.1958 36.54Z" fill="#2A2A2A"/>
<path d="M80.6197 35.96L75.8057 23.722L83.4037 20.764L84.4477 23.49L79.6337 25.404L80.4457 27.492L84.2157 25.984L85.2597 28.652L81.4897 30.16L82.3017 32.248L87.1157 30.334L88.1597 33.06L80.6197 35.96Z" fill="#2A2A2A"/>
<path d="M89.32 32.132L93.032 24.766L87.29 19.14L90.654 18.444L96.338 24.012L95.004 17.574L97.904 16.994L99.238 23.432L102.312 16.124L105.676 15.428L102.544 22.852L108.866 28.188L105.27 28.942L99.296 23.838L100.514 29.87L97.614 30.45L96.396 24.418L92.916 31.436L89.32 32.132Z" fill="#2A2A2A"/>
<path d="M113.448 19.836L115.362 19.778C116.638 19.72 117.74 20.126 118.61 20.938C119.48 21.75 119.944 22.736 119.944 23.954C120.002 25.172 119.596 26.216 118.726 27.028C117.914 27.84 116.812 28.304 115.536 28.304L110.664 28.42L110.374 15.254L113.332 15.196L113.448 19.836ZM113.564 25.636L115.478 25.578C116 25.578 116.348 25.404 116.696 25.172C116.986 24.882 117.16 24.534 117.16 24.07C117.16 23.606 116.986 23.2 116.696 22.968C116.406 22.736 116 22.562 115.478 22.62L113.564 22.678V25.636Z" fill="#2A2A2A"/>
<path d="M120.002 219.994L118.726 206.77L125.86 212.686L131.776 205.552L133.052 218.776L130.094 219.066L129.514 212.628L126.266 216.514L122.38 213.266L122.96 219.704L120.002 219.994Z" fill="#2A2A2A"/>
<path d="M147.03 213.498C146.102 215.122 144.71 216.166 142.97 216.63C141.172 217.094 139.49 216.862 137.866 215.934C136.242 215.006 135.198 213.614 134.734 211.874C134.27 210.076 134.502 208.394 135.43 206.77C136.358 205.146 137.75 204.102 139.49 203.638C141.288 203.174 142.97 203.406 144.594 204.334C146.218 205.262 147.262 206.654 147.726 208.394C148.19 210.192 147.958 211.874 147.03 213.498ZM139.374 213.44C140.244 213.962 141.23 214.136 142.216 213.846C143.26 213.556 144.014 212.976 144.478 212.048C145 211.12 145.116 210.192 144.826 209.148C144.536 208.104 143.956 207.292 143.086 206.77C142.216 206.248 141.23 206.074 140.244 206.364C139.2 206.654 138.446 207.234 137.982 208.162C137.46 209.09 137.344 210.076 137.634 211.062C137.924 212.106 138.504 212.918 139.374 213.44Z" fill="#2A2A2A"/>
<path d="M152.887 213.382L147.783 201.26L151.785 199.578C152.945 199.114 154.105 199.056 155.265 199.52C156.367 199.984 157.179 200.796 157.701 201.956C158.165 203.116 158.223 204.218 157.759 205.378C157.295 206.538 156.483 207.292 155.323 207.814L154.047 208.336L155.671 212.222L152.887 213.382ZM152.887 205.784L154.105 205.262C154.511 205.088 154.859 204.798 154.975 204.334C155.149 203.87 155.149 203.464 154.975 203.058C154.801 202.652 154.511 202.362 154.047 202.13C153.641 201.956 153.177 201.956 152.771 202.13L151.553 202.652L152.887 205.784Z" fill="#2A2A2A"/>
<path d="M163.676 211.816L160.892 207.002L162.226 206.248L161.588 194.59L171.39 200.97L172.724 200.216L175.508 205.03L173.014 206.48L171.622 204.102L164.778 208.046L166.17 210.424L163.676 211.816ZM168.606 202.536L164.546 199.752L164.894 204.624L168.606 202.536Z" fill="#2A2A2A"/>
<path d="M183.569 192.908C183.337 194.764 182.525 196.272 181.075 197.432C179.625 198.592 178.001 199.056 176.145 198.882C174.289 198.65 172.781 197.838 171.621 196.388C170.461 194.938 169.997 193.314 170.171 191.458C170.403 189.602 171.215 188.094 172.665 186.934C174.115 185.774 175.739 185.31 177.595 185.484C179.451 185.658 180.959 186.528 182.119 187.978C183.279 189.428 183.743 191.052 183.569 192.908ZM176.493 195.982C177.537 196.098 178.465 195.866 179.277 195.17C180.089 194.532 180.553 193.662 180.669 192.618C180.785 191.574 180.437 190.646 179.799 189.834C179.103 189.022 178.291 188.5 177.247 188.384C176.203 188.268 175.275 188.5 174.463 189.196C173.651 189.834 173.187 190.704 173.071 191.748C172.955 192.792 173.303 193.72 173.941 194.532C174.637 195.344 175.449 195.866 176.493 195.982Z" fill="#2A2A2A"/>
<path d="M188.789 190.53L179.161 181.598L182.525 178.002C183.279 177.19 184.149 176.784 185.251 176.784C186.353 176.726 187.281 177.074 188.035 177.828C188.673 178.408 189.021 179.162 189.079 180.032C189.717 179.8 190.297 179.8 190.935 179.916C191.573 180.032 192.095 180.322 192.617 180.786C193.429 181.54 193.835 182.41 193.835 183.512C193.893 184.614 193.487 185.542 192.733 186.354L188.789 190.53ZM185.077 183.048L186.179 181.83C186.469 181.54 186.585 181.192 186.585 180.844C186.585 180.496 186.469 180.206 186.179 179.916C185.889 179.684 185.599 179.568 185.251 179.568C184.903 179.568 184.555 179.742 184.323 180.032L183.221 181.25L185.077 183.048ZM188.789 186.528L190.529 184.672C190.819 184.382 190.935 184.034 190.935 183.686C190.935 183.338 190.819 183.048 190.529 182.758C190.239 182.526 189.949 182.41 189.601 182.41C189.253 182.41 188.905 182.584 188.673 182.874L186.933 184.73L188.789 186.528Z" fill="#2A2A2A"/>
<path d="M197.838 180.67L186.934 173.072L188.616 170.636L194.242 174.58L193.198 163.792L204.102 171.39L202.42 173.826L196.794 169.882L197.838 180.67Z" fill="#2A2A2A"/>
<path d="M206.422 167.678L194.474 161.82L195.75 159.152L201.898 162.168L199.23 151.612L211.178 157.47L209.902 160.138L203.754 157.122L206.422 167.678Z" fill="#2A2A2A"/>
<path d="M66.6414 190.066L62.1754 196.91L66.2934 199.578L70.7594 192.734L71.5134 193.256L66.5834 200.854L60.8994 197.142L65.8294 189.544L66.6414 190.066Z" fill="#2A2A2A"/>
<path d="M61.4802 186.18L55.6222 193.082L53.7082 191.4C53.0122 190.762 52.6062 190.124 52.4902 189.37C52.3742 188.616 52.6062 187.978 53.1282 187.34C53.6502 186.702 54.2882 186.412 55.0422 186.412C55.7962 186.412 56.4922 186.702 57.1882 187.282L58.4062 188.326L60.7842 185.542L61.4802 186.18ZM57.7682 189.08L56.5502 188.036C56.0282 187.572 55.5062 187.398 55.0422 187.398C54.5782 187.398 54.1142 187.63 53.7662 188.094C53.4182 188.5 53.2442 188.964 53.3022 189.428C53.3602 189.892 53.6502 190.356 54.1722 190.82L55.3902 191.864L57.7682 189.08Z" fill="#2A2A2A"/>
<path d="M47.9081 174.58C49.1841 174.638 50.2281 175.16 51.0981 176.146C51.9681 177.132 52.3741 178.234 52.3161 179.51C52.2581 180.786 51.7361 181.83 50.7501 182.7C49.7641 183.57 48.6621 183.976 47.3861 183.918C46.1101 183.86 45.0661 183.338 44.1961 182.352C43.3261 181.366 42.9201 180.264 42.9781 178.988C43.0361 177.712 43.5581 176.668 44.5441 175.798C45.5881 174.87 46.6901 174.464 47.9081 174.58ZM51.3881 179.394C51.4461 178.408 51.1561 177.48 50.4601 176.726C49.7641 175.972 48.9521 175.566 47.9081 175.508C46.9221 175.45 45.9941 175.798 45.2401 176.494C44.4281 177.19 44.0221 178.06 43.9641 179.046C43.9061 180.032 44.1961 180.96 44.8921 181.714C45.5881 182.468 46.4581 182.932 47.4441 182.932C48.4301 182.99 49.3581 182.642 50.1121 181.946C50.8661 181.25 51.3301 180.438 51.3881 179.394Z" fill="#2A2A2A"/>
<path d="M45.0074 168.664L37.4674 173.71L34.5674 169.418L35.3214 168.896L37.6994 172.434L40.1934 170.752L38.2794 167.852L39.0334 167.33L40.9474 170.23L43.6734 168.432L41.2954 164.894L42.0494 164.372L45.0074 168.664Z" fill="#2A2A2A"/>
<path d="M39.7882 160.428L31.7262 164.604L31.3202 163.792L35.3802 161.704L29.3482 159.964L28.8262 158.92L34.9162 160.66L36.7142 154.396L37.2942 155.556L35.5542 161.646L39.3822 159.674L39.7882 160.428Z" fill="#2A2A2A"/>
<path d="M34.6835 149.466L27.0855 152.366L28.0135 154.802L27.1435 155.15L24.9395 149.35L25.8095 149.002L26.7375 151.496L34.3355 148.596L34.6835 149.466Z" fill="#2A2A2A"/>
<path d="M30.3918 134.792L21.5758 136.88L21.3438 135.952L30.1597 133.864L30.3918 134.792ZM26.6218 142.1L26.2158 140.418C25.9838 139.49 26.0418 138.678 26.3898 138.04C26.7378 137.402 27.3178 136.996 28.0718 136.764C28.8838 136.59 29.5218 136.706 30.1597 137.112C30.7397 137.518 31.1457 138.214 31.3777 139.142L31.9577 141.694L23.1998 143.84L22.9677 142.912L26.6218 142.1ZM30.9718 141.056L30.5658 139.374C30.3918 138.678 30.1597 138.214 29.7537 137.924C29.3477 137.634 28.8838 137.576 28.3618 137.692C27.8398 137.808 27.4338 138.098 27.2018 138.562C26.9698 138.968 26.9697 139.548 27.1437 140.244L27.5498 141.926L30.9718 141.056Z" fill="#2A2A2A"/>
<path d="M135.72 31.262L137.924 22.446L138.852 22.678L137.75 27.144L143.086 23.722L144.246 24.012L138.91 27.434L142.448 32.886L141.23 32.596L137.808 27.26L136.764 31.436L135.72 31.262Z" fill="#2A2A2A"/>
<path d="M153.004 35.554C151.844 36.076 150.684 36.076 149.466 35.554C148.248 35.09 147.378 34.278 146.914 33.118C146.392 31.958 146.392 30.798 146.914 29.58C147.378 28.362 148.19 27.492 149.35 27.028C150.51 26.506 151.67 26.506 152.888 27.028C154.106 27.492 154.976 28.304 155.44 29.464C155.962 30.624 155.962 31.784 155.44 33.002C154.976 34.22 154.164 35.09 153.004 35.554ZM147.726 32.77C148.132 33.698 148.77 34.336 149.756 34.742C150.742 35.148 151.67 35.09 152.598 34.684C153.526 34.278 154.164 33.582 154.57 32.596C154.976 31.61 154.976 30.682 154.57 29.754C154.164 28.826 153.526 28.188 152.54 27.782C151.554 27.376 150.626 27.434 149.698 27.84C148.77 28.246 148.132 28.942 147.726 29.928C147.378 30.914 147.378 31.842 147.726 32.77Z" fill="#2A2A2A"/>
<path d="M165.706 42.456C164.488 42.746 163.328 42.572 162.168 41.876C161.066 41.18 160.312 40.252 160.022 39.034C159.732 37.816 159.906 36.656 160.544 35.496C161.24 34.394 162.168 33.64 163.386 33.35C164.604 33.06 165.764 33.234 166.924 33.93C168.026 34.626 168.78 35.554 169.07 36.772C169.36 37.99 169.186 39.15 168.548 40.31C167.852 41.412 166.924 42.166 165.706 42.456ZM160.95 38.86C161.182 39.846 161.762 40.6 162.632 41.122C163.502 41.644 164.43 41.818 165.416 41.528C166.402 41.296 167.156 40.716 167.678 39.788C168.2 38.86 168.374 37.932 168.142 36.946C167.91 35.96 167.33 35.206 166.46 34.684C165.59 34.162 164.662 33.988 163.676 34.278C162.69 34.51 161.936 35.09 161.414 36.018C160.892 36.946 160.718 37.874 160.95 38.86Z" fill="#2A2A2A"/>
<path d="M170.288 47.27L175.972 40.194L177.944 41.818C178.698 42.398 179.104 43.094 179.22 43.79C179.336 44.486 179.162 45.182 178.64 45.82C178.118 46.458 177.538 46.806 176.784 46.806C176.03 46.864 175.334 46.574 174.58 45.994L173.304 45.008L170.984 47.908L170.288 47.27ZM173.942 44.254L175.16 45.24C175.682 45.646 176.204 45.878 176.668 45.82C177.132 45.82 177.538 45.588 177.944 45.124C178.292 44.66 178.408 44.254 178.35 43.732C178.292 43.268 177.944 42.804 177.422 42.398L176.204 41.412L173.942 44.254Z" fill="#2A2A2A"/>
<path d="M175.334 53.766L177.364 51.794L177.944 52.374L186.47 49.3L183.222 57.768L183.802 58.348L181.772 60.32L181.134 59.682L182.468 58.348L177.306 53.07L175.972 54.404L175.334 53.766ZM178.582 53.128L182.526 57.13L185.02 50.75L178.582 53.128Z" fill="#2A2A2A"/>
<path d="M186.237 62.988L193.661 57.652L194.183 58.406L188.557 62.466L198.127 63.684L190.703 69.02L190.123 68.266L195.749 64.206L186.237 62.988Z" fill="#2A2A2A"/>
<path d="M193.836 74.24L201.898 70.122L202.304 70.934L198.766 72.732L201.202 77.488L204.74 75.69L205.146 76.502L197.084 80.62L196.678 79.808L200.39 77.894L197.954 73.138L194.242 75.052L193.836 74.24Z" fill="#2A2A2A"/>
<path d="M198.939 84.796L209.031 85.956L201.781 93.032L201.433 92.104L203.463 90.132L202.071 86.072L199.229 85.782L198.939 84.796ZM203.057 86.188L204.217 89.494L207.175 86.652L203.057 86.188Z" fill="#2A2A2A"/>
<path d="M205.03 103.82L205.262 104.922L202.478 105.444L202.304 104.516L204.16 104.168L202.884 97.382L211.758 95.7L211.932 96.628L203.928 98.136L204.856 102.892L212.86 101.384L213.034 102.312L205.03 103.82Z" fill="#2A2A2A"/>
<path d="M204.798 110.316L213.962 109.968L214.02 110.896L207.118 111.128L214.368 117.45L205.204 117.798L205.146 116.87L212.048 116.638L204.798 110.316Z" fill="#2A2A2A"/>
<path d="M205.03 122.554L208.684 125.57C208.858 124.932 209.206 124.41 209.67 124.12C210.134 123.83 210.714 123.714 211.352 123.772C212.164 123.83 212.802 124.178 213.208 124.758C213.614 125.338 213.788 126.092 213.73 127.078L213.498 129.688L204.508 128.818L204.624 127.89L208.278 128.238L208.452 126.498L205.03 123.656V122.554ZM209.206 126.672L209.032 128.354L212.628 128.702L212.802 127.02C212.86 126.324 212.744 125.802 212.454 125.396C212.164 124.99 211.758 124.758 211.178 124.7C210.598 124.642 210.134 124.758 209.786 125.106C209.496 125.454 209.264 125.976 209.206 126.672Z" fill="#2A2A2A"/>
<path d="M114.956 164.14C113.622 164.14 112.288 163.502 111.476 162.284L68.2656 97.44C65.0176 92.568 66.3516 86.014 71.2236 82.824L111.534 55.97C116.348 52.722 122.96 54.056 126.15 58.928L165.822 118.436C167.388 120.756 167.968 123.598 167.388 126.382C166.808 129.166 165.242 131.544 162.864 133.11L117.218 163.502C116.522 163.908 115.71 164.14 114.956 164.14ZM117.334 55.332C115.478 55.332 113.68 55.854 112.172 56.898L71.8616 83.752C67.5696 86.652 66.3516 92.452 69.2516 96.802L112.462 161.646C112.926 162.284 113.564 162.748 114.376 162.922C115.188 163.096 115.942 162.922 116.638 162.458L162.284 132.066C166.576 129.166 167.794 123.366 164.894 119.016L125.222 59.508C123.83 57.42 121.684 55.97 119.248 55.506C118.61 55.39 117.972 55.332 117.334 55.332Z" fill="#2A2A2A"/>
<path d="M113.332 171.564C112.926 171.564 112.52 171.506 112.114 171.448C110.49 171.1 109.098 170.172 108.17 168.78L69.832 111.244L70.818 110.606L109.156 168.142C109.91 169.244 111.07 170.056 112.404 170.288C113.738 170.578 115.072 170.288 116.232 169.534L155.034 143.666L155.672 144.652L116.754 170.52C115.71 171.216 114.492 171.564 113.332 171.564Z" fill="#2A2A2A"/>
<path d="M161.646 125.976L121.336 65.424C120.524 64.206 119.306 63.394 117.914 63.104C116.522 62.814 115.072 63.104 113.854 63.916L75.6898 89.32L75.0518 88.334L113.158 62.988C114.608 62.002 116.348 61.654 118.088 62.002C119.828 62.35 121.278 63.336 122.264 64.786L162.574 125.338L161.646 125.976Z" fill="#2A2A2A"/>
<path d="M111.708 179.974C108.692 179.974 105.734 178.524 103.994 175.856L62.9301 114.202C60.0881 109.968 61.2481 104.168 65.4821 101.326L99.5281 78.648L100.166 79.634L66.1201 102.312C62.4081 104.806 61.3641 109.852 63.8581 113.564L104.98 175.218C107.474 178.93 112.52 179.974 116.232 177.48L158.688 149.234C162.4 146.74 163.444 141.694 160.95 137.982L124.526 83.288L125.512 82.65L161.936 137.344C164.778 141.578 163.618 147.378 159.384 150.22L116.928 178.466C115.246 179.51 113.506 179.974 111.708 179.974Z" fill="#2A2A2A"/>
<path d="M112.752 84.158C112.694 84.158 112.578 84.158 112.52 84.158C112.172 84.1 111.94 83.81 111.824 83.462C111.476 81.838 109.794 79.518 107.358 78.59C105.096 77.662 102.486 78.068 99.9339 79.808L99.2959 78.822C102.95 76.386 105.966 76.734 107.822 77.488C110.432 78.532 112.288 80.852 112.868 82.766C114.028 81.548 116.87 78.822 120.176 79.054C122.322 79.228 124.236 80.62 125.802 83.172L124.816 83.752C123.424 81.49 121.858 80.33 120.06 80.156C116.986 79.924 114.202 82.882 113.448 83.752C113.274 84.042 113.042 84.158 112.752 84.158Z" fill="#2A2A2A"/>
</g>
<defs>
<clipPath id="clip0_264_890">
<rect width="232" height="232" fill="white"/>
</clipPath>
</defs>
</svg>
