<svg width="232" height="232" viewBox="0 0 232 232" fill="none" xmlns="http://www.w3.org/2000/svg">
<g clip-path="url(#clip0_372_669)">
<path d="M115.595 231.942C179.403 231.942 231.131 180.215 231.131 116.406C231.131 52.5972 179.403 0.869995 115.595 0.869995C51.7858 0.869995 0.0585938 52.5972 0.0585938 116.406C0.0585938 180.215 51.7858 231.942 115.595 231.942Z" fill="#E9503E"/>
<path d="M104.632 28.188L103.994 14.964L110.78 21.228L116.986 14.384L117.624 27.608L114.666 27.724L114.376 21.286L110.954 25.056L107.184 21.634L107.474 28.072L104.632 28.188Z" fill="#2A2A2A"/>
<path d="M131.951 27.376C130.501 28.478 128.819 28.942 127.021 28.71C125.165 28.478 123.715 27.608 122.613 26.158C121.511 24.708 121.047 23.026 121.279 21.228C121.511 19.372 122.381 17.922 123.831 16.82C125.281 15.718 126.963 15.254 128.761 15.486C130.559 15.718 132.067 16.588 133.169 18.038C134.271 19.488 134.735 21.17 134.503 22.968C134.271 24.766 133.459 26.274 131.951 27.376ZM124.933 24.418C125.571 25.23 126.383 25.752 127.427 25.868C128.471 25.984 129.399 25.752 130.211 25.114C131.023 24.476 131.487 23.606 131.603 22.562C131.719 21.518 131.487 20.532 130.907 19.72C130.269 18.908 129.457 18.386 128.413 18.27C127.369 18.154 126.441 18.386 125.629 19.024C124.817 19.662 124.353 20.532 124.237 21.576C124.063 22.62 124.295 23.606 124.933 24.418Z" fill="#2A2A2A"/>
<path d="M133.922 29.5221L143.782 18.5601L146.334 33.0601L143.318 32.1901L142.042 24.6501L136.938 30.3341L133.922 29.5221Z" fill="#2A2A2A"/>
<path d="M157.702 36.2501C155.962 36.8881 154.28 36.8301 152.598 36.0761C150.916 35.3221 149.756 34.0461 149.118 32.3061C148.48 30.5661 148.538 28.8841 149.292 27.2021C150.046 25.5201 151.322 24.3601 153.062 23.7221C154.802 23.0841 156.484 23.1421 158.166 23.8961C159.848 24.6501 161.008 25.9261 161.646 27.6661C162.284 29.4061 162.226 31.0881 161.472 32.7701C160.718 34.4521 159.442 35.6121 157.702 36.2501ZM151.844 31.3781C152.192 32.3641 152.83 33.0601 153.758 33.5241C154.744 33.9881 155.672 33.9881 156.658 33.5821C157.644 33.1761 158.34 32.5381 158.746 31.5521C159.21 30.5661 159.268 29.5801 158.92 28.6521C158.572 27.6661 157.934 26.9701 156.948 26.5061C155.962 26.0421 155.034 26.0421 154.048 26.3901C153.062 26.7961 152.366 27.4341 151.96 28.4201C151.554 29.4061 151.496 30.3921 151.844 31.3781Z" fill="#2A2A2A"/>
<path d="M158.166 41.528L161.298 36.888L162.574 37.758L172.782 32.074L171.332 43.616L172.608 44.486L169.476 49.126L167.04 47.56L168.548 45.298L161.994 40.89L160.486 43.152L158.166 41.528ZM168.664 41.934L169.36 37.12L165.126 39.556L168.664 41.934Z" fill="#2A2A2A"/>
<path d="M172.434 48.372L181.25 38.686L187.224 44.138L185.252 46.284L181.424 42.804L179.916 44.428L182.932 47.154L181.018 49.242L178.002 46.516L176.494 48.14L180.322 51.62L178.35 53.766L172.434 48.372Z" fill="#2A2A2A"/>
<path d="M179.627 54.404L187.863 54.462L190.357 46.864L192.445 49.532L190.009 57.072L195.171 53.07L196.969 55.39L191.807 59.392L199.753 58.928L201.841 61.596L193.837 62.06L191.807 70.064L189.603 67.164L191.517 59.624L186.645 63.394L184.847 61.074L189.719 57.304L181.947 57.246L179.627 54.404Z" fill="#2A2A2A"/>
<path d="M201.26 70.586L202.13 72.268C202.71 73.428 202.884 74.53 202.536 75.69C202.188 76.792 201.492 77.662 200.448 78.242C199.346 78.822 198.244 78.88 197.142 78.532C196.04 78.126 195.17 77.372 194.59 76.27L192.328 71.978L203.928 65.946L205.32 68.556L201.26 70.586ZM196.156 73.254L197.026 74.936C197.258 75.4 197.548 75.69 197.896 75.806C198.244 75.98 198.65 75.922 199.114 75.69C199.52 75.458 199.81 75.168 199.868 74.762C199.984 74.356 199.868 73.95 199.636 73.544L198.766 71.862L196.156 73.254Z" fill="#2A2A2A"/>
<path d="M25.1719 164.488L36.4239 157.528L34.2779 166.518L43.2679 168.664L32.0159 175.624L30.4499 173.13L35.9019 169.766L30.9719 168.606L32.1319 163.676L26.6799 167.04L25.1719 164.488Z" fill="#2A2A2A"/>
<path d="M42.919 185.774C41.063 185.658 39.555 184.904 38.337 183.512C37.119 182.12 36.597 180.496 36.713 178.64C36.829 176.784 37.583 175.276 38.975 174.058C40.367 172.84 41.991 172.318 43.847 172.434C45.703 172.55 47.211 173.304 48.429 174.696C49.647 176.088 50.169 177.712 50.053 179.568C49.937 181.424 49.183 182.932 47.791 184.15C46.341 185.368 44.717 185.89 42.919 185.774ZM39.555 178.872C39.439 179.916 39.729 180.844 40.425 181.598C41.121 182.41 41.991 182.816 43.035 182.874C44.079 182.932 45.007 182.584 45.819 181.888C46.631 181.192 47.095 180.322 47.153 179.278C47.269 178.234 46.979 177.306 46.283 176.552C45.587 175.74 44.717 175.334 43.673 175.276C42.629 175.218 41.701 175.566 40.889 176.262C40.135 177.016 39.671 177.886 39.555 178.872Z" fill="#2A2A2A"/>
<path d="M45.5879 190.936L54.1719 181.076L57.4199 183.86C58.3479 184.672 58.8699 185.716 58.9859 186.934C59.0439 188.152 58.6959 189.196 57.8839 190.182C57.0719 191.11 56.0279 191.632 54.8679 191.69C53.6499 191.748 52.5479 191.4 51.6199 190.588L50.5759 189.718L47.7919 192.908L45.5879 190.936ZM52.3739 187.63L53.3599 188.5C53.7079 188.79 54.1139 188.964 54.5779 188.906C55.0419 188.848 55.4479 188.674 55.7379 188.326C56.0279 187.978 56.2019 187.572 56.1439 187.108C56.1439 186.644 55.9119 186.238 55.5639 185.948L54.5779 185.078L52.3739 187.63Z" fill="#2A2A2A"/>
<path d="M51.6777 199.868L54.7517 195.228L56.0277 196.098L66.1777 190.356L64.7857 201.898L66.0617 202.768L62.9877 207.408L60.6097 205.842L62.1177 203.58L55.5637 199.172L54.0557 201.434L51.6777 199.868ZM62.1757 200.216L62.8717 195.402L58.6377 197.896L62.1757 200.216Z" fill="#2A2A2A"/>
<path d="M77.3727 209.38C75.6327 210.018 73.9507 209.96 72.2687 209.148C70.5867 208.394 69.4267 207.118 68.7887 205.378C68.1507 203.638 68.2087 201.956 69.0207 200.274C69.7747 198.592 71.0507 197.432 72.7907 196.794C74.5307 196.156 76.2127 196.214 77.8947 197.026C79.5767 197.838 80.7367 199.056 81.3167 200.796C81.9547 202.536 81.8967 204.218 81.0847 205.9C80.3307 207.582 79.1127 208.742 77.3727 209.38ZM71.5147 204.392C71.8627 205.378 72.5007 206.074 73.4287 206.538C74.4147 207.002 75.3427 207.002 76.3287 206.654C77.3147 206.306 78.0107 205.61 78.4747 204.624C78.9387 203.638 78.9967 202.652 78.6487 201.724C78.3007 200.738 77.6627 200.042 76.7347 199.578C75.7487 199.114 74.8207 199.114 73.8347 199.462C72.8487 199.81 72.1527 200.506 71.6887 201.492C71.2247 202.478 71.1667 203.464 71.5147 204.392Z" fill="#2A2A2A"/>
<path d="M81.7812 212.976L85.5512 200.448L90.2493 201.84C91.2933 202.13 92.0473 202.768 92.5693 203.754C93.0913 204.682 93.2073 205.668 92.8593 206.712C92.6273 207.582 92.1052 208.162 91.3512 208.626C91.8152 209.09 92.1053 209.612 92.2793 210.192C92.4533 210.772 92.4532 211.41 92.2212 212.048C91.9312 213.092 91.2932 213.846 90.3072 214.368C89.3792 214.89 88.3352 214.948 87.2912 214.658L81.7812 212.976ZM86.8853 206.364L88.4512 206.828C88.7992 206.944 89.1473 206.944 89.4953 206.77C89.7853 206.596 90.0172 206.364 90.1332 206.016C90.2492 205.668 90.1912 205.32 90.0172 205.03C89.8432 204.74 89.5533 204.508 89.2053 204.392L87.6393 203.928L86.8853 206.364ZM85.3772 211.236L87.8132 211.99C88.1612 212.106 88.5092 212.106 88.8572 211.932C89.1472 211.758 89.3793 211.526 89.4953 211.178C89.6113 210.83 89.5533 210.482 89.3793 210.192C89.2053 209.902 88.9152 209.67 88.5672 209.554L86.1312 208.8L85.3772 211.236Z" fill="#2A2A2A"/>
<path d="M94.5977 216.746L96.5697 203.638L99.4697 204.102L98.4257 210.888L107.648 205.204L105.676 218.312L102.776 217.848L103.82 211.062L94.5977 216.746Z" fill="#2A2A2A"/>
<path d="M109.969 218.718V205.494H112.927V212.338L121.163 205.32V218.544H118.205V211.7L109.969 218.718Z" fill="#2A2A2A"/>
<path d="M27.6099 112.81L19.4899 112.694L19.4319 117.624L27.5519 117.74V118.668L18.5039 118.552L18.6199 111.766L27.6679 111.882L27.6099 112.81Z" fill="#2A2A2A"/>
<path d="M27.9008 107.416L19.5488 101.674L29.2348 98.774L29.0608 99.76L26.3348 100.572L25.6968 104.806L28.0168 106.372L27.9008 107.416ZM24.9428 104.342L25.4648 100.92L21.5788 102.08L24.9428 104.342Z" fill="#2A2A2A"/>
<path d="M30.3355 94.6561L22.5055 92.5681L21.8095 95.1201L20.9395 94.8881L22.5055 88.9141L23.3755 89.1461L22.6795 91.6981L30.5095 93.7861L30.3355 94.6561Z" fill="#2A2A2A"/>
<path d="M32.5409 87.464L24.1309 84.216L25.0589 81.838C25.4069 80.968 25.8709 80.33 26.5669 80.04C27.2049 79.692 27.9009 79.692 28.6549 79.982C29.4089 80.272 29.9309 80.736 30.1629 81.432C30.4529 82.128 30.3949 82.882 30.0469 83.752L29.4669 85.26L32.8889 86.594L32.5409 87.464ZM28.5969 84.97L29.1769 83.462C29.4089 82.824 29.4669 82.302 29.2929 81.838C29.1189 81.374 28.7709 81.084 28.2489 80.852C27.7269 80.678 27.2629 80.678 26.7989 80.852C26.3929 81.084 26.0449 81.49 25.8129 82.128L25.2329 83.636L28.5969 84.97Z" fill="#2A2A2A"/>
<path d="M36.5997 77.952L28.5957 73.544L29.0597 72.732L35.1497 76.038L32.1337 66.932L40.1377 71.34L39.6737 72.152L33.6417 68.846L36.5997 77.952Z" fill="#2A2A2A"/>
<path d="M46.9243 59.682C47.0983 60.9 46.7503 62.06 45.9963 63.104C45.1843 64.148 44.1983 64.728 42.9223 64.902C41.7043 65.076 40.5443 64.728 39.5003 63.974C38.4563 63.162 37.8763 62.176 37.7023 60.9C37.5283 59.682 37.8763 58.522 38.6303 57.478C39.4423 56.434 40.4283 55.854 41.7043 55.68C42.9223 55.506 44.0823 55.854 45.1263 56.608C46.1703 57.42 46.7503 58.406 46.9243 59.682ZM42.8063 63.916C43.7923 63.8 44.6043 63.336 45.2423 62.524C45.8803 61.712 46.1123 60.784 45.9963 59.798C45.8803 58.812 45.3583 58 44.5463 57.362C43.7343 56.724 42.8063 56.434 41.8203 56.55C40.8343 56.666 40.0223 57.13 39.3843 57.942C38.7463 58.754 38.5143 59.682 38.6303 60.668C38.7463 61.654 39.2683 62.466 40.0803 63.104C40.8923 63.8 41.8203 64.09 42.8063 63.916Z" fill="#2A2A2A"/>
<path d="M52.7823 55.1581L46.9823 49.4161L45.1263 51.2721L44.4883 50.6341L48.8383 46.2261L49.4763 46.8641L47.6783 48.7201L53.4203 54.4621L52.7823 55.1581Z" fill="#2A2A2A"/>
<path d="M56.1469 44.776L57.4809 43.732C58.2349 43.152 58.9889 42.862 59.6849 42.92C60.4389 42.978 61.0189 43.326 61.5409 43.964C62.0049 44.602 62.1789 45.298 62.0629 45.994C61.9469 46.69 61.4829 47.386 60.7289 47.966L58.6409 49.59L53.1309 42.456L53.8849 41.876L56.1469 44.776ZM58.8729 48.314L60.2069 47.27C60.7289 46.864 61.0769 46.4 61.1929 45.936C61.3089 45.472 61.1929 45.008 60.8449 44.544C60.4969 44.08 60.0909 43.848 59.6269 43.848C59.1629 43.848 58.6409 44.022 58.0609 44.428L56.7269 45.472L58.8729 48.314ZM64.2669 45.182L58.7569 38.048L59.5109 37.468L65.0209 44.602L64.2669 45.182Z" fill="#2A2A2A"/>
<path d="M202.073 132.356L210.077 133.574L210.831 128.702L202.827 127.484L202.943 126.556L211.875 127.89L210.889 134.618L201.957 133.284L202.073 132.356Z" fill="#2A2A2A"/>
<path d="M201.029 137.634L208.511 144.42L198.535 145.986L198.825 145L201.609 144.594L202.827 140.476L200.739 138.62L201.029 137.634ZM203.581 141.114L202.595 144.478L206.655 143.84L203.581 141.114Z" fill="#2A2A2A"/>
<path d="M196.91 149.93L204.392 153.062L205.378 150.626L206.248 150.974L203.87 156.716L203 156.368L203.986 153.932L196.504 150.8L196.91 149.93Z" fill="#2A2A2A"/>
<path d="M193.778 156.774L201.724 161.124L200.506 163.328C200.042 164.14 199.462 164.662 198.824 164.952C198.128 165.184 197.432 165.126 196.736 164.72C196.04 164.314 195.576 163.792 195.402 163.038C195.228 162.342 195.344 161.53 195.808 160.718L196.562 159.326L193.314 157.586L193.778 156.774ZM197.316 159.79L196.562 161.182C196.214 161.762 196.156 162.284 196.214 162.748C196.33 163.212 196.62 163.56 197.142 163.85C197.606 164.14 198.128 164.198 198.534 164.024C198.998 163.85 199.404 163.502 199.694 162.922L200.448 161.53L197.316 159.79Z" fill="#2A2A2A"/>
<path d="M188.5 165.648L195.866 171.042L195.344 171.796L189.776 167.678L191.516 177.132L184.15 171.738L184.73 170.984L190.298 175.102L188.5 165.648Z" fill="#2A2A2A"/>
<path d="M175.856 182.41C175.856 181.134 176.32 180.09 177.248 179.162C178.176 178.234 179.278 177.77 180.496 177.828C181.772 177.828 182.816 178.292 183.744 179.22C184.672 180.148 185.136 181.25 185.078 182.468C185.078 183.744 184.614 184.788 183.686 185.716C182.758 186.644 181.656 187.108 180.438 187.05C179.162 187.05 178.118 186.586 177.19 185.658C176.262 184.788 175.798 183.686 175.856 182.41ZM180.496 178.756C179.51 178.756 178.64 179.104 177.886 179.858C177.132 180.612 176.784 181.424 176.784 182.468C176.784 183.454 177.132 184.324 177.886 185.078C178.64 185.832 179.51 186.18 180.496 186.238C181.482 186.238 182.352 185.89 183.106 185.194C183.86 184.44 184.208 183.628 184.208 182.584C184.208 181.598 183.86 180.728 183.106 179.974C182.352 179.104 181.482 178.756 180.496 178.756Z" fill="#2A2A2A"/>
<path d="M169.418 186.122L174.348 192.56L176.436 190.936L177.016 191.69L172.086 195.46L171.506 194.764L173.594 193.14L168.664 186.702L169.418 186.122Z" fill="#2A2A2A"/>
<path d="M156.716 194.416L161.24 202.246L160.428 202.71L155.904 194.88L156.716 194.416ZM164.72 195.924L163.27 196.794C162.458 197.258 161.704 197.432 160.95 197.316C160.254 197.2 159.674 196.736 159.268 196.04C158.862 195.344 158.804 194.648 159.036 193.952C159.268 193.256 159.79 192.676 160.602 192.212L162.864 190.878L167.388 198.708L166.576 199.172L164.72 195.924ZM162.516 192.096L161.066 192.966C160.486 193.314 160.08 193.72 159.906 194.184C159.732 194.648 159.79 195.112 160.08 195.576C160.37 196.04 160.718 196.33 161.182 196.446C161.646 196.562 162.168 196.388 162.806 196.04L164.256 195.17L162.516 192.096Z" fill="#2A2A2A"/>
<path d="M128.181 116.348C125.687 116.348 123.135 115.942 120.699 115.188L120.293 115.072V114.666C120.409 106.952 124.179 99.7021 130.443 95.1781C134.097 92.5681 138.331 91.002 142.739 90.712L143.667 90.6541L143.319 91.5241C142.159 94.1921 141.579 97.034 141.463 99.876C144.247 100.746 147.089 101.036 149.989 100.804L150.917 100.746L150.569 101.616C148.829 105.676 145.987 109.214 142.391 111.824C138.215 114.84 133.227 116.348 128.181 116.348ZM121.511 114.202C128.413 116.29 135.953 115.072 141.753 110.838C144.943 108.518 147.495 105.502 149.177 101.964C146.335 102.08 143.493 101.674 140.767 100.804L140.361 100.688V100.282C140.419 97.44 140.941 94.5981 141.927 91.9301C138.041 92.3941 134.329 93.844 131.139 96.106C125.281 100.282 121.685 107.068 121.511 114.202Z" fill="#2A2A2A"/>
<path d="M92.627 142.564L92.975 141.694C94.135 139.026 94.715 136.242 94.831 133.342C92.047 132.472 89.205 132.182 86.305 132.414L85.377 132.472L85.725 131.602C87.465 127.484 90.307 123.946 93.903 121.394C100.167 116.928 108.287 115.652 115.595 118.03L116.001 118.146V118.552C115.885 126.266 112.115 133.516 105.851 138.04C102.197 140.65 97.963 142.216 93.555 142.506L92.627 142.564ZM88.161 131.196C90.713 131.196 93.207 131.602 95.643 132.356L96.049 132.472V132.878C95.991 135.778 95.469 138.562 94.483 141.23C98.369 140.766 102.081 139.316 105.271 137.054C111.129 132.878 114.725 126.092 114.957 118.958C108.055 116.87 100.515 118.146 94.715 122.322C91.525 124.642 88.973 127.658 87.291 131.196C87.523 131.196 87.813 131.196 88.161 131.196Z" fill="#2A2A2A"/>
<path d="M134.037 149.408L133.167 149.06C129.107 147.32 125.511 144.478 122.959 140.882C118.493 134.618 117.217 126.498 119.595 119.19L119.711 118.784H120.117C127.831 118.9 135.081 122.67 139.605 128.934C142.215 132.588 143.781 136.822 144.129 141.23L144.187 142.158L143.317 141.81C140.649 140.65 137.807 140.07 134.965 139.954C134.095 142.738 133.805 145.58 134.037 148.48V149.408ZM120.523 119.886C118.435 126.788 119.653 134.328 123.887 140.128C126.207 143.318 129.223 145.87 132.761 147.552C132.645 144.71 133.051 141.868 133.921 139.142L134.037 138.736H134.443C137.285 138.794 140.127 139.316 142.795 140.302C142.331 136.416 140.881 132.704 138.619 129.514C134.501 123.714 127.715 120.118 120.523 119.886Z" fill="#2A2A2A"/>
<path d="M116.639 114.492H116.233C108.519 114.376 101.269 110.606 96.7447 104.342C94.1347 100.688 92.5687 96.4541 92.2787 92.0461L92.2207 91.0601L93.0907 91.4081C95.7587 92.5681 98.5427 93.1481 101.443 93.2641C102.313 90.4801 102.603 87.6381 102.371 84.7381L102.313 83.8101L103.183 84.1581C107.243 85.8981 110.839 88.7401 113.391 92.3361C117.857 98.6001 119.133 106.72 116.755 114.028L116.639 114.492ZM93.4967 92.8581C93.9607 96.7441 95.4107 100.456 97.6727 103.646C101.849 109.504 108.635 113.1 115.769 113.332C117.857 106.43 116.639 98.8901 112.405 93.0901C110.085 89.9001 107.069 87.3481 103.531 85.6661C103.647 88.5081 103.241 91.3501 102.371 94.0761L102.255 94.4821H101.849C98.9487 94.3661 96.1647 93.8441 93.4967 92.8581Z" fill="#2A2A2A"/>
<path d="M168.606 83.4039C154.048 83.4039 139.78 78.7639 124.932 73.8919C105.966 67.6859 86.4204 61.3059 64.2644 63.9739L64.1484 62.8139C86.5364 60.0879 106.256 66.5259 125.338 72.7319C145.87 79.4599 165.242 85.7819 185.832 79.8079L186.18 80.9099C180.148 82.6499 174.348 83.4039 168.606 83.4039Z" fill="#2A2A2A"/>
<path d="M150.22 170.868C135.662 170.868 121.394 166.228 106.546 161.356C87.5797 155.15 68.0337 148.77 45.8777 151.438L45.7617 150.278C68.1497 147.552 87.8697 153.99 106.952 160.196C127.484 166.924 146.856 173.246 167.446 167.272L167.794 168.374C161.762 170.114 155.962 170.868 150.22 170.868Z" fill="#2A2A2A"/>
</g>
<defs>
<clipPath id="clip0_372_669">
<rect width="232" height="232" fill="white"/>
</clipPath>
</defs>
</svg>
