<svg width="232" height="232" viewBox="0 0 232 232" fill="none" xmlns="http://www.w3.org/2000/svg">
<g clip-path="url(#clip0_264_299)">
<path d="M116 232C180.065 232 232 180.065 232 116C232 51.935 180.065 0 116 0C51.935 0 0 51.935 0 116C0 180.065 51.935 232 116 232Z" fill="#E37329"/>
<path d="M63.8584 44.196L56.8984 32.886L65.9464 35.09L68.0924 26.042L75.0524 37.41L72.5004 38.976L69.1364 33.466L67.9184 38.396L62.9884 37.178L66.3524 42.688L63.8584 44.196Z" fill="#2A2A2A"/>
<path d="M87.5224 30.276C86.7684 31.958 85.5504 33.176 83.8104 33.814C82.0704 34.51 80.3884 34.452 78.6484 33.698C76.9664 32.944 75.7484 31.726 75.1104 29.986C74.4724 28.246 74.4724 26.564 75.2264 24.824C75.9804 23.142 77.1984 21.924 78.9384 21.286C80.6784 20.59 82.3604 20.648 84.1004 21.402C85.7824 22.156 87.0004 23.374 87.6384 25.114C88.3344 26.854 88.2764 28.594 87.5224 30.276ZM79.8664 31.088C80.7944 31.552 81.7804 31.552 82.7664 31.204C83.7524 30.798 84.4484 30.16 84.8544 29.174C85.2604 28.188 85.2604 27.26 84.8544 26.216C84.4484 25.23 83.8104 24.476 82.8824 24.07C81.9544 23.606 80.9684 23.606 79.9824 23.954C78.9964 24.36 78.3004 24.998 77.8944 25.984C77.4884 26.97 77.4884 27.898 77.8944 28.942C78.3004 29.928 78.9384 30.624 79.8664 31.088Z" fill="#2A2A2A"/>
<path d="M90.248 31.204L93.67 16.82L102.892 28.362L99.818 29.058L95.062 23.026L93.322 30.508L90.248 31.204Z" fill="#2A2A2A"/>
<path d="M114.493 25.694C113.275 27.086 111.767 27.84 109.911 28.014C108.055 28.13 106.431 27.608 105.039 26.39C103.647 25.172 102.893 23.664 102.719 21.808C102.603 19.952 103.125 18.328 104.343 16.936C105.561 15.544 107.069 14.79 108.925 14.616C110.781 14.5 112.405 15.022 113.797 16.24C115.189 17.458 115.943 18.966 116.117 20.822C116.233 22.678 115.711 24.302 114.493 25.694ZM106.953 24.186C107.707 24.882 108.635 25.172 109.679 25.114C110.723 25.056 111.593 24.592 112.231 23.78C112.869 22.968 113.159 22.04 113.101 20.996C113.043 19.952 112.579 19.024 111.825 18.328C111.071 17.632 110.143 17.342 109.099 17.4C108.055 17.458 107.185 17.922 106.547 18.734C105.909 19.546 105.619 20.474 105.677 21.518C105.735 22.62 106.199 23.49 106.953 24.186Z" fill="#2A2A2A"/>
<path d="M117.393 30.102L117.915 24.534L119.423 24.65L125.629 14.732L129.921 25.636L131.429 25.752L130.907 31.32L128.065 31.03L128.297 28.304L120.409 27.55L120.177 30.276L117.393 30.102ZM126.847 25.346L125.165 20.764L122.613 24.94L126.847 25.346Z" fill="#2A2A2A"/>
<path d="M133.284 29.232L136.358 16.472L144.246 18.386L143.55 21.228L138.504 20.01L137.982 22.156L141.926 23.142L141.23 25.926L137.286 24.94L136.764 27.086L141.81 28.304L141.114 31.146L133.284 29.232Z" fill="#2A2A2A"/>
<path d="M142.564 31.088L149.814 27.202L148.364 19.314L151.496 20.706L152.946 28.536L155.556 22.504L158.282 23.664L155.672 29.696L162.4 25.462L165.532 26.854L158.746 31.146L160.834 39.15L157.47 37.7L155.498 30.102L153.004 35.728L150.278 34.568L152.772 28.942L145.87 32.654L142.564 31.088Z" fill="#2A2A2A"/>
<path d="M169.36 34.916L170.984 35.96C172.028 36.656 172.724 37.584 172.956 38.744C173.246 39.904 173.014 41.006 172.318 41.992C171.622 43.036 170.694 43.616 169.534 43.848C168.374 44.022 167.272 43.79 166.17 43.094L162.11 40.368L169.418 29.464L171.854 31.088L169.36 34.916ZM166.17 39.672L167.736 40.716C168.142 41.006 168.548 41.122 168.954 41.064C169.36 41.006 169.708 40.774 169.94 40.426C170.23 40.02 170.288 39.614 170.172 39.266C170.056 38.86 169.824 38.512 169.418 38.28L167.852 37.236L166.17 39.672Z" fill="#2A2A2A"/>
<path d="M59.624 202.478L66.236 190.936L68.672 199.868L77.604 197.432L70.992 208.974L68.44 207.524L71.63 201.956L66.758 203.29L65.424 198.418L62.234 203.986L59.624 202.478Z" fill="#2A2A2A"/>
<path d="M85.492 212.686C83.81 213.44 82.07 213.556 80.33 212.86C78.59 212.222 77.314 211.062 76.56 209.38C75.806 207.698 75.69 205.958 76.386 204.218C77.024 202.478 78.184 201.202 79.866 200.448C81.548 199.694 83.288 199.578 85.028 200.274C86.768 200.912 88.044 202.072 88.798 203.754C89.552 205.436 89.668 207.176 88.972 208.916C88.334 210.656 87.174 211.874 85.492 212.686ZM79.228 208.22C79.634 209.148 80.33 209.844 81.316 210.192C82.302 210.54 83.288 210.54 84.216 210.076C85.144 209.612 85.782 208.858 86.188 207.872C86.536 206.886 86.536 205.9 86.13 204.914C85.724 203.986 85.028 203.29 84.042 202.942C83.056 202.594 82.07 202.594 81.142 203.058C80.214 203.522 79.576 204.276 79.17 205.262C78.822 206.248 78.822 207.234 79.228 208.22Z" fill="#2A2A2A"/>
<path d="M90.3057 215.934L93.0897 203.116L97.3237 204.044C98.5417 204.334 99.5277 204.972 100.166 206.016C100.804 207.06 101.036 208.162 100.746 209.38C100.456 210.598 99.8177 211.526 98.8317 212.222C97.7877 212.86 96.6857 213.092 95.4097 212.802L94.0757 212.512L93.1477 216.63L90.3057 215.934ZM94.7137 209.728L95.9897 210.018C96.4537 210.134 96.8597 210.018 97.2657 209.786C97.6717 209.496 97.9037 209.148 97.9617 208.742C98.0777 208.278 97.9617 207.872 97.7297 207.466C97.4977 207.06 97.1497 206.828 96.6857 206.712L95.4097 206.422L94.7137 209.728Z" fill="#2A2A2A"/>
<path d="M100.05 220.864L100.572 215.296L102.08 215.412L108.286 205.494L112.636 216.34L114.144 216.456L113.622 222.024L110.78 221.792L111.012 219.066L103.124 218.37L102.892 221.096L100.05 220.864ZM109.446 216.108L107.706 211.526L105.212 215.76L109.446 216.108Z" fill="#2A2A2A"/>
<path d="M127.194 216.804C125.976 218.196 124.41 218.95 122.554 219.066C120.698 219.182 119.074 218.602 117.682 217.384C116.29 216.166 115.536 214.6 115.42 212.744C115.304 210.888 115.884 209.264 117.102 207.872C118.32 206.48 119.886 205.726 121.742 205.61C123.598 205.494 125.222 206.074 126.614 207.292C128.006 208.51 128.76 210.076 128.876 211.932C128.992 213.788 128.412 215.412 127.194 216.804ZM119.654 215.296C120.408 215.992 121.336 216.34 122.38 216.282C123.424 216.224 124.294 215.76 124.99 215.006C125.628 214.194 125.976 213.266 125.86 212.222C125.802 211.178 125.396 210.25 124.642 209.554C123.888 208.858 122.96 208.51 121.916 208.568C120.872 208.626 120.002 209.09 119.306 209.844C118.61 210.656 118.32 211.584 118.436 212.628C118.494 213.672 118.9 214.6 119.654 215.296Z" fill="#2A2A2A"/>
<path d="M132.878 217.848L130.152 204.972L134.966 203.928C136.01 203.696 136.996 203.87 137.924 204.45C138.852 205.03 139.374 205.842 139.606 206.886C139.78 207.756 139.664 208.568 139.142 209.264C139.78 209.438 140.302 209.786 140.708 210.192C141.172 210.656 141.404 211.178 141.578 211.874C141.81 212.918 141.636 213.904 140.998 214.832C140.418 215.76 139.548 216.282 138.446 216.514L132.878 217.848ZM134.096 209.554L135.72 209.206C136.126 209.148 136.416 208.916 136.59 208.626C136.764 208.336 136.88 207.988 136.764 207.64C136.706 207.292 136.474 207.002 136.184 206.828C135.894 206.654 135.546 206.596 135.14 206.654L133.516 207.002L134.096 209.554ZM135.198 214.6L137.692 214.078C138.098 214.02 138.388 213.788 138.562 213.498C138.736 213.208 138.852 212.86 138.736 212.512C138.678 212.164 138.446 211.874 138.156 211.7C137.866 211.526 137.518 211.468 137.112 211.526L134.618 212.048L135.198 214.6Z" fill="#2A2A2A"/>
<path d="M145.928 215.006L141.346 202.536L144.13 201.492L146.508 207.93L151.902 198.476L156.484 210.946L153.7 211.99L151.322 205.552L145.928 215.006Z" fill="#2A2A2A"/>
<path d="M160.428 209.322L154.048 197.664L156.658 196.214L159.964 202.246L163.85 192.096L170.23 203.754L167.62 205.204L164.314 199.172L160.428 209.322Z" fill="#2A2A2A"/>
<path d="M51.4457 176.784L44.4857 182.758L43.9057 182.062L49.1837 177.538L39.5557 177.074L46.5157 171.1L47.1537 171.796L41.8757 176.32L51.4457 176.784Z" fill="#2A2A2A"/>
<path d="M42.9201 166.17L35.2061 170.926L34.7421 170.114L38.1061 168.026L35.3221 163.444L31.9581 165.532L31.4941 164.72L39.2081 159.964L39.6721 160.776L36.1341 162.98L38.9181 167.562L42.4561 165.358L42.9201 166.17Z" fill="#2A2A2A"/>
<path d="M34.7422 150.104L35.0902 150.974L34.0462 151.38V151.438C34.5102 152.714 34.6262 153.816 34.2782 154.744C33.9882 155.73 33.2922 156.426 32.2482 156.832C31.2042 157.238 30.2762 157.238 29.3482 156.774C28.4202 156.31 27.7242 155.498 27.1442 154.222V154.164L26.2162 154.57L25.8682 153.7L26.7962 153.294V153.236C26.3322 151.96 26.2162 150.858 26.5642 149.93C26.9122 148.944 27.5502 148.248 28.5942 147.842C29.6382 147.436 30.5662 147.436 31.4942 147.9C32.4222 148.364 33.1182 149.176 33.6982 150.452V150.51L34.7422 150.104ZM32.8862 150.858V150.8C32.4222 149.814 31.9002 149.118 31.2042 148.77C30.5082 148.422 29.8122 148.422 29.0002 148.77C28.1302 149.118 27.6082 149.64 27.3762 150.336C27.1442 151.032 27.2022 151.902 27.6082 152.946L27.6662 153.004L32.8862 150.858ZM33.2342 151.728L27.9562 153.932V153.99C28.4202 154.976 28.9422 155.672 29.6382 156.02C30.2762 156.368 31.0302 156.368 31.9002 156.02C32.7702 155.672 33.2922 155.15 33.5242 154.454C33.7562 153.758 33.6982 152.888 33.2922 151.844L33.2342 151.728Z" fill="#2A2A2A"/>
<path d="M28.3036 133.98C29.3476 134.676 30.0436 135.604 30.3336 136.88C30.6236 138.156 30.4496 139.316 29.7536 140.418C29.1156 141.462 28.1296 142.158 26.8536 142.448C25.5776 142.738 24.4176 142.564 23.3156 141.868C22.2716 141.172 21.5756 140.244 21.2856 138.968C20.9956 137.692 21.1696 136.532 21.8656 135.43C22.5036 134.386 23.4896 133.69 24.7656 133.4C26.0416 133.11 27.2016 133.284 28.3036 133.98ZM28.9996 139.838C29.5216 138.968 29.6956 138.04 29.4636 137.054C29.2316 136.068 28.7096 135.256 27.8396 134.734C26.9696 134.212 26.0416 134.096 24.9976 134.328C23.9536 134.56 23.1996 135.14 22.6776 135.952C22.1556 136.822 21.9816 137.75 22.2136 138.736C22.4456 139.722 22.9676 140.534 23.8376 141.056C24.7076 141.578 25.6356 141.752 26.6796 141.462C27.6656 141.23 28.4776 140.708 28.9996 139.838Z" fill="#2A2A2A"/>
<path d="M28.5355 127.31L19.4875 128.18L19.2555 125.628C19.1395 124.7 19.3135 123.946 19.7775 123.308C20.2415 122.728 20.8215 122.38 21.6335 122.322C22.4455 122.264 23.0835 122.438 23.6635 122.96C24.1855 123.482 24.5335 124.178 24.5915 125.106L24.7655 126.73L28.4195 126.382L28.5355 127.31ZM23.8955 126.788L23.7215 125.222C23.6635 124.526 23.4315 124.062 23.0835 123.714C22.7355 123.366 22.2715 123.25 21.6915 123.308C21.1115 123.366 20.7055 123.598 20.4155 123.946C20.1255 124.352 20.0095 124.874 20.0675 125.57L20.2415 127.136L23.8955 126.788Z" fill="#2A2A2A"/>
<path d="M27.8398 116.754L18.6758 116.29L23.8378 112.172L19.0818 107.59L28.2458 108.054L28.1878 108.982L21.4018 108.634L25.1718 112.23L21.0538 115.478L27.8398 115.826V116.754Z" fill="#2A2A2A"/>
<path d="M28.8261 103.298L20.7061 97.15L30.5661 94.714L30.3341 95.7L27.6081 96.338L26.7381 100.572L29.0001 102.254L28.8261 103.298ZM25.9841 100.05L26.6801 96.628L22.6781 97.614L25.9841 100.05Z" fill="#2A2A2A"/>
<path d="M33.2334 83.868L33.5814 82.824L36.2494 83.752L35.9594 84.622L34.1614 83.984L31.8414 90.48L23.3154 87.406L23.6054 86.536L31.2614 89.262L32.8854 84.738L25.2294 82.012L25.5194 81.142L33.2334 83.868Z" fill="#2A2A2A"/>
<path d="M36.772 78.358L28.71 74.008L29.174 73.196L35.264 76.502L32.19 67.338L40.252 71.688L39.788 72.5L33.698 69.194L36.772 78.358Z" fill="#2A2A2A"/>
<path d="M42.8041 67.628L41.2381 63.162C40.7161 63.626 40.1941 63.858 39.6721 63.916C39.0921 63.916 38.5701 63.742 38.0481 63.394C37.4101 62.93 37.0621 62.292 36.9461 61.596C36.8881 60.842 37.1201 60.146 37.7001 59.334L39.2661 57.188L46.5741 62.524L46.0521 63.278L43.0941 61.074L42.0501 62.466L43.5581 66.642L42.8041 67.628ZM41.2961 62.002L42.2821 60.668L39.3821 58.522L38.3961 59.856C37.9901 60.378 37.8161 60.9 37.8741 61.422C37.9321 61.886 38.1641 62.292 38.6281 62.64C39.0921 62.988 39.5561 63.104 40.0201 62.988C40.4841 62.872 40.8901 62.524 41.2961 62.002Z" fill="#2A2A2A"/>
<path d="M185.021 61.712L192.271 56.26L193.837 58.29C194.417 59.044 194.649 59.798 194.591 60.494C194.533 61.248 194.185 61.828 193.547 62.35C192.909 62.814 192.213 62.988 191.517 62.872C190.763 62.756 190.125 62.292 189.603 61.538L188.617 60.262L185.659 62.466L185.021 61.712ZM189.255 59.682L190.241 60.958C190.647 61.48 191.111 61.828 191.575 61.886C192.039 62.002 192.503 61.828 192.967 61.48C193.431 61.132 193.663 60.726 193.721 60.262C193.779 59.798 193.605 59.276 193.141 58.754L192.155 57.478L189.255 59.682Z" fill="#2A2A2A"/>
<path d="M190.762 69.774L198.534 65.134L201.202 69.6L200.39 70.064L198.244 66.41L195.634 67.976L197.432 70.934L196.62 71.398L194.822 68.44L192.038 70.122L194.184 73.776L193.372 74.24L190.762 69.774Z" fill="#2A2A2A"/>
<path d="M195.519 78.358L203.813 74.646L204.219 75.516L200.043 77.372L206.017 79.46L206.481 80.504L200.507 78.416L198.361 84.564L197.839 83.404L199.927 77.43L195.983 79.17L195.519 78.358Z" fill="#2A2A2A"/>
<path d="M199.288 87.232L209.322 88.798L201.782 95.642L201.492 94.656L207.408 89.378L199.578 88.218L199.288 87.232Z" fill="#2A2A2A"/>
<path d="M202.479 98.484L212.223 101.384L203.871 107.126L203.697 106.14L206.017 104.574L205.321 100.34L202.595 99.586L202.479 98.484ZM206.249 100.514L206.771 103.994L210.135 101.674L206.249 100.514Z" fill="#2A2A2A"/>
<path d="M204.218 111.824L213.382 111.766L208.452 116.174L213.44 120.524L204.276 120.582V119.654L211.12 119.596L207.176 116.232L211.12 112.81L204.276 112.868L204.218 111.824Z" fill="#2A2A2A"/>
<path d="M203.928 125.28L212.338 130.964L202.652 133.98L202.826 132.994L205.552 132.182L206.19 127.89L203.812 126.324L203.928 125.28ZM206.944 128.354L206.422 131.834L210.366 130.616L206.944 128.354Z" fill="#2A2A2A"/>
<path d="M200.506 142.1L209.148 145.116L208.858 145.986L202.304 143.724L206.77 152.25L198.128 149.234L198.418 148.364L204.972 150.626L200.506 142.1Z" fill="#2A2A2A"/>
<path d="M193.836 158.456L201.724 162.98L200.448 165.184C199.984 165.996 199.404 166.518 198.708 166.75C198.012 166.982 197.316 166.866 196.62 166.518C195.924 166.112 195.518 165.532 195.344 164.836C195.17 164.14 195.344 163.328 195.808 162.516L196.62 161.124L193.43 159.268L193.836 158.456ZM197.316 161.53L196.504 162.922C196.156 163.502 196.04 164.024 196.156 164.488C196.272 164.952 196.562 165.358 197.026 165.59C197.49 165.88 198.012 165.938 198.418 165.764C198.882 165.59 199.288 165.242 199.636 164.662L200.448 163.27L197.316 161.53Z" fill="#2A2A2A"/>
<path d="M188.616 166.982L195.924 172.376L194.358 174.464C193.836 175.16 193.256 175.624 192.56 175.74C191.922 175.856 191.284 175.74 190.646 175.276C190.182 174.928 189.834 174.464 189.718 173.884C189.544 173.304 189.66 172.724 190.066 172.028L184.788 172.202L185.484 171.274L190.646 171.158L191.342 170.23L188.036 167.794L188.616 166.982ZM191.98 170.694L190.994 172.028C190.646 172.55 190.472 173.014 190.472 173.42C190.53 173.826 190.704 174.232 191.11 174.522C191.516 174.812 191.922 174.928 192.386 174.87C192.792 174.754 193.198 174.464 193.604 174L194.59 172.666L191.98 170.694Z" fill="#2A2A2A"/>
<path d="M121.684 164.836C116.696 164.836 111.65 164.082 106.72 162.574C93.6697 158.63 82.9397 149.872 76.5597 137.982C70.1797 126.092 68.8457 112.288 72.8477 99.238C76.7917 86.188 85.5497 75.458 97.4397 69.078C98.0777 68.73 98.7157 68.44 99.3537 68.092L99.8757 69.136C99.2377 69.426 98.6577 69.774 98.0197 70.064C86.3617 76.27 77.8357 86.768 73.9497 99.528C70.0637 112.288 71.3977 125.744 77.6037 137.402C83.8097 149.06 94.3077 157.586 107.068 161.472C119.828 165.358 133.284 164.024 144.942 157.818C145.174 157.702 145.406 157.586 145.638 157.412L146.218 158.398C145.986 158.514 145.754 158.688 145.522 158.804C138.04 162.864 129.92 164.836 121.684 164.836Z" fill="#2A2A2A"/>
<path d="M141.114 131.37L140.592 130.326C140.882 130.21 141.172 130.036 141.462 129.862C152.888 123.772 157.18 109.504 151.09 98.078C145 86.652 130.732 82.36 119.306 88.45L118.958 88.624L118.378 87.638L118.61 87.522C130.674 81.084 145.638 85.608 152.076 97.556C158.514 109.562 153.932 124.468 141.984 130.906C141.694 131.08 141.404 131.254 141.114 131.37Z" fill="#2A2A2A"/>
<path d="M137.634 124.874L137.112 123.83C137.286 123.714 137.518 123.656 137.692 123.54C141.462 121.51 144.246 118.146 145.464 114.028C146.74 109.91 146.276 105.56 144.304 101.79C140.128 93.96 130.326 91.002 122.496 95.178L122.322 95.294L121.974 94.83L121.742 94.308L121.974 94.192C130.384 89.726 140.824 92.858 145.29 101.268C147.436 105.328 147.9 109.968 146.566 114.376C145.232 118.784 142.274 122.438 138.214 124.584C138.04 124.642 137.866 124.758 137.634 124.874Z" fill="#2A2A2A"/>
<path d="M124.642 111.36C116.522 110.896 112.404 99.818 108.054 88.044C104.052 77.198 99.934 66.062 92.626 64.786L92.8 63.626C100.804 65.018 105.038 76.502 109.098 87.638C113.1 98.542 117.276 109.794 124.642 110.2V111.36Z" fill="#2A2A2A"/>
<path d="M146.276 163.444L145.232 162.98C148.248 156.194 141.23 146.566 134.444 137.228C127.078 127.078 120.118 117.508 124.236 110.49L125.222 111.07C121.452 117.45 128.528 127.136 135.372 136.532C142.332 146.102 149.524 156.02 146.276 163.444Z" fill="#2A2A2A"/>
<path d="M133.08 105.629L64.0586 142.602L64.6063 143.624L133.628 106.651L133.08 105.629Z" fill="#2A2A2A"/>
<path d="M132.182 113.796L131.08 113.506L133.052 106.314L126.092 104.168L126.44 103.066L134.444 105.56L132.182 113.796Z" fill="#2A2A2A"/>
</g>
<defs>
<clipPath id="clip0_264_299">
<rect width="232" height="232" fill="white"/>
</clipPath>
</defs>
</svg>
