<svg width="233" height="233" viewBox="0 0 233 233" fill="none" xmlns="http://www.w3.org/2000/svg">
<g clip-path="url(#clip0_372_155)">
<path d="M116.43 232.836C180.271 232.836 232.024 181.083 232.024 117.242C232.024 53.4016 180.271 1.64844 116.43 1.64844C52.5891 1.64844 0.835937 53.4016 0.835937 117.242C0.835937 181.083 52.5891 232.836 116.43 232.836Z" fill="#E37329"/>
<path d="M63.4762 44.9166L56.5742 33.6066L65.5642 35.8106L67.7102 26.8206L74.6122 38.1306L72.1182 39.6966L68.7542 34.2446L67.5942 39.1746L62.6642 38.0146L66.0282 43.4666L63.4762 44.9166Z" fill="#2A2A2A"/>
<path d="M87.0806 31.0543C86.3266 32.7363 85.1086 33.9543 83.3686 34.5923C81.6286 35.2303 79.9466 35.2303 78.2646 34.4763C76.5826 33.7223 75.3646 32.5043 74.7266 30.7643C74.0886 29.0243 74.0886 27.3423 74.8426 25.6603C75.5966 23.9783 76.8146 22.7603 78.5546 22.1223C80.2946 21.4843 81.9766 21.4843 83.6586 22.2383C85.3406 22.9923 86.5586 24.2103 87.1966 25.9503C87.8346 27.6323 87.8346 29.3143 87.0806 31.0543ZM79.4826 31.8083C80.4106 32.2723 81.3966 32.2723 82.3826 31.9243C83.3686 31.5183 84.0646 30.8803 84.4706 29.8943C84.8766 28.9663 84.8766 27.9803 84.4706 26.9363C84.0646 25.9503 83.4266 25.1963 82.4986 24.7903C81.5706 24.3263 80.5846 24.3263 79.5986 24.6743C78.6126 25.0803 77.9166 25.7183 77.5106 26.7043C77.1046 27.6323 77.1046 28.6183 77.5106 29.6623C77.8586 30.6483 78.4966 31.4023 79.4826 31.8083Z" fill="#2A2A2A"/>
<path d="M89.8086 31.9824L93.2306 17.6564L102.453 29.1404L99.3786 29.8364L94.6226 23.8624L92.8826 31.2864L89.8086 31.9824Z" fill="#2A2A2A"/>
<path d="M113.934 26.4722C112.716 27.8642 111.208 28.6182 109.352 28.7922C107.496 28.9082 105.872 28.3862 104.48 27.1682C103.088 25.9502 102.334 24.4422 102.16 22.5862C102.044 20.7302 102.566 19.1062 103.784 17.7142C105.002 16.3222 106.51 15.5682 108.366 15.4522C110.222 15.3362 111.846 15.8582 113.238 17.0762C114.63 18.2942 115.384 19.8022 115.558 21.6582C115.674 23.4562 115.152 25.0802 113.934 26.4722ZM106.394 24.9642C107.148 25.6602 108.076 25.9502 109.12 25.8922C110.164 25.8342 111.034 25.3702 111.672 24.5582C112.31 23.7462 112.6 22.8182 112.542 21.7742C112.484 20.7302 112.02 19.8022 111.266 19.1062C110.512 18.4102 109.584 18.1202 108.54 18.1782C107.496 18.2362 106.626 18.7002 105.988 19.5122C105.35 20.3242 105.06 21.2522 105.118 22.2962C105.234 23.3982 105.64 24.2682 106.394 24.9642Z" fill="#2A2A2A"/>
<path d="M116.838 30.8808L117.36 25.3128L118.868 25.4288L125.074 15.5688L129.308 26.4148L130.816 26.5308L130.294 32.0988L127.452 31.8088L127.684 29.0828L119.854 28.3288L119.622 31.0548L116.838 30.8808ZM126.234 26.1248L124.552 21.5428L122 25.7188L126.234 26.1248Z" fill="#2A2A2A"/>
<path d="M132.67 29.9526L135.744 17.2506L143.632 19.1646L142.936 22.0066L137.89 20.7886L137.368 22.9346L141.312 23.8626L140.616 26.6466L136.672 25.7186L136.15 27.8646L141.196 29.0826L140.5 31.9246L132.67 29.9526Z" fill="#2A2A2A"/>
<path d="M141.893 31.8085L149.143 27.9225L147.693 20.0345L150.825 21.3685L152.275 29.1405L154.885 23.1665L157.611 24.3265L154.943 30.4165L161.671 26.2405L164.803 27.5745L158.017 31.8085L160.105 39.7545L156.741 38.3045L154.769 30.7645L152.333 36.3905L149.607 35.2305L152.043 29.6045L145.257 33.3165L141.893 31.8085Z" fill="#2A2A2A"/>
<path d="M168.631 35.6365L170.197 36.6805C171.241 37.3765 171.937 38.3045 172.169 39.4645C172.459 40.6245 172.227 41.6685 171.531 42.7125C170.835 43.7565 169.907 44.3365 168.747 44.5105C167.587 44.6845 166.485 44.4525 165.441 43.7565L161.381 41.0305L168.631 30.1265L171.067 31.7505L168.631 35.6365ZM165.441 40.4505L167.007 41.4945C167.413 41.7845 167.819 41.9005 168.225 41.8425C168.631 41.7845 168.979 41.5525 169.211 41.2045C169.501 40.7985 169.559 40.3925 169.443 40.0445C169.327 39.6385 169.095 39.3485 168.689 39.0585L167.123 38.0145L165.441 40.4505Z" fill="#2A2A2A"/>
<path d="M59.3008 202.618L65.8548 191.134L68.2908 200.066L77.2228 197.63L70.6108 209.056L68.0588 207.606L71.2488 202.038L66.3768 203.372L65.0428 198.5L61.8528 204.068L59.3008 202.618Z" fill="#2A2A2A"/>
<path d="M85.0511 212.768C83.3691 213.522 81.6871 213.58 79.9471 212.942C78.2071 212.304 76.9891 211.144 76.1771 209.462C75.4231 207.78 75.3651 206.098 76.0031 204.358C76.6411 202.618 77.8011 201.4 79.4831 200.588C81.1651 199.834 82.8471 199.776 84.5871 200.414C86.3271 201.052 87.5451 202.212 88.3571 203.894C89.1111 205.576 89.1691 207.258 88.5311 208.998C87.8931 210.738 86.7331 212.014 85.0511 212.768ZM78.7871 208.302C79.1931 209.23 79.8891 209.926 80.8751 210.274C81.8611 210.622 82.8471 210.622 83.7751 210.158C84.7031 209.694 85.3411 208.998 85.7471 207.954C86.0951 206.968 86.0951 205.982 85.6891 204.996C85.2831 204.068 84.5871 203.372 83.6011 203.024C82.6151 202.676 81.6291 202.676 80.7011 203.14C79.7731 203.604 79.1351 204.3 78.7291 205.344C78.3811 206.388 78.3811 207.374 78.7871 208.302Z" fill="#2A2A2A"/>
<path d="M89.8672 216.016L92.6512 203.198L96.8852 204.126C98.1032 204.416 99.0892 205.054 99.7272 206.04C100.365 207.084 100.597 208.186 100.307 209.404C100.017 210.622 99.3792 211.55 98.3932 212.188C97.3492 212.826 96.2472 213.058 94.9712 212.768L93.6372 212.536L92.7672 216.654L89.8672 216.016ZM94.2172 209.868L95.4932 210.158C95.9572 210.274 96.3632 210.158 96.7692 209.926C97.1752 209.636 97.4072 209.288 97.4652 208.882C97.5812 208.418 97.4652 208.012 97.2332 207.606C97.0012 207.2 96.6532 206.968 96.1892 206.852L94.9132 206.562L94.2172 209.868Z" fill="#2A2A2A"/>
<path d="M99.5508 220.946L100.073 215.378L101.581 215.494L107.729 205.576L112.021 216.422L113.529 216.538L113.007 222.106L110.165 221.874L110.397 219.148L102.509 218.452L102.277 221.178L99.5508 220.946ZM108.889 216.19L107.149 211.608L104.655 215.784L108.889 216.19Z" fill="#2A2A2A"/>
<path d="M126.58 216.886C125.362 218.278 123.796 219.032 121.998 219.148C120.142 219.264 118.518 218.684 117.126 217.466C115.734 216.248 114.98 214.682 114.864 212.884C114.748 211.028 115.328 209.404 116.546 208.012C117.764 206.62 119.33 205.866 121.128 205.75C122.984 205.634 124.608 206.214 126 207.432C127.392 208.65 128.146 210.216 128.262 212.014C128.378 213.928 127.798 215.494 126.58 216.886ZM119.098 215.378C119.852 216.074 120.78 216.422 121.824 216.306C122.868 216.248 123.738 215.784 124.376 215.03C125.014 214.218 125.362 213.29 125.246 212.246C125.188 211.202 124.782 210.274 124.028 209.578C123.274 208.882 122.346 208.534 121.302 208.65C120.258 208.708 119.388 209.172 118.75 209.926C118.112 210.738 117.764 211.666 117.88 212.71C117.938 213.812 118.344 214.682 119.098 215.378Z" fill="#2A2A2A"/>
<path d="M132.206 217.93L129.48 205.112L134.294 204.068C135.338 203.836 136.324 204.01 137.194 204.59C138.122 205.17 138.644 205.982 138.876 207.026C139.05 207.896 138.934 208.708 138.47 209.404C139.108 209.578 139.63 209.926 140.036 210.332C140.5 210.796 140.732 211.318 140.906 212.014C141.138 213.058 140.964 214.044 140.326 214.972C139.746 215.9 138.876 216.422 137.832 216.654L132.206 217.93ZM133.482 209.694L135.106 209.346C135.512 209.288 135.802 209.056 135.976 208.766C136.15 208.476 136.266 208.128 136.15 207.78C136.092 207.432 135.86 207.142 135.57 206.968C135.28 206.794 134.932 206.736 134.526 206.794L132.902 207.142L133.482 209.694ZM134.526 214.682L137.02 214.16C137.426 214.102 137.716 213.87 137.89 213.58C138.064 213.29 138.18 212.942 138.064 212.594C138.006 212.246 137.774 211.956 137.484 211.782C137.194 211.608 136.846 211.55 136.44 211.608L133.946 212.13L134.526 214.682Z" fill="#2A2A2A"/>
<path d="M145.256 215.088L140.674 202.676L143.458 201.632L145.836 208.07L151.172 198.674L155.754 211.086L152.97 212.072L150.592 205.634L145.256 215.088Z" fill="#2A2A2A"/>
<path d="M159.698 209.462L153.318 197.862L155.928 196.47L159.234 202.444L163.12 192.352L169.5 203.952L166.89 205.344L163.584 199.37L159.698 209.462Z" fill="#2A2A2A"/>
<path d="M54.4858 178.142L52.3978 179.998L51.8178 179.36L43.1758 182.028L46.7718 173.734L46.1918 173.096L48.2798 171.24L48.9178 171.936L47.5258 173.212L52.4558 178.722L53.8478 177.446L54.4858 178.142ZM51.1798 178.664L47.4098 174.488L44.6838 180.694L51.1798 178.664Z" fill="#2A2A2A"/>
<path d="M39.1732 163.526C40.3912 163.758 41.3772 164.454 42.0732 165.556C42.7692 166.658 43.0012 167.818 42.7692 169.036C42.5372 170.254 41.8412 171.24 40.7392 171.936C39.6372 172.632 38.4772 172.864 37.2592 172.632C36.0412 172.4 35.0552 171.704 34.3592 170.602C33.6632 169.5 33.4312 168.34 33.6632 167.122C33.8952 165.904 34.5912 164.918 35.6932 164.222C36.7952 163.468 37.9552 163.236 39.1732 163.526ZM41.8992 168.746C42.1312 167.76 41.9572 166.832 41.3772 165.962C40.7972 165.092 40.0432 164.57 39.0572 164.396C38.0712 164.222 37.1432 164.396 36.2732 164.976C35.4032 165.556 34.8232 166.31 34.6492 167.296C34.4172 168.282 34.5912 169.21 35.1712 170.08C35.7512 170.95 36.5052 171.472 37.4912 171.646C38.4772 171.82 39.4052 171.646 40.2752 171.066C41.1452 170.544 41.6672 169.732 41.8992 168.746Z" fill="#2A2A2A"/>
<path d="M29.3158 159.757L31.9838 158.481L31.0558 156.451C30.6498 155.639 30.5918 154.885 30.7658 154.189C30.9398 153.493 31.4038 152.971 32.0998 152.623C32.8538 152.275 33.4918 152.275 34.1878 152.623C34.8258 152.971 35.3478 153.551 35.7538 154.421L37.0298 157.089L28.8518 160.917L26.5898 156.103L27.4018 155.697L29.3158 159.757ZM35.8698 156.683L34.9418 154.653C34.6518 154.073 34.3038 153.667 33.8978 153.435C33.4918 153.261 33.0278 153.261 32.5638 153.493C32.0998 153.725 31.8098 154.073 31.6938 154.537C31.5778 155.001 31.6358 155.523 31.9258 156.103L32.8538 158.133L35.8698 156.683Z" fill="#2A2A2A"/>
<path d="M32.9104 147.46L24.3264 150.302L23.5144 147.866C23.2244 146.996 23.2244 146.184 23.5144 145.546C23.8044 144.85 24.3264 144.386 25.0804 144.154C25.8344 143.922 26.5304 143.98 27.1684 144.328C27.8064 144.676 28.2704 145.314 28.5604 146.184L29.0824 147.692L32.5624 146.532L32.9104 147.46ZM28.2704 147.982L27.7484 146.474C27.5164 145.836 27.2264 145.372 26.8204 145.14C26.4144 144.908 25.9504 144.85 25.3704 145.082C24.8484 145.256 24.5004 145.546 24.2684 146.01C24.0944 146.474 24.0944 146.996 24.3264 147.634L24.8484 149.142L28.2704 147.982Z" fill="#2A2A2A"/>
<path d="M27.2835 130.582C28.3275 131.278 28.9655 132.264 29.1975 133.54C29.4295 134.816 29.1975 135.976 28.5015 137.02C27.8055 138.064 26.8195 138.702 25.5435 138.934C24.2675 139.166 23.1075 138.934 22.0635 138.238C21.0195 137.542 20.3815 136.556 20.1495 135.28C19.9175 134.004 20.1495 132.844 20.8455 131.8C21.5415 130.756 22.5275 130.118 23.8035 129.886C25.1375 129.654 26.2975 129.886 27.2835 130.582ZM27.7475 136.498C28.3275 135.686 28.5015 134.758 28.3275 133.714C28.1535 132.67 27.6315 131.916 26.8195 131.336C26.0075 130.756 25.0795 130.582 24.0355 130.814C22.9915 130.988 22.1795 131.51 21.6575 132.322C21.0775 133.134 20.9035 134.062 21.0775 135.048C21.2515 136.092 21.7735 136.846 22.5855 137.426C23.3975 138.006 24.3255 138.18 25.3695 137.948C26.4135 137.832 27.1675 137.31 27.7475 136.498Z" fill="#2A2A2A"/>
<path d="M27.8056 123.912L18.7576 124.318L18.6416 121.36C18.5836 120.548 18.8156 119.852 19.2216 119.388C19.6276 118.924 20.2076 118.634 20.8456 118.634C21.7156 118.576 22.3536 118.924 22.8176 119.62C23.1076 118.518 23.8616 117.88 25.0216 117.88C25.8336 117.822 26.4716 118.112 26.8776 118.634C27.3416 119.156 27.5736 119.91 27.6316 120.838L27.8056 123.912ZM22.7016 123.216L22.5856 121.186C22.5856 120.664 22.4116 120.258 22.1216 119.968C21.8316 119.678 21.4256 119.562 20.9616 119.562C20.4976 119.562 20.1496 119.736 19.8596 120.084C19.5696 120.374 19.4536 120.78 19.4536 121.302L19.5696 123.332L22.7016 123.216ZM26.8776 122.984L26.7616 120.722C26.7616 120.084 26.5876 119.62 26.2396 119.272C25.9496 118.924 25.4856 118.808 24.9636 118.808C24.4416 118.808 24.0356 119.04 23.7456 119.388C23.4556 119.736 23.3396 120.258 23.3396 120.896L23.4556 123.158L26.8776 122.984Z" fill="#2A2A2A"/>
<path d="M27.1088 105.236C27.9208 106.222 28.2108 107.324 28.0948 108.658C27.9788 109.934 27.3988 110.978 26.4708 111.79C25.4848 112.602 24.3828 112.95 23.0488 112.776C21.7728 112.66 20.7288 112.08 19.9168 111.152C19.1048 110.166 18.8148 109.064 18.9308 107.73C19.0468 106.454 19.6268 105.41 20.5548 104.598C21.5408 103.786 22.6428 103.438 23.9768 103.612C25.3108 103.728 26.3548 104.25 27.1088 105.236ZM25.8908 111.036C26.6448 110.398 27.1088 109.586 27.2248 108.542C27.3408 107.498 27.0508 106.628 26.4128 105.874C25.7748 105.12 24.9048 104.656 23.8608 104.598C22.8168 104.482 21.8888 104.772 21.1348 105.41C20.3808 106.048 19.9168 106.86 19.8008 107.904C19.6848 108.948 19.9748 109.818 20.6128 110.63C21.2508 111.384 22.1208 111.848 23.1648 111.964C24.2088 111.906 25.1368 111.674 25.8908 111.036Z" fill="#2A2A2A"/>
<path d="M29.1405 100.422L21.3105 93.9845L31.2285 91.9545L30.9965 92.9405L23.2825 94.5065L29.3725 99.4365L29.1405 100.422Z" fill="#2A2A2A"/>
<path d="M27.9815 85.2846L28.6195 83.7186C28.9675 82.8486 29.4315 82.2106 30.1275 81.8626C30.7655 81.5146 31.4615 81.5146 32.2155 81.8046C32.9695 82.0946 33.4915 82.5586 33.7235 83.2546C33.9555 83.9506 33.9555 84.7046 33.6075 85.6326L32.6795 88.0686L24.2695 84.8206L24.6175 83.9506L27.9815 85.2846ZM32.0995 86.9086L32.7375 85.3426C32.9695 84.7046 33.0275 84.1246 32.8535 83.7186C32.6795 83.2546 32.3315 82.9066 31.8095 82.7326C31.2875 82.5586 30.8235 82.5586 30.4175 82.7906C30.0115 83.0226 29.6635 83.4866 29.4315 84.1246L28.7935 85.6906L32.0995 86.9086Z" fill="#2A2A2A"/>
<path d="M39.0017 72.1187L39.5237 71.1327L41.9597 72.4667L41.4957 73.2787L39.8717 72.3507L36.5657 78.3827L28.6777 74.0907L29.1417 73.2787L36.2757 77.1647L38.5957 72.9307L31.4617 69.0447L31.9257 68.2327L39.0017 72.1187Z" fill="#2A2A2A"/>
<path d="M39.5796 63.1285L40.6236 61.7945C41.2036 61.0405 41.8416 60.6345 42.5956 60.4605C43.2916 60.3445 43.9876 60.5185 44.6256 60.9825C45.2636 61.5045 45.6116 62.0845 45.6116 62.8385C45.6696 63.5925 45.3796 64.2885 44.7996 65.0425L43.1756 67.1305L36.0996 61.5625L36.6796 60.8085L39.5796 63.1285ZM43.0596 65.8545L44.1036 64.5205C44.5096 63.9985 44.7416 63.4765 44.7416 63.0125C44.7416 62.5485 44.5096 62.1425 44.0456 61.7365C43.5816 61.3885 43.1756 61.2725 42.6536 61.3885C42.1896 61.5045 41.7256 61.7945 41.3196 62.3745L40.2756 63.7085L43.0596 65.8545ZM47.5836 61.5045L40.5076 55.9365L41.0876 55.1825L48.1636 60.7505L47.5836 61.5045Z" fill="#2A2A2A"/>
<path d="M178.375 58.4307L180.521 56.6327L181.043 57.2707L189.743 54.8347L185.915 63.0127L186.437 63.6507L184.291 65.4487L183.711 64.7527L185.161 63.5347L180.405 57.9087L178.955 59.1267L178.375 58.4307ZM181.681 58.0247L185.277 62.3167L188.235 56.1687L181.681 58.0247Z" fill="#2A2A2A"/>
<path d="M193.224 73.5108C192.006 73.2208 191.078 72.5248 190.382 71.4228C189.686 70.3208 189.512 69.1608 189.802 67.9428C190.092 66.7248 190.788 65.7388 191.89 65.1008C192.992 64.4048 194.152 64.2308 195.37 64.5208C196.588 64.8108 197.516 65.5068 198.212 66.6088C198.908 67.7108 199.082 68.8708 198.792 70.0888C198.502 71.3068 197.806 72.2348 196.704 72.9308C195.602 73.6268 194.442 73.8008 193.224 73.5108ZM190.73 68.1168C190.498 69.1028 190.672 70.0308 191.194 70.9008C191.716 71.7708 192.47 72.3508 193.456 72.5828C194.442 72.8148 195.37 72.6408 196.24 72.1188C197.11 71.5968 197.69 70.7848 197.922 69.8568C198.154 68.8708 198.038 67.9428 197.458 67.0728C196.936 66.2028 196.182 65.6228 195.196 65.3908C194.21 65.1588 193.282 65.3328 192.412 65.8548C191.542 66.4348 190.962 67.1888 190.73 68.1168Z" fill="#2A2A2A"/>
<path d="M202.967 77.5707L200.241 78.7307L201.111 80.8187C201.459 81.6307 201.517 82.3847 201.343 83.0807C201.111 83.7767 200.647 84.2987 199.951 84.5887C199.197 84.9367 198.501 84.8787 197.863 84.5307C197.225 84.1827 196.703 83.5447 196.355 82.6747L195.195 79.9487L203.489 76.3527L205.577 81.2247L204.707 81.5727L202.967 77.5707ZM196.355 80.4127L197.225 82.4427C197.515 83.0227 197.805 83.4867 198.269 83.6607C198.675 83.8927 199.139 83.8927 199.603 83.6607C200.067 83.4287 200.415 83.1387 200.531 82.6747C200.647 82.2107 200.589 81.6887 200.357 81.1087L199.487 79.0787L196.355 80.4127Z" fill="#2A2A2A"/>
<path d="M199.023 89.7507L207.665 87.1407L208.419 89.5767C208.709 90.5047 208.651 91.2587 208.361 91.8967C208.071 92.5347 207.491 92.9987 206.737 93.2307C205.983 93.4627 205.287 93.4047 204.649 92.9987C204.011 92.5927 203.547 91.9547 203.315 91.0847L202.851 89.5767L199.313 90.6207L199.023 89.7507ZM203.663 89.3447L204.127 90.8527C204.301 91.4907 204.649 91.9547 205.055 92.1867C205.461 92.4187 205.925 92.4767 206.505 92.3027C207.027 92.1287 207.433 91.8387 207.607 91.4327C207.839 91.0267 207.839 90.4467 207.607 89.8087L207.143 88.3007L203.663 89.3447Z" fill="#2A2A2A"/>
<path d="M204.128 106.745C203.142 105.991 202.504 105.005 202.33 103.729C202.156 102.453 202.388 101.293 203.142 100.307C203.896 99.263 204.882 98.683 206.158 98.451C207.434 98.277 208.594 98.509 209.638 99.263C210.624 100.017 211.262 101.003 211.436 102.279C211.61 103.555 211.378 104.715 210.624 105.701C209.87 106.745 208.884 107.325 207.608 107.557C206.274 107.789 205.114 107.499 204.128 106.745ZM203.838 100.829C203.258 101.641 203.026 102.569 203.2 103.555C203.374 104.599 203.838 105.353 204.65 105.933C205.462 106.513 206.39 106.745 207.434 106.571C208.478 106.397 209.29 105.933 209.87 105.121C210.45 104.309 210.682 103.381 210.508 102.395C210.334 101.351 209.87 100.597 209.058 99.9589C208.246 99.3789 207.318 99.147 206.274 99.321C205.23 99.553 204.418 100.017 203.838 100.829Z" fill="#2A2A2A"/>
<path d="M203.43 113.414L212.478 113.298L212.536 116.256C212.536 117.068 212.362 117.706 211.898 118.17C211.434 118.634 210.912 118.866 210.216 118.866C209.346 118.866 208.708 118.518 208.244 117.822C207.896 118.924 207.142 119.504 205.982 119.504C205.17 119.504 204.59 119.272 204.126 118.692C203.662 118.17 203.43 117.416 203.43 116.488V113.414ZM204.3 114.342L204.358 116.604C204.358 117.242 204.532 117.764 204.822 118.054C205.112 118.402 205.518 118.576 206.04 118.518C206.562 118.518 206.968 118.344 207.258 117.996C207.548 117.648 207.722 117.184 207.722 116.488L207.664 114.226L204.3 114.342ZM208.476 114.284V116.314C208.476 116.836 208.65 117.242 208.94 117.532C209.23 117.822 209.636 117.938 210.1 117.938C210.564 117.938 210.912 117.764 211.202 117.474C211.492 117.184 211.666 116.778 211.608 116.256V114.226L208.476 114.284Z" fill="#2A2A2A"/>
<path d="M203.548 132.091C202.794 131.105 202.504 129.945 202.678 128.669C202.852 127.393 203.432 126.349 204.418 125.595C205.404 124.841 206.564 124.551 207.84 124.667C209.116 124.841 210.16 125.421 210.914 126.407C211.668 127.393 211.958 128.553 211.784 129.829C211.61 131.105 211.03 132.149 210.044 132.903C209.058 133.657 207.898 133.947 206.622 133.831C205.346 133.657 204.302 133.077 203.548 132.091ZM204.94 126.349C204.128 126.929 203.664 127.799 203.548 128.785C203.432 129.829 203.664 130.699 204.302 131.511C204.94 132.323 205.752 132.729 206.796 132.903C207.84 133.019 208.768 132.787 209.58 132.207C210.392 131.627 210.856 130.815 210.972 129.771C211.088 128.727 210.856 127.857 210.276 127.045C209.696 126.233 208.826 125.769 207.782 125.653C206.622 125.479 205.694 125.711 204.94 126.349Z" fill="#2A2A2A"/>
<path d="M201.401 136.847L208.999 143.517L199.023 145.257L199.313 144.271L207.085 142.995L201.111 137.833L201.401 136.847Z" fill="#2A2A2A"/>
<path d="M202.096 151.985L201.458 153.551C201.11 154.421 200.588 155.001 199.892 155.349C199.254 155.697 198.558 155.697 197.804 155.349C197.05 155.059 196.586 154.537 196.354 153.841C196.122 153.145 196.18 152.333 196.586 151.463L197.63 149.027L205.982 152.507L205.634 153.377L202.096 151.985ZM198.036 150.303L197.398 151.869C197.108 152.507 197.05 153.029 197.224 153.493C197.34 153.957 197.688 154.305 198.21 154.537C198.732 154.769 199.196 154.769 199.602 154.537C200.008 154.305 200.356 153.899 200.646 153.261L201.284 151.695L198.036 150.303Z" fill="#2A2A2A"/>
<path d="M190.672 164.803L190.092 165.731L187.656 164.339L188.12 163.527L189.744 164.455L193.224 158.539L200.996 163.121L200.532 163.933L193.514 159.815L191.078 163.991L198.096 168.109L197.632 168.921L190.672 164.803Z" fill="#2A2A2A"/>
<path d="M181.74 175.185L188.642 180.985L188.062 181.681L181.16 175.881L181.74 175.185ZM189.802 173.793L188.7 175.127C188.12 175.881 187.424 176.287 186.67 176.403C185.974 176.519 185.278 176.345 184.64 175.823C184.002 175.301 183.712 174.663 183.712 173.967C183.712 173.213 184.002 172.517 184.582 171.763L186.264 169.733L193.166 175.533L192.586 176.229L189.802 173.793ZM186.38 170.951L185.278 172.285C184.814 172.807 184.64 173.329 184.64 173.793C184.64 174.257 184.872 174.721 185.278 175.069C185.684 175.417 186.148 175.591 186.612 175.475C187.076 175.417 187.54 175.069 188.004 174.547L189.106 173.213L186.38 170.951Z" fill="#2A2A2A"/>
<path d="M116.141 160.743H114.981C114.981 148.737 102.801 140.443 89.9249 131.685C79.6589 124.667 68.9869 117.475 64.9849 108.079C59.3008 94.7967 67.0149 80.1807 77.7449 73.7427C90.5049 66.0287 104.831 69.7407 116.025 83.5447L115.155 84.2986C104.309 70.9586 90.5629 67.3627 78.3249 74.7287C68.0009 80.9347 60.6349 94.9707 66.0289 107.615C69.9149 116.721 80.4128 123.855 90.5629 130.757C103.149 139.283 116.141 148.099 116.141 160.743Z" fill="#2A2A2A"/>
<path d="M116.14 160.742H114.98C114.98 148.098 128.03 138.876 140.674 130.002C150.766 122.926 161.206 115.56 165.092 106.512C170.428 94.1004 163.236 80.4704 153.26 74.4384C140.906 67.0144 126.986 70.6684 116.024 84.2404L115.154 83.4864C128.552 66.8984 143.98 67.4204 153.898 73.3944C164.338 79.6584 171.762 93.9264 166.194 106.918C162.192 116.314 151.578 123.738 141.37 130.93C128.378 140.094 116.14 148.678 116.14 160.742Z" fill="#2A2A2A"/>
<path d="M115.849 178.839H114.689C114.689 166.195 127.159 157.205 139.281 148.505C149.025 141.487 159.059 134.295 162.771 125.189C168.049 112.313 160.393 98.0446 150.301 92.1866C138.759 85.5166 125.825 89.3446 115.733 102.395L114.805 101.699C125.245 88.1846 138.759 84.2406 150.823 91.2006C162.887 98.1606 168.687 113.589 163.815 125.653C159.987 135.049 149.779 142.357 139.919 149.491C127.565 158.365 115.849 166.775 115.849 178.839Z" fill="#2A2A2A"/>
</g>
<defs>
<clipPath id="clip0_372_155">
<rect width="232" height="232" fill="white" transform="translate(0.835938 0.836426)"/>
</clipPath>
</defs>
</svg>
