<svg width="232" height="232" viewBox="0 0 232 232" fill="none" xmlns="http://www.w3.org/2000/svg">
<g clip-path="url(#clip0_372_244)">
<path d="M116 232C180.065 232 232 180.065 232 116C232 51.935 180.065 0 116 0C51.935 0 0 51.935 0 116C0 180.065 51.935 232 116 232Z" fill="#F0858F"/>
<path d="M63.8584 44.196L56.8984 32.886L65.9464 35.09L68.0924 26.042L75.0524 37.41L72.5004 38.976L69.1364 33.466L67.9184 38.396L62.9884 37.178L66.3524 42.688L63.8584 44.196Z" fill="#2A2A2A"/>
<path d="M87.5234 30.276C86.7694 31.958 85.5514 33.176 83.8114 33.814C82.0714 34.51 80.3894 34.452 78.6494 33.698C76.9674 32.944 75.7494 31.726 75.1114 29.986C74.4734 28.246 74.4734 26.564 75.2274 24.824C75.9814 23.142 77.1994 21.924 78.9394 21.286C80.6794 20.59 82.3614 20.648 84.1014 21.402C85.7834 22.156 87.0014 23.374 87.6394 25.114C88.3354 26.854 88.2774 28.594 87.5234 30.276ZM79.8674 31.088C80.7954 31.552 81.7814 31.552 82.7674 31.204C83.7534 30.798 84.4494 30.16 84.8554 29.174C85.2614 28.188 85.2614 27.26 84.8554 26.216C84.4494 25.23 83.8114 24.476 82.8834 24.07C81.9554 23.606 80.9694 23.606 79.9834 23.954C78.9974 24.36 78.3014 24.998 77.8954 25.984C77.4894 26.97 77.4894 27.898 77.8954 28.942C78.3014 29.928 78.9394 30.624 79.8674 31.088Z" fill="#2A2A2A"/>
<path d="M90.248 31.204L93.67 16.82L102.892 28.362L99.818 29.058L95.062 23.026L93.322 30.508L90.248 31.204Z" fill="#2A2A2A"/>
<path d="M114.493 25.694C113.275 27.086 111.767 27.84 109.911 28.014C108.055 28.13 106.431 27.608 105.039 26.39C103.647 25.172 102.893 23.664 102.719 21.808C102.603 19.952 103.125 18.328 104.343 16.936C105.561 15.544 107.069 14.79 108.925 14.616C110.781 14.5 112.405 15.022 113.797 16.24C115.189 17.458 115.943 18.966 116.117 20.822C116.233 22.678 115.711 24.302 114.493 25.694ZM106.953 24.186C107.707 24.882 108.635 25.172 109.679 25.114C110.723 25.056 111.593 24.592 112.231 23.78C112.869 22.968 113.159 22.04 113.101 20.996C113.043 19.952 112.579 19.024 111.825 18.328C111.071 17.632 110.143 17.342 109.099 17.4C108.055 17.458 107.185 17.922 106.547 18.734C105.909 19.546 105.619 20.474 105.677 21.518C105.735 22.62 106.199 23.49 106.953 24.186Z" fill="#2A2A2A"/>
<path d="M117.393 30.102L117.915 24.534L119.423 24.65L125.629 14.732L129.921 25.636L131.429 25.752L130.907 31.32L128.065 31.03L128.297 28.304L120.409 27.55L120.177 30.276L117.393 30.102ZM126.847 25.346L125.165 20.764L122.613 24.94L126.847 25.346Z" fill="#2A2A2A"/>
<path d="M133.285 29.232L136.359 16.472L144.247 18.386L143.551 21.228L138.505 20.01L137.983 22.156L141.927 23.142L141.231 25.926L137.287 24.94L136.765 27.086L141.811 28.304L141.115 31.146L133.285 29.232Z" fill="#2A2A2A"/>
<path d="M142.564 31.088L149.814 27.202L148.364 19.314L151.496 20.706L152.946 28.536L155.556 22.504L158.282 23.664L155.672 29.696L162.4 25.462L165.532 26.854L158.746 31.146L160.834 39.15L157.47 37.7L155.498 30.102L153.004 35.728L150.278 34.568L152.772 28.942L145.87 32.654L142.564 31.088Z" fill="#2A2A2A"/>
<path d="M169.361 34.916L170.985 35.96C172.029 36.656 172.725 37.584 172.957 38.744C173.247 39.904 173.015 41.006 172.319 41.992C171.623 43.036 170.695 43.616 169.535 43.848C168.375 44.022 167.273 43.79 166.171 43.094L162.111 40.368L169.419 29.464L171.855 31.088L169.361 34.916ZM166.171 39.672L167.737 40.716C168.143 41.006 168.549 41.122 168.955 41.064C169.361 41.006 169.709 40.774 169.941 40.426C170.231 40.02 170.289 39.614 170.173 39.266C170.057 38.86 169.825 38.512 169.419 38.28L167.853 37.236L166.171 39.672Z" fill="#2A2A2A"/>
<path d="M59.623 202.478L66.235 190.936L68.671 199.868L77.603 197.432L70.991 208.974L68.439 207.524L71.629 201.956L66.757 203.29L65.423 198.418L62.233 203.986L59.623 202.478Z" fill="#2A2A2A"/>
<path d="M85.492 212.686C83.81 213.44 82.07 213.556 80.33 212.86C78.59 212.222 77.314 211.062 76.56 209.38C75.806 207.698 75.69 205.958 76.386 204.218C77.024 202.478 78.184 201.202 79.866 200.448C81.548 199.694 83.288 199.578 85.028 200.274C86.768 200.912 88.044 202.072 88.798 203.754C89.552 205.436 89.668 207.176 88.972 208.916C88.334 210.656 87.174 211.874 85.492 212.686ZM79.228 208.22C79.634 209.148 80.33 209.844 81.316 210.192C82.302 210.54 83.288 210.54 84.216 210.076C85.144 209.612 85.782 208.858 86.188 207.872C86.536 206.886 86.536 205.9 86.13 204.914C85.724 203.986 85.028 203.29 84.042 202.942C83.056 202.594 82.07 202.594 81.142 203.058C80.214 203.522 79.576 204.276 79.17 205.262C78.822 206.248 78.822 207.234 79.228 208.22Z" fill="#2A2A2A"/>
<path d="M90.3047 215.934L93.0887 203.116L97.3227 204.044C98.5407 204.334 99.5267 204.972 100.165 206.016C100.803 207.06 101.035 208.162 100.745 209.38C100.455 210.598 99.8167 211.526 98.8307 212.222C97.7867 212.86 96.6847 213.092 95.4087 212.802L94.0747 212.512L93.1467 216.63L90.3047 215.934ZM94.7127 209.728L95.9887 210.018C96.4527 210.134 96.8587 210.018 97.2647 209.786C97.6707 209.496 97.9027 209.148 97.9607 208.742C98.0767 208.278 97.9607 207.872 97.7287 207.466C97.4967 207.06 97.1487 206.828 96.6847 206.712L95.4087 206.422L94.7127 209.728Z" fill="#2A2A2A"/>
<path d="M100.049 220.864L100.571 215.296L102.079 215.412L108.285 205.494L112.635 216.34L114.143 216.456L113.621 222.024L110.779 221.792L111.011 219.066L103.123 218.37L102.891 221.096L100.049 220.864ZM109.445 216.108L107.705 211.526L105.211 215.76L109.445 216.108Z" fill="#2A2A2A"/>
<path d="M127.193 216.804C125.975 218.196 124.409 218.95 122.553 219.066C120.697 219.182 119.073 218.602 117.681 217.384C116.289 216.166 115.535 214.6 115.419 212.744C115.303 210.888 115.883 209.264 117.101 207.872C118.319 206.48 119.885 205.726 121.741 205.61C123.597 205.494 125.221 206.074 126.613 207.292C128.005 208.51 128.759 210.076 128.875 211.932C128.991 213.788 128.411 215.412 127.193 216.804ZM119.653 215.296C120.407 215.992 121.335 216.34 122.379 216.282C123.423 216.224 124.293 215.76 124.989 215.006C125.627 214.194 125.975 213.266 125.859 212.222C125.801 211.178 125.395 210.25 124.641 209.554C123.887 208.858 122.959 208.51 121.915 208.568C120.871 208.626 120.001 209.09 119.305 209.844C118.609 210.656 118.319 211.584 118.435 212.628C118.493 213.672 118.899 214.6 119.653 215.296Z" fill="#2A2A2A"/>
<path d="M132.878 217.848L130.152 204.972L134.966 203.928C136.01 203.696 136.996 203.87 137.924 204.45C138.852 205.03 139.374 205.842 139.606 206.886C139.78 207.756 139.664 208.568 139.142 209.264C139.78 209.438 140.302 209.786 140.708 210.192C141.172 210.656 141.404 211.178 141.578 211.874C141.81 212.918 141.636 213.904 140.998 214.832C140.418 215.76 139.548 216.282 138.446 216.514L132.878 217.848ZM134.096 209.554L135.72 209.206C136.126 209.148 136.416 208.916 136.59 208.626C136.764 208.336 136.88 207.988 136.764 207.64C136.706 207.292 136.474 207.002 136.184 206.828C135.894 206.654 135.546 206.596 135.14 206.654L133.516 207.002L134.096 209.554ZM135.198 214.6L137.692 214.078C138.098 214.02 138.388 213.788 138.562 213.498C138.736 213.208 138.852 212.86 138.736 212.512C138.678 212.164 138.446 211.874 138.156 211.7C137.866 211.526 137.518 211.468 137.112 211.526L134.618 212.048L135.198 214.6Z" fill="#2A2A2A"/>
<path d="M145.926 215.006L141.344 202.536L144.128 201.492L146.506 207.93L151.9 198.476L156.482 210.946L153.698 211.99L151.32 205.552L145.926 215.006Z" fill="#2A2A2A"/>
<path d="M160.427 209.322L154.047 197.664L156.657 196.214L159.963 202.246L163.849 192.096L170.229 203.754L167.619 205.204L164.313 199.172L160.427 209.322Z" fill="#2A2A2A"/>
<path d="M51.4466 176.784L44.4866 182.758L43.9066 182.062L49.1846 177.538L39.5566 177.074L46.5166 171.1L47.1546 171.796L41.8766 176.32L51.4466 176.784Z" fill="#2A2A2A"/>
<path d="M42.9201 166.17L35.2061 170.926L34.7421 170.114L38.1061 168.026L35.3221 163.444L31.9581 165.532L31.4941 164.72L39.2081 159.964L39.6721 160.776L36.1341 162.98L38.9181 167.562L42.4561 165.358L42.9201 166.17Z" fill="#2A2A2A"/>
<path d="M34.7412 150.104L35.0892 150.974L34.0452 151.38V151.438C34.5092 152.714 34.6252 153.816 34.2772 154.744C33.9872 155.73 33.2912 156.426 32.2472 156.832C31.2032 157.238 30.2752 157.238 29.3472 156.774C28.4192 156.31 27.7232 155.498 27.1432 154.222V154.164L26.2152 154.57L25.8672 153.7L26.7952 153.294V153.236C26.3312 151.96 26.2152 150.858 26.5632 149.93C26.9112 148.944 27.5492 148.248 28.5932 147.842C29.6372 147.436 30.5652 147.436 31.4932 147.9C32.4212 148.364 33.1172 149.176 33.6972 150.452V150.51L34.7412 150.104ZM32.8852 150.858V150.8C32.4212 149.814 31.8992 149.118 31.2032 148.77C30.5072 148.422 29.8112 148.422 28.9992 148.77C28.1292 149.118 27.6072 149.64 27.3752 150.336C27.1432 151.032 27.2012 151.902 27.6072 152.946L27.6652 153.004L32.8852 150.858ZM33.2332 151.728L27.9552 153.932V153.99C28.4192 154.976 28.9412 155.672 29.6372 156.02C30.2752 156.368 31.0292 156.368 31.8992 156.02C32.7692 155.672 33.2912 155.15 33.5232 154.454C33.7552 153.758 33.6972 152.888 33.2912 151.844L33.2332 151.728Z" fill="#2A2A2A"/>
<path d="M28.3046 133.98C29.3486 134.676 30.0446 135.604 30.3346 136.88C30.6246 138.156 30.4506 139.316 29.7546 140.418C29.1166 141.462 28.1306 142.158 26.8546 142.448C25.5786 142.738 24.4186 142.564 23.3166 141.868C22.2726 141.172 21.5766 140.244 21.2866 138.968C20.9966 137.692 21.1706 136.532 21.8666 135.43C22.5046 134.386 23.4906 133.69 24.7666 133.4C26.0426 133.11 27.2026 133.284 28.3046 133.98ZM29.0006 139.838C29.5226 138.968 29.6966 138.04 29.4646 137.054C29.2326 136.068 28.7106 135.256 27.8406 134.734C26.9706 134.212 26.0426 134.096 24.9986 134.328C23.9546 134.56 23.2006 135.14 22.6786 135.952C22.1566 136.822 21.9826 137.75 22.2146 138.736C22.4466 139.722 22.9686 140.534 23.8386 141.056C24.7086 141.578 25.6366 141.752 26.6806 141.462C27.6666 141.23 28.4786 140.708 29.0006 139.838Z" fill="#2A2A2A"/>
<path d="M28.5355 127.31L19.4875 128.18L19.2555 125.628C19.1395 124.7 19.3135 123.946 19.7775 123.308C20.2415 122.728 20.8215 122.38 21.6335 122.322C22.4455 122.264 23.0835 122.438 23.6635 122.96C24.1855 123.482 24.5335 124.178 24.5915 125.106L24.7655 126.73L28.4195 126.382L28.5355 127.31ZM23.8955 126.788L23.7215 125.222C23.6635 124.526 23.4315 124.062 23.0835 123.714C22.7355 123.366 22.2715 123.25 21.6915 123.308C21.1115 123.366 20.7055 123.598 20.4155 123.946C20.1255 124.352 20.0095 124.874 20.0675 125.57L20.2415 127.136L23.8955 126.788Z" fill="#2A2A2A"/>
<path d="M27.8398 116.754L18.6758 116.29L23.8378 112.172L19.0818 107.59L28.2458 108.054L28.1878 108.982L21.4018 108.634L25.1718 112.23L21.0538 115.478L27.8398 115.826V116.754Z" fill="#2A2A2A"/>
<path d="M28.827 103.298L20.707 97.15L30.567 94.714L30.335 95.7L27.609 96.338L26.739 100.572L29.001 102.254L28.827 103.298ZM25.985 100.05L26.681 96.628L22.679 97.614L25.985 100.05Z" fill="#2A2A2A"/>
<path d="M33.2344 83.868L33.5824 82.824L36.2504 83.752L35.9604 84.622L34.1624 83.984L31.8424 90.48L23.3164 87.406L23.6064 86.536L31.2624 89.262L32.8864 84.738L25.2304 82.012L25.5204 81.142L33.2344 83.868Z" fill="#2A2A2A"/>
<path d="M36.771 78.358L28.709 74.008L29.173 73.196L35.263 76.502L32.189 67.338L40.251 71.688L39.787 72.5L33.697 69.194L36.771 78.358Z" fill="#2A2A2A"/>
<path d="M42.8041 67.628L41.2381 63.162C40.7161 63.626 40.1941 63.858 39.6721 63.916C39.0921 63.916 38.5701 63.742 38.0481 63.394C37.4101 62.93 37.0621 62.292 36.9461 61.596C36.8881 60.842 37.1201 60.146 37.7001 59.334L39.2661 57.188L46.5741 62.524L46.0521 63.278L43.0941 61.074L42.0501 62.466L43.5581 66.642L42.8041 67.628ZM41.2961 62.002L42.2821 60.668L39.3821 58.522L38.3961 59.856C37.9901 60.378 37.8161 60.9 37.8741 61.422C37.9321 61.886 38.1641 62.292 38.6281 62.64C39.0921 62.988 39.5561 63.104 40.0201 62.988C40.4841 62.872 40.8901 62.524 41.2961 62.002Z" fill="#2A2A2A"/>
<path d="M185.02 61.712L192.27 56.26L193.836 58.29C194.416 59.044 194.648 59.798 194.59 60.494C194.532 61.248 194.184 61.828 193.546 62.35C192.908 62.814 192.212 62.988 191.516 62.872C190.762 62.756 190.124 62.292 189.602 61.538L188.616 60.262L185.658 62.466L185.02 61.712ZM189.254 59.682L190.24 60.958C190.646 61.48 191.11 61.828 191.574 61.886C192.038 62.002 192.502 61.828 192.966 61.48C193.43 61.132 193.662 60.726 193.72 60.262C193.778 59.798 193.604 59.276 193.14 58.754L192.154 57.478L189.254 59.682Z" fill="#2A2A2A"/>
<path d="M190.762 69.774L198.534 65.134L201.202 69.6L200.39 70.064L198.244 66.41L195.634 67.976L197.432 70.934L196.62 71.398L194.822 68.44L192.038 70.122L194.184 73.776L193.372 74.24L190.762 69.774Z" fill="#2A2A2A"/>
<path d="M195.518 78.358L203.812 74.646L204.218 75.516L200.042 77.372L206.016 79.46L206.48 80.504L200.506 78.416L198.36 84.564L197.838 83.404L199.926 77.43L195.982 79.17L195.518 78.358Z" fill="#2A2A2A"/>
<path d="M199.287 87.232L209.321 88.798L201.781 95.642L201.491 94.656L207.407 89.378L199.577 88.218L199.287 87.232Z" fill="#2A2A2A"/>
<path d="M202.477 98.484L212.221 101.384L203.869 107.126L203.695 106.14L206.015 104.574L205.319 100.34L202.593 99.586L202.477 98.484ZM206.247 100.514L206.769 103.994L210.133 101.674L206.247 100.514Z" fill="#2A2A2A"/>
<path d="M204.217 111.824L213.381 111.766L208.451 116.174L213.439 120.524L204.275 120.582V119.654L211.119 119.596L207.175 116.232L211.119 112.81L204.275 112.868L204.217 111.824Z" fill="#2A2A2A"/>
<path d="M203.928 125.28L212.338 130.964L202.652 133.98L202.826 132.994L205.552 132.182L206.19 127.89L203.812 126.324L203.928 125.28ZM206.944 128.354L206.422 131.834L210.366 130.616L206.944 128.354Z" fill="#2A2A2A"/>
<path d="M200.505 142.1L209.147 145.116L208.857 145.986L202.303 143.724L206.769 152.25L198.127 149.234L198.417 148.364L204.971 150.626L200.505 142.1Z" fill="#2A2A2A"/>
<path d="M193.836 158.456L201.724 162.98L200.448 165.184C199.984 165.996 199.404 166.518 198.708 166.75C198.012 166.982 197.316 166.866 196.62 166.518C195.924 166.112 195.518 165.532 195.344 164.836C195.17 164.14 195.344 163.328 195.808 162.516L196.62 161.124L193.43 159.268L193.836 158.456ZM197.316 161.53L196.504 162.922C196.156 163.502 196.04 164.024 196.156 164.488C196.272 164.952 196.562 165.358 197.026 165.59C197.49 165.88 198.012 165.938 198.418 165.764C198.882 165.59 199.288 165.242 199.636 164.662L200.448 163.27L197.316 161.53Z" fill="#2A2A2A"/>
<path d="M188.615 166.982L195.923 172.376L194.357 174.464C193.835 175.16 193.255 175.624 192.559 175.74C191.921 175.856 191.283 175.74 190.645 175.276C190.181 174.928 189.833 174.464 189.717 173.884C189.543 173.304 189.659 172.724 190.065 172.028L184.787 172.202L185.483 171.274L190.645 171.158L191.341 170.23L188.035 167.794L188.615 166.982ZM191.979 170.694L190.993 172.028C190.645 172.55 190.471 173.014 190.471 173.42C190.529 173.826 190.703 174.232 191.109 174.522C191.515 174.812 191.921 174.928 192.385 174.87C192.791 174.754 193.197 174.464 193.603 174L194.589 172.666L191.979 170.694Z" fill="#2A2A2A"/>
<path d="M121.685 164.836C116.697 164.836 111.651 164.082 106.721 162.574C93.6707 158.63 82.9407 149.872 76.5607 137.982C70.1807 126.092 68.8467 112.288 72.8487 99.238C76.7927 86.188 85.5507 75.458 97.4407 69.078C98.0787 68.73 98.7167 68.44 99.3547 68.092L99.8767 69.136C99.2387 69.426 98.6587 69.774 98.0207 70.064C86.3627 76.27 77.8367 86.768 73.9507 99.528C70.0647 112.288 71.3987 125.744 77.6047 137.402C83.8107 149.06 94.3087 157.586 107.069 161.472C119.829 165.358 133.285 164.024 144.943 157.818C145.175 157.702 145.407 157.586 145.639 157.412L146.219 158.398C145.987 158.514 145.755 158.688 145.523 158.804C138.041 162.864 129.921 164.836 121.685 164.836Z" fill="#2A2A2A"/>
<path d="M141.115 131.37L140.593 130.326C140.883 130.21 141.173 130.036 141.463 129.862C152.889 123.772 157.181 109.504 151.091 98.078C145.001 86.652 130.733 82.36 119.307 88.45L118.959 88.624L118.379 87.638L118.611 87.522C130.675 81.084 145.639 85.608 152.077 97.556C158.515 109.562 153.933 124.468 141.985 130.906C141.695 131.08 141.405 131.254 141.115 131.37Z" fill="#2A2A2A"/>
<path d="M137.634 124.874L137.112 123.83C137.286 123.714 137.518 123.656 137.692 123.54C141.462 121.51 144.246 118.146 145.464 114.028C146.74 109.91 146.276 105.56 144.304 101.79C140.128 93.96 130.326 91.002 122.496 95.178L122.322 95.294L121.974 94.83L121.742 94.308L121.974 94.192C130.384 89.726 140.824 92.858 145.29 101.268C147.436 105.328 147.9 109.968 146.566 114.376C145.232 118.784 142.274 122.438 138.214 124.584C138.04 124.642 137.866 124.758 137.634 124.874Z" fill="#2A2A2A"/>
<path d="M124.643 111.36C116.523 110.896 112.405 99.818 108.055 88.044C104.053 77.198 99.935 66.062 92.627 64.786L92.801 63.626C100.805 65.018 105.039 76.502 109.099 87.638C113.101 98.542 117.277 109.794 124.643 110.2V111.36Z" fill="#2A2A2A"/>
<path d="M146.276 163.444L145.232 162.98C148.248 156.194 141.23 146.566 134.444 137.228C127.078 127.078 120.118 117.508 124.236 110.49L125.222 111.07C121.452 117.45 128.528 127.136 135.372 136.532C142.332 146.102 149.524 156.02 146.276 163.444Z" fill="#2A2A2A"/>
<path d="M133.08 105.629L64.0586 142.602L64.6063 143.624L133.628 106.651L133.08 105.629Z" fill="#2A2A2A"/>
<path d="M132.182 113.796L131.08 113.506L133.052 106.314L126.092 104.168L126.44 103.066L134.444 105.56L132.182 113.796Z" fill="#2A2A2A"/>
</g>
<defs>
<clipPath id="clip0_372_244">
<rect width="232" height="232" fill="white"/>
</clipPath>
</defs>
</svg>
