<svg width="78" height="140" viewBox="0 0 78 140" fill="none" xmlns="http://www.w3.org/2000/svg">
<g clip-path="url(#clip0_557_4)">
<path d="M77.3949 38.6467L74.4975 18.6884L73.1103 9.23266L71.7757 0L70.5992 0.171611L73.4966 20.1299C73.6802 21.3931 73.6073 22.6793 73.2822 23.915C72.957 25.1506 72.3859 26.3116 71.6016 27.3315C70.8172 28.3514 69.835 29.2104 68.7109 29.8592C67.5868 30.508 66.3429 30.9341 65.0503 31.113L58.8692 31.9711C55.9471 32.3791 53.3105 33.9044 51.5389 36.2118C49.7673 38.5192 49.0059 41.4197 49.422 44.2756L50.2649 50.1275C50.4485 51.3884 50.3761 52.6724 50.0518 53.906C49.7276 55.1395 49.1578 56.2986 48.3751 57.317C47.5924 58.3353 46.612 59.193 45.49 59.8409C44.3681 60.4889 43.1265 60.9145 41.8361 61.0934L31.0719 62.5864C29.6213 62.7845 28.2249 63.2599 26.9623 63.9855C25.6998 64.7111 24.5959 65.6727 23.7137 66.8153C22.8315 67.958 22.1883 69.2593 21.8208 70.6449C21.4534 72.0305 21.3688 73.4733 21.5721 74.8909L22.3622 80.2966C22.5458 81.5598 22.473 82.846 22.1478 84.0817C21.8227 85.3173 21.2516 86.4783 20.4673 87.4982C19.6829 88.5181 18.7006 89.3771 17.5765 90.0259C16.4524 90.6747 15.2086 91.1008 13.916 91.2797L10.0177 91.8289C7.10551 92.2452 4.48054 93.7716 2.71676 96.0741C0.952979 98.3767 0.193921 101.268 0.605574 104.116L1.95768 113.349L3.32735 122.787L5.76817 140L6.96225 139.828L5.64526 130.424L4.50386 122.667C4.13813 120.119 4.82216 117.533 6.40576 115.477C7.98936 113.421 10.3431 112.063 12.9502 111.701L16.866 111.152C19.7846 110.744 22.4183 109.221 24.1894 106.918C25.9605 104.614 26.7243 101.718 26.3132 98.8649L25.523 93.442C25.1567 90.8942 25.8379 88.3083 27.4175 86.2501C28.9971 84.1918 31.3465 82.8287 33.9518 82.4589L44.716 80.9659C46.1655 80.7661 47.5604 80.2885 48.8205 79.5604C50.0807 78.8324 51.1812 77.8682 52.059 76.7233C52.9368 75.5784 53.5746 74.2753 53.9357 72.8889C54.2968 71.5025 54.3741 70.06 54.1632 68.6443L53.3203 62.7924C52.9492 60.2438 53.6285 57.6555 55.209 55.5961C56.7894 53.5368 59.1417 52.1747 61.749 51.8093L67.9477 50.9512C70.8676 50.5389 73.5014 49.0125 75.2721 46.7062C77.0429 44.4 77.8062 41.5019 77.3949 38.6467ZM59.0272 33.1209L65.2259 32.2628C66.6647 32.0627 68.0485 31.5849 69.2965 30.8572C70.5446 30.1295 71.6321 29.1664 72.4957 28.024C73.2553 27.1113 73.8492 26.0781 74.2516 24.9694L74.8838 29.3626C75.2549 31.9111 74.5756 34.4994 72.9951 36.5588C71.4147 38.6182 69.0624 39.9802 66.4551 40.3457L60.2038 41.1866C58.7576 41.3866 57.3662 41.864 56.1095 42.5915C54.8528 43.3189 53.7557 44.282 52.8813 45.4253C52.1747 46.3552 51.6181 47.3854 51.2307 48.48L50.5985 44.0868C50.2373 41.5417 50.9208 38.9602 52.4999 36.9058C54.0789 34.8514 56.4254 33.4907 59.0272 33.1209ZM31.2475 63.7534L41.9942 62.2604C44.0409 61.9729 45.9649 61.1332 47.5501 59.8357C49.1353 58.5381 50.3187 56.8342 50.9673 54.9154L51.617 59.3258C51.8057 60.5926 51.7368 61.8833 51.4142 63.124C51.0916 64.3647 50.5216 65.531 49.737 66.5561C48.9524 67.5812 47.9685 68.4448 46.8417 69.0977C45.7149 69.7505 44.4674 70.1796 43.1707 70.3604L32.424 71.8534C30.3821 72.1256 28.459 72.9517 26.873 74.2378C25.287 75.5239 24.1015 77.2186 23.451 79.1297L22.8012 74.7365C22.6177 73.4733 22.6905 72.1871 23.0157 70.9514C23.3408 69.7158 23.9119 68.5548 24.6962 67.5349C25.4806 66.515 26.4629 65.656 27.5869 65.0072C28.711 64.3584 29.9549 63.9323 31.2475 63.7534ZM10.1757 92.9272L14.0915 92.3952C15.5377 92.1952 16.9291 91.7177 18.1858 90.9903C19.4425 90.2628 20.5396 89.2997 21.414 88.1564C22.1335 87.2345 22.6913 86.2023 23.0646 85.1017L23.6968 89.495C24.0628 92.0408 23.3812 94.6247 21.8012 96.6802C20.2213 98.7357 17.8719 100.095 15.2681 100.461L11.3522 101.01C9.89692 101.208 8.49716 101.689 7.2362 102.426C5.97524 103.163 4.87883 104.141 4.01219 105.3C3.29268 106.222 2.73488 107.254 2.36156 108.355L1.79964 103.962C1.42858 101.413 2.10788 98.8249 3.68831 96.7655C5.26874 94.7062 7.62102 93.3441 10.2284 92.9787L10.1757 92.9272ZM23.328 106.193C22.5446 107.213 21.5627 108.071 20.4387 108.719C19.3146 109.367 18.0706 109.792 16.7782 109.968L12.7921 110.5C10.7517 110.79 8.83327 111.627 7.24948 112.917C5.6657 114.208 4.47836 115.901 3.81903 117.811L3.13419 113.263C2.76822 110.713 3.45175 108.124 5.03497 106.066C6.6182 104.007 8.97198 102.646 11.5805 102.28L15.4788 101.748C17.5261 101.455 19.4497 100.612 21.0344 99.3115C22.6191 98.0113 23.8024 96.3058 24.4519 94.3859L25.084 98.985C25.291 100.24 25.2424 101.523 24.9411 102.76C24.6398 103.997 24.0916 105.163 23.328 106.193ZM51.0902 76.0064C50.3096 77.0291 49.3283 77.8897 48.2038 78.5379C47.0793 79.1861 45.8339 79.6089 44.5404 79.7818L33.864 81.2748C31.8214 81.5594 29.9002 82.3941 28.3154 83.6852C26.7307 84.9763 25.5449 86.6731 24.8909 88.5854L24.2236 83.9691C24.0351 82.7066 24.1039 81.42 24.426 80.1836C24.7481 78.9471 25.3172 77.7851 26.1006 76.7643C26.8839 75.7436 27.866 74.8843 28.9904 74.2359C30.1148 73.5875 31.3593 73.1627 32.6523 72.986L43.4165 71.493C44.8621 71.2912 46.2529 70.813 47.5093 70.0856C48.7657 69.3583 49.8632 68.3962 50.739 67.2542C51.4455 66.3243 52.0022 65.2942 52.3896 64.1996L53.0569 68.7987C53.2332 70.0675 53.1502 71.3579 52.8126 72.5951C52.475 73.8324 51.8895 74.9918 51.0902 76.0064ZM74.2516 46.0088C73.4774 47.0208 72.5066 47.8736 71.3948 48.5185C70.2829 49.1634 69.0519 49.5877 67.7721 49.7671L61.591 50.6423C59.5498 50.9236 57.6291 51.755 56.0442 53.0432C54.4593 54.3314 53.2729 56.0256 52.6179 57.9358L51.9331 53.3194C51.5671 50.769 52.2506 48.1809 53.8338 46.1221C55.4171 44.0634 57.7708 42.702 60.3793 42.3364L66.5604 41.4783C68.603 41.1937 70.5242 40.3591 72.1089 39.0679C73.6937 37.7768 74.8795 36.0801 75.5335 34.1677L76.2183 38.8012C76.3966 40.07 76.3146 41.3608 75.9769 42.5983C75.6392 43.8358 75.0527 44.9952 74.2516 46.0088Z" fill="#EDE9E0"/>
</g>
<defs>
<clipPath id="clip0_557_4">
<rect width="77" height="140" fill="white" transform="translate(0.5)"/>
</clipPath>
</defs>
</svg>
