<svg width="119" height="140" viewBox="0 0 119 140" fill="none" xmlns="http://www.w3.org/2000/svg">
<g clip-path="url(#clip0_557_293)">
<path d="M116.999 71.4676L72.5981 5.18869C70.8619 2.59442 68.1604 0.790415 65.0865 0.172654C62.0127 -0.445108 58.8176 0.173854 56.2027 1.89368L11.0391 31.8328C8.4305 33.5603 6.61824 36.2452 5.99993 39.2982C5.38162 42.3513 6.00777 45.5234 7.741 48.1185L8.8086 49.7092L4.6335 52.474C2.34631 53.9929 0.757561 56.3495 0.214553 59.0287C-0.328455 61.7078 0.218449 64.4915 1.73571 66.7713L47.7572 135.398C49.289 137.668 51.6645 139.242 54.3628 139.774C57.0611 140.307 59.8618 139.755 62.1508 138.239L109.716 106.804C112.005 105.285 113.593 102.927 114.133 100.246C114.672 97.566 114.119 94.7824 112.595 92.5064L110.689 89.7416L113.682 87.848C114.974 86.9928 116.084 85.8931 116.948 84.6117C117.812 83.3303 118.414 81.8923 118.718 80.3799C119.023 78.8676 119.024 77.3104 118.723 75.7975C118.421 74.2845 117.823 72.8454 116.961 71.5623L116.999 71.4676ZM111.509 93.226C112.844 95.2179 113.329 97.6549 112.857 100.002C112.385 102.349 110.995 104.414 108.992 105.743L61.331 137.197C59.3242 138.519 56.8724 138.998 54.5112 138.529C52.15 138.061 50.0714 136.684 48.7295 134.698L2.82238 66.0706C1.48691 64.0787 1.00183 61.6417 1.47365 59.2949C1.94547 56.948 3.33563 54.883 5.33888 53.5534L9.53305 50.7886L56.1455 120.306C56.5663 120.928 57.1333 121.44 57.7976 121.796C58.4619 122.153 59.2035 122.343 59.9584 122.351C60.8716 122.349 61.765 122.086 62.5321 121.593L109.659 90.4423L111.509 93.226ZM43.258 28.4052C44.4199 27.5015 45.793 26.9044 47.2496 26.6693C48.7062 26.4342 50.199 26.5689 51.5891 27.0607C52.7747 27.543 53.8378 28.2806 54.7016 29.2205C55.5653 30.1604 56.2083 31.279 56.584 32.4956C56.6214 32.6816 56.7111 32.8532 56.8427 32.9906C56.9743 33.128 57.1424 33.2256 57.3275 33.272H57.5944C57.7476 33.2708 57.8987 33.2363 58.0371 33.1709C58.1754 33.1054 58.2976 33.0107 58.3951 32.8933C59.253 31.8896 62.3605 28.5946 65.7921 28.8597C66.9337 29.0537 68.0115 29.5181 68.9341 30.2136C69.8567 30.9092 70.5969 31.8154 71.092 32.8554L108.935 89.3819L61.8648 120.514C61.4974 120.759 61.0846 120.93 60.6504 121.016C60.2162 121.102 59.7691 121.102 59.3349 121.016C58.9007 120.93 58.488 120.759 58.1206 120.514C57.7532 120.268 57.4383 119.953 57.1941 119.586L10.6007 50.069L43.258 28.4052ZM112.996 86.6928L110.022 88.5865L71.7974 31.6624C71.1921 30.592 70.3451 29.6758 69.3229 28.9857C68.3007 28.2957 67.1312 27.8506 65.9065 27.6856C62.2271 27.4016 59.0052 30.4125 57.7279 31.7949C57.2443 30.4716 56.4849 29.2647 55.4993 28.2531C54.5137 27.2414 53.3242 26.4479 52.0085 25.9245C50.4649 25.3596 48.8035 25.1867 47.1755 25.4215C45.5474 25.6563 44.0042 26.2913 42.686 27.269L42.4763 27.4016L9.89528 48.9896L8.82767 47.3421C7.28127 45.0333 6.71991 42.2096 7.26673 39.4902C7.81354 36.7709 9.42389 34.378 11.7445 32.8365L56.9081 3.02989C58.6033 1.90882 60.5909 1.30335 62.6274 1.2877C63.3638 1.27491 64.0992 1.34479 64.8198 1.496C66.1779 1.75611 67.4698 2.28392 68.6191 3.04826C69.7684 3.8126 70.7519 4.79797 71.5114 5.94616L115.931 72.2251C117.464 74.5332 118.015 77.3496 117.465 80.06C116.915 82.7704 115.309 85.1547 112.996 86.6928Z" fill="#EDE9E0"/>
<path d="M57.0599 129.206C55.5718 128.943 54.2489 128.106 53.3805 126.877L10.5046 62.7567L9.41797 63.4573L52.3701 127.521C53.3957 129.045 54.9849 130.106 56.793 130.475C57.2526 130.556 57.718 130.6 58.1847 130.607C59.5445 130.599 60.8713 130.19 61.9976 129.433L105.541 100.668L104.854 99.5888L61.3113 128.373C60.6942 128.786 60.0003 129.072 59.2702 129.216C58.5402 129.359 57.7887 129.355 57.0599 129.206Z" fill="#EDE9E0"/>
<path d="M63.5615 8.67306C62.6138 8.48342 61.6377 8.48114 60.6891 8.66634C59.7404 8.85155 58.8378 9.22062 58.0329 9.75246L15.3477 37.9873L16.0721 39.0667L58.7573 10.8319C59.4159 10.3911 60.1565 10.0853 60.9356 9.93244C61.7148 9.77961 62.5168 9.7828 63.2946 9.94183C64.0703 10.0921 64.8076 10.3959 65.4627 10.8351C66.1177 11.2743 66.6771 11.8399 67.1075 12.4983L112.347 79.8945L113.415 79.1749L68.2323 11.7787C67.6981 10.9809 67.0105 10.2959 66.2089 9.76288C65.4074 9.22991 64.5077 8.85954 63.5615 8.67306Z" fill="#EDE9E0"/>
</g>
<defs>
<clipPath id="clip0_557_293">
<rect width="119" height="140" fill="white"/>
</clipPath>
</defs>
</svg>
