<svg width="130" height="100" viewBox="0 0 130 100" fill="none" xmlns="http://www.w3.org/2000/svg">
<g clip-path="url(#clip0_557_52)">
<path d="M90.7905 26.1663H89.9112C85.7939 26.4915 81.8478 27.9444 78.5113 30.3635C75.6429 32.4114 73.2969 35.0981 71.6609 38.2085C70.0249 41.3189 69.1444 44.7667 69.0898 48.2759V48.6659L69.4667 48.7908C72.8278 49.8594 76.3934 50.1338 79.88 49.5921C83.3666 49.0503 86.6778 47.7074 89.55 45.6701C92.8997 43.3014 95.529 40.0626 97.15 36.3083L97.4954 35.5126H96.6161C93.9682 35.7108 91.3062 35.4198 88.7649 34.6544C88.837 32.0003 89.4179 29.3843 90.4765 26.9465L90.7905 26.1663ZM87.6501 35.0445V35.4345L88.0269 35.5594C90.5594 36.3764 93.2176 36.7409 95.8781 36.636C93.6661 41.2655 89.8528 44.9504 85.134 47.0185C80.4151 49.0866 75.1053 49.3999 70.1733 47.9014C70.2772 44.623 71.1385 41.4122 72.6904 38.5173C74.2424 35.6223 76.4435 33.1208 79.1237 31.2061C82.0708 29.0917 85.5149 27.7647 89.1261 27.3522C88.1809 29.8096 87.6812 32.4139 87.6501 35.0445Z" fill="white"/>
<path d="M37.074 63.9725L36.7285 64.7839H37.6079C40.275 64.5345 42.9655 64.7887 45.5376 65.5328C45.4594 68.1862 44.8788 70.8011 43.826 73.2408L43.4805 74.0365H44.3599C49.9843 73.5955 55.2381 71.0754 59.084 66.9736C62.93 62.8717 65.0887 57.4862 65.1341 51.8802V51.4901L64.7573 51.3653C61.3945 50.2903 57.8251 50.0127 54.3349 50.5546C50.8447 51.0965 47.5307 52.4428 44.6582 54.4859C41.2945 56.8889 38.6688 60.1732 37.074 63.9725ZM45.2863 55.4221C47.9768 53.5026 51.0751 52.223 54.3421 51.6819C57.6092 51.1408 60.9576 51.3528 64.1292 52.3015C63.9554 57.4162 61.938 62.2986 58.4448 66.059C54.9515 69.8195 50.2148 72.2076 45.0979 72.7883C46.0428 70.3362 46.5426 67.7371 46.5739 65.1116V64.7215L46.1971 64.5967C43.9652 63.8776 41.6342 63.5091 39.288 63.5045H38.4087C39.9686 60.2494 42.3352 57.4414 45.2863 55.3441V55.4221Z" fill="white"/>
<path d="M68.525 52.0518L68.4151 52.4263C66.6754 57.7421 66.9998 63.5122 69.3243 68.6025C71.6488 73.6928 75.8054 77.7349 80.977 79.9345L81.7778 80.2778V79.404C81.5656 76.7726 81.8586 74.1251 82.6414 71.6024C85.3079 71.6952 87.9335 72.2826 90.3827 73.3344L91.1835 73.6777V72.8039C90.7629 67.2021 88.2415 61.9613 84.1183 58.1184C79.995 54.2755 74.5703 52.1105 68.9175 52.0518H68.525ZM86.0802 62.0066C88.2038 64.9388 89.5437 68.3586 89.9744 71.9457C87.5 71.0131 84.8794 70.5219 82.2331 70.4946H81.8406L81.7307 70.8535C80.8968 73.3673 80.5297 76.0108 80.6472 78.655C75.9745 76.4555 72.2562 72.656 70.1739 67.9533C68.0917 63.2506 67.785 57.9596 69.3101 53.0504C72.6081 53.1714 75.8344 54.0416 78.7414 55.5941C81.6484 57.1466 84.1589 59.3402 86.0802 62.0066Z" fill="white"/>
<path d="M43.8575 26.8997L43.041 26.5252V27.399C43.4658 32.995 45.99 38.2285 50.1136 42.063C54.2372 45.8976 59.6596 48.0536 65.307 48.1042H65.6996L65.8095 47.7298C66.8913 44.3882 67.1707 40.8414 66.6253 37.3733C66.08 33.9052 64.725 30.6122 62.669 27.7578C60.2837 24.4346 57.0243 21.8273 53.2476 20.2216L52.4467 19.8783V20.7521C52.6503 23.3833 52.3574 26.0292 51.5831 28.5536C48.927 28.4829 46.3073 27.922 43.8575 26.8997ZM52.3839 29.6458L52.4938 29.2713C53.3277 26.7575 53.6948 24.1141 53.5773 21.4698C56.8668 23.0119 59.7047 25.3646 61.8211 28.3039C63.756 30.9758 65.0458 34.0546 65.5904 37.3016C66.135 40.5486 65.9198 43.8766 64.9615 47.0276C61.6664 46.915 58.4408 46.0551 55.5314 44.5136C52.6221 42.9721 50.106 40.7899 48.1757 38.1339C46.059 35.2008 44.7296 31.7801 44.3129 28.1947C46.7811 29.13 49.3971 29.6213 52.0385 29.6458H52.3839Z" fill="white"/>
<path d="M129.702 16.2428C110.67 21.7507 92.7225 15.9307 73.6912 9.7519C56.0417 4.00998 37.7799 -1.91919 17.0527 0.592905L17.1784 1.65391C37.6857 -0.842577 55.8219 5.05538 73.3615 10.7505C87.1168 15.2286 100.322 19.5194 113.826 19.5194C119.299 19.54 124.746 18.7781 130 17.257L129.702 16.2428Z" fill="white"/>
<path d="M56.6542 90.2325C39.0047 84.4906 20.7428 78.5614 0 81.1359L0.125619 82.1969C20.6329 79.7004 38.7692 85.5984 56.3244 91.3091C70.0797 95.7716 83.2697 100.062 96.7738 100.062C102.251 100.083 107.704 99.3211 112.963 97.8L112.665 96.739C93.6333 102.247 75.6698 96.4113 56.6542 90.2325Z" fill="white"/>
</g>
<defs>
<clipPath id="clip0_557_52">
<rect width="130" height="100" fill="white"/>
</clipPath>
</defs>
</svg>
