<svg width="92" height="100" viewBox="0 0 92 100" fill="none" xmlns="http://www.w3.org/2000/svg">
<g clip-path="url(#clip0_557_549)">
<path d="M92 32.4966H90.8333C90.8377 37.5555 89.9496 42.577 88.2081 47.3382C84.6471 39.2498 78.7533 32.3614 71.2532 27.5221C63.7531 22.6828 54.9746 20.1042 46 20.1042C37.0254 20.1042 28.2469 22.6828 20.7468 27.5221C13.2467 32.3614 7.35289 39.2498 3.79188 47.3382C2.05045 42.577 1.16227 37.5555 1.16673 32.4966H5.97082e-06C0.00564729 38.0947 1.07636 43.6424 3.15704 48.8544C1.06794 54.0875 -0.00291777 59.6589 5.97082e-06 65.2796H1.16673C1.16227 60.2207 2.05045 55.1992 3.79188 50.438C7.35289 58.5263 13.2467 65.4148 20.7468 70.2541C28.2469 75.0934 37.0254 77.6719 46 77.6719C54.9746 77.6719 63.7531 75.0934 71.2532 70.2541C78.7533 65.4148 84.6471 58.5263 88.2081 50.438C89.9496 55.1992 90.8377 60.2207 90.8333 65.2796H92C92.0088 59.6599 90.9438 54.0885 88.8601 48.8544C90.9353 43.6414 92.0002 38.0936 92 32.4966ZM46 76.5161C37.0491 76.5007 28.3071 73.859 20.8964 68.9301C13.4856 64.0012 7.74434 57.0102 4.40955 48.8544C7.7399 40.6963 13.4822 33.7043 20.8964 28.7794C28.3106 23.8546 37.0571 21.2226 46.0086 21.2226C54.9601 21.2226 63.7065 23.8546 71.1208 28.7794C78.535 33.7043 84.2773 40.6963 87.6076 48.8544C84.2698 57.0115 78.5254 64.0031 71.1117 68.9319C63.698 73.8607 54.9533 76.5018 46 76.5161Z" fill="white"/>
<path d="M40.0808 1.36447C57.6676 -0.168546 74.6023 6.24992 83.2155 17.7223L84.1592 17.0316C75.3057 5.23914 57.9592 -1.34779 39.9607 0.235767C26.4404 1.68455 14.43 8.4231 7.82422 17.9244L8.80221 18.5646C15.2192 9.28226 26.9037 2.8638 40.0808 1.36447Z" fill="white"/>
<path d="M51.9373 98.6354C34.3162 100.168 17.3987 93.7668 8.78547 82.2776L7.8418 82.9683C15.8373 93.5984 30.7131 100 46.7556 100C48.4714 100 50.273 100 52.0574 99.781C65.5606 98.248 77.571 91.6274 84.1768 82.0755L83.2159 81.4353C76.7989 90.7176 65.0973 97.153 51.9373 98.6354Z" fill="white"/>
<path d="M45.9996 33.2378C42.6061 33.2378 39.2888 34.2258 36.4672 36.0769C33.6456 37.928 31.4465 40.5591 30.1479 43.6373C28.8492 46.7156 28.5094 50.1028 29.1715 53.3707C29.8335 56.6386 31.4676 59.6403 33.8672 61.9963C36.2668 64.3523 39.324 65.9568 42.6523 66.6068C45.9805 67.2568 49.4304 66.9232 52.5656 65.6482C55.7008 64.3731 58.3804 62.2139 60.2657 59.4435C62.1511 56.6731 63.1574 53.4161 63.1574 50.0842C63.1574 45.6162 61.3497 41.3313 58.132 38.172C54.9143 35.0127 50.5501 33.2378 45.9996 33.2378ZM45.9996 65.6165C42.8538 65.6165 39.7787 64.7006 37.1631 62.9846C34.5475 61.2687 32.5089 58.8297 31.305 55.9761C30.1012 53.1226 29.7862 49.9826 30.3999 46.9533C31.0136 43.924 32.5285 41.1414 34.7529 38.9573C36.9773 36.7733 39.8113 35.286 42.8966 34.6834C45.9819 34.0808 49.18 34.3901 52.0863 35.5721C54.9926 36.7541 57.4766 38.7557 59.2243 41.3238C60.972 43.892 61.9048 46.9113 61.9048 49.9999C61.9139 52.0572 61.5093 54.096 60.7142 55.9994C59.9191 57.9028 58.7493 59.6334 57.2717 61.092C55.794 62.5507 54.0377 63.7086 52.1034 64.4995C50.1691 65.2903 48.0949 65.6985 45.9996 65.7007V65.6165Z" fill="white"/>
</g>
<defs>
<clipPath id="clip0_557_549">
<rect width="92" height="100" fill="white"/>
</clipPath>
</defs>
</svg>
