<svg width="97" height="100" viewBox="0 0 97 100" fill="none" xmlns="http://www.w3.org/2000/svg">
<g clip-path="url(#clip0_557_310)">
<path d="M88.0814 76.6666C94.2308 67.9805 97.3614 57.5114 96.9918 46.8692C96.6222 36.2271 92.7729 26.0012 86.0359 17.7641C79.2988 9.52694 70.0471 3.73473 59.7033 1.27814C49.3595 -1.17845 38.4965 -0.163381 28.7848 4.16725C19.0731 8.49787 11.0505 15.9042 5.9506 25.2474C0.850714 34.5906 -1.044 45.3533 0.557826 55.8803C2.15965 66.4073 7.16931 76.1158 14.8164 83.5127C22.4635 90.9097 32.3247 95.5856 42.8834 96.8213C44.7898 97.0551 46.7089 97.1698 48.6296 97.1649C54.815 97.1952 60.9481 96.0284 66.6917 93.7285C68.5091 96.5761 71.3103 98.6532 74.5599 99.5629C77.8095 100.473 81.2798 100.151 84.3078 98.6598C87.5465 97.0355 90.0128 94.1944 91.1689 90.756C91.7568 89.0482 91.9989 87.2402 91.8811 85.4376C91.7633 83.6351 91.2879 81.8741 90.4828 80.2577C89.8816 78.9384 89.0706 77.7256 88.0814 76.6666ZM90.1055 90.2921C89.574 91.8559 88.7402 93.2995 87.6518 94.5404C86.5633 95.7814 85.2414 96.7954 83.7617 97.5246C82.2819 98.2538 80.6732 98.6838 79.0275 98.7901C77.3819 98.8965 75.7314 98.677 74.1704 98.1443C72.6112 97.6109 71.1717 96.7761 69.9336 95.6873C69.0932 94.9628 68.3648 94.1174 67.7723 93.1787C67.6521 93.0265 67.5431 92.8657 67.4464 92.6976C67.3417 92.5331 67.25 92.3608 67.172 92.1821L66.8975 91.7869V91.6666H67.0519H66.8804C66.7012 91.3052 66.5464 90.9321 66.4172 90.5498C65.5195 88.1317 65.4114 85.4905 66.1085 83.0068C67.0291 83.3292 67.9978 83.4919 68.973 83.4879C70.3483 83.4575 71.6981 83.1106 72.9182 82.4742C73.9709 81.9561 74.9103 81.2336 75.6818 80.3487C76.4533 79.4638 77.0415 78.4342 77.4123 77.3196C77.8308 76.1242 77.9831 74.8516 77.8582 73.591H78.2013C80.6366 73.601 83.0178 74.3107 85.0625 75.6357C85.4055 75.8763 85.7315 76.0996 86.0402 76.3574C86.0402 76.3574 86.0402 76.3574 86.0402 76.4605C86.2012 76.5711 86.3506 76.6977 86.4862 76.8385L86.9322 77.2337C87.0724 77.3685 87.2042 77.512 87.3267 77.6632C88.2109 78.569 88.941 79.6137 89.488 80.756C90.2133 82.2262 90.6413 83.8257 90.7473 85.4623C90.8533 87.0988 90.6351 88.7402 90.1055 90.2921ZM85.457 74.5532C83.1236 73.1071 80.4111 72.3949 77.6696 72.5086C77.5154 71.8483 77.2852 71.2083 76.9834 70.6013C76.4665 69.5402 75.7447 68.5921 74.8597 67.8121C73.9748 67.0321 72.9443 66.4354 71.8278 66.0568C70.7112 65.6781 69.5309 65.5249 68.3549 65.606C67.1789 65.6871 66.0306 66.0008 64.9764 66.5292C63.9169 67.0468 62.9705 67.77 62.1923 68.6568C61.414 69.5437 60.8194 70.5765 60.4428 71.6954C60.0662 72.8143 59.9152 73.997 59.9985 75.1748C60.0819 76.3526 60.3979 77.5022 60.9283 78.5567C61.8123 80.29 63.2577 81.6713 65.0278 82.4742C64.2172 85.131 64.2713 87.9773 65.1822 90.6013C60.3637 90.9084 55.5732 89.6656 51.5093 87.0541C47.4453 84.4427 44.3203 80.5992 42.5899 76.084C40.8596 71.5688 40.6143 66.6179 41.8898 61.9533C43.1653 57.2886 45.895 53.154 49.6809 50.1524C53.4667 47.1507 58.1108 45.4388 62.936 45.2664C67.7612 45.0939 72.5152 46.4699 76.505 49.1937C80.4948 51.9175 83.5116 55.8467 85.1158 60.4085C86.7199 64.9702 86.8275 69.926 85.4227 74.5532H85.457ZM72.4036 81.4261C71.494 81.8781 70.5032 82.1429 69.4898 82.2048C68.4763 82.2668 67.4607 82.1247 66.503 81.7869L65.9369 81.5635C65.7596 81.502 65.5921 81.4152 65.4395 81.3058C63.9488 80.5708 62.7427 79.3626 62.0089 77.8694C61.1702 76.0292 61.0779 73.9345 61.7516 72.0275C62.0775 71.0636 62.5909 70.1739 63.2622 69.4101C63.9335 68.6462 64.7493 68.0233 65.6625 67.5773C66.7283 67.0479 67.9035 66.7771 69.0931 66.7869C70.5397 66.784 71.9581 67.1884 73.1864 67.954C74.4147 68.7196 75.4035 69.8155 76.04 71.1168C76.2706 71.5903 76.4544 72.0852 76.5889 72.5945C76.5889 72.7835 76.5889 72.9897 76.709 73.1787C76.7258 73.3673 76.7258 73.557 76.709 73.7457C76.8692 75.3234 76.5423 76.9124 75.7724 78.2982C75.0024 79.6839 73.8266 80.7997 72.4036 81.4948V81.4261ZM86.692 75.3608L86.4862 75.2062C87.6738 71.4922 87.9335 67.543 87.2423 63.7051C86.5511 59.8672 84.9302 56.2579 82.5218 53.1938C80.1135 50.1297 76.9912 47.7044 73.429 46.1308C69.8668 44.5572 65.9735 43.8833 62.0906 44.1682C58.2078 44.4532 54.4541 45.6883 51.1589 47.7652C47.8637 49.8421 45.1277 52.6973 43.1909 56.0803C41.2541 59.4633 40.1756 63.2707 40.0502 67.1686C39.9249 71.0664 40.7563 74.9355 42.4717 78.4364C44.4438 82.436 47.4939 85.8028 51.2771 88.1561C55.0602 90.5094 59.4253 91.7552 63.8786 91.7525C64.4618 91.7525 65.045 91.7525 65.5939 91.7525C65.6269 91.836 65.6671 91.9165 65.714 91.9931C57.8565 94.266 49.4548 93.7341 41.9455 90.4883C34.4362 87.2425 28.2858 81.4843 24.546 74.1986C20.8062 66.9128 19.7093 58.5519 21.4428 50.5456C23.1763 42.5392 27.6326 35.3848 34.0497 30.3057C40.4667 25.2265 48.4459 22.5382 56.6229 22.7003C64.7999 22.8624 72.6666 25.8649 78.878 31.1944C85.0895 36.5238 89.2597 43.8493 90.6756 51.918C92.0915 59.9868 90.6652 68.2977 86.6406 75.4295L86.692 75.3608ZM43.0034 95.6701C33.7026 94.5794 24.9335 90.7502 17.8054 84.6668C10.6774 78.5834 5.51045 70.5191 2.95823 61.4939C0.406015 52.4687 0.583145 42.888 3.46722 33.9637C6.35129 25.0393 11.8127 17.1722 19.1608 11.3574C27.8012 4.53851 38.5423 0.946278 49.5392 1.19771C60.5361 1.44913 71.1024 5.52852 79.4231 12.7352C87.7439 19.9418 93.2998 29.8259 95.1364 40.6897C96.9731 51.5535 94.9759 62.7189 89.488 72.268C92.5453 65.0477 93.198 57.0326 91.3494 49.4115C89.5007 41.7903 85.2492 34.9689 79.2252 29.9589C73.2012 24.9489 65.7257 22.0172 57.9072 21.5985C50.0888 21.1798 42.3438 23.2965 35.8209 27.6346C29.2981 31.9727 24.3447 38.3011 21.6955 45.6815C19.0462 53.0618 18.8422 61.1009 21.1136 68.6066C23.385 76.1122 28.0109 82.6846 34.3053 87.3492C40.5996 92.0137 48.2272 94.5218 56.0568 94.5017C58.0926 94.5035 60.1245 94.3253 62.129 93.969C55.9378 95.8445 49.4276 96.4235 43.0034 95.6701Z" fill="#2A2A2A"/>
</g>
<defs>
<clipPath id="clip0_557_310">
<rect width="97" height="100" fill="white"/>
</clipPath>
</defs>
</svg>
