<svg width="90" height="100" viewBox="0 0 90 100" fill="none" xmlns="http://www.w3.org/2000/svg">
<g clip-path="url(#clip0_557_72)">
<path d="M87.122 33.6247C85.6164 30.7903 83.5658 28.2805 81.0876 26.2388C78.6094 24.1972 75.7523 22.664 72.68 21.727C69.6076 20.79 66.3804 20.4675 63.1831 20.7782C59.9859 21.0888 56.8813 22.0264 54.0474 23.5373L53.7949 23.6718L54.3504 24.6805L54.687 24.4956C60.0946 21.8324 66.3271 21.3737 72.067 23.2165C77.807 25.0593 82.6047 29.0592 85.4461 34.3708C88.2875 39.6823 88.9498 45.8893 87.2931 51.6797C85.6365 57.4701 81.7906 62.3902 76.5684 65.4001C76.2823 65.5682 75.9962 65.7027 75.6932 65.854L76.1981 66.8796L77.1071 66.4089C82.7666 63.3671 86.9943 58.2156 88.87 52.0757C90.7456 45.9357 90.1174 39.3043 87.122 33.6247Z" fill="#2A2A2A"/>
<path d="M72.8816 59.1794L72.2925 59.482L72.7806 60.5076L73.4202 60.1882C77.4089 58.0568 80.3865 54.4301 81.6981 50.1058C83.0096 45.7816 82.5477 41.114 80.4138 37.13C78.28 33.1459 74.6491 30.1718 70.3198 28.8617C65.9906 27.5517 61.3176 28.0131 57.3289 30.1444L57.127 30.2453L57.3626 30.7665L57.6824 31.2541L57.8676 31.1532C61.5884 29.1645 65.9477 28.7337 69.9866 29.9554C74.0254 31.1772 77.4129 33.9515 79.4039 37.668C81.3949 41.3845 81.8263 45.7388 80.6031 49.773C79.3799 53.8071 76.6024 57.1907 72.8816 59.1794Z" fill="#2A2A2A"/>
<path d="M60.4264 47.0746L68.0512 42.9892L66.3681 49.3443L67.479 49.6469L69.7008 41.4761L61.773 39.0215L61.4363 40.1143L67.5294 41.9973L59.9383 46.0659C52.7342 45.5111 48.6441 34.4822 44.7896 23.7895C40.5816 12.727 36.3905 1.3618 28.4964 0L28.3112 1.12643C30.6482 1.63281 32.7365 2.93428 34.2192 4.80834L33.0241 5.41358C21.5792 11.5982 12.9609 21.9506 8.96091 34.3187C4.96092 46.6868 5.88702 60.1189 11.5467 71.8225L0 77.9926L0.53862 79.0014L12.0684 72.848L12.3883 73.4869C15.5038 79.3075 19.744 84.4531 24.8636 88.626C29.9832 92.7989 35.8806 95.9162 42.2143 97.7976C47.0125 99.2469 51.9968 99.9889 57.0095 100C65.2323 100.012 73.3294 97.9838 80.5742 94.0989L80.9949 93.8635C81.118 95.3203 80.8871 96.7853 80.3217 98.1338L81.3652 98.5878C84.597 91.2744 77.4603 81.4896 70.5592 72.0074C63.8096 62.811 56.8749 53.2952 60.4264 47.0746ZM9.77931 35.5414C11.6179 29.3575 14.6668 23.5995 18.7494 18.6011C22.8319 13.6026 27.867 9.4631 33.5627 6.42233L34.943 5.71621C38.4272 10.1883 41.0361 17.2327 43.5777 24.2098C47.55 34.9529 51.3204 45.1412 58.2383 46.957L12.5566 71.2845C7.12811 60.1525 6.13542 47.3766 9.77931 35.5414ZM80.6751 92.7034L79.985 93.0901C68.4742 99.1488 55.0366 100.432 42.585 96.6619C30.1333 92.8917 19.6709 84.3718 13.4655 72.9489L13.0784 72.2932L58.7769 47.8816C56.4372 54.6066 62.8334 63.4163 69.5829 72.6799C74.7335 79.7411 79.985 86.9704 80.8435 92.9892L80.6751 92.7034Z" fill="#2A2A2A"/>
</g>
<defs>
<clipPath id="clip0_557_72">
<rect width="90" height="100" fill="white"/>
</clipPath>
</defs>
</svg>
