<svg width="100" height="100" viewBox="0 0 100 100" fill="none" xmlns="http://www.w3.org/2000/svg">
<g clip-path="url(#clip0_557_806)">
<path d="M55.2872 59.2241C51.2268 61.0066 46.8406 61.927 42.4062 61.927C37.9717 61.927 33.5855 61.0066 29.5251 59.2241L29.1387 60.1115C33.3244 61.9547 37.8483 62.9054 42.4219 62.903C46.9956 62.9007 51.5185 61.9453 55.7023 60.0978C59.8862 58.2502 63.6391 55.5512 66.7219 52.1726C69.8046 48.7941 72.1495 44.8102 73.607 40.475L72.691 40.1602C71.2712 44.3713 68.9908 48.2409 65.9945 51.5229C62.9983 54.805 59.3519 57.4276 55.2872 59.2241Z" fill="#2A2A2A"/>
<path d="M43.7096 55.6317L44.1962 54.7873C42.005 53.5555 40.3313 51.5749 39.4822 49.209C38.6331 46.843 38.6654 44.2502 39.5733 41.9062C40.5237 39.4349 42.3769 37.4166 44.7584 36.2593C47.1398 35.102 49.8718 34.8921 52.4021 35.6719C54.9325 36.4517 57.0723 38.1631 58.3892 40.4602C59.706 42.7572 60.1016 45.4686 59.496 48.0462L60.4406 48.2609C61.0127 45.8679 60.7813 43.3531 59.7823 41.1047C59.2447 39.6337 58.4112 38.2887 57.3331 37.1527C56.2551 36.0168 54.9554 35.114 53.5146 34.5004C52.0737 33.8867 50.5223 33.5751 48.9562 33.5849C47.3901 33.5948 45.8427 33.9257 44.4097 34.5574C42.9767 35.1891 41.6884 36.108 40.6247 37.2574C39.5609 38.4068 38.7443 39.7622 38.2253 41.2398C37.7062 42.7174 37.4958 44.2857 37.607 45.8479C37.7183 47.41 38.1488 48.9327 38.872 50.3218C39.8582 52.5746 41.5581 54.4405 43.7096 55.6317Z" fill="#2A2A2A"/>
<path d="M97.4806 61.9721C99.706 53.4031 99.5028 44.3839 96.8938 35.9238C97.9618 35.0497 98.7107 33.8469 99.0239 32.5028C99.337 31.1588 99.1968 29.7488 98.6251 28.4927C98.0534 27.2366 97.0823 26.2049 95.8631 25.5583C94.6439 24.9116 93.2451 24.6864 91.8845 24.9176C87.347 17.4982 80.849 11.4756 73.1068 7.51386C73.3447 6.38279 73.2646 5.20791 72.8752 4.11962C72.4859 3.03134 71.8026 2.07223 70.9012 1.34874C69.9998 0.625259 68.9156 0.165701 67.7688 0.02108C66.6221 -0.123542 65.4577 0.0524305 64.4049 0.529464C63.1649 1.11254 62.1567 2.09546 61.5425 3.32036C53.3499 1.49703 44.82 1.88228 36.8251 4.43672C36.3026 3.33982 35.4718 2.41887 34.4344 1.78641C33.3969 1.15394 32.1977 0.837344 30.9833 0.875294C29.7689 0.913245 28.5918 1.3041 27.5959 2.00011C26.6 2.69612 25.8283 3.66714 25.3753 4.79453C24.7781 6.34394 24.8141 8.06603 25.4755 9.58915L25.5613 9.73227C18.6291 14.1113 12.9489 20.2107 9.07359 27.4366C8.91588 27.3468 8.75344 27.2655 8.58697 27.1933C7.04016 26.5935 5.31845 26.6328 3.8006 27.3025C2.28276 27.9722 1.09311 29.2174 0.493365 30.7642C-0.10638 32.311 -0.0670932 34.0327 0.602584 35.5505C1.27226 37.0684 2.51747 38.258 4.06428 38.8578C4.29091 38.9509 4.52569 39.0227 4.76558 39.0725C2.85613 46.9425 2.98914 55.1698 5.15202 62.974C4.95164 62.974 4.75127 63.1171 4.53659 63.2173C3.23021 63.8009 2.16341 64.8147 1.51412 66.0897C0.864825 67.3646 0.672303 68.8237 0.968662 70.2234C1.26502 71.6232 2.03235 72.879 3.14264 73.7815C4.25294 74.6839 5.63909 75.1784 7.06986 75.1824C7.93694 75.1804 8.79434 75.0001 9.58883 74.6528L10.0182 74.4238C14.1811 81.4665 20.0985 87.3099 27.1929 91.3839V91.4841C26.5987 93.0294 26.64 94.747 27.3077 96.262C27.9753 97.7771 29.2152 98.9664 30.7567 99.5705C31.4826 99.8518 32.2539 99.9974 33.0324 99.9999C34.2562 99.9945 35.4514 99.6294 36.4694 98.9499C37.4873 98.2705 38.2829 97.3067 38.7573 96.1785C46.8879 98.3823 55.4585 98.3823 63.5891 96.1785C64.1487 97.0879 64.9317 97.839 65.8637 98.3601C66.7957 98.8812 67.8455 99.155 68.9133 99.1555C69.7813 99.1485 70.6387 98.9634 71.4323 98.6116C72.5428 98.1236 73.4866 97.3218 74.1477 96.3048C74.8088 95.2877 75.1583 94.0997 75.1534 92.8867C75.1537 92.4045 75.096 91.924 74.9817 91.4555C82.5686 87.1513 88.8154 80.8303 93.0295 73.193H93.7594C95.0734 73.194 96.3542 72.7812 97.4203 72.0131C98.4864 71.245 99.2834 70.1607 99.6985 68.9141C100.113 67.6674 100.125 66.3217 99.7324 65.0679C99.3394 63.8141 98.5616 62.716 97.5092 61.9292L97.4806 61.9721ZM98.6542 68.8993C98.2602 69.9279 97.5512 70.8057 96.6284 71.4072C95.7056 72.0087 94.6163 72.3031 93.5161 72.2484C93.1722 72.251 92.8298 72.2027 92.4999 72.1052C92.2728 72.0669 92.0515 71.9996 91.8416 71.9049C91.1739 71.6707 90.56 71.3047 90.0365 70.8287C89.513 70.3527 89.0904 69.7763 88.794 69.1338C88.4976 68.4913 88.3333 67.7957 88.3109 67.0885C88.2884 66.3813 88.4084 65.6768 88.6636 65.0168C88.9187 64.3568 89.3039 63.7548 89.7962 63.2466C90.2886 62.7384 90.878 62.3343 91.5296 62.0583C92.1811 61.7823 92.8815 61.6401 93.5891 61.64C94.2967 61.64 94.9971 61.7821 95.6487 62.058C95.9063 62.1582 96.1353 62.2727 96.3643 62.3872C96.6647 62.5582 96.9435 62.7648 97.1944 63.0026C98.0203 63.7119 98.6047 64.6609 98.8663 65.7177C99.128 66.7745 99.0538 67.8866 98.6542 68.8993ZM92.9293 25.762C93.9868 25.7568 95.0215 26.0701 95.8985 26.6611C96.7755 27.252 97.4543 28.0933 97.8465 29.0755C98.2388 30.0576 98.3263 31.135 98.0976 32.1676C97.869 33.2001 97.3348 34.1399 96.5646 34.8647C96.3182 35.1015 96.0443 35.3082 95.7488 35.4801C95.5309 35.6235 95.301 35.748 95.0618 35.8522C94.1068 36.2695 93.0496 36.395 92.0234 36.2127C90.9972 36.0304 90.0479 35.5485 89.2951 34.8278C88.5422 34.107 88.0194 33.1796 87.7925 32.1624C87.5657 31.1451 87.6449 30.0835 88.0202 29.1111C88.285 28.4688 88.6742 27.8852 89.1654 27.3939C89.6567 26.9026 90.2403 26.5134 90.8827 26.2487C91.082 26.1575 91.2877 26.081 91.4981 26.0197C91.8305 25.9241 92.1704 25.8571 92.5143 25.8193L92.9293 25.762ZM62.0577 4.2936C62.1604 4.0146 62.2898 3.74618 62.4441 3.49211C62.9237 2.72103 63.5921 2.08504 64.386 1.64426C65.1799 1.20348 66.0731 0.972496 66.9811 0.973145C67.6387 0.968984 68.2906 1.09547 68.899 1.34526C69.8926 1.72826 70.7463 2.4042 71.347 3.28348C71.9476 4.16276 72.2669 5.20384 72.2624 6.26869C72.2832 6.53545 72.2832 6.80342 72.2624 7.07018C72.2119 7.39831 72.1255 7.71989 72.0047 8.02911C72.0171 8.07116 72.0171 8.11586 72.0047 8.15792C71.7486 8.81387 71.3633 9.41164 70.8715 9.91568C70.3798 10.4197 69.7917 10.8197 69.1423 11.0919C68.5093 11.3748 67.8261 11.5282 67.1329 11.5429C66.4398 11.5577 65.7507 11.4335 65.1062 11.1778C63.8174 10.6804 62.7757 9.69652 62.2054 8.43826C61.6352 7.17999 61.5821 5.74805 62.0577 4.45103V4.2936ZM26.277 9.13115C25.9941 8.49817 25.8407 7.81497 25.826 7.1218C25.8112 6.42863 25.9354 5.73953 26.1911 5.09509C26.4449 4.4577 26.8221 3.87671 27.301 3.38549C27.78 2.89427 28.3512 2.50248 28.982 2.23263C30.2234 1.71273 31.6159 1.68366 32.878 2.15127C34.14 2.61889 35.1774 3.54831 35.7803 4.75159L35.8662 4.92334C35.967 5.16113 36.053 5.4049 36.1238 5.65326C36.4092 6.83885 36.2755 8.08666 35.7454 9.18488C35.2154 10.2831 34.3216 11.164 33.2158 11.6782C32.11 12.1923 30.8604 12.3079 29.6791 12.0054C28.4978 11.7028 27.4575 11.0008 26.735 10.0185C26.5524 9.75686 26.3943 9.47898 26.2626 9.1884L26.277 9.13115ZM1.34495 31.1005C1.72794 30.1069 2.40388 29.2532 3.28316 28.6525C4.16244 28.0518 5.20352 27.7326 6.26838 27.7371C6.91502 27.7365 7.55598 27.8579 8.1576 28.0949C8.3224 28.149 8.48078 28.221 8.6299 28.3096C8.91966 28.4457 9.19329 28.6137 9.4457 28.8106C10.3299 29.4761 10.9819 30.4033 11.3092 31.4605C11.6366 32.5176 11.6226 33.651 11.2693 34.6998C10.9161 35.7486 10.2414 36.6594 9.34112 37.303C8.44086 37.9466 7.36072 38.2903 6.25406 38.2853H5.86763C5.54321 38.2679 5.22167 38.2151 4.90871 38.1279C4.69665 38.0845 4.49019 38.0173 4.29328 37.9275C3.65387 37.6772 3.07113 37.3012 2.57948 36.8219C2.08783 36.3425 1.69725 35.7695 1.43082 35.1366C1.14792 34.5036 0.994583 33.8204 0.979835 33.1272C0.965086 32.4341 1.08923 31.745 1.34495 31.1005ZM2.218 71.0461C1.65539 69.7649 1.62426 68.3128 2.13143 67.0086C2.63861 65.7044 3.64263 64.6549 4.92302 64.0904L5.42395 63.9043C5.73548 63.8004 6.05677 63.7284 6.38287 63.6896H7.04124C7.89768 63.6861 8.74205 63.8916 9.50117 64.2881C10.2603 64.6847 10.9113 65.2603 11.3977 65.9653C11.8841 66.6702 12.1912 67.4831 12.2925 68.3336C12.3938 69.184 12.2862 70.0463 11.979 70.8458C11.6439 71.6906 11.0908 72.4314 10.376 72.9926C10.1262 73.1982 9.85786 73.3803 9.57452 73.5365L9.18808 73.7225C7.90835 74.2875 6.45705 74.3232 5.15112 73.8217C3.84519 73.3202 2.79072 72.3224 2.218 71.0461ZM37.9987 95.649C37.9706 95.7459 37.9271 95.8377 37.8699 95.9209C37.3136 97.1492 36.3074 98.1173 35.0587 98.6259C33.8099 99.1345 32.4136 99.1447 31.1575 98.6545C29.8625 98.1488 28.8192 97.1529 28.2539 95.8829C27.6885 94.6129 27.6467 93.1712 28.1376 91.8705C28.241 91.5732 28.3804 91.2896 28.5526 91.0261C29.0238 90.2527 29.686 89.6135 30.4755 89.1699C31.265 88.7263 32.1554 88.4931 33.061 88.4928C33.7123 88.4924 34.3579 88.6137 34.9645 88.8506C35.9597 89.2373 36.8147 89.9157 37.4174 90.7968C38.0202 91.678 38.3426 92.7208 38.3422 93.7884C38.3473 94.204 38.2943 94.6183 38.1848 95.0192C38.1242 95.2365 38.0427 95.4474 37.9415 95.649H37.9987ZM73.894 94.8475C73.5471 95.7407 72.9638 96.5227 72.2065 97.1098C71.4492 97.6969 70.5465 98.0668 69.595 98.1801C68.6435 98.2933 67.6791 98.1455 66.8052 97.7526C65.9313 97.3597 65.1807 96.7364 64.6339 95.9495C64.4518 95.67 64.2892 95.3783 64.1473 95.0765C63.5847 93.7952 63.5536 92.3431 64.0607 91.0389C64.5679 89.7348 65.5719 88.6852 66.8523 88.1207C68.1335 87.5581 69.5857 87.527 70.8898 88.0341C72.194 88.5413 73.2436 89.5453 73.8081 90.8257C73.8432 90.8995 73.8719 90.9761 73.894 91.0547C74.0174 91.3592 74.1086 91.6758 74.1659 91.9993C74.3271 92.9608 74.2129 93.9482 73.8367 94.8475H73.894ZM74.7527 90.5538C74.7644 90.502 74.7644 90.4482 74.7527 90.3964C74.2513 89.2699 73.4281 88.3168 72.3866 87.6568C71.3451 86.9969 70.1318 86.6594 68.8991 86.687C67.6665 86.7145 66.4694 87.1057 65.4584 87.8116C64.4474 88.5174 63.6676 89.5063 63.217 90.654C62.6022 92.1535 62.6022 93.8346 63.217 95.3341C55.327 97.4038 47.033 97.3742 39.158 95.2482C39.5194 93.7922 39.3467 92.2549 38.6712 90.9154C37.9958 89.5759 36.8623 88.523 35.4767 87.948C34.0911 87.373 32.5452 87.3139 31.1198 87.7816C29.6944 88.2492 28.4839 89.2125 27.7082 90.4965C20.751 86.5071 14.9469 80.7819 10.8626 73.88C11.7658 73.1816 12.4631 72.2518 12.8807 71.1893C13.2732 70.1659 13.3905 69.0576 13.221 67.9748C13.0515 66.892 12.6011 65.8725 11.9147 65.0181C11.2282 64.1637 10.3298 63.5042 9.30892 63.1053C8.28806 62.7065 7.18048 62.5822 6.09663 62.745C3.9296 55.0816 3.76207 46.9908 5.61001 39.2442H6.23975C7.10829 39.2419 7.96658 39.0566 8.75871 38.7004C9.5132 38.3769 10.1948 37.9048 10.7628 37.3122C11.3309 36.7196 11.7737 36.0186 12.0649 35.2511C12.5711 33.9619 12.632 32.5406 12.2378 31.2129C11.8436 29.8852 11.017 28.7273 9.88939 27.9232C13.6528 20.8593 19.1737 14.8849 25.9192 10.5767C26.6114 11.6262 27.6112 12.436 28.7816 12.8953C29.5098 13.1666 30.2802 13.3071 31.0573 13.3103C31.92 13.3113 32.7734 13.1309 33.5619 12.7808C34.9405 12.1695 36.0533 11.0828 36.6971 9.7191C37.3409 8.35536 37.4727 6.80557 37.0684 5.35271C41.6222 3.90252 46.3726 3.1639 51.1517 3.16293C54.4886 3.18677 57.8135 3.56579 61.0701 4.2936C60.5465 5.82114 60.6339 7.49202 61.3142 8.95656C61.9944 10.4211 63.2148 11.5658 64.7198 12.151C65.4383 12.4406 66.2065 12.5865 66.9811 12.5804C67.8487 12.583 68.707 12.4025 69.5001 12.0509C70.2543 11.7205 70.9359 11.2445 71.5057 10.6501C72.0755 10.0558 72.5223 9.35475 72.8205 8.58729C80.2372 12.3763 86.4888 18.1037 90.9113 25.1609L90.4103 25.347C89.6585 25.6776 88.9794 26.1533 88.4118 26.747C87.8443 27.3406 87.3995 28.0404 87.103 28.8063C86.8065 29.5722 86.6641 30.3891 86.6839 31.2101C86.7038 32.0312 86.8855 32.8402 87.2187 33.5909C87.5463 34.3428 88.0198 35.0222 88.6119 35.5897C89.204 36.1572 89.9029 36.6016 90.668 36.897C91.391 37.1898 92.1636 37.3404 92.9436 37.3407C93.812 37.3366 94.6699 37.1514 95.4626 36.7968C95.6638 36.708 95.8597 36.6076 96.0494 36.4963C98.4938 44.6018 98.6917 53.219 96.6219 61.4283C96.4222 61.3256 96.2168 61.2348 96.0065 61.1563C94.4611 60.5621 92.7435 60.6034 91.2285 61.2711C89.7135 61.9387 88.5241 63.1786 87.92 64.7201C87.6319 65.439 87.486 66.207 87.4906 66.9814C87.4899 68.2421 87.8711 69.4734 88.5839 70.5132C89.2967 71.5531 90.3077 72.3526 91.4838 72.8065L91.999 72.9926C87.9212 80.304 81.9424 86.3768 74.6954 90.5681L74.7527 90.5538Z" fill="#2A2A2A"/>
</g>
<defs>
<clipPath id="clip0_557_806">
<rect width="100" height="100" fill="white"/>
</clipPath>
</defs>
</svg>
