<svg width="232" height="232" viewBox="0 0 232 232" fill="none" xmlns="http://www.w3.org/2000/svg">
<path d="M116.966 230.017C179.928 230.017 230.97 178.758 230.97 115.526C230.97 52.2944 179.928 1.03508 116.966 1.03508C54.0032 1.03508 2.96191 52.2944 2.96191 115.526C2.96191 178.758 54.0032 230.017 116.966 230.017Z" fill="#EDE9E0"/>
<path d="M40.9253 69.8677L30.2178 62.3922L39.2075 60.782L37.547 51.7539L48.2545 59.2294L46.594 61.6446L41.3834 58.0218L42.2423 62.9672L37.318 63.8298L42.5286 67.4525L40.9253 69.8677Z" fill="#2A2A2A"/>
<path d="M56.7295 47.9011C56.7295 49.7412 56.0997 51.2938 54.7827 52.6164C53.523 53.8815 51.9197 54.5716 50.0874 54.5716C48.2551 54.5716 46.7091 53.939 45.3921 52.6164C44.1324 51.3513 43.4453 49.7412 43.4453 47.9011C43.4453 46.0609 44.0752 44.5083 45.3921 43.1857C46.6518 41.9206 48.2551 41.2306 50.0874 41.2306C51.9197 41.2306 53.4657 41.8631 54.7827 43.1857C56.0997 44.4508 56.7295 46.0609 56.7295 47.9011ZM50.2019 51.6388C51.2326 51.6388 52.0915 51.2938 52.8359 50.5463C53.5803 49.7987 53.9238 48.9361 53.9238 47.9011C53.9238 46.866 53.523 46.0034 52.7786 45.2559C52.0343 44.5083 51.1754 44.1058 50.1447 44.1058C49.114 44.1058 48.2551 44.4508 47.5107 45.1984C46.7664 45.9459 46.4228 46.8085 46.4228 47.8436C46.4228 48.8786 46.8236 49.7412 47.568 50.4888C48.2551 51.2363 49.1713 51.6388 50.2019 51.6388Z" fill="#2A2A2A"/>
<path d="M59.5919 47.6136L56.958 33.2375L69.8414 40.023L67.3792 41.8631L60.7371 38.3554L62.1114 45.7734L59.5919 47.6136Z" fill="#2A2A2A"/>
<path d="M79.1749 33.0075C78.6596 34.7326 77.5717 36.0552 75.9684 36.9178C74.3651 37.7803 72.7046 37.9528 70.9295 37.3778C69.2118 36.8603 67.8948 35.7677 67.0359 34.1576C66.177 32.5474 66.0052 30.8798 66.5778 29.0972C67.0932 27.3721 68.1811 26.0495 69.7844 25.1869C71.3876 24.3243 73.0481 24.1518 74.8232 24.7269C76.541 25.2444 77.858 26.337 78.7168 27.9471C79.5185 29.5572 79.6903 31.2823 79.1749 33.0075ZM71.7884 34.6751C72.7618 35.0201 73.678 34.9051 74.5942 34.4451C75.5103 33.985 76.1402 33.2375 76.3692 32.2024C76.6555 31.2248 76.541 30.2473 76.0256 29.3272C75.5103 28.4071 74.8232 27.7746 73.8498 27.4296C72.8764 27.0845 71.9602 27.1995 70.9868 27.6596C70.0707 28.1196 69.4408 28.8672 69.2118 29.8447C68.9255 30.8223 69.04 31.7999 69.5553 32.72C70.0707 33.6975 70.815 34.3301 71.7884 34.6751Z" fill="#2A2A2A"/>
<path d="M83.5264 35.8252L81.8086 30.5923L83.2401 30.1323L84.9006 18.6889L93.0315 26.797L94.463 26.337L96.1807 31.5699L93.5468 32.4324L92.6879 29.8447L85.3014 32.3174L86.1603 34.9051L83.5264 35.8252ZM90.1112 27.8321L86.7329 24.3818L86.1031 29.2122L90.1112 27.8321Z" fill="#2A2A2A"/>
<path d="M97.4408 28.6947L95.1504 15.9287L103.052 14.4911L103.568 17.3088L98.5287 18.2289L98.9295 20.414L102.88 19.724L103.396 22.4842L99.4449 23.1742L99.8457 25.3019L104.885 24.3818L105.4 27.1995L97.4408 28.6947Z" fill="#2A2A2A"/>
<path d="M106.545 26.682L111.527 20.2415L107.06 13.686H110.381L114.79 20.184V13.686H117.711V20.184L122.12 13.686H125.441L121.032 20.2415L126.07 26.6245H122.463L117.711 20.529V26.6245H114.79V20.529L110.095 26.6245L106.545 26.682Z" fill="#2A2A2A"/>
<path d="M132.139 19.494L134.029 19.839C135.288 20.069 136.262 20.6441 136.949 21.5641C137.636 22.4842 137.865 23.5768 137.693 24.7844C137.464 25.9919 136.892 26.912 135.918 27.5446C134.945 28.1771 133.857 28.4071 132.597 28.1771L127.845 27.3145L130.078 14.5486L132.941 15.0661L132.139 19.494ZM131.166 25.1294L132.998 25.4744C133.456 25.5319 133.914 25.4744 134.258 25.3019C134.601 25.1294 134.83 24.7844 134.888 24.3243C134.945 23.8643 134.888 23.4618 134.659 23.1742C134.43 22.8867 134.029 22.6567 133.571 22.5992L131.738 22.2542L131.166 25.1294Z" fill="#2A2A2A"/>
<path d="M99.9023 214.491L101.277 201.438L107.003 208.568L114.045 202.76L112.671 215.814L109.751 215.526L110.381 209.201L106.487 212.363L103.338 208.453L102.708 214.778L99.9023 214.491Z" fill="#2A2A2A"/>
<path d="M127.158 213.398C125.956 214.778 124.41 215.526 122.635 215.641C120.802 215.756 119.256 215.181 117.882 213.973C116.508 212.766 115.764 211.213 115.649 209.431C115.535 207.59 116.107 205.98 117.31 204.658C118.512 203.278 120.058 202.53 121.833 202.415C123.665 202.3 125.269 202.875 126.586 204.083C127.96 205.29 128.704 206.843 128.819 208.626C128.933 210.466 128.418 212.018 127.158 213.398ZM119.772 211.903C120.516 212.593 121.432 212.938 122.463 212.881C123.494 212.823 124.353 212.421 124.982 211.616C125.612 210.811 125.956 209.891 125.899 208.856C125.841 207.82 125.441 206.9 124.696 206.21C123.952 205.52 123.036 205.175 122.005 205.233C120.974 205.29 120.115 205.693 119.486 206.498C118.856 207.303 118.512 208.223 118.569 209.258C118.627 210.293 119.027 211.156 119.772 211.903Z" fill="#2A2A2A"/>
<path d="M132.827 214.433L130.25 201.725L134.43 200.862C135.632 200.632 136.778 200.805 137.751 201.495C138.724 202.185 139.354 203.105 139.641 204.313C139.87 205.52 139.698 206.613 139.011 207.648C138.324 208.626 137.407 209.258 136.205 209.546L134.888 209.833L135.69 213.916L132.827 214.433ZM134.315 207.073L135.575 206.785C136.033 206.67 136.377 206.44 136.606 206.038C136.835 205.635 136.949 205.233 136.835 204.773C136.72 204.313 136.491 203.968 136.148 203.738C135.747 203.45 135.346 203.393 134.888 203.508L133.628 203.795L134.315 207.073Z" fill="#2A2A2A"/>
<path d="M143.477 215.009L141.702 209.776L143.134 209.316L144.737 197.872L152.925 205.98L154.357 205.52L156.132 210.753L153.555 211.616L152.696 209.028L145.31 211.558L146.168 214.146L143.477 215.009ZM150.062 206.958L146.684 203.508L146.111 208.338L150.062 206.958Z" fill="#2A2A2A"/>
<path d="M166.323 200.575C165.75 202.3 164.662 203.623 163.059 204.485C161.456 205.348 159.795 205.463 158.02 204.888C156.303 204.313 154.986 203.22 154.127 201.61C153.268 200 153.153 198.275 153.726 196.55C154.298 194.825 155.386 193.502 156.99 192.639C158.593 191.777 160.311 191.662 162.029 192.237C163.746 192.812 165.063 193.904 165.922 195.515C166.724 197.125 166.896 198.792 166.323 200.575ZM158.937 202.185C159.91 202.53 160.826 202.473 161.8 201.955C162.716 201.495 163.346 200.747 163.632 199.77C163.918 198.792 163.804 197.815 163.346 196.895C162.887 195.975 162.143 195.342 161.17 194.997C160.196 194.652 159.28 194.71 158.307 195.227C157.391 195.687 156.761 196.435 156.474 197.412C156.188 198.39 156.303 199.367 156.761 200.287C157.276 201.207 157.963 201.84 158.937 202.185Z" fill="#2A2A2A"/>
<path d="M171.821 199.252L164.263 188.729L168.214 185.854C169.072 185.221 170.046 184.991 171.077 185.164C172.107 185.336 172.966 185.854 173.596 186.716C174.111 187.406 174.283 188.212 174.169 189.074C174.798 189.017 175.371 189.074 175.944 189.304C176.516 189.534 176.974 189.937 177.375 190.454C178.005 191.317 178.234 192.294 178.062 193.329C177.89 194.364 177.375 195.227 176.459 195.86L171.821 199.252ZM169.702 191.259L171.019 190.282C171.306 190.052 171.535 189.764 171.592 189.419C171.649 189.074 171.592 188.729 171.363 188.442C171.134 188.154 170.848 187.981 170.504 187.924C170.16 187.866 169.817 187.981 169.531 188.212L168.214 189.189L169.702 191.259ZM172.623 195.342L174.684 193.847C175.027 193.617 175.199 193.329 175.257 192.984C175.314 192.639 175.257 192.294 175.027 192.007C174.798 191.719 174.512 191.547 174.169 191.489C173.825 191.432 173.481 191.547 173.195 191.777L171.134 193.272L172.623 195.342Z" fill="#2A2A2A"/>
<path d="M182.47 191.489L173.423 182.059L175.541 180.046L180.237 184.934L181.325 174.296L190.372 183.726L188.253 185.739L183.558 180.851L182.47 191.489Z" fill="#2A2A2A"/>
<path d="M193.235 180.563L182.871 172.57L184.646 170.27L190.029 174.411L189.513 163.715L199.877 171.708L198.102 174.008L192.72 169.868L193.235 180.563Z" fill="#2A2A2A"/>
<path d="M69.1531 187.579L67.0345 188.729L66.1183 196.32L65.2594 195.745L66.0611 189.247L60.2206 192.352L59.4189 191.834L68.2942 187.061L69.1531 187.579Z" fill="#2A2A2A"/>
<path d="M56.8427 177.746L51.5175 183.726L55.1249 187.004L60.5073 181.023L61.1944 181.656L55.2394 188.326L50.2578 183.841L56.2128 177.171L56.8427 177.746Z" fill="#2A2A2A"/>
<path d="M52.376 173.203L45.6194 179.011L43.9588 177.113C43.329 176.423 43.0427 175.676 43.0999 174.985C43.0999 174.238 43.4435 173.663 44.0161 173.145C44.6459 172.628 45.2758 172.398 46.0202 172.513C46.7645 172.628 47.3944 173.03 48.0243 173.72L49.0549 174.928L51.8034 172.57L52.376 173.203ZM48.3678 175.446L47.3371 174.238C46.8791 173.72 46.4782 173.433 45.9629 173.375C45.5048 173.318 45.0468 173.49 44.6459 173.835C44.2451 174.18 44.0161 174.64 44.0161 175.101C44.0161 175.561 44.1879 176.078 44.6459 176.596L45.6766 177.803L48.3678 175.446Z" fill="#2A2A2A"/>
<path d="M47.3379 167.165L37.4893 168.66L42.5281 160.034L43.1007 160.839L41.6692 163.255L44.0741 166.762L46.8226 166.302L47.3379 167.165ZM43.1007 166.935L41.1539 164.06L39.0925 167.51L43.1007 166.935Z" fill="#2A2A2A"/>
<path d="M40.5231 156.412L32.564 160.437L31.2471 157.849C30.9035 157.102 30.789 156.469 30.9608 155.837C31.1325 155.262 31.5334 154.801 32.1059 154.456C32.8503 154.054 33.5947 154.111 34.2818 154.514C34.11 153.364 34.5109 152.559 35.5415 152.041C36.2286 151.696 36.9158 151.639 37.5456 151.926C38.1755 152.214 38.6908 152.789 39.0916 153.594L40.5231 156.412ZM35.656 157.849L34.7399 156.067C34.5108 155.607 34.2246 155.319 33.8237 155.204C33.4229 155.089 33.0221 155.089 32.6213 155.319C32.2205 155.492 31.9914 155.837 31.8196 156.239C31.7051 156.642 31.7624 157.044 31.9914 157.504L32.9076 159.287L35.656 157.849ZM39.3207 156.009L38.29 153.996C38.0037 153.421 37.6601 153.076 37.2593 152.904C36.8585 152.731 36.4004 152.789 35.9423 153.019C35.4843 153.249 35.198 153.594 35.0834 153.996C34.9689 154.456 35.0262 154.916 35.3125 155.492L36.3432 157.504L39.3207 156.009Z" fill="#2A2A2A"/>
<path d="M36.401 147.959L26.4951 146.923L33.538 139.793L33.8816 140.77L28.3847 146.233L36.1147 146.981L36.401 147.959Z" fill="#2A2A2A"/>
<path d="M32.5645 135.998L23.861 137.953L22.7158 132.95L23.5747 132.777L24.4909 136.86L27.4111 136.228L26.6667 132.892L27.5256 132.72L28.27 136.055L31.4193 135.365L30.5031 131.282L31.362 131.11L32.5645 135.998Z" fill="#2A2A2A"/>
<path d="M30.6178 126.222L21.7425 127.027L21.6853 126.107L25.5789 125.762L25.1208 120.529L21.2272 120.874L21.1699 119.954L30.0452 119.149L30.1024 120.069L25.9797 120.471L26.4378 125.704L30.5605 125.302L30.6178 126.222Z" fill="#2A2A2A"/>
<path d="M29.9878 113.111L20.998 112.536L21.0553 111.616L27.8692 112.018L21.3416 105.118L30.3314 105.693L30.2741 106.613L23.4602 106.21L29.9878 113.111Z" fill="#2A2A2A"/>
<path d="M31.1328 100.172L22.3721 98.4473L23.3455 93.4444L24.2044 93.617L23.4027 97.6998L26.323 98.2748L27.0101 94.9396L27.869 95.1121L27.1819 98.4473L30.3311 99.0799L31.1328 94.9971L31.9917 95.1696L31.1328 100.172Z" fill="#2A2A2A"/>
<path d="M164.263 40.3105C163.06 40.598 161.915 40.4255 160.827 39.793C159.739 39.1604 158.995 38.1828 158.708 37.0328C158.422 35.8252 158.594 34.6751 159.224 33.5825C159.854 32.4899 160.827 31.7424 162.029 31.4548C163.232 31.1673 164.377 31.3398 165.465 31.9724C166.553 32.6049 167.297 33.5825 167.584 34.7326C167.87 35.9402 167.698 37.0903 167.068 38.1828C166.381 39.2754 165.465 39.9655 164.263 40.3105ZM159.567 36.8027C159.796 37.7803 160.369 38.5279 161.228 39.0454C162.087 39.5629 163.003 39.678 163.976 39.4479C164.95 39.2179 165.694 38.6429 166.209 37.7228C166.725 36.8027 166.897 35.8827 166.667 34.9626C166.438 33.985 165.866 33.2375 165.007 32.7199C164.148 32.2024 163.232 32.0874 162.259 32.3174C161.285 32.5474 160.541 33.1225 160.025 34.0425C159.453 34.9051 159.338 35.8252 159.567 36.8027Z" fill="#2A2A2A"/>
<path d="M168.844 44.9684L174.398 37.9528L176.345 39.5054C177.089 40.0805 177.49 40.713 177.604 41.4606C177.719 42.1506 177.547 42.8407 177.032 43.4732C176.517 44.1058 175.944 44.4508 175.2 44.4508C174.455 44.5083 173.768 44.2208 173.024 43.6458L171.764 42.6682L169.531 45.5434L168.844 44.9684ZM172.337 42.0356L173.539 43.0132C174.054 43.4157 174.57 43.6458 175.028 43.5883C175.486 43.5308 175.887 43.3007 176.23 42.8982C176.574 42.4382 176.688 42.0356 176.631 41.5181C176.574 41.0581 176.23 40.598 175.715 40.1955L174.512 39.2179L172.337 42.0356Z" fill="#2A2A2A"/>
<path d="M185.85 48.2461L185.22 48.8786L182.414 46.1184L176.803 51.8689L176.173 51.2363L182.414 44.8533L185.85 48.2461Z" fill="#2A2A2A"/>
<path d="M180.582 55.5491L190.259 53.0764L186.079 62.1621L185.449 61.4146L186.652 58.8844L183.96 55.6066L181.269 56.2967L180.582 55.5491ZM184.819 55.3766L186.995 58.0218L188.713 54.3415L184.819 55.3766Z" fill="#2A2A2A"/>
<path d="M188.598 65.8424L196.156 61.127L196.614 61.9321L193.293 64.0023L196.041 68.4876L199.362 66.4174L199.821 67.2225L192.262 71.9378L191.804 71.1328L195.297 68.9476L192.549 64.4623L189.056 66.6475L188.598 65.8424Z" fill="#2A2A2A"/>
<path d="M194.953 77.2283L203.256 73.663L203.599 74.5256L197.301 77.2283L206.233 80.506L197.931 84.0713L197.587 83.2087L203.886 80.506L194.953 77.2283Z" fill="#2A2A2A"/>
<path d="M206.692 87.4065L207.15 86.6014C208.066 87.119 208.638 87.8665 208.867 88.7866C209.097 89.5342 209.039 90.2242 208.753 90.7992C208.467 91.3743 207.951 91.7768 207.264 91.9493C206.348 92.1793 205.604 91.9493 205.031 91.2593C205.031 91.7768 204.859 92.2369 204.573 92.5819C204.287 92.9844 203.886 93.2144 203.371 93.3869C202.569 93.617 201.882 93.502 201.309 93.0419C200.737 92.5819 200.279 91.9493 200.107 91.1443C199.935 90.5692 199.935 89.9367 199.992 89.3616C200.107 88.7866 200.279 88.2691 200.622 87.8665L201.424 88.3841C201.137 88.7291 200.966 89.1316 200.908 89.5917C200.851 90.0517 200.851 90.5117 200.966 90.9143C201.137 91.4893 201.424 91.9493 201.825 92.2369C202.225 92.5244 202.683 92.5819 203.199 92.4669C203.657 92.3519 204 92.0643 204.229 91.6043C204.459 91.2018 204.459 90.6842 204.287 90.0517L204.058 89.1316L204.859 88.9016L205.146 89.8217C205.26 90.3392 205.546 90.6842 205.89 90.8568C206.234 91.0293 206.634 91.0868 207.092 90.9718C207.551 90.8568 207.894 90.5692 208.066 90.2242C208.238 89.8792 208.295 89.4191 208.123 88.8441C207.837 88.3266 207.379 87.809 206.692 87.4065Z" fill="#2A2A2A"/>
<path d="M201.768 97.2972L211.33 100.23L203.085 105.865L202.913 104.888L205.203 103.335L204.573 99.1374L201.882 98.3323L201.768 97.2972ZM205.489 99.3674L206.005 102.76L209.326 100.517L205.489 99.3674Z" fill="#2A2A2A"/>
<path d="M204.344 116.849V117.941L201.596 117.999V117.079H203.428L203.371 110.293L212.303 110.178V111.098L204.287 111.156L204.344 115.929L212.361 115.871V116.791L204.344 116.849Z" fill="#2A2A2A"/>
<path d="M202.97 123.174L211.902 124.439L211.788 125.359L205.031 124.382L210.986 131.8L202.054 130.535L202.168 129.615L208.925 130.592L202.97 123.174Z" fill="#2A2A2A"/>
<path d="M201.023 135.135L204.001 138.7C204.287 138.125 204.688 137.665 205.203 137.493C205.719 137.263 206.291 137.263 206.864 137.435C207.608 137.665 208.181 138.068 208.467 138.758C208.753 139.448 208.811 140.195 208.582 141.058L207.895 143.531L199.306 141.058L199.535 140.195L203.028 141.173L203.486 139.505L200.68 136.113L201.023 135.135ZM204.345 139.85L203.886 141.461L207.322 142.438L207.78 140.828C207.952 140.195 207.952 139.62 207.723 139.218C207.494 138.758 207.15 138.47 206.635 138.355C206.12 138.183 205.604 138.24 205.203 138.528C204.803 138.758 204.516 139.218 204.345 139.85Z" fill="#2A2A2A"/>
<path d="M116.279 171.363C94.8064 171.363 74.2502 158.827 65.0886 137.895C52.6633 109.603 65.4895 76.3657 93.7184 63.8872C107.403 57.8493 122.577 57.5043 136.491 62.9097C150.405 68.3151 161.399 78.8959 167.411 92.5819C179.837 120.874 167.011 154.111 138.782 166.59C131.452 169.868 123.837 171.363 116.279 171.363ZM116.221 60.2645C108.72 60.2645 101.219 61.8171 94.1765 64.9798C66.5774 77.2282 53.9803 109.718 66.1766 137.435C78.3729 165.152 110.725 177.803 138.324 165.555C165.923 153.306 178.52 120.816 166.324 93.0994C160.426 79.6434 149.661 69.3501 136.033 64.0022C129.62 61.4721 122.921 60.2645 116.221 60.2645Z" fill="#2A2A2A"/>
<path d="M105.972 130.362C100.647 130.362 95.3218 129.27 90.3975 127.084L90.8555 126.049C100.418 130.305 111.412 130.305 121.031 126.107C130.594 121.852 138.037 113.686 141.358 103.738L142.446 104.083C139.011 114.376 131.395 122.772 121.489 127.142C116.508 129.27 111.24 130.362 105.972 130.362Z" fill="#2A2A2A"/>
<path d="M107.461 121.852C104.942 120.414 102.995 118.229 101.793 115.584C100.361 112.306 100.247 108.683 101.564 105.348C102.881 102.013 105.343 99.3674 108.607 97.9298C111.87 96.4922 115.478 96.3772 118.799 97.6998C122.12 99.0224 124.754 101.495 126.185 104.773C127.331 107.418 127.617 110.351 126.987 113.168L125.899 112.938C126.472 110.351 126.243 107.648 125.212 105.233C123.895 102.243 121.49 99.9424 118.455 98.7348C115.421 97.5272 112.099 97.6423 109.122 98.9649C106.144 100.287 103.854 102.703 102.652 105.75C101.449 108.798 101.564 112.133 102.881 115.124C103.969 117.539 105.744 119.551 108.034 120.874L107.461 121.852Z" fill="#2A2A2A"/>
<path d="M92.6873 71.5928C96.4189 71.5928 99.4439 68.5549 99.4439 64.8073C99.4439 61.0598 96.4189 58.0218 92.6873 58.0218C88.9557 58.0218 85.9307 61.0598 85.9307 64.8073C85.9307 68.5549 88.9557 71.5928 92.6873 71.5928Z" fill="#EDE9E0"/>
<path d="M92.6878 72.1679C91.7716 72.1679 90.9127 71.9954 90.0538 71.6503C88.2215 70.9603 86.79 69.5802 85.9884 67.7975C85.1868 66.0149 85.1295 64.0023 85.8739 62.1621C86.561 60.322 87.9352 58.8844 89.7675 58.0793C93.4322 56.4692 97.7839 58.1368 99.3871 61.8171C100.99 65.4974 99.3299 69.8677 95.6653 71.4778C94.6919 71.9378 93.7185 72.1679 92.6878 72.1679ZM92.6878 58.6544C91.8861 58.6544 91.0272 58.8269 90.2256 59.1719C88.7369 59.862 87.5344 61.0695 86.9618 62.6222C86.3892 64.1748 86.3892 65.8424 87.0763 67.3375C87.7635 68.8326 88.9659 70.0402 90.5119 70.6153C92.0579 71.1903 93.7185 71.1903 95.2072 70.5002C98.2992 69.1201 99.7307 65.4399 98.3565 62.3346C97.3258 60.0345 95.0927 58.6544 92.6878 58.6544Z" fill="#2A2A2A"/>
<path d="M136.949 172.398C140.681 172.398 143.706 169.36 143.706 165.612C143.706 161.865 140.681 158.827 136.949 158.827C133.217 158.827 130.192 161.865 130.192 165.612C130.192 169.36 133.217 172.398 136.949 172.398Z" fill="#EDE9E0"/>
<path d="M136.949 172.915C134.144 172.915 131.453 171.305 130.25 168.545C129.448 166.762 129.391 164.75 130.136 162.91C130.823 161.069 132.197 159.632 133.972 158.827C137.637 157.217 141.988 158.884 143.592 162.565C144.393 164.347 144.451 166.36 143.706 168.2C143.019 170.04 141.645 171.478 139.812 172.283C138.896 172.743 137.923 172.915 136.949 172.915ZM136.949 159.402C136.148 159.402 135.289 159.574 134.487 159.919C132.999 160.609 131.796 161.817 131.224 163.37C130.651 164.922 130.651 166.59 131.338 168.085C132.712 171.19 136.377 172.628 139.469 171.248C140.958 170.558 142.16 169.35 142.733 167.797C143.305 166.245 143.305 164.577 142.618 163.082C141.588 160.782 139.297 159.402 136.949 159.402Z" fill="#2A2A2A"/>
<path d="M165.007 99.7699C168.738 99.7699 171.763 96.7319 171.763 92.9844C171.763 89.2369 168.738 86.1989 165.007 86.1989C161.275 86.1989 158.25 89.2369 158.25 92.9844C158.25 96.7319 161.275 99.7699 165.007 99.7699Z" fill="#EDE9E0"/>
<path d="M165.006 100.345C164.09 100.345 163.231 100.172 162.372 99.8274C160.54 99.1374 159.108 97.7573 158.307 95.9746C157.505 94.192 157.448 92.1794 158.192 90.3392C158.879 88.4991 160.254 87.0615 162.086 86.2564C165.751 84.6463 170.102 86.3139 171.706 89.9942C173.309 93.6745 171.648 98.0448 167.984 99.6549C167.01 100.172 165.98 100.345 165.006 100.345ZM165.006 86.8315C164.205 86.8315 163.346 87.004 162.544 87.349C161.055 88.039 159.853 89.2466 159.28 90.7992C158.708 92.3519 158.708 94.0195 159.395 95.5146C160.082 97.0097 161.284 98.2173 162.83 98.7923C164.376 99.3674 166.037 99.3674 167.526 98.6773C170.618 97.2972 172.049 93.617 170.675 90.5117C169.644 88.2116 167.354 86.8315 165.006 86.8315Z" fill="#2A2A2A"/>
<path d="M64.6307 144.221C68.3622 144.221 71.3873 141.183 71.3873 137.435C71.3873 133.688 68.3622 130.65 64.6307 130.65C60.8991 130.65 57.874 133.688 57.874 137.435C57.874 141.183 60.8991 144.221 64.6307 144.221Z" fill="#EDE9E0"/>
<path d="M64.6305 144.738C61.8248 144.738 59.1336 143.128 57.9311 140.368C56.3279 136.688 57.9884 132.317 61.653 130.707C65.3176 129.097 69.6693 130.765 71.2726 134.445C72.0742 136.228 72.1315 138.24 71.3871 140.08C70.7 141.921 69.3258 143.358 67.5507 144.163C66.6346 144.566 65.6612 144.738 64.6305 144.738ZM64.6305 131.225C63.8289 131.225 62.97 131.397 62.1683 131.742C59.0763 133.122 57.6448 136.803 59.0191 139.908C60.3933 143.013 64.0579 144.451 67.1499 143.071C68.6387 142.381 69.8411 141.173 70.4137 139.62C70.9863 138.068 70.9863 136.4 70.2992 134.905C69.2685 132.605 67.0354 131.225 64.6305 131.225Z" fill="#2A2A2A"/>
<path d="M134.659 70.6728C138.391 70.6728 141.416 67.6348 141.416 63.8873C141.416 60.1397 138.391 57.1018 134.659 57.1018C130.927 57.1018 127.902 60.1397 127.902 63.8873C127.902 67.6348 130.927 70.6728 134.659 70.6728Z" fill="#EDE9E0"/>
<path d="M134.659 71.2478C133.743 71.2478 132.884 71.0753 132.025 70.7303C128.246 69.2927 126.414 64.9798 127.845 61.2421C128.532 59.4019 129.907 57.9643 131.682 57.1593C133.457 56.3542 135.461 56.3542 137.293 57.0442C141.072 58.4819 142.904 62.7947 141.473 66.5324C140.786 68.3726 139.412 69.8102 137.637 70.6153C136.663 71.0178 135.69 71.2478 134.659 71.2478ZM134.659 57.6768C133.8 57.6768 132.999 57.8493 132.197 58.1943C130.708 58.8844 129.506 60.092 128.933 61.6446C127.731 64.8073 129.277 68.4301 132.426 69.6377C133.972 70.2127 135.632 70.2127 137.121 69.5227C138.61 68.8326 139.812 67.625 140.385 66.0724C141.587 62.9097 140.041 59.2869 136.892 58.0793C136.205 57.8493 135.403 57.6768 134.659 57.6768Z" fill="#2A2A2A"/>
<path d="M94.9773 173.318C98.7089 173.318 101.734 170.28 101.734 166.532C101.734 162.785 98.7089 159.747 94.9773 159.747C91.2458 159.747 88.2207 162.785 88.2207 166.532C88.2207 170.28 91.2458 173.318 94.9773 173.318Z" fill="#EDE9E0"/>
<path d="M94.9774 173.893C94.0613 173.893 93.2024 173.72 92.3435 173.375C88.5643 171.938 86.732 167.625 88.1635 163.887C89.595 160.092 93.8895 158.252 97.6114 159.689C101.39 161.127 103.223 165.44 101.791 169.178C101.104 171.018 99.7299 172.455 97.9549 173.26C96.9815 173.663 96.0081 173.893 94.9774 173.893ZM94.9774 160.379C92.5152 160.379 90.1676 161.875 89.1942 164.347C87.9917 167.51 89.5377 171.133 92.687 172.34C94.233 172.915 95.8936 172.915 97.3823 172.225C98.8711 171.535 100.074 170.328 100.646 168.775C101.906 165.612 100.303 161.99 97.1533 160.782C96.4662 160.494 95.7218 160.379 94.9774 160.379Z" fill="#2A2A2A"/>
<path d="M165.923 141.921C169.654 141.921 172.679 138.883 172.679 135.135C172.679 131.388 169.654 128.35 165.923 128.35C162.191 128.35 159.166 131.388 159.166 135.135C159.166 138.883 162.191 141.921 165.923 141.921Z" fill="#EDE9E0"/>
<path d="M165.923 142.496C165.064 142.496 164.148 142.323 163.289 141.978C159.51 140.54 157.677 136.228 159.109 132.49C160.54 128.695 164.835 126.854 168.557 128.292C172.336 129.73 174.168 134.042 172.737 137.78C171.649 140.713 168.843 142.496 165.923 142.496ZM163.69 140.943C166.839 142.208 170.446 140.598 171.649 137.435C172.851 134.272 171.305 130.65 168.156 129.442C165.007 128.177 161.399 129.787 160.197 132.95C158.937 136.113 160.54 139.678 163.69 140.943Z" fill="#2A2A2A"/>
<path d="M63.7146 102.07C67.4462 102.07 70.4713 99.0321 70.4713 95.2846C70.4713 91.5371 67.4462 88.4991 63.7146 88.4991C59.9831 88.4991 56.958 91.5371 56.958 95.2846C56.958 99.0321 59.9831 102.07 63.7146 102.07Z" fill="#EDE9E0"/>
<path d="M63.7141 102.645C62.798 102.645 61.9391 102.473 61.0802 102.128C59.2479 101.438 57.8164 100.057 57.0148 98.2748C56.2131 96.4922 56.1559 94.4795 56.9003 92.6394C58.3317 88.8441 62.6262 87.004 66.3481 88.4416C70.1272 89.8792 71.9595 94.192 70.528 97.9298C69.8409 99.7699 68.4667 101.208 66.6916 102.013C65.7182 102.415 64.6876 102.645 63.7141 102.645ZM63.7141 89.0741C61.252 89.0741 58.9043 90.5692 57.9309 93.0419C57.3583 94.5945 57.3583 96.2622 58.0454 97.7573C58.7326 99.2524 59.935 100.46 61.481 101.035C63.027 101.61 64.6876 101.61 66.1763 100.92C67.6651 100.23 68.8675 99.0224 69.4401 97.4698C70.6998 94.307 69.0965 90.6843 65.9473 89.4767C65.2029 89.2466 64.4585 89.0741 63.7141 89.0741Z" fill="#2A2A2A"/>
</svg>
