<svg width="233" height="233" viewBox="0 0 233 233" fill="none" xmlns="http://www.w3.org/2000/svg">
<path d="M116.431 232.837C180.272 232.837 232.025 181.083 232.025 117.243C232.025 53.4017 180.272 1.64855 116.431 1.64855C52.5901 1.64855 0.836914 53.4017 0.836914 117.243C0.836914 181.083 52.5901 232.837 116.431 232.837Z" fill="#E9503E"/>
<path d="M63.4772 44.9166L56.5752 33.6066L65.5652 35.8106L67.7112 26.8206L74.6132 38.1306L72.1192 39.6966L68.7552 34.2446L67.5952 39.1746L62.6652 38.0146L66.0292 43.4666L63.4772 44.9166Z" fill="#2A2A2A"/>
<path d="M87.0826 31.0546C86.3286 32.7366 85.1106 33.9546 83.3706 34.5926C81.6306 35.2306 79.9486 35.2306 78.2666 34.4766C76.5846 33.7226 75.3666 32.5046 74.7286 30.7646C74.0906 29.0246 74.0906 27.3426 74.8446 25.6606C75.5986 23.9786 76.8166 22.7606 78.5566 22.1226C80.2966 21.4846 81.9786 21.4846 83.6606 22.2386C85.3426 22.9926 86.5606 24.2106 87.1986 25.9506C87.8366 27.6326 87.8366 29.3146 87.0826 31.0546ZM79.4846 31.8086C80.4126 32.2726 81.3986 32.2726 82.3846 31.9246C83.3706 31.5186 84.0666 30.8806 84.4726 29.8946C84.8786 28.9666 84.8786 27.9806 84.4726 26.9366C84.0666 25.9506 83.4286 25.1966 82.5006 24.7906C81.5726 24.3266 80.5866 24.3266 79.6006 24.6746C78.6146 25.0806 77.9186 25.7186 77.5126 26.7046C77.1066 27.6326 77.1066 28.6186 77.5126 29.6626C77.8606 30.6486 78.4986 31.4026 79.4846 31.8086Z" fill="#2A2A2A"/>
<path d="M89.8086 31.9825L93.2306 17.6565L102.453 29.1405L99.3786 29.8365L94.6226 23.8625L92.8826 31.2865L89.8086 31.9825Z" fill="#2A2A2A"/>
<path d="M113.937 26.4726C112.719 27.8646 111.211 28.6186 109.355 28.7926C107.499 28.9086 105.875 28.3866 104.483 27.1686C103.091 25.9506 102.337 24.4426 102.163 22.5866C102.047 20.7306 102.569 19.1066 103.787 17.7146C105.005 16.3226 106.513 15.5686 108.369 15.4526C110.225 15.3366 111.849 15.8586 113.241 17.0766C114.633 18.2946 115.387 19.8026 115.561 21.6586C115.677 23.4566 115.155 25.0806 113.937 26.4726ZM106.397 24.9646C107.151 25.6606 108.079 25.9506 109.123 25.8926C110.167 25.8346 111.037 25.3706 111.675 24.5586C112.313 23.7466 112.603 22.8186 112.545 21.7746C112.487 20.7306 112.023 19.8026 111.269 19.1066C110.515 18.4106 109.587 18.1206 108.543 18.1786C107.499 18.2366 106.629 18.7006 105.991 19.5126C105.353 20.3246 105.063 21.2526 105.121 22.2966C105.237 23.3986 105.643 24.2686 106.397 24.9646Z" fill="#2A2A2A"/>
<path d="M116.837 30.8806L117.359 25.3126L118.867 25.4286L125.073 15.5686L129.307 26.4146L130.815 26.5306L130.293 32.0986L127.451 31.8086L127.683 29.0826L119.853 28.3286L119.621 31.0546L116.837 30.8806ZM126.233 26.1246L124.551 21.5426L121.999 25.7186L126.233 26.1246Z" fill="#2A2A2A"/>
<path d="M132.671 29.9526L135.745 17.2506L143.633 19.1646L142.937 22.0066L137.891 20.7886L137.369 22.9346L141.313 23.8626L140.617 26.6466L136.673 25.7186L136.151 27.8646L141.197 29.0826L140.501 31.9246L132.671 29.9526Z" fill="#2A2A2A"/>
<path d="M141.894 31.8086L149.144 27.9226L147.694 20.0346L150.826 21.3686L152.276 29.1406L154.886 23.1666L157.612 24.3266L154.944 30.4166L161.672 26.2406L164.804 27.5746L158.018 31.8086L160.106 39.7546L156.742 38.3046L154.77 30.7646L152.334 36.3906L149.608 35.2306L152.044 29.6046L145.258 33.3166L141.894 31.8086Z" fill="#2A2A2A"/>
<path d="M168.631 35.6366L170.197 36.6806C171.241 37.3766 171.937 38.3046 172.169 39.4646C172.459 40.6246 172.227 41.6686 171.531 42.7126C170.835 43.7566 169.907 44.3366 168.747 44.5106C167.587 44.6846 166.485 44.4526 165.441 43.7566L161.381 41.0306L168.631 30.1266L171.067 31.7506L168.631 35.6366ZM165.441 40.4506L167.007 41.4946C167.413 41.7846 167.819 41.9006 168.225 41.8426C168.631 41.7846 168.979 41.5526 169.211 41.2046C169.501 40.7986 169.559 40.3926 169.443 40.0446C169.327 39.6386 169.095 39.3486 168.689 39.0586L167.123 38.0146L165.441 40.4506Z" fill="#2A2A2A"/>
<path d="M59.3008 202.619L65.8548 191.135L68.2908 200.067L77.2228 197.631L70.6108 209.057L68.0588 207.607L71.2488 202.039L66.3768 203.373L65.0428 198.501L61.8528 204.069L59.3008 202.619Z" fill="#2A2A2A"/>
<path d="M85.053 212.769C83.371 213.523 81.689 213.581 79.949 212.943C78.209 212.305 76.991 211.145 76.179 209.463C75.425 207.781 75.367 206.099 76.005 204.359C76.643 202.619 77.803 201.401 79.485 200.589C81.167 199.835 82.849 199.777 84.589 200.415C86.329 201.053 87.547 202.213 88.359 203.895C89.113 205.577 89.171 207.259 88.533 208.999C87.895 210.739 86.735 212.015 85.053 212.769ZM78.789 208.303C79.195 209.231 79.891 209.927 80.877 210.275C81.863 210.623 82.849 210.623 83.777 210.159C84.705 209.695 85.343 208.999 85.749 207.955C86.097 206.969 86.097 205.983 85.691 204.997C85.285 204.069 84.589 203.373 83.603 203.025C82.617 202.677 81.631 202.677 80.703 203.141C79.775 203.605 79.137 204.301 78.731 205.345C78.383 206.389 78.383 207.375 78.789 208.303Z" fill="#2A2A2A"/>
<path d="M89.8672 216.017L92.6512 203.199L96.8852 204.127C98.1032 204.417 99.0892 205.055 99.7272 206.041C100.365 207.085 100.597 208.187 100.307 209.405C100.017 210.623 99.3792 211.551 98.3932 212.189C97.3492 212.827 96.2472 213.059 94.9712 212.769L93.6372 212.537L92.7672 216.655L89.8672 216.017ZM94.2172 209.869L95.4932 210.159C95.9572 210.275 96.3632 210.159 96.7692 209.927C97.1752 209.637 97.4072 209.289 97.4652 208.883C97.5812 208.419 97.4652 208.013 97.2332 207.607C97.0012 207.201 96.6532 206.969 96.1892 206.853L94.9132 206.563L94.2172 209.869Z" fill="#2A2A2A"/>
<path d="M99.5527 220.946L100.075 215.378L101.583 215.494L107.731 205.576L112.023 216.422L113.531 216.538L113.009 222.106L110.167 221.874L110.399 219.148L102.511 218.452L102.279 221.178L99.5527 220.946ZM108.891 216.19L107.151 211.608L104.657 215.784L108.891 216.19Z" fill="#2A2A2A"/>
<path d="M126.581 216.887C125.363 218.279 123.797 219.033 121.999 219.149C120.143 219.265 118.519 218.685 117.127 217.467C115.735 216.249 114.981 214.683 114.865 212.885C114.749 211.029 115.329 209.405 116.547 208.013C117.765 206.621 119.331 205.867 121.129 205.751C122.985 205.635 124.609 206.215 126.001 207.433C127.393 208.651 128.147 210.217 128.263 212.015C128.379 213.929 127.799 215.495 126.581 216.887ZM119.099 215.379C119.853 216.075 120.781 216.423 121.825 216.307C122.869 216.249 123.739 215.785 124.377 215.031C125.015 214.219 125.363 213.291 125.247 212.247C125.189 211.203 124.783 210.275 124.029 209.579C123.275 208.883 122.347 208.535 121.303 208.651C120.259 208.709 119.389 209.173 118.751 209.927C118.113 210.739 117.765 211.667 117.881 212.711C117.939 213.813 118.345 214.683 119.099 215.379Z" fill="#2A2A2A"/>
<path d="M132.207 217.931L129.481 205.113L134.295 204.069C135.339 203.837 136.325 204.011 137.195 204.591C138.123 205.171 138.645 205.983 138.877 207.027C139.051 207.897 138.935 208.709 138.471 209.405C139.109 209.579 139.631 209.927 140.037 210.333C140.501 210.797 140.733 211.319 140.907 212.015C141.139 213.059 140.965 214.045 140.327 214.973C139.747 215.901 138.877 216.423 137.833 216.655L132.207 217.931ZM133.483 209.695L135.107 209.347C135.513 209.289 135.803 209.057 135.977 208.767C136.151 208.477 136.267 208.129 136.151 207.781C136.093 207.433 135.861 207.143 135.571 206.969C135.281 206.795 134.933 206.737 134.527 206.795L132.903 207.143L133.483 209.695ZM134.527 214.683L137.021 214.161C137.427 214.103 137.717 213.871 137.891 213.581C138.065 213.291 138.181 212.943 138.065 212.595C138.007 212.247 137.775 211.957 137.485 211.783C137.195 211.609 136.847 211.551 136.441 211.609L133.947 212.131L134.527 214.683Z" fill="#2A2A2A"/>
<path d="M145.257 215.088L140.675 202.676L143.459 201.632L145.837 208.07L151.173 198.674L155.755 211.086L152.971 212.072L150.593 205.634L145.257 215.088Z" fill="#2A2A2A"/>
<path d="M159.698 209.463L153.318 197.863L155.928 196.471L159.234 202.445L163.12 192.353L169.5 203.953L166.89 205.345L163.584 199.371L159.698 209.463Z" fill="#2A2A2A"/>
<path d="M54.4868 178.142L52.3988 179.998L51.8188 179.36L43.1768 182.028L46.7728 173.734L46.1928 173.096L48.2808 171.24L48.9188 171.936L47.5268 173.212L52.4568 178.722L53.8488 177.446L54.4868 178.142ZM51.1808 178.664L47.4108 174.488L44.6848 180.694L51.1808 178.664Z" fill="#2A2A2A"/>
<path d="M39.1751 163.527C40.3931 163.759 41.3791 164.455 42.0751 165.557C42.7711 166.659 43.0031 167.819 42.7711 169.037C42.5391 170.255 41.8431 171.241 40.7411 171.937C39.6391 172.633 38.4791 172.865 37.2611 172.633C36.0431 172.401 35.0571 171.705 34.3611 170.603C33.6651 169.501 33.4331 168.341 33.6651 167.123C33.8971 165.905 34.5931 164.919 35.6951 164.223C36.7971 163.469 37.9571 163.237 39.1751 163.527ZM41.9011 168.747C42.1331 167.761 41.9591 166.833 41.3791 165.963C40.7991 165.093 40.0451 164.571 39.0591 164.397C38.0731 164.223 37.1451 164.397 36.2751 164.977C35.4051 165.557 34.8251 166.311 34.6511 167.297C34.4191 168.283 34.5931 169.21 35.1731 170.08C35.7531 170.95 36.5071 171.473 37.4931 171.647C38.4791 171.821 39.4071 171.647 40.2771 171.067C41.1471 170.545 41.6691 169.733 41.9011 168.747Z" fill="#2A2A2A"/>
<path d="M29.3149 159.757L31.9829 158.48L31.0549 156.45C30.6489 155.638 30.5909 154.885 30.7649 154.189C30.9389 153.493 31.4029 152.971 32.0989 152.623C32.8529 152.275 33.4909 152.275 34.1869 152.623C34.8249 152.971 35.3469 153.55 35.7529 154.42L37.0289 157.089L28.8509 160.917L26.5889 156.103L27.4009 155.697L29.3149 159.757ZM35.8689 156.683L34.9409 154.653C34.6509 154.073 34.3029 153.667 33.8969 153.435C33.4909 153.261 33.0269 153.261 32.5629 153.493C32.0989 153.725 31.8089 154.073 31.6929 154.537C31.5769 155.001 31.6349 155.523 31.9249 156.103L32.8529 158.133L35.8689 156.683Z" fill="#2A2A2A"/>
<path d="M32.9114 147.461L24.3274 150.303L23.5154 147.867C23.2254 146.997 23.2254 146.185 23.5154 145.547C23.8054 144.851 24.3274 144.387 25.0814 144.155C25.8354 143.923 26.5314 143.981 27.1694 144.329C27.8074 144.677 28.2714 145.315 28.5614 146.185L29.0834 147.693L32.5634 146.533L32.9114 147.461ZM28.2714 147.983L27.7494 146.475C27.5174 145.837 27.2274 145.373 26.8214 145.141C26.4154 144.909 25.9514 144.851 25.3714 145.083C24.8494 145.257 24.5014 145.547 24.2694 146.011C24.0954 146.475 24.0954 146.997 24.3274 147.635L24.8494 149.143L28.2714 147.983Z" fill="#2A2A2A"/>
<path d="M27.2855 130.583C28.3295 131.279 28.9675 132.265 29.1995 133.541C29.4315 134.817 29.1995 135.977 28.5035 137.021C27.8075 138.065 26.8215 138.703 25.5455 138.935C24.2695 139.167 23.1095 138.935 22.0655 138.239C21.0215 137.543 20.3835 136.557 20.1515 135.281C19.9195 134.005 20.1515 132.845 20.8475 131.801C21.5435 130.757 22.5295 130.119 23.8055 129.887C25.1395 129.655 26.2995 129.887 27.2855 130.583ZM27.7495 136.499C28.3295 135.687 28.5035 134.759 28.3295 133.715C28.1555 132.671 27.6335 131.917 26.8215 131.337C26.0095 130.757 25.0815 130.583 24.0375 130.815C22.9935 130.989 22.1815 131.511 21.6595 132.323C21.0795 133.135 20.9055 134.063 21.0795 135.049C21.2535 136.093 21.7755 136.847 22.5875 137.427C23.3995 138.007 24.3275 138.181 25.3715 137.949C26.4155 137.833 27.1695 137.311 27.7495 136.499Z" fill="#2A2A2A"/>
<path d="M27.8066 123.912L18.7586 124.318L18.6426 121.36C18.5846 120.548 18.8166 119.852 19.2226 119.388C19.6286 118.924 20.2086 118.634 20.8466 118.634C21.7166 118.576 22.3546 118.924 22.8186 119.62C23.1086 118.518 23.8626 117.88 25.0226 117.88C25.8346 117.822 26.4726 118.112 26.8786 118.634C27.3426 119.156 27.5746 119.91 27.6326 120.838L27.8066 123.912ZM22.7026 123.216L22.5866 121.186C22.5866 120.664 22.4126 120.258 22.1226 119.968C21.8326 119.678 21.4266 119.562 20.9626 119.562C20.4986 119.562 20.1506 119.736 19.8606 120.084C19.5706 120.374 19.4546 120.78 19.4546 121.302L19.5706 123.332L22.7026 123.216ZM26.8786 122.984L26.7626 120.722C26.7626 120.084 26.5886 119.62 26.2406 119.272C25.9506 118.924 25.4866 118.808 24.9646 118.808C24.4426 118.808 24.0366 119.04 23.7466 119.388C23.4566 119.736 23.3406 120.258 23.3406 120.896L23.4566 123.158L26.8786 122.984Z" fill="#2A2A2A"/>
<path d="M27.1107 105.236C27.9227 106.222 28.2127 107.324 28.0967 108.658C27.9807 109.934 27.4007 110.978 26.4727 111.79C25.4867 112.602 24.3847 112.95 23.0507 112.776C21.7747 112.66 20.7307 112.08 19.9187 111.152C19.1067 110.166 18.8167 109.064 18.9327 107.73C19.0487 106.454 19.6287 105.41 20.5567 104.598C21.5427 103.786 22.6447 103.438 23.9787 103.612C25.3127 103.728 26.3567 104.25 27.1107 105.236ZM25.8927 111.036C26.6467 110.398 27.1107 109.586 27.2267 108.542C27.3427 107.498 27.0527 106.628 26.4147 105.874C25.7767 105.12 24.9067 104.656 23.8627 104.598C22.8187 104.482 21.8907 104.772 21.1367 105.41C20.3827 106.048 19.9187 106.86 19.8027 107.904C19.6867 108.948 19.9767 109.818 20.6147 110.63C21.2527 111.384 22.1227 111.848 23.1667 111.964C24.2107 111.906 25.1387 111.674 25.8927 111.036Z" fill="#2A2A2A"/>
<path d="M29.1415 100.423L21.3115 93.9846L31.2295 91.9546L30.9975 92.9406L23.2835 94.5066L29.3735 99.4366L29.1415 100.423Z" fill="#2A2A2A"/>
<path d="M27.9806 85.2845L28.6186 83.7185C28.9666 82.8485 29.4306 82.2105 30.1266 81.8625C30.7646 81.5145 31.4606 81.5145 32.2146 81.8045C32.9686 82.0945 33.4906 82.5585 33.7226 83.2545C33.9546 83.9505 33.9546 84.7045 33.6066 85.6325L32.6786 88.0685L24.2686 84.8205L24.6166 83.9505L27.9806 85.2845ZM32.0986 86.9085L32.7366 85.3425C32.9686 84.7045 33.0266 84.1245 32.8526 83.7185C32.6786 83.2545 32.3306 82.9065 31.8086 82.7325C31.2866 82.5585 30.8226 82.5585 30.4166 82.7905C30.0106 83.0225 29.6626 83.4865 29.4306 84.1245L28.7926 85.6905L32.0986 86.9085Z" fill="#2A2A2A"/>
<path d="M39.0017 72.1186L39.5237 71.1326L41.9597 72.4666L41.4957 73.2786L39.8717 72.3506L36.5657 78.3826L28.6777 74.0906L29.1417 73.2786L36.2757 77.1646L38.5957 72.9306L31.4617 69.0446L31.9257 68.2326L39.0017 72.1186Z" fill="#2A2A2A"/>
<path d="M39.5816 63.1286L40.6256 61.7946C41.2056 61.0406 41.8436 60.6346 42.5976 60.4606C43.2936 60.3446 43.9896 60.5186 44.6276 60.9826C45.2656 61.5046 45.6136 62.0846 45.6136 62.8386C45.6716 63.5926 45.3816 64.2886 44.8016 65.0426L43.1776 67.1306L36.1016 61.5626L36.6816 60.8086L39.5816 63.1286ZM43.0616 65.8546L44.1056 64.5206C44.5116 63.9986 44.7436 63.4766 44.7436 63.0126C44.7436 62.5486 44.5116 62.1426 44.0476 61.7366C43.5836 61.3886 43.1776 61.2726 42.6556 61.3886C42.1916 61.5046 41.7276 61.7946 41.3216 62.3746L40.2776 63.7086L43.0616 65.8546ZM47.5856 61.5046L40.5096 55.9366L41.0896 55.1826L48.1656 60.7506L47.5856 61.5046Z" fill="#2A2A2A"/>
<path d="M178.375 58.4305L180.521 56.6325L181.043 57.2705L189.743 54.8345L185.915 63.0125L186.437 63.6505L184.291 65.4485L183.711 64.7525L185.161 63.5345L180.405 57.9085L178.955 59.1265L178.375 58.4305ZM181.681 58.0245L185.277 62.3165L188.235 56.1685L181.681 58.0245Z" fill="#2A2A2A"/>
<path d="M193.223 73.5106C192.005 73.2206 191.077 72.5246 190.381 71.4226C189.685 70.3206 189.511 69.1606 189.801 67.9426C190.091 66.7246 190.787 65.7386 191.889 65.1006C192.991 64.4046 194.151 64.2306 195.369 64.5206C196.587 64.8106 197.515 65.5066 198.211 66.6086C198.907 67.7106 199.081 68.8706 198.791 70.0886C198.501 71.3066 197.805 72.2346 196.703 72.9306C195.601 73.6266 194.441 73.8006 193.223 73.5106ZM190.729 68.1166C190.497 69.1026 190.671 70.0306 191.193 70.9006C191.715 71.7706 192.469 72.3506 193.455 72.5826C194.441 72.8146 195.369 72.6406 196.239 72.1186C197.109 71.5966 197.689 70.7846 197.921 69.8566C198.153 68.8706 198.037 67.9426 197.457 67.0726C196.935 66.2026 196.181 65.6226 195.195 65.3906C194.209 65.1586 193.281 65.3326 192.411 65.8546C191.541 66.4346 190.961 67.1886 190.729 68.1166Z" fill="#2A2A2A"/>
<path d="M202.967 77.5706L200.241 78.7306L201.111 80.8185C201.459 81.6305 201.517 82.3846 201.343 83.0806C201.111 83.7766 200.647 84.2985 199.951 84.5885C199.197 84.9365 198.501 84.8786 197.863 84.5306C197.225 84.1826 196.703 83.5446 196.355 82.6746L195.195 79.9485L203.489 76.3525L205.577 81.2246L204.707 81.5725L202.967 77.5706ZM196.355 80.4125L197.225 82.4425C197.515 83.0225 197.805 83.4866 198.269 83.6606C198.675 83.8926 199.139 83.8926 199.603 83.6606C200.067 83.4286 200.415 83.1386 200.531 82.6746C200.647 82.2106 200.589 81.6885 200.357 81.1085L199.487 79.0785L196.355 80.4125Z" fill="#2A2A2A"/>
<path d="M199.023 89.7505L207.665 87.1405L208.419 89.5765C208.709 90.5045 208.651 91.2585 208.361 91.8965C208.071 92.5345 207.491 92.9985 206.737 93.2305C205.983 93.4625 205.287 93.4045 204.649 92.9985C204.011 92.5925 203.547 91.9546 203.315 91.0846L202.851 89.5765L199.313 90.6205L199.023 89.7505ZM203.663 89.3446L204.127 90.8525C204.301 91.4905 204.649 91.9545 205.055 92.1865C205.461 92.4185 205.925 92.4765 206.505 92.3025C207.027 92.1285 207.433 91.8385 207.607 91.4325C207.839 91.0265 207.839 90.4465 207.607 89.8085L207.143 88.3005L203.663 89.3446Z" fill="#2A2A2A"/>
<path d="M204.127 106.745C203.141 105.991 202.503 105.005 202.329 103.729C202.155 102.453 202.387 101.293 203.141 100.307C203.895 99.2625 204.881 98.6826 206.157 98.4506C207.433 98.2766 208.593 98.5085 209.637 99.2625C210.623 100.017 211.261 101.003 211.435 102.279C211.609 103.555 211.377 104.715 210.623 105.701C209.869 106.745 208.883 107.325 207.607 107.557C206.273 107.789 205.113 107.499 204.127 106.745ZM203.837 100.829C203.257 101.641 203.025 102.569 203.199 103.555C203.373 104.599 203.837 105.353 204.649 105.933C205.461 106.513 206.389 106.745 207.433 106.571C208.477 106.397 209.289 105.933 209.869 105.121C210.449 104.309 210.681 103.381 210.507 102.395C210.333 101.351 209.869 100.597 209.057 99.9585C208.245 99.3785 207.317 99.1466 206.273 99.3206C205.229 99.5526 204.417 100.017 203.837 100.829Z" fill="#2A2A2A"/>
<path d="M203.431 113.415L212.479 113.299L212.537 116.257C212.537 117.069 212.363 117.707 211.899 118.171C211.435 118.635 210.913 118.867 210.217 118.867C209.347 118.867 208.709 118.519 208.245 117.823C207.897 118.925 207.143 119.505 205.983 119.505C205.171 119.505 204.591 119.273 204.127 118.693C203.663 118.171 203.431 117.417 203.431 116.489V113.415ZM204.301 114.343L204.359 116.605C204.359 117.243 204.533 117.765 204.823 118.055C205.113 118.403 205.519 118.577 206.041 118.519C206.563 118.519 206.969 118.345 207.259 117.997C207.549 117.649 207.723 117.185 207.723 116.489L207.665 114.227L204.301 114.343ZM208.477 114.285V116.315C208.477 116.837 208.651 117.243 208.941 117.533C209.231 117.823 209.637 117.939 210.101 117.939C210.565 117.939 210.913 117.765 211.203 117.475C211.493 117.185 211.667 116.779 211.609 116.257V114.227L208.477 114.285Z" fill="#2A2A2A"/>
<path d="M203.547 132.091C202.793 131.105 202.503 129.945 202.677 128.669C202.851 127.393 203.431 126.349 204.417 125.595C205.403 124.841 206.563 124.551 207.839 124.667C209.115 124.841 210.159 125.421 210.913 126.407C211.667 127.393 211.957 128.553 211.783 129.829C211.609 131.105 211.029 132.149 210.043 132.903C209.057 133.657 207.897 133.947 206.621 133.831C205.345 133.657 204.301 133.077 203.547 132.091ZM204.939 126.349C204.127 126.929 203.663 127.799 203.547 128.785C203.431 129.829 203.663 130.699 204.301 131.511C204.939 132.323 205.751 132.729 206.795 132.903C207.839 133.019 208.767 132.787 209.579 132.207C210.391 131.627 210.855 130.815 210.971 129.771C211.087 128.727 210.855 127.857 210.275 127.045C209.695 126.233 208.825 125.769 207.781 125.653C206.621 125.479 205.693 125.711 204.939 126.349Z" fill="#2A2A2A"/>
<path d="M201.401 136.847L208.999 143.517L199.023 145.257L199.313 144.271L207.085 142.995L201.111 137.833L201.401 136.847Z" fill="#2A2A2A"/>
<path d="M202.096 151.984L201.458 153.55C201.11 154.42 200.588 155 199.892 155.348C199.254 155.696 198.558 155.696 197.804 155.348C197.05 155.058 196.586 154.536 196.354 153.84C196.122 153.144 196.18 152.332 196.586 151.462L197.63 149.026L205.982 152.506L205.634 153.376L202.096 151.984ZM198.036 150.302L197.398 151.868C197.108 152.506 197.05 153.028 197.224 153.492C197.34 153.956 197.688 154.304 198.21 154.536C198.732 154.768 199.196 154.768 199.602 154.536C200.008 154.304 200.356 153.898 200.646 153.26L201.284 151.694L198.036 150.302Z" fill="#2A2A2A"/>
<path d="M190.671 164.803L190.091 165.731L187.655 164.339L188.119 163.527L189.743 164.455L193.223 158.539L200.995 163.121L200.531 163.933L193.513 159.815L191.077 163.991L198.095 168.109L197.631 168.921L190.671 164.803Z" fill="#2A2A2A"/>
<path d="M181.739 175.185L188.641 180.985L188.061 181.681L181.159 175.881L181.739 175.185ZM189.801 173.793L188.699 175.127C188.119 175.881 187.423 176.287 186.669 176.403C185.973 176.519 185.277 176.345 184.639 175.823C184.001 175.301 183.711 174.663 183.711 173.967C183.711 173.213 184.001 172.517 184.581 171.763L186.263 169.733L193.165 175.533L192.585 176.229L189.801 173.793ZM186.379 170.951L185.277 172.285C184.813 172.807 184.639 173.329 184.639 173.793C184.639 174.257 184.871 174.721 185.277 175.069C185.683 175.417 186.147 175.591 186.611 175.475C187.075 175.417 187.539 175.069 188.003 174.547L189.105 173.213L186.379 170.951Z" fill="#2A2A2A"/>
<path d="M116.141 160.743H114.981C114.981 148.737 102.801 140.443 89.9249 131.685C79.6589 124.667 68.9869 117.475 64.9849 108.079C59.3008 94.7966 67.0149 80.1806 77.7449 73.7426C90.5049 66.0286 104.831 69.7406 116.025 83.5446L115.155 84.2986C104.309 70.9586 90.5629 67.3626 78.3249 74.7286C68.0009 80.9346 60.6349 94.9706 66.0289 107.615C69.9149 116.721 80.4128 123.855 90.5629 130.757C103.149 139.283 116.141 148.099 116.141 160.743Z" fill="#2A2A2A"/>
<path d="M116.14 160.743H114.98C114.98 148.099 128.03 138.877 140.674 130.003C150.766 122.927 161.206 115.561 165.092 106.513C170.428 94.1006 163.236 80.4706 153.26 74.4386C140.906 67.0146 126.986 70.6686 116.024 84.2406L115.154 83.4866C128.552 66.8986 143.98 67.4206 153.898 73.3946C164.338 79.6586 171.762 93.9266 166.194 106.919C162.192 116.315 151.578 123.739 141.37 130.931C128.378 140.095 116.14 148.679 116.14 160.743Z" fill="#2A2A2A"/>
<path d="M115.85 178.838H114.69C114.69 166.194 127.16 157.204 139.282 148.504C149.026 141.486 159.06 134.294 162.772 125.188C168.05 112.312 160.394 98.0445 150.302 92.1865C138.76 85.5165 125.826 89.3445 115.734 102.394L114.806 101.698C125.246 88.1845 138.76 84.2405 150.824 91.2005C162.888 98.1605 168.688 113.588 163.816 125.652C159.988 135.048 149.78 142.356 139.92 149.49C127.566 158.364 115.85 166.774 115.85 178.838Z" fill="#2A2A2A"/>
</svg>
