<svg width="232" height="232" viewBox="0 0 232 232" fill="none" xmlns="http://www.w3.org/2000/svg">
<g clip-path="url(#clip0_264_724)">
<path d="M115.594 231.942C179.402 231.942 231.13 180.215 231.13 116.406C231.13 52.5972 179.402 0.87 115.594 0.87C51.7848 0.87 0.0576172 52.5972 0.0576172 116.406C0.0576172 180.215 51.7848 231.942 115.594 231.942Z" fill="#E5818E"/>
<path d="M104.631 28.188L103.993 14.964L110.779 21.228L116.985 14.384L117.623 27.608L114.665 27.724L114.375 21.286L110.953 25.056L107.183 21.634L107.473 28.072L104.631 28.188Z" fill="#2A2A2A"/>
<path d="M131.949 27.376C130.499 28.478 128.817 28.942 127.019 28.71C125.163 28.478 123.713 27.608 122.611 26.158C121.509 24.708 121.045 23.026 121.277 21.228C121.509 19.372 122.379 17.922 123.829 16.82C125.279 15.718 126.961 15.254 128.759 15.486C130.557 15.718 132.065 16.588 133.167 18.038C134.269 19.488 134.733 21.17 134.501 22.968C134.269 24.766 133.457 26.274 131.949 27.376ZM124.931 24.418C125.569 25.23 126.381 25.752 127.425 25.868C128.469 25.984 129.397 25.752 130.209 25.114C131.021 24.476 131.485 23.606 131.601 22.562C131.717 21.518 131.485 20.532 130.905 19.72C130.267 18.908 129.455 18.386 128.411 18.27C127.367 18.154 126.439 18.386 125.627 19.024C124.815 19.662 124.351 20.532 124.235 21.576C124.061 22.62 124.293 23.606 124.931 24.418Z" fill="#2A2A2A"/>
<path d="M133.921 29.522L143.781 18.56L146.333 33.06L143.317 32.19L142.041 24.65L136.937 30.334L133.921 29.522Z" fill="#2A2A2A"/>
<path d="M157.701 36.25C155.961 36.888 154.279 36.83 152.597 36.076C150.915 35.322 149.755 34.046 149.117 32.306C148.479 30.566 148.537 28.884 149.291 27.202C150.045 25.52 151.321 24.36 153.061 23.722C154.801 23.084 156.483 23.142 158.165 23.896C159.847 24.65 161.007 25.926 161.645 27.666C162.283 29.406 162.225 31.088 161.471 32.77C160.717 34.452 159.441 35.612 157.701 36.25ZM151.843 31.378C152.191 32.364 152.829 33.06 153.757 33.524C154.743 33.988 155.671 33.988 156.657 33.582C157.643 33.176 158.339 32.538 158.745 31.552C159.209 30.566 159.267 29.58 158.919 28.652C158.571 27.666 157.933 26.97 156.947 26.506C155.961 26.042 155.033 26.042 154.047 26.39C153.061 26.796 152.365 27.434 151.959 28.42C151.553 29.406 151.495 30.392 151.843 31.378Z" fill="#2A2A2A"/>
<path d="M158.165 41.528L161.297 36.888L162.573 37.758L172.781 32.074L171.331 43.616L172.607 44.486L169.475 49.126L167.039 47.56L168.547 45.298L161.993 40.89L160.485 43.152L158.165 41.528ZM168.663 41.934L169.359 37.12L165.125 39.556L168.663 41.934Z" fill="#2A2A2A"/>
<path d="M172.434 48.372L181.25 38.686L187.224 44.138L185.252 46.284L181.424 42.804L179.916 44.428L182.932 47.154L181.018 49.242L178.002 46.516L176.494 48.14L180.322 51.62L178.35 53.766L172.434 48.372Z" fill="#2A2A2A"/>
<path d="M179.625 54.404L187.861 54.462L190.355 46.864L192.443 49.532L190.007 57.072L195.169 53.07L196.967 55.39L191.805 59.392L199.751 58.928L201.839 61.596L193.835 62.06L191.805 70.064L189.601 67.164L191.515 59.624L186.643 63.394L184.845 61.074L189.717 57.304L181.945 57.246L179.625 54.404Z" fill="#2A2A2A"/>
<path d="M201.259 70.586L202.129 72.268C202.709 73.428 202.883 74.53 202.535 75.69C202.187 76.792 201.491 77.662 200.447 78.242C199.345 78.822 198.243 78.88 197.141 78.532C196.039 78.126 195.169 77.372 194.589 76.27L192.327 71.978L203.927 65.946L205.319 68.556L201.259 70.586ZM196.155 73.254L197.025 74.936C197.257 75.4 197.547 75.69 197.895 75.806C198.243 75.98 198.649 75.922 199.113 75.69C199.519 75.458 199.809 75.168 199.867 74.762C199.983 74.356 199.867 73.95 199.635 73.544L198.765 71.862L196.155 73.254Z" fill="#2A2A2A"/>
<path d="M25.1719 164.488L36.4239 157.528L34.2779 166.518L43.2679 168.664L32.0159 175.624L30.4499 173.13L35.9019 169.766L30.9719 168.606L32.1319 163.676L26.6799 167.04L25.1719 164.488Z" fill="#2A2A2A"/>
<path d="M42.92 185.774C41.064 185.658 39.556 184.904 38.338 183.512C37.12 182.12 36.598 180.496 36.714 178.64C36.83 176.784 37.584 175.276 38.976 174.058C40.368 172.84 41.992 172.318 43.848 172.434C45.704 172.55 47.212 173.304 48.43 174.696C49.648 176.088 50.17 177.712 50.054 179.568C49.938 181.424 49.184 182.932 47.792 184.15C46.342 185.368 44.718 185.89 42.92 185.774ZM39.556 178.872C39.44 179.916 39.73 180.844 40.426 181.598C41.122 182.41 41.992 182.816 43.036 182.874C44.08 182.932 45.008 182.584 45.82 181.888C46.632 181.192 47.096 180.322 47.154 179.278C47.27 178.234 46.98 177.306 46.284 176.552C45.588 175.74 44.718 175.334 43.674 175.276C42.63 175.218 41.702 175.566 40.89 176.262C40.136 177.016 39.672 177.886 39.556 178.872Z" fill="#2A2A2A"/>
<path d="M45.5879 190.936L54.1719 181.076L57.4199 183.86C58.3479 184.672 58.8699 185.716 58.9859 186.934C59.0439 188.152 58.6959 189.196 57.8839 190.182C57.0719 191.11 56.0279 191.632 54.8679 191.69C53.6499 191.748 52.5479 191.4 51.6199 190.588L50.5759 189.718L47.7919 192.908L45.5879 190.936ZM52.3739 187.63L53.3599 188.5C53.7079 188.79 54.1139 188.964 54.5779 188.906C55.0419 188.848 55.4479 188.674 55.7379 188.326C56.0279 187.978 56.2019 187.572 56.1439 187.108C56.1439 186.644 55.9119 186.238 55.5639 185.948L54.5779 185.078L52.3739 187.63Z" fill="#2A2A2A"/>
<path d="M51.6777 199.868L54.7517 195.228L56.0277 196.098L66.1777 190.356L64.7857 201.898L66.0617 202.768L62.9877 207.408L60.6097 205.842L62.1177 203.58L55.5637 199.172L54.0557 201.434L51.6777 199.868ZM62.1757 200.216L62.8717 195.402L58.6377 197.896L62.1757 200.216Z" fill="#2A2A2A"/>
<path d="M77.3717 209.38C75.6317 210.018 73.9497 209.96 72.2677 209.148C70.5857 208.394 69.4257 207.118 68.7877 205.378C68.1497 203.638 68.2077 201.956 69.0197 200.274C69.7737 198.592 71.0497 197.432 72.7897 196.794C74.5297 196.156 76.2117 196.214 77.8937 197.026C79.5757 197.838 80.7357 199.056 81.3157 200.796C81.9537 202.536 81.8957 204.218 81.0837 205.9C80.3297 207.582 79.1117 208.742 77.3717 209.38ZM71.5137 204.392C71.8617 205.378 72.4997 206.074 73.4277 206.538C74.4137 207.002 75.3417 207.002 76.3277 206.654C77.3137 206.306 78.0097 205.61 78.4737 204.624C78.9377 203.638 78.9957 202.652 78.6477 201.724C78.2997 200.738 77.6617 200.042 76.7337 199.578C75.7477 199.114 74.8197 199.114 73.8337 199.462C72.8477 199.81 72.1517 200.506 71.6877 201.492C71.2237 202.478 71.1657 203.464 71.5137 204.392Z" fill="#2A2A2A"/>
<path d="M81.7803 212.976L85.5503 200.448L90.2483 201.84C91.2923 202.13 92.0463 202.768 92.5683 203.754C93.0903 204.682 93.2063 205.668 92.8583 206.712C92.6263 207.582 92.1043 208.162 91.3503 208.626C91.8143 209.09 92.1043 209.612 92.2783 210.192C92.4523 210.772 92.4523 211.41 92.2203 212.048C91.9303 213.092 91.2923 213.846 90.3063 214.368C89.3783 214.89 88.3343 214.948 87.2903 214.658L81.7803 212.976ZM86.8843 206.364L88.4503 206.828C88.7983 206.944 89.1463 206.944 89.4943 206.77C89.7843 206.596 90.0163 206.364 90.1323 206.016C90.2483 205.668 90.1903 205.32 90.0163 205.03C89.8423 204.74 89.5523 204.508 89.2043 204.392L87.6383 203.928L86.8843 206.364ZM85.3763 211.236L87.8123 211.99C88.1603 212.106 88.5083 212.106 88.8563 211.932C89.1463 211.758 89.3783 211.526 89.4943 211.178C89.6103 210.83 89.5523 210.482 89.3783 210.192C89.2043 209.902 88.9143 209.67 88.5663 209.554L86.1303 208.8L85.3763 211.236Z" fill="#2A2A2A"/>
<path d="M94.5977 216.746L96.5697 203.638L99.4697 204.102L98.4257 210.888L107.648 205.204L105.676 218.312L102.776 217.848L103.82 211.062L94.5977 216.746Z" fill="#2A2A2A"/>
<path d="M109.968 218.718V205.494H112.926V212.338L121.162 205.32V218.544H118.204V211.7L109.968 218.718Z" fill="#2A2A2A"/>
<path d="M27.608 112.81L19.488 112.694L19.43 117.624L27.55 117.74V118.668L18.502 118.552L18.618 111.766L27.666 111.882L27.608 112.81Z" fill="#2A2A2A"/>
<path d="M27.8979 107.416L19.5459 101.674L29.2319 98.774L29.0579 99.76L26.3319 100.572L25.6939 104.806L28.0139 106.372L27.8979 107.416ZM24.9399 104.342L25.4619 100.92L21.5759 102.08L24.9399 104.342Z" fill="#2A2A2A"/>
<path d="M30.3335 94.656L22.5035 92.568L21.8075 95.12L20.9375 94.888L22.5035 88.914L23.3735 89.146L22.6775 91.698L30.5075 93.786L30.3335 94.656Z" fill="#2A2A2A"/>
<path d="M32.5379 87.464L24.1279 84.216L25.0559 81.838C25.4039 80.968 25.8679 80.33 26.5639 80.04C27.2019 79.692 27.8979 79.692 28.6519 79.982C29.4059 80.272 29.9279 80.736 30.1599 81.432C30.4499 82.128 30.3919 82.882 30.0439 83.752L29.4639 85.26L32.8859 86.594L32.5379 87.464ZM28.5939 84.97L29.1739 83.462C29.4059 82.824 29.4639 82.302 29.2899 81.838C29.1159 81.374 28.7679 81.084 28.2459 80.852C27.7239 80.678 27.2599 80.678 26.7959 80.852C26.3899 81.084 26.0419 81.49 25.8099 82.128L25.2299 83.636L28.5939 84.97Z" fill="#2A2A2A"/>
<path d="M36.5977 77.952L28.5938 73.544L29.0577 72.732L35.1477 76.038L32.1318 66.932L40.1357 71.34L39.6718 72.152L33.6398 68.846L36.5977 77.952Z" fill="#2A2A2A"/>
<path d="M46.9223 59.682C47.0963 60.9 46.7483 62.06 45.9943 63.104C45.1823 64.148 44.1963 64.728 42.9203 64.902C41.7023 65.076 40.5423 64.728 39.4983 63.974C38.4543 63.162 37.8743 62.176 37.7003 60.9C37.5263 59.682 37.8743 58.522 38.6283 57.478C39.4403 56.434 40.4263 55.854 41.7023 55.68C42.9203 55.506 44.0803 55.854 45.1243 56.608C46.1683 57.42 46.7483 58.406 46.9223 59.682ZM42.8043 63.916C43.7903 63.8 44.6023 63.336 45.2403 62.524C45.8783 61.712 46.1103 60.784 45.9943 59.798C45.8783 58.812 45.3563 58 44.5443 57.362C43.7323 56.724 42.8043 56.434 41.8183 56.55C40.8323 56.666 40.0203 57.13 39.3823 57.942C38.7443 58.754 38.5123 59.682 38.6283 60.668C38.7443 61.654 39.2663 62.466 40.0783 63.104C40.8903 63.8 41.8183 64.09 42.8043 63.916Z" fill="#2A2A2A"/>
<path d="M52.7803 55.158L46.9803 49.416L45.1243 51.272L44.4863 50.634L48.8363 46.226L49.4743 46.864L47.6763 48.72L53.4183 54.462L52.7803 55.158Z" fill="#2A2A2A"/>
<path d="M56.1439 44.776L57.4779 43.732C58.2319 43.152 58.9859 42.862 59.6819 42.92C60.4359 42.978 61.0159 43.326 61.5379 43.964C62.0019 44.602 62.1759 45.298 62.0599 45.994C61.9439 46.69 61.4799 47.386 60.7259 47.966L58.6379 49.59L53.1279 42.456L53.8819 41.876L56.1439 44.776ZM58.8699 48.314L60.2039 47.27C60.7259 46.864 61.0739 46.4 61.1899 45.936C61.3059 45.472 61.1899 45.008 60.8419 44.544C60.4939 44.08 60.0879 43.848 59.6239 43.848C59.1599 43.848 58.6379 44.022 58.0579 44.428L56.7239 45.472L58.8699 48.314ZM64.2639 45.182L58.7539 38.048L59.5079 37.468L65.0179 44.602L64.2639 45.182Z" fill="#2A2A2A"/>
<path d="M202.071 132.356L210.075 133.574L210.829 128.702L202.825 127.484L202.941 126.556L211.873 127.89L210.887 134.618L201.955 133.284L202.071 132.356Z" fill="#2A2A2A"/>
<path d="M201.027 137.634L208.509 144.42L198.533 145.986L198.823 145L201.607 144.594L202.825 140.476L200.737 138.62L201.027 137.634ZM203.579 141.114L202.593 144.478L206.653 143.84L203.579 141.114Z" fill="#2A2A2A"/>
<path d="M196.909 149.93L204.391 153.062L205.377 150.626L206.247 150.974L203.869 156.716L202.999 156.368L203.985 153.932L196.503 150.8L196.909 149.93Z" fill="#2A2A2A"/>
<path d="M193.777 156.774L201.723 161.124L200.505 163.328C200.041 164.14 199.461 164.662 198.823 164.952C198.127 165.184 197.431 165.126 196.735 164.72C196.039 164.314 195.575 163.792 195.401 163.038C195.227 162.342 195.343 161.53 195.807 160.718L196.561 159.326L193.313 157.586L193.777 156.774ZM197.315 159.79L196.561 161.182C196.213 161.762 196.155 162.284 196.213 162.748C196.329 163.212 196.619 163.56 197.141 163.85C197.605 164.14 198.127 164.198 198.533 164.024C198.997 163.85 199.403 163.502 199.693 162.922L200.447 161.53L197.315 159.79Z" fill="#2A2A2A"/>
<path d="M188.499 165.648L195.865 171.042L195.343 171.796L189.775 167.678L191.515 177.132L184.149 171.738L184.729 170.984L190.297 175.102L188.499 165.648Z" fill="#2A2A2A"/>
<path d="M175.855 182.41C175.855 181.134 176.319 180.09 177.247 179.162C178.175 178.234 179.277 177.77 180.495 177.828C181.771 177.828 182.815 178.292 183.743 179.22C184.671 180.148 185.135 181.25 185.077 182.468C185.077 183.744 184.613 184.788 183.685 185.716C182.757 186.644 181.655 187.108 180.437 187.05C179.161 187.05 178.117 186.586 177.189 185.658C176.261 184.788 175.797 183.686 175.855 182.41ZM180.495 178.756C179.509 178.756 178.639 179.104 177.885 179.858C177.131 180.612 176.783 181.424 176.783 182.468C176.783 183.454 177.131 184.324 177.885 185.078C178.639 185.832 179.509 186.18 180.495 186.238C181.481 186.238 182.351 185.89 183.105 185.194C183.859 184.44 184.207 183.628 184.207 182.584C184.207 181.598 183.859 180.728 183.105 179.974C182.351 179.104 181.481 178.756 180.495 178.756Z" fill="#2A2A2A"/>
<path d="M169.417 186.122L174.347 192.56L176.435 190.936L177.015 191.69L172.085 195.46L171.505 194.764L173.593 193.14L168.663 186.702L169.417 186.122Z" fill="#2A2A2A"/>
<path d="M156.715 194.416L161.239 202.246L160.427 202.71L155.903 194.88L156.715 194.416ZM164.719 195.924L163.269 196.794C162.457 197.258 161.703 197.432 160.949 197.316C160.253 197.2 159.673 196.736 159.267 196.04C158.861 195.344 158.803 194.648 159.035 193.952C159.267 193.256 159.789 192.676 160.601 192.212L162.863 190.878L167.387 198.708L166.575 199.172L164.719 195.924ZM162.515 192.096L161.065 192.966C160.485 193.314 160.079 193.72 159.905 194.184C159.731 194.648 159.789 195.112 160.079 195.576C160.369 196.04 160.717 196.33 161.181 196.446C161.645 196.562 162.167 196.388 162.805 196.04L164.255 195.17L162.515 192.096Z" fill="#2A2A2A"/>
<path d="M128.18 116.348C125.686 116.348 123.134 115.942 120.698 115.188L120.292 115.072V114.666C120.408 106.952 124.178 99.702 130.442 95.178C134.096 92.568 138.33 91.002 142.738 90.712L143.666 90.654L143.318 91.524C142.158 94.192 141.578 97.034 141.462 99.876C144.246 100.746 147.088 101.036 149.988 100.804L150.916 100.746L150.568 101.616C148.828 105.676 145.986 109.214 142.39 111.824C138.214 114.84 133.226 116.348 128.18 116.348ZM121.51 114.202C128.412 116.29 135.952 115.072 141.752 110.838C144.942 108.518 147.494 105.502 149.176 101.964C146.334 102.08 143.492 101.674 140.766 100.804L140.36 100.688V100.282C140.418 97.44 140.94 94.598 141.926 91.93C138.04 92.394 134.328 93.844 131.138 96.106C125.28 100.282 121.684 107.068 121.51 114.202Z" fill="#2A2A2A"/>
<path d="M92.626 142.564L92.974 141.694C94.134 139.026 94.714 136.242 94.83 133.342C92.046 132.472 89.204 132.182 86.304 132.414L85.376 132.472L85.724 131.602C87.464 127.484 90.306 123.946 93.902 121.394C100.166 116.928 108.286 115.652 115.594 118.03L116 118.146V118.552C115.884 126.266 112.114 133.516 105.85 138.04C102.196 140.65 97.962 142.216 93.554 142.506L92.626 142.564ZM88.16 131.196C90.712 131.196 93.206 131.602 95.642 132.356L96.048 132.472V132.878C95.99 135.778 95.468 138.562 94.482 141.23C98.368 140.766 102.08 139.316 105.27 137.054C111.128 132.878 114.724 126.092 114.956 118.958C108.054 116.87 100.514 118.146 94.714 122.322C91.524 124.642 88.972 127.658 87.29 131.196C87.522 131.196 87.812 131.196 88.16 131.196Z" fill="#2A2A2A"/>
<path d="M134.037 149.408L133.167 149.06C129.107 147.32 125.511 144.478 122.959 140.882C118.493 134.618 117.217 126.498 119.595 119.19L119.711 118.784H120.117C127.831 118.9 135.081 122.67 139.605 128.934C142.215 132.588 143.781 136.822 144.129 141.23L144.187 142.158L143.317 141.81C140.649 140.65 137.807 140.07 134.965 139.954C134.095 142.738 133.805 145.58 134.037 148.48V149.408ZM120.523 119.886C118.435 126.788 119.653 134.328 123.887 140.128C126.207 143.318 129.223 145.87 132.761 147.552C132.645 144.71 133.051 141.868 133.921 139.142L134.037 138.736H134.443C137.285 138.794 140.127 139.316 142.795 140.302C142.331 136.416 140.881 132.704 138.619 129.514C134.501 123.714 127.715 120.118 120.523 119.886Z" fill="#2A2A2A"/>
<path d="M116.638 114.492H116.232C108.518 114.376 101.268 110.606 96.7437 104.342C94.1337 100.688 92.5677 96.454 92.2777 92.046L92.2197 91.06L93.0897 91.408C95.7577 92.568 98.5417 93.148 101.442 93.264C102.312 90.48 102.602 87.638 102.37 84.738L102.312 83.81L103.182 84.158C107.242 85.898 110.838 88.74 113.39 92.336C117.856 98.6 119.132 106.72 116.754 114.028L116.638 114.492ZM93.4957 92.858C93.9597 96.744 95.4097 100.456 97.6717 103.646C101.848 109.504 108.634 113.1 115.768 113.332C117.856 106.43 116.638 98.89 112.404 93.09C110.084 89.9 107.068 87.348 103.53 85.666C103.646 88.508 103.24 91.35 102.37 94.076L102.254 94.482H101.848C98.9477 94.366 96.1637 93.844 93.4957 92.858Z" fill="#2A2A2A"/>
<path d="M168.605 83.404C154.047 83.404 139.779 78.764 124.931 73.892C105.965 67.686 86.4195 61.306 64.2635 63.974L64.1475 62.814C86.5355 60.088 106.255 66.526 125.337 72.732C145.869 79.46 165.241 85.782 185.831 79.808L186.179 80.91C180.147 82.65 174.347 83.404 168.605 83.404Z" fill="#2A2A2A"/>
<path d="M150.22 170.868C135.662 170.868 121.394 166.228 106.546 161.356C87.5797 155.15 68.0337 148.77 45.8777 151.438L45.7617 150.278C68.1497 147.552 87.8697 153.99 106.952 160.196C127.484 166.924 146.856 173.246 167.446 167.272L167.794 168.374C161.762 170.114 155.962 170.868 150.22 170.868Z" fill="#2A2A2A"/>
</g>
<defs>
<clipPath id="clip0_264_724">
<rect width="232" height="232" fill="white"/>
</clipPath>
</defs>
</svg>
