<svg width="232" height="232" viewBox="0 0 232 232" fill="none" xmlns="http://www.w3.org/2000/svg">
<g clip-path="url(#clip0_264_349)">
<path d="M116 232C180.065 232 232 180.065 232 116C232 51.935 180.065 0 116 0C51.935 0 0 51.935 0 116C0 180.065 51.935 232 116 232Z" fill="#A3358C"/>
<path d="M63.7998 43.674L56.8398 32.364L65.8878 34.568L68.0338 25.52L74.9938 36.888L72.4418 38.454L69.0778 32.944L67.8598 37.874L62.9298 36.656L66.2938 42.166L63.7998 43.674Z" fill="#2A2A2A"/>
<path d="M87.4638 29.754C86.7098 31.436 85.4918 32.654 83.7518 33.292C82.0118 33.988 80.3298 33.93 78.5898 33.176C76.9078 32.422 75.6898 31.204 75.0518 29.464C74.4138 27.724 74.4138 26.042 75.1678 24.302C75.9218 22.62 77.1398 21.402 78.8798 20.764C80.6198 20.068 82.3018 20.126 84.0418 20.88C85.7238 21.634 86.9418 22.852 87.5798 24.592C88.2758 26.332 88.2178 28.072 87.4638 29.754ZM79.8658 30.566C80.7938 31.03 81.7798 31.03 82.7658 30.682C83.7518 30.276 84.4478 29.638 84.8538 28.652C85.2598 27.666 85.2598 26.738 84.8538 25.694C84.4478 24.708 83.8098 23.954 82.8818 23.548C81.9538 23.084 80.9678 23.084 79.9818 23.432C78.9958 23.838 78.2998 24.476 77.8938 25.462C77.4878 26.448 77.4878 27.376 77.8938 28.42C78.2418 29.406 78.9378 30.16 79.8658 30.566Z" fill="#2A2A2A"/>
<path d="M90.248 30.682L93.67 16.298L102.892 27.84L99.818 28.536L95.062 22.504L93.322 29.986L90.248 30.682Z" fill="#2A2A2A"/>
<path d="M114.434 25.172C113.216 26.564 111.708 27.318 109.852 27.492C107.996 27.608 106.372 27.086 104.98 25.868C103.588 24.65 102.834 23.142 102.66 21.286C102.544 19.43 103.066 17.806 104.284 16.414C105.502 15.022 107.01 14.268 108.866 14.094C110.722 13.978 112.346 14.5 113.738 15.718C115.13 16.936 115.884 18.444 116.058 20.3C116.174 22.156 115.652 23.78 114.434 25.172ZM106.894 23.722C107.648 24.418 108.576 24.708 109.62 24.65C110.664 24.592 111.534 24.128 112.172 23.316C112.81 22.504 113.1 21.576 113.042 20.532C112.984 19.488 112.52 18.56 111.766 17.864C111.012 17.168 110.084 16.878 109.04 16.936C107.996 16.994 107.126 17.458 106.488 18.27C105.85 19.082 105.56 20.01 105.618 21.054C105.734 22.098 106.14 23.026 106.894 23.722Z" fill="#2A2A2A"/>
<path d="M117.392 29.58L117.914 24.012L119.422 24.128L125.628 14.21L129.92 25.114L131.428 25.23L130.906 30.798L128.064 30.508L128.296 27.782L120.408 27.028L120.176 29.754L117.392 29.58ZM126.788 24.882L125.106 20.3L122.554 24.476L126.788 24.882Z" fill="#2A2A2A"/>
<path d="M133.226 28.71L136.3 15.95L144.188 17.864L143.492 20.706L138.446 19.488L137.924 21.634L141.868 22.62L141.172 25.404L137.228 24.418L136.706 26.564L141.752 27.782L141.056 30.624L133.226 28.71Z" fill="#2A2A2A"/>
<path d="M142.506 30.566L149.756 26.68L148.306 18.792L151.438 20.184L152.888 28.014L155.498 21.982L158.224 23.142L155.614 29.174L162.4 24.94L165.532 26.332L158.746 30.624L160.834 38.628L157.47 37.178L155.44 29.522L152.946 35.148L150.22 33.988L152.714 28.362L145.812 32.074L142.506 30.566Z" fill="#2A2A2A"/>
<path d="M169.302 34.394L170.926 35.438C171.97 36.134 172.666 37.062 172.898 38.222C173.188 39.382 172.956 40.484 172.26 41.47C171.564 42.514 170.636 43.094 169.476 43.326C168.316 43.5 167.214 43.268 166.112 42.572L162.052 39.846L169.36 28.942L171.796 30.566L169.302 34.394ZM166.112 39.208L167.678 40.252C168.084 40.542 168.49 40.658 168.896 40.6C169.302 40.542 169.65 40.31 169.882 39.962C170.172 39.556 170.23 39.15 170.114 38.802C169.998 38.396 169.766 38.048 169.36 37.816L167.794 36.772L166.112 39.208Z" fill="#2A2A2A"/>
<path d="M59.624 201.956L66.236 190.414L68.672 199.346L77.604 196.91L70.992 208.452L68.44 207.002L71.63 201.434L66.758 202.768L65.424 197.896L62.234 203.464L59.624 201.956Z" fill="#2A2A2A"/>
<path d="M85.4344 212.164C83.7524 212.918 82.0124 213.034 80.2724 212.338C78.5324 211.7 77.2564 210.54 76.5024 208.858C75.7484 207.176 75.6324 205.436 76.3284 203.696C76.9664 201.956 78.1264 200.68 79.8084 199.926C81.4904 199.172 83.2304 199.056 84.9704 199.752C86.7104 200.39 87.9864 201.55 88.7404 203.232C89.4944 204.914 89.6104 206.654 88.9144 208.394C88.3344 210.134 87.1164 211.41 85.4344 212.164ZM79.1704 207.698C79.5764 208.626 80.2724 209.322 81.2584 209.67C82.2444 210.018 83.2304 210.018 84.1584 209.554C85.0864 209.09 85.7244 208.336 86.1304 207.35C86.4784 206.364 86.4784 205.378 86.0724 204.392C85.6664 203.464 84.9704 202.768 83.9844 202.42C82.9984 202.072 82.0124 202.072 81.0844 202.536C80.1564 203 79.5184 203.754 79.1124 204.74C78.7644 205.784 78.7644 206.77 79.1704 207.698Z" fill="#2A2A2A"/>
<path d="M90.3057 215.412L93.0897 202.594L97.3237 203.522C98.5417 203.812 99.5277 204.45 100.166 205.494C100.804 206.538 101.036 207.64 100.746 208.858C100.456 210.076 99.8177 211.004 98.8317 211.7C97.7877 212.338 96.6857 212.57 95.4097 212.28L94.0757 211.99L93.1477 216.108L90.3057 215.412ZM94.6557 209.206L95.9317 209.496C96.3957 209.612 96.8017 209.496 97.2077 209.264C97.6137 208.974 97.8457 208.626 97.9037 208.22C98.0197 207.756 97.9037 207.35 97.6717 206.944C97.4397 206.538 97.0917 206.306 96.6277 206.19L95.3517 205.9L94.6557 209.206Z" fill="#2A2A2A"/>
<path d="M99.9922 220.342L100.514 214.774L102.022 214.89L108.228 204.972L112.578 215.818L114.086 215.934L113.564 221.502L110.722 221.27L110.954 218.544L103.066 217.848L102.834 220.574L99.9922 220.342ZM109.388 215.586L107.648 211.004L105.154 215.238L109.388 215.586Z" fill="#2A2A2A"/>
<path d="M127.136 216.34C125.918 217.732 124.352 218.486 122.496 218.602C120.64 218.718 119.016 218.138 117.624 216.92C116.232 215.702 115.478 214.136 115.362 212.28C115.246 210.424 115.826 208.8 117.044 207.408C118.262 206.016 119.828 205.262 121.684 205.146C123.54 205.03 125.164 205.61 126.556 206.828C127.948 208.046 128.702 209.612 128.818 211.468C128.934 213.324 128.354 214.948 127.136 216.34ZM119.654 214.774C120.408 215.47 121.336 215.818 122.38 215.76C123.424 215.702 124.294 215.238 124.99 214.484C125.628 213.672 125.976 212.744 125.86 211.7C125.802 210.656 125.396 209.728 124.642 209.032C123.888 208.336 122.96 207.988 121.916 208.046C120.872 208.104 120.002 208.568 119.306 209.322C118.61 210.134 118.32 211.062 118.436 212.106C118.436 213.208 118.842 214.078 119.654 214.774Z" fill="#2A2A2A"/>
<path d="M132.82 217.384L130.094 204.508L134.908 203.464C135.952 203.232 136.938 203.406 137.866 203.986C138.794 204.566 139.316 205.378 139.548 206.422C139.722 207.292 139.606 208.104 139.084 208.8C139.722 208.974 140.244 209.322 140.65 209.728C141.114 210.192 141.346 210.714 141.52 211.41C141.752 212.454 141.578 213.44 140.94 214.368C140.302 215.296 139.49 215.818 138.388 216.05L132.82 217.384ZM134.096 209.09L135.72 208.742C136.126 208.684 136.416 208.452 136.59 208.162C136.764 207.872 136.88 207.524 136.764 207.176C136.706 206.828 136.474 206.538 136.184 206.364C135.894 206.19 135.546 206.132 135.14 206.19L133.516 206.538L134.096 209.09ZM135.14 214.078L137.634 213.556C138.04 213.498 138.33 213.266 138.504 212.976C138.678 212.686 138.794 212.338 138.678 211.99C138.62 211.642 138.388 211.352 138.098 211.178C137.808 211.004 137.46 210.946 137.054 211.004L134.56 211.526L135.14 214.078Z" fill="#2A2A2A"/>
<path d="M145.87 214.484L141.288 202.014L144.072 200.97L146.45 207.408L151.844 197.954L156.426 210.424L153.642 211.468L151.264 205.03L145.87 214.484Z" fill="#2A2A2A"/>
<path d="M160.37 208.858L153.99 197.2L156.6 195.75L159.906 201.782L163.792 191.632L170.172 203.29L167.562 204.74L164.256 198.708L160.37 208.858Z" fill="#2A2A2A"/>
<path d="M37.3522 156.194L29.1742 160.08L28.7682 159.21L32.9442 157.238L26.9702 155.266L26.4482 154.222L32.4802 156.194L34.5102 149.988L35.0322 151.148L33.0602 157.238L37.0042 155.382L37.3522 156.194Z" fill="#2A2A2A"/>
<path d="M33.1184 146.334L24.5344 149.176L23.7224 146.74C23.4324 145.87 23.4324 145.058 23.7224 144.362C24.0124 143.666 24.5344 143.202 25.2884 142.97C26.0424 142.738 26.7384 142.796 27.3764 143.144C28.0144 143.492 28.4784 144.13 28.7684 145L29.2904 146.508L32.7704 145.348L33.1184 146.334ZM28.4784 146.914L27.9564 145.406C27.7244 144.768 27.4344 144.304 27.0284 144.072C26.6224 143.84 26.1584 143.782 25.5784 143.956C25.0564 144.13 24.7084 144.42 24.4764 144.884C24.3024 145.348 24.3024 145.87 24.5344 146.508L25.0564 148.016L28.4784 146.914Z" fill="#2A2A2A"/>
<path d="M30.2764 136.88L21.4024 138.736L20.3584 133.69L21.2284 133.516L22.0984 137.692L25.0564 137.054L24.3604 133.632L25.2304 133.458L25.9264 136.88L29.1164 136.184L28.2464 132.066L29.1164 131.892L30.2764 136.88Z" fill="#2A2A2A"/>
<path d="M28.594 128.47L19.082 124.932L27.84 119.77L27.898 120.756L25.462 122.148L25.81 126.44L28.478 127.426L28.594 128.47ZM24.94 126.15L24.65 122.67L21.112 124.758L24.94 126.15Z" fill="#2A2A2A"/>
<path d="M27.898 115.42L19.778 115.304L19.72 117.914H18.792L18.908 111.708H19.836L19.778 114.376L27.898 114.492V115.42Z" fill="#2A2A2A"/>
<path d="M28.3625 107.474L19.3145 106.14L19.4305 105.212L26.2745 106.198L20.2425 98.658L29.2905 99.992L29.1745 100.92L22.3305 99.934L28.3625 107.474Z" fill="#2A2A2A"/>
<path d="M30.6238 94.366L21.9238 91.814L22.7358 88.972C22.9678 88.16 23.3738 87.638 23.8958 87.29C24.4758 86.942 25.0558 86.884 25.6938 87.116C26.5638 87.348 27.0858 87.87 27.2598 88.682C27.8978 87.696 28.7678 87.406 29.9278 87.696C30.6818 87.928 31.2038 88.334 31.4938 89.03C31.7838 89.668 31.7838 90.48 31.4938 91.35L30.6238 94.366ZM26.0418 92.046L26.6218 90.132C26.7958 89.61 26.7378 89.204 26.5638 88.856C26.3898 88.508 26.0418 88.218 25.5778 88.102C25.1718 87.986 24.7658 88.044 24.3598 88.218C24.0118 88.45 23.7218 88.798 23.6058 89.262L23.0258 91.176L26.0418 92.046ZM30.0438 93.206L30.6818 91.002C30.8558 90.364 30.8558 89.842 30.6818 89.436C30.5078 89.03 30.1598 88.74 29.6378 88.624C29.1738 88.508 28.7098 88.508 28.3038 88.74C27.8978 88.972 27.6078 89.436 27.4338 90.016L26.7958 92.22L30.0438 93.206Z" fill="#2A2A2A"/>
<path d="M193.024 73.486L200.158 69.542L198.882 67.222L199.694 66.758L202.71 72.21L201.898 72.674L200.622 70.354L193.488 74.298L193.024 73.486Z" fill="#2A2A2A"/>
<path d="M196.504 80.33L204.914 76.908L206.016 79.634C206.306 80.388 206.364 81.084 206.132 81.664C205.9 82.244 205.494 82.708 204.856 82.94C204.044 83.288 203.29 83.172 202.652 82.708C202.768 83.868 202.246 84.68 201.202 85.144C200.448 85.434 199.81 85.434 199.172 85.086C198.534 84.738 198.07 84.158 197.722 83.288L196.504 80.33ZM197.664 80.852L198.534 82.998C198.766 83.578 199.114 83.984 199.52 84.216C199.926 84.39 200.39 84.448 200.854 84.216C201.318 84.042 201.666 83.694 201.782 83.288C201.956 82.882 201.898 82.36 201.666 81.722L200.796 79.576L197.664 80.852ZM201.55 79.286L202.304 81.142C202.478 81.606 202.768 81.954 203.174 82.128C203.58 82.302 203.986 82.302 204.392 82.128C204.798 81.954 205.088 81.664 205.262 81.258C205.436 80.852 205.378 80.446 205.204 79.982L204.45 78.126L201.55 79.286Z" fill="#2A2A2A"/>
<path d="M203.464 97.73C202.362 97.092 201.666 96.106 201.376 94.888C201.086 93.612 201.202 92.452 201.84 91.35C202.478 90.248 203.464 89.552 204.74 89.262C206.016 88.914 207.176 89.088 208.278 89.784C209.38 90.422 210.076 91.408 210.366 92.684C210.656 93.96 210.54 95.12 209.902 96.222C209.264 97.324 208.278 98.02 207.002 98.31C205.726 98.542 204.566 98.368 203.464 97.73ZM202.652 91.872C202.13 92.742 202.014 93.67 202.246 94.656C202.478 95.642 203.058 96.396 203.928 96.918C204.798 97.44 205.726 97.556 206.77 97.266C207.814 97.034 208.568 96.454 209.09 95.584C209.612 94.714 209.728 93.786 209.496 92.8C209.264 91.814 208.684 91.06 207.814 90.538C206.944 90.016 206.016 89.9 204.972 90.132C203.928 90.422 203.174 91.002 202.652 91.872Z" fill="#2A2A2A"/>
<path d="M203.348 104.342L212.338 103.356L212.628 105.908C212.744 106.836 212.57 107.59 212.164 108.228C211.758 108.808 211.12 109.156 210.308 109.272C209.496 109.388 208.8 109.156 208.278 108.692C207.756 108.228 207.408 107.474 207.292 106.546L207.118 104.922L203.464 105.328L203.348 104.342ZM207.988 104.806L208.162 106.372C208.22 107.068 208.452 107.532 208.8 107.88C209.148 108.228 209.612 108.344 210.192 108.286C210.772 108.228 211.178 107.996 211.468 107.59C211.758 107.184 211.874 106.662 211.758 105.966L211.584 104.4L207.988 104.806Z" fill="#2A2A2A"/>
<path d="M204.044 120.64V119.712L208.046 119.77C207.756 118.842 207.582 117.914 207.582 116.928C207.582 115.942 207.814 115.246 208.336 114.666C208.8 114.144 209.496 113.854 210.366 113.912L213.208 113.97V114.898L210.54 114.84C209.206 114.84 208.51 115.536 208.51 117.044C208.51 118.03 208.626 118.958 208.974 119.77L213.15 119.828V120.756L204.044 120.64Z" fill="#2A2A2A"/>
<path d="M203.58 125.976L212.57 127.194L211.874 132.298L210.946 132.182L211.526 128.006L208.51 127.6L208.046 131.022L207.118 130.906L207.582 127.484L204.334 127.02L203.754 131.196L202.826 131.08L203.58 125.976Z" fill="#2A2A2A"/>
<path d="M200.97 139.258C201.318 137.982 202.014 137.054 203.116 136.416C204.218 135.778 205.378 135.604 206.654 135.952C207.93 136.3 208.858 136.996 209.496 138.098C210.134 139.2 210.308 140.36 209.96 141.636C209.786 142.332 209.438 142.97 208.974 143.55C208.51 144.072 207.988 144.478 207.408 144.71L207.002 143.898C207.466 143.666 207.93 143.376 208.278 142.97C208.626 142.564 208.916 142.042 209.032 141.462C209.322 140.476 209.148 139.548 208.626 138.678C208.104 137.808 207.35 137.286 206.306 136.996C205.262 136.706 204.334 136.822 203.464 137.344C202.594 137.866 202.014 138.562 201.782 139.606C201.608 140.186 201.608 140.766 201.724 141.288C201.84 141.81 202.072 142.332 202.362 142.738L201.608 143.26C201.202 142.796 200.97 142.216 200.854 141.52C200.796 140.708 200.796 139.954 200.97 139.258Z" fill="#2A2A2A"/>
<path d="M198.07 148.422L205.668 151.438L206.654 149.002L207.524 149.35L205.262 155.15L204.392 154.802L205.378 152.366L197.78 149.35L198.07 148.422Z" fill="#2A2A2A"/>
<path d="M194.996 155.498L203 159.79L201.608 162.4C201.202 163.154 200.738 163.618 200.1 163.792C199.52 163.966 198.882 163.908 198.302 163.618C197.548 163.212 197.142 162.574 197.084 161.762C196.272 162.574 195.286 162.69 194.3 162.168C193.604 161.762 193.198 161.24 193.024 160.544C192.908 159.848 193.082 159.094 193.488 158.282L194.996 155.498ZM195.344 156.716L194.242 158.746C193.952 159.326 193.836 159.848 193.952 160.254C194.068 160.718 194.358 161.066 194.822 161.298C195.286 161.53 195.692 161.588 196.156 161.414C196.562 161.24 196.968 160.892 197.258 160.312L198.36 158.282L195.344 156.716ZM199.056 158.688L198.128 160.486C197.896 160.95 197.838 161.356 197.954 161.762C198.07 162.168 198.36 162.458 198.766 162.69C199.172 162.922 199.578 162.922 199.984 162.806C200.39 162.69 200.738 162.4 200.97 161.936L201.898 160.138L199.056 158.688Z" fill="#2A2A2A"/>
<path d="M186.006 171.97C185.832 170.752 186.122 169.592 186.876 168.548C187.63 167.504 188.674 166.866 189.892 166.692C191.11 166.518 192.27 166.808 193.372 167.562C194.416 168.316 195.054 169.36 195.228 170.578C195.402 171.796 195.112 172.956 194.358 174C193.604 175.044 192.56 175.682 191.342 175.856C190.124 176.03 188.964 175.74 187.862 174.986C186.818 174.232 186.238 173.246 186.006 171.97ZM190.066 167.62C189.08 167.794 188.268 168.258 187.63 169.07C186.992 169.882 186.76 170.81 186.934 171.796C187.108 172.782 187.572 173.594 188.442 174.232C189.312 174.87 190.24 175.102 191.226 174.986C192.212 174.87 193.024 174.348 193.662 173.536C194.3 172.724 194.532 171.796 194.358 170.81C194.184 169.824 193.72 169.012 192.85 168.374C191.98 167.678 191.052 167.446 190.066 167.62Z" fill="#2A2A2A"/>
<path d="M161.762 131.428H160.602C160.602 106.894 140.65 86.942 116.116 86.942C91.5817 86.942 71.6297 106.894 71.6297 131.428H70.4697C70.4697 106.256 90.9437 85.782 116.116 85.782C141.288 85.782 161.762 106.256 161.762 131.428Z" fill="#2A2A2A"/>
<path d="M116.116 143.956C90.9437 143.956 70.4697 123.482 70.4697 98.31H71.6297C71.6297 122.844 91.5817 142.796 116.116 142.796C140.65 142.796 160.602 122.844 160.602 98.31H161.762C161.762 123.482 141.288 143.956 116.116 143.956Z" fill="#2A2A2A"/>
<path d="M79.2282 84.274L78.2422 83.636C84.7962 74.008 96.6862 67.28 110.084 65.772C127.948 64.148 145.116 70.818 153.932 82.766L153.004 83.462C144.478 71.862 127.658 65.366 110.2 66.932C97.2082 68.382 85.6082 74.878 79.2282 84.274Z" fill="#2A2A2A"/>
<path d="M116.87 166.518C100.978 166.518 86.1882 160.022 78.2422 149.292L79.1702 148.596C87.6962 160.196 104.516 166.692 121.974 165.126C135.024 163.618 146.624 157.122 153.004 147.726L153.99 148.364C147.436 157.992 135.546 164.72 122.148 166.228C120.35 166.46 118.61 166.518 116.87 166.518Z" fill="#2A2A2A"/>
<path d="M116.116 132.936C106.778 132.936 99.1797 125.338 99.1797 116C99.1797 106.662 106.778 99.064 116.116 99.064C125.454 99.064 133.052 106.662 133.052 116C133.052 125.338 125.454 132.936 116.116 132.936ZM116.116 100.224C107.416 100.224 100.34 107.3 100.34 116C100.34 124.7 107.416 131.776 116.116 131.776C124.816 131.776 131.892 124.7 131.892 116C131.892 107.3 124.816 100.224 116.116 100.224Z" fill="#2A2A2A"/>
</g>
<defs>
<clipPath id="clip0_264_349">
<rect width="232" height="232" fill="white"/>
</clipPath>
</defs>
</svg>
