<svg width="232" height="232" viewBox="0 0 232 232" fill="none" xmlns="http://www.w3.org/2000/svg">
<g clip-path="url(#clip0_264_259)">
<path d="M116 232C180.033 232 231.942 180.091 231.942 116.058C231.942 52.025 180.033 0.115997 116 0.115997C51.9666 0.115997 0.0576172 52.025 0.0576172 116.058C0.0576172 180.091 51.9666 232 116 232Z" fill="#5975B8"/>
<path d="M42.5135 65.134L32.1895 56.782L41.4115 55.796L40.4255 46.574L50.7495 54.926L48.8935 57.246L43.9055 53.186L44.4275 58.232L39.3815 58.754L44.3695 62.814L42.5135 65.134Z" fill="#2A2A2A"/>
<path d="M60.1452 44.138C60.0292 45.994 59.2172 47.502 57.8252 48.72C56.4332 49.938 54.8092 50.46 52.9532 50.344C51.0972 50.228 49.5892 49.416 48.3712 48.024C47.1532 46.632 46.6312 45.008 46.7472 43.152C46.8632 41.296 47.6752 39.788 49.0672 38.57C50.4592 37.352 52.0832 36.83 53.9392 36.946C55.7952 37.062 57.3032 37.874 58.5212 39.266C59.7392 40.658 60.2612 42.282 60.1452 44.138ZM53.2432 47.444C54.2872 47.56 55.2152 47.27 56.0272 46.574C56.8392 45.878 57.2452 45.008 57.3032 43.964C57.3612 42.92 56.9552 41.992 56.2592 41.18C55.5632 40.368 54.6932 39.904 53.6492 39.788C52.6052 39.672 51.6772 39.962 50.8652 40.658C50.0532 41.354 49.6472 42.224 49.5892 43.268C49.5312 44.312 49.8792 45.24 50.5752 46.052C51.3292 46.864 52.1992 47.328 53.2432 47.444Z" fill="#2A2A2A"/>
<path d="M63.0459 44.08L61.4219 29.406L74.0079 37.178L71.3399 38.86L64.8439 34.8L65.7139 42.398L63.0459 44.08Z" fill="#2A2A2A"/>
<path d="M83.9831 30.74C83.2871 32.48 82.1271 33.698 80.4451 34.452C78.7631 35.206 77.0231 35.206 75.2831 34.568C73.5431 33.872 72.3251 32.712 71.5711 31.03C70.8171 29.348 70.8171 27.608 71.4551 25.868C72.1511 24.128 73.3111 22.91 74.9931 22.156C76.6751 21.402 78.4151 21.402 80.1551 22.04C81.8951 22.736 83.1131 23.896 83.8671 25.578C84.6211 27.318 84.6791 29.058 83.9831 30.74ZM76.3851 31.9C77.3131 32.306 78.2991 32.306 79.2851 31.842C80.2711 31.436 80.9091 30.74 81.2571 29.754C81.6051 28.768 81.5471 27.782 81.1411 26.796C80.7351 25.81 80.0391 25.114 79.0531 24.708C78.1251 24.302 77.1391 24.302 76.1531 24.766C75.1671 25.172 74.5291 25.868 74.1811 26.854C73.8331 27.84 73.8911 28.826 74.2971 29.812C74.7611 30.798 75.4571 31.494 76.3851 31.9Z" fill="#2A2A2A"/>
<path d="M88.2172 33.93L86.8252 28.536L88.3332 28.13L90.8852 16.704L98.5412 25.52L100.049 25.114L101.441 30.508L98.6572 31.204L97.9612 28.536L90.3052 30.508L91.0012 33.176L88.2172 33.93ZM95.5252 26.332L92.3932 22.562L91.4072 27.376L95.5252 26.332Z" fill="#2A2A2A"/>
<path d="M102.891 27.782L101.499 14.732L109.619 13.862L109.909 16.762L104.747 17.284L104.979 19.488L109.039 19.082L109.329 21.924L105.269 22.33L105.501 24.534L110.663 24.012L110.953 26.912L102.891 27.782Z" fill="#2A2A2A"/>
<path d="M112.229 26.448L117.739 20.3L113.737 13.34L117.159 13.572L121.161 20.416L121.625 13.862L124.583 14.094L124.119 20.706L129.049 14.5L132.471 14.732L127.483 21.054L132.123 27.898L128.469 27.666L124.061 21.17L123.597 27.318L120.639 27.086L121.045 20.938L115.825 26.738L112.229 26.448Z" fill="#2A2A2A"/>
<path d="M138.793 21.054L140.649 21.518C141.867 21.808 142.853 22.504 143.491 23.49C144.129 24.476 144.303 25.578 144.013 26.796C143.723 28.014 143.027 28.884 142.041 29.464C140.997 30.044 139.895 30.16 138.619 29.87L133.863 28.652L137.053 15.892L139.953 16.646L138.793 21.054ZM137.343 26.622L139.199 27.086C139.663 27.202 140.127 27.202 140.475 27.028C140.823 26.854 141.055 26.506 141.171 26.042C141.287 25.578 141.229 25.172 140.997 24.824C140.765 24.476 140.417 24.244 139.953 24.128L138.097 23.664L137.343 26.622Z" fill="#2A2A2A"/>
<path d="M91.582 215.644L93.902 202.536L99.18 210.134L106.778 204.798L104.458 217.906L101.558 217.384L102.66 211.062L98.484 213.962L95.584 209.786L94.482 216.108L91.582 215.644Z" fill="#2A2A2A"/>
<path d="M119.364 216.572C118.03 217.848 116.464 218.486 114.608 218.486C112.752 218.486 111.186 217.79 109.91 216.456C108.634 215.122 107.996 213.556 107.996 211.7C107.996 209.844 108.692 208.278 110.026 207.002C111.36 205.726 112.926 205.088 114.782 205.088C116.638 205.088 118.204 205.784 119.48 207.118C120.756 208.452 121.394 210.018 121.394 211.874C121.336 213.73 120.698 215.296 119.364 216.572ZM111.94 214.484C112.636 215.238 113.506 215.644 114.608 215.644C115.71 215.644 116.58 215.296 117.276 214.542C118.03 213.788 118.378 212.918 118.378 211.816C118.378 210.714 118.03 209.844 117.334 209.09C116.638 208.336 115.768 207.93 114.666 207.93C113.564 207.93 112.694 208.278 111.998 209.032C111.244 209.786 110.896 210.656 110.896 211.758C110.896 212.802 111.244 213.73 111.94 214.484Z" fill="#2A2A2A"/>
<path d="M124.99 218.022L123.308 204.972L127.6 204.45C128.876 204.276 129.978 204.566 130.964 205.32C131.95 206.074 132.472 207.06 132.646 208.278C132.82 209.496 132.53 210.598 131.776 211.584C131.022 212.57 130.036 213.092 128.76 213.266L127.426 213.44L127.948 217.616L124.99 218.022ZM127.02 210.714L128.354 210.54C128.818 210.482 129.166 210.25 129.456 209.902C129.746 209.496 129.862 209.09 129.804 208.684C129.746 208.22 129.514 207.872 129.166 207.582C128.818 207.292 128.412 207.176 127.948 207.234L126.614 207.408L127.02 210.714Z" fill="#2A2A2A"/>
<path d="M135.778 219.414L134.386 214.02L135.894 213.614L138.388 202.188L146.102 210.946L147.61 210.54L149.002 215.934L146.218 216.63L145.522 213.962L137.866 215.934L138.562 218.602L135.778 219.414ZM143.028 211.758L139.838 207.988L138.91 212.802L143.028 211.758Z" fill="#2A2A2A"/>
<path d="M160.022 206.538C159.326 208.278 158.108 209.496 156.426 210.192C154.744 210.946 153.004 210.946 151.264 210.25C149.524 209.554 148.306 208.336 147.61 206.654C146.856 204.972 146.856 203.232 147.552 201.492C148.248 199.752 149.466 198.534 151.148 197.78C152.83 197.026 154.57 197.026 156.31 197.722C158.05 198.418 159.268 199.578 159.964 201.318C160.718 203.058 160.718 204.798 160.022 206.538ZM152.424 207.582C153.352 207.988 154.338 207.988 155.324 207.582C156.31 207.176 156.948 206.48 157.354 205.494C157.702 204.508 157.702 203.522 157.238 202.536C156.832 201.55 156.136 200.854 155.15 200.448C154.222 200.042 153.236 200.042 152.25 200.448C151.264 200.854 150.626 201.55 150.22 202.536C149.872 203.522 149.872 204.508 150.336 205.494C150.8 206.48 151.438 207.176 152.424 207.582Z" fill="#2A2A2A"/>
<path d="M165.706 205.61L158.804 194.416L163.038 191.806C163.966 191.226 164.952 191.11 165.996 191.342C167.04 191.574 167.852 192.154 168.432 193.082C168.896 193.836 169.012 194.648 168.838 195.518C169.476 195.46 170.114 195.634 170.636 195.866C171.216 196.156 171.68 196.562 172.028 197.142C172.608 198.07 172.724 199.056 172.492 200.1C172.26 201.144 171.622 201.956 170.694 202.536L165.706 205.61ZM164.14 197.374L165.532 196.504C165.88 196.272 166.112 196.04 166.17 195.692C166.286 195.344 166.228 194.996 165.996 194.706C165.822 194.416 165.532 194.184 165.184 194.126C164.836 194.068 164.488 194.126 164.14 194.3L162.748 195.17L164.14 197.374ZM166.808 201.724L169.012 200.39C169.36 200.158 169.534 199.926 169.65 199.578C169.766 199.23 169.708 198.882 169.476 198.592C169.302 198.302 169.012 198.07 168.664 198.012C168.316 197.954 167.968 198.012 167.62 198.186L165.416 199.52L166.808 201.724Z" fill="#2A2A2A"/>
<path d="M177.074 198.534L168.606 188.326L170.868 186.412L175.276 191.69L177.19 181.018L185.658 191.226L183.396 193.14L178.988 187.862L177.074 198.534Z" fill="#2A2A2A"/>
<path d="M188.79 188.326L178.872 179.51L180.844 177.306L186.006 181.888L186.238 171.042L196.156 179.858L194.184 182.062L189.08 177.48L188.79 188.326Z" fill="#2A2A2A"/>
<path d="M52.2567 177.074L45.5287 183.164L44.8907 182.468L48.3127 179.394L41.9907 179.22L41.1787 178.35L47.5007 178.524L47.6167 172.028L48.4867 172.956L48.3707 179.278L51.5607 176.378L52.2567 177.074Z" fill="#2A2A2A"/>
<path d="M45.8768 169.766L35.8428 171.39L40.8888 162.574L41.4688 163.386L40.0188 165.822L42.4548 169.36L45.2388 168.896L45.8768 169.766ZM41.5848 169.592L39.6128 166.692L37.5828 170.23L41.5848 169.592Z" fill="#2A2A2A"/>
<path d="M38.9173 159.036L30.9133 163.212L29.7533 160.95C29.2893 160.138 29.1733 159.326 29.3473 158.63C29.5213 157.934 29.9853 157.354 30.6813 157.006C31.3773 156.658 32.1313 156.6 32.7693 156.832C33.4653 157.064 34.0453 157.644 34.4513 158.456L35.2053 159.906L38.4533 158.224L38.9173 159.036ZM34.4513 160.312L33.6973 158.92C33.4073 158.34 33.0013 157.934 32.5373 157.76C32.0733 157.586 31.6093 157.644 31.0873 157.876C30.5653 158.108 30.2753 158.514 30.1593 158.978C30.0433 159.442 30.1593 159.964 30.4493 160.602L31.2033 161.994L34.4513 160.312Z" fill="#2A2A2A"/>
<path d="M29.289 151.148L28.651 149.524C28.303 148.654 28.245 147.842 28.535 147.146C28.767 146.45 29.289 145.986 30.043 145.696C30.797 145.406 31.493 145.406 32.131 145.754C32.769 146.102 33.291 146.74 33.639 147.61L34.567 150.104L26.099 153.352L25.751 152.482L29.289 151.148ZM33.407 149.582L32.769 147.958C32.537 147.32 32.189 146.856 31.783 146.624C31.377 146.392 30.855 146.392 30.333 146.566C29.811 146.74 29.463 147.088 29.289 147.552C29.115 148.016 29.173 148.538 29.405 149.176L30.043 150.8L33.407 149.582Z" fill="#2A2A2A"/>
<path d="M31.2609 140.65L22.5029 142.97L21.1689 137.982L22.0389 137.75L23.1409 141.868L26.0989 141.114L25.2289 137.75L26.0989 137.46L26.9689 140.824L30.1589 140.012L29.0569 135.894L29.9269 135.662L31.2609 140.65Z" fill="#2A2A2A"/>
<path d="M29.0574 131.312L20.0674 132.646L19.7194 130.094C19.6034 129.166 19.7194 128.412 20.1254 127.774C20.5314 127.136 21.1114 126.788 21.9234 126.672C22.7354 126.556 23.4314 126.73 23.9534 127.194C24.5334 127.658 24.8814 128.354 24.9974 129.282L25.2294 130.848L28.8834 130.326L29.0574 131.312ZM24.4174 131.022L24.1854 129.456C24.0694 128.76 23.8374 128.296 23.4894 128.006C23.1414 127.716 22.6774 127.6 22.0974 127.658C21.5174 127.716 21.1114 128.006 20.8794 128.354C20.5894 128.76 20.5314 129.282 20.6474 129.978L20.8794 131.544L24.4174 131.022Z" fill="#2A2A2A"/>
<path d="M27.9552 123.424L18.6172 119.364L27.6072 114.666L27.6652 115.652L25.1712 116.928L25.3452 121.22L27.9552 122.322V123.424ZM24.4752 120.93L24.3592 117.45L20.7052 119.306L24.4752 120.93Z" fill="#2A2A2A"/>
<path d="M181.598 56.898L188.5 51.04L189.08 51.736L185.6 54.694L191.922 55.042L192.676 55.912L186.354 55.564L186.006 62.06L185.194 61.074L185.484 54.752L182.178 57.536L181.598 56.898Z" fill="#2A2A2A"/>
<path d="M187.746 64.38L197.838 63.046L192.502 71.688L191.98 70.818L193.488 68.44L191.168 64.844L188.384 65.25L187.746 64.38ZM192.038 64.728L193.952 67.686L196.098 64.206L192.038 64.728Z" fill="#2A2A2A"/>
<path d="M194.357 75.284L202.535 71.34L203.637 73.66C204.043 74.53 204.159 75.284 203.927 75.98C203.753 76.676 203.289 77.198 202.535 77.546C201.781 77.894 201.085 77.952 200.447 77.662C199.809 77.372 199.229 76.85 198.823 75.98L198.127 74.53L194.821 76.154L194.357 75.284ZM198.881 74.182L199.577 75.632C199.867 76.27 200.215 76.618 200.679 76.85C201.143 77.024 201.607 77.024 202.129 76.734C202.651 76.502 202.941 76.154 203.115 75.69C203.231 75.226 203.173 74.704 202.883 74.066L202.187 72.616L198.881 74.182Z" fill="#2A2A2A"/>
<path d="M203.754 83.462L204.334 85.086C204.624 85.956 204.682 86.768 204.392 87.464C204.102 88.16 203.58 88.624 202.826 88.914C202.072 89.204 201.376 89.146 200.738 88.798C200.1 88.45 199.636 87.812 199.288 86.884L198.418 84.39L206.944 81.374L207.234 82.244L203.754 83.462ZM199.578 84.97L200.158 86.594C200.39 87.232 200.68 87.696 201.144 87.928C201.55 88.16 202.014 88.218 202.594 87.986C203.116 87.812 203.464 87.464 203.638 87C203.812 86.536 203.754 86.014 203.58 85.376L203 83.752L199.578 84.97Z" fill="#2A2A2A"/>
<path d="M201.491 93.902L210.307 91.872L211.467 96.918L210.597 97.15L209.669 93.032L206.711 93.728L207.465 97.092L206.595 97.324L205.841 93.96L202.651 94.714L203.579 98.832L202.709 99.064L201.491 93.902Z" fill="#2A2A2A"/>
<path d="M203.348 103.356L212.338 102.312L212.628 104.864C212.744 105.792 212.57 106.546 212.164 107.184C211.758 107.764 211.12 108.112 210.308 108.228C209.496 108.344 208.8 108.112 208.278 107.648C207.698 107.184 207.408 106.43 207.292 105.502L207.118 103.878L203.464 104.284L203.348 103.356ZM208.046 103.762L208.22 105.328C208.278 106.024 208.51 106.488 208.858 106.836C209.206 107.126 209.67 107.3 210.25 107.242C210.83 107.184 211.236 106.952 211.526 106.546C211.816 106.14 211.932 105.618 211.816 104.922L211.642 103.356L208.046 103.762Z" fill="#2A2A2A"/>
<path d="M204.218 111.244L213.382 115.594L204.218 120.002V119.016L206.77 117.798V113.506L204.218 112.346V111.244ZM207.698 113.854V117.334L211.41 115.594L207.698 113.854Z" fill="#2A2A2A"/>
<path d="M82.1278 176.32L79.6918 159.268C79.2858 156.426 80.0398 153.584 81.7218 151.264C83.4618 148.944 85.9558 147.494 88.7978 147.088L92.5678 146.566C97.8458 145.812 101.5 140.94 100.746 135.662L99.9918 130.268C99.5858 127.426 100.34 124.584 102.022 122.264C103.762 119.944 106.256 118.494 109.098 118.088L119.538 116.58C122.09 116.232 124.352 114.898 125.86 112.81C127.426 110.78 128.064 108.228 127.716 105.676L126.904 99.876C126.498 97.034 127.252 94.192 128.934 91.872C130.674 89.552 133.168 88.102 136.01 87.696L141.984 86.826C147.262 86.072 150.916 81.2 150.162 75.922L147.32 56.144L148.48 55.97L151.322 75.748C152.134 81.606 148.074 87.116 142.158 87.928L136.184 88.798C133.632 89.146 131.37 90.48 129.862 92.568C128.296 94.598 127.658 97.15 128.006 99.702L128.818 105.502C129.224 108.344 128.47 111.186 126.788 113.506C125.106 115.826 122.554 117.276 119.712 117.682L109.272 119.19C106.72 119.538 104.458 120.872 102.95 122.96C101.384 124.99 100.746 127.542 101.094 130.094L101.848 135.488C102.66 141.346 98.5998 146.856 92.6838 147.668L88.9138 148.19C86.3618 148.538 84.0998 149.872 82.5918 151.96C81.0258 153.99 80.3878 156.542 80.7358 159.094L83.1718 176.146L82.1278 176.32Z" fill="#2A2A2A"/>
<path d="M80.7932 167.156L78.3572 150.104C77.5452 144.246 81.6052 138.736 87.5212 137.924L91.2912 137.402C93.8432 137.054 96.1052 135.72 97.6132 133.632C99.1792 131.602 99.8172 129.05 99.4692 126.498L98.7152 121.104C97.9032 115.246 101.963 109.736 107.879 108.924L118.319 107.416C123.597 106.662 127.251 101.79 126.497 96.512L125.685 90.712C124.873 84.854 128.933 79.344 134.849 78.532L140.823 77.662C143.375 77.314 145.637 75.98 147.145 73.892C148.711 71.862 149.349 69.31 149.001 66.758L146.159 47.038L147.319 46.864L150.161 66.642C150.567 69.484 149.813 72.326 148.131 74.646C146.391 76.966 143.897 78.416 141.055 78.822L135.081 79.692C129.803 80.446 126.149 85.318 126.903 90.596L127.715 96.396C128.527 102.254 124.467 107.764 118.551 108.576L108.111 110.084C102.833 110.838 99.1792 115.71 99.9332 120.988L100.687 126.382C101.093 129.224 100.339 132.066 98.6572 134.386C96.9172 136.706 94.4232 138.156 91.5812 138.562L87.8112 139.084C82.5332 139.838 78.8792 144.71 79.6332 149.988L82.0692 167.04L80.7932 167.156Z" fill="#2A2A2A"/>
<path d="M83.4612 185.658L81.0252 168.606C80.2132 162.748 84.2732 157.238 90.1892 156.426L93.9592 155.904C96.5112 155.556 98.7732 154.222 100.281 152.134C101.847 150.104 102.485 147.552 102.137 145L101.383 139.606C100.571 133.748 104.631 128.238 110.547 127.426L120.987 125.918C123.539 125.57 125.801 124.236 127.309 122.148C128.875 120.118 129.513 117.566 129.165 115.014L128.353 109.214C127.541 103.356 131.601 97.846 137.517 97.034L143.491 96.164C146.043 95.816 148.305 94.482 149.813 92.394C151.379 90.364 152.017 87.812 151.669 85.26L148.827 65.482L149.987 65.308L152.829 85.086C153.235 87.928 152.481 90.77 150.799 93.09C149.059 95.41 146.565 96.86 143.723 97.266L137.749 98.136C132.471 98.89 128.817 103.762 129.571 109.04L130.383 114.84C130.789 117.682 130.035 120.524 128.353 122.844C126.613 125.164 124.119 126.614 121.277 127.02L110.837 128.528C105.559 129.282 101.905 134.154 102.659 139.432L103.413 144.826C103.819 147.668 103.065 150.51 101.383 152.83C99.6432 155.15 97.1492 156.6 94.3072 157.006L90.5372 157.528C85.2592 158.282 81.6052 163.154 82.3592 168.432L84.7952 185.484L83.4612 185.658Z" fill="#2A2A2A"/>
</g>
<defs>
<clipPath id="clip0_264_259">
<rect width="232" height="232" fill="white"/>
</clipPath>
</defs>
</svg>
