<svg width="232" height="232" viewBox="0 0 232 232" fill="none" xmlns="http://www.w3.org/2000/svg">
<g clip-path="url(#clip0_264_679)">
<path d="M116.116 231.768C180.117 231.768 232 179.885 232 115.884C232 51.883 180.117 0 116.116 0C52.1155 0 0.232422 51.883 0.232422 115.884C0.232422 179.885 52.1155 231.768 116.116 231.768Z" fill="#00A481"/>
<path d="M63.9746 43.384L57.0146 32.016L66.0046 34.22L68.1506 25.23L75.1106 36.54L72.5586 38.106L69.1946 32.596L68.0346 37.526L63.1046 36.308L66.4686 41.818L63.9746 43.384Z" fill="#2A2A2A"/>
<path d="M87.6386 29.464C86.8846 31.146 85.6666 32.364 83.9266 33.002C82.1866 33.698 80.5046 33.64 78.7646 32.886C77.0826 32.132 75.8646 30.914 75.2266 29.174C74.5886 27.434 74.5886 25.752 75.3426 24.012C76.0966 22.33 77.3146 21.112 79.0546 20.474C80.7946 19.778 82.4766 19.836 84.2166 20.59C85.8986 21.344 87.1166 22.562 87.7546 24.302C88.3926 26.042 88.3926 27.782 87.6386 29.464ZM79.9826 30.276C80.9106 30.74 81.8966 30.74 82.8826 30.392C83.8686 29.986 84.5646 29.348 84.9706 28.362C85.3766 27.376 85.3766 26.448 84.9706 25.404C84.5646 24.418 83.9266 23.664 82.9986 23.258C82.0706 22.794 81.0846 22.794 80.0986 23.142C79.1126 23.548 78.4166 24.186 78.0106 25.172C77.6046 26.158 77.6046 27.086 78.0106 28.13C78.4166 29.116 79.0546 29.812 79.9826 30.276Z" fill="#2A2A2A"/>
<path d="M90.3643 30.392L93.7863 16.008L103.008 27.55L99.9343 28.246L95.1783 22.272L93.4383 29.754L90.3643 30.392Z" fill="#2A2A2A"/>
<path d="M114.551 24.882C113.333 26.274 111.825 27.028 109.969 27.202C108.113 27.318 106.489 26.796 105.097 25.578C103.705 24.36 102.951 22.852 102.777 20.996C102.661 19.14 103.183 17.516 104.401 16.124C105.619 14.732 107.127 13.978 108.983 13.804C110.839 13.688 112.463 14.21 113.855 15.428C115.247 16.646 116.001 18.154 116.175 20.01C116.291 21.866 115.769 23.49 114.551 24.882ZM107.011 23.374C107.765 24.07 108.693 24.36 109.737 24.302C110.781 24.244 111.651 23.78 112.289 22.968C112.927 22.156 113.217 21.228 113.159 20.184C113.101 19.14 112.637 18.212 111.883 17.516C111.129 16.82 110.201 16.53 109.157 16.588C108.113 16.646 107.243 17.11 106.605 17.922C105.967 18.734 105.677 19.662 105.735 20.706C105.851 21.808 106.257 22.678 107.011 23.374Z" fill="#2A2A2A"/>
<path d="M117.45 29.29L117.972 23.722L119.48 23.838L125.686 13.92L129.978 24.824L131.486 24.94L130.964 30.508L128.122 30.218L128.354 27.492L120.466 26.738L120.234 29.464L117.45 29.29ZM126.904 24.534L125.222 19.952L122.67 24.128L126.904 24.534Z" fill="#2A2A2A"/>
<path d="M133.343 28.42L136.417 15.66L144.305 17.574L143.609 20.416L138.621 19.14L138.099 21.286L142.043 22.272L141.347 25.056L137.403 24.07L136.881 26.216L141.927 27.434L141.231 30.276L133.343 28.42Z" fill="#2A2A2A"/>
<path d="M142.564 30.276L149.814 26.39L148.364 18.502L151.496 19.894L152.946 27.724L155.556 21.692L158.282 22.852L155.672 28.884L162.4 24.65L165.532 26.042L158.746 30.334L160.834 38.338L157.47 36.888L155.498 29.29L153.004 34.916L150.278 33.756L152.772 28.13L145.928 31.842L142.564 30.276Z" fill="#2A2A2A"/>
<path d="M169.36 34.104L170.984 35.148C172.028 35.844 172.724 36.772 172.956 37.932C173.246 39.092 173.014 40.194 172.318 41.18C171.622 42.224 170.694 42.804 169.534 43.036C168.374 43.21 167.272 42.978 166.17 42.282L162.11 39.556L169.418 28.652L171.854 30.276L169.36 34.104ZM166.17 38.86L167.736 39.904C168.142 40.194 168.548 40.31 168.954 40.252C169.36 40.194 169.708 39.962 169.94 39.614C170.23 39.208 170.288 38.802 170.172 38.454C170.056 38.048 169.824 37.758 169.418 37.468L167.852 36.424L166.17 38.86Z" fill="#2A2A2A"/>
<path d="M59.7402 201.492L66.2942 189.95L68.7302 198.882L77.6622 196.446L71.1082 207.988L68.5562 206.538L71.7462 200.97L66.8742 202.304L65.5402 197.432L62.3502 203L59.7402 201.492Z" fill="#2A2A2A"/>
<path d="M85.6078 211.7C83.9258 212.454 82.1858 212.57 80.5038 211.874C78.7638 211.236 77.4878 210.076 76.7338 208.394C75.9798 206.712 75.8638 204.972 76.5598 203.29C77.1978 201.55 78.3578 200.274 80.0398 199.52C81.7218 198.766 83.4618 198.65 85.1438 199.346C86.8838 199.984 88.1598 201.144 88.9138 202.826C89.6678 204.508 89.7838 206.248 89.0878 207.93C88.4498 209.67 87.2898 210.888 85.6078 211.7ZM79.3438 207.234C79.7498 208.162 80.4458 208.858 81.4318 209.206C82.4178 209.554 83.4038 209.554 84.3318 209.09C85.2598 208.626 85.8978 207.93 86.3038 206.886C86.6518 205.9 86.6518 204.914 86.2458 203.928C85.8398 203 85.1438 202.304 84.1578 201.956C83.1718 201.608 82.1858 201.608 81.2578 202.072C80.3298 202.536 79.6918 203.232 79.2858 204.276C78.9378 205.32 78.9378 206.306 79.3438 207.234Z" fill="#2A2A2A"/>
<path d="M90.4219 214.948L93.2059 202.13L97.4399 203.058C98.6579 203.348 99.6439 203.986 100.282 205.03C100.92 206.074 101.152 207.176 100.862 208.394C100.572 209.612 99.9339 210.54 98.9479 211.236C97.9039 211.874 96.8019 212.106 95.5259 211.816L94.1919 211.526L93.3219 215.644L90.4219 214.948ZM94.7719 208.742L96.0479 209.032C96.5119 209.148 96.9179 209.032 97.3239 208.8C97.7299 208.51 97.9619 208.162 98.0199 207.756C98.1359 207.292 98.0199 206.886 97.7879 206.48C97.5559 206.074 97.2079 205.842 96.7439 205.726L95.4679 205.436L94.7719 208.742Z" fill="#2A2A2A"/>
<path d="M100.108 219.878L100.63 214.31L102.138 214.426L108.344 204.508L112.694 215.354L114.202 215.47L113.68 221.038L110.838 220.806L111.07 218.08L103.182 217.384L102.95 220.11L100.108 219.878ZM109.504 215.122L107.764 210.54L105.27 214.774L109.504 215.122Z" fill="#2A2A2A"/>
<path d="M127.252 215.818C126.034 217.21 124.468 217.964 122.67 218.08C120.814 218.196 119.19 217.616 117.798 216.398C116.406 215.18 115.652 213.614 115.536 211.816C115.42 209.96 116 208.336 117.218 206.944C118.436 205.552 120.002 204.798 121.8 204.682C123.656 204.566 125.28 205.146 126.672 206.364C128.064 207.582 128.818 209.148 128.934 210.946C129.05 212.802 128.47 214.426 127.252 215.818ZM119.712 214.31C120.466 215.006 121.394 215.354 122.438 215.296C123.482 215.238 124.352 214.774 125.048 214.02C125.686 213.208 126.034 212.28 125.918 211.236C125.86 210.192 125.454 209.264 124.7 208.568C123.946 207.872 123.018 207.524 121.974 207.582C120.93 207.64 120.06 208.104 119.364 208.858C118.668 209.67 118.378 210.598 118.494 211.642C118.552 212.686 118.958 213.614 119.712 214.31Z" fill="#2A2A2A"/>
<path d="M132.878 216.862L130.152 204.044L134.966 203C136.01 202.768 136.996 202.942 137.924 203.522C138.852 204.102 139.374 204.914 139.606 205.958C139.78 206.828 139.664 207.64 139.142 208.336C139.78 208.51 140.302 208.858 140.708 209.264C141.172 209.728 141.404 210.25 141.578 210.946C141.81 211.99 141.636 212.976 140.998 213.904C140.418 214.832 139.548 215.354 138.504 215.586L132.878 216.862ZM134.154 208.626L135.778 208.278C136.184 208.22 136.474 207.988 136.648 207.698C136.822 207.408 136.938 207.06 136.822 206.712C136.764 206.364 136.532 206.074 136.242 205.9C135.952 205.726 135.604 205.668 135.198 205.726L133.574 206.074L134.154 208.626ZM135.256 213.614L137.75 213.092C138.156 213.034 138.446 212.802 138.62 212.512C138.794 212.222 138.91 211.874 138.794 211.526C138.736 211.178 138.504 210.888 138.214 210.714C137.924 210.54 137.576 210.482 137.17 210.54L134.676 211.062L135.256 213.614Z" fill="#2A2A2A"/>
<path d="M145.986 214.02L141.404 201.55L144.188 200.506L146.566 206.944L151.96 197.49L156.542 209.96L153.758 211.004L151.38 204.566L145.986 214.02Z" fill="#2A2A2A"/>
<path d="M160.428 208.336L154.048 196.678L156.658 195.228L159.964 201.26L163.85 191.11L170.23 202.768L167.62 204.218L164.314 198.186L160.428 208.336Z" fill="#2A2A2A"/>
<path d="M45.995 169.302L39.499 174.232L41.065 176.32L40.311 176.9L36.541 171.97L37.295 171.39L38.861 173.478L45.357 168.548L45.995 169.302Z" fill="#2A2A2A"/>
<path d="M41.7027 163.154L33.9307 167.794L31.2627 163.386L32.0747 162.922L34.2787 166.576L36.8887 165.01L35.0907 162.052L35.9027 161.588L37.7007 164.546L40.4847 162.864L38.2807 159.21L39.0927 158.746L41.7027 163.154Z" fill="#2A2A2A"/>
<path d="M37.3522 155.614L31.7262 154.454L29.0002 159.152L28.5362 158.166L30.7982 154.222L26.3322 153.294L25.8682 152.308L31.1462 153.352L34.0462 148.422L34.5102 149.408L32.0742 153.642L36.8302 154.628L37.3522 155.614Z" fill="#2A2A2A"/>
<path d="M32.5386 144.13L23.8386 146.682L23.5486 145.812L27.3186 144.71L25.8106 139.606L22.0406 140.708L21.8086 139.838L30.5086 137.286L30.7406 138.156L26.7386 139.316L28.2466 144.42L32.2486 143.26L32.5386 144.13Z" fill="#2A2A2A"/>
<path d="M27.0868 124.062C28.0728 124.816 28.6528 125.86 28.8268 127.136C29.0008 128.412 28.7108 129.572 27.8988 130.558C27.1448 131.544 26.1008 132.124 24.8248 132.298C23.5488 132.472 22.3888 132.182 21.4028 131.37C20.4168 130.616 19.8368 129.572 19.6628 128.296C19.4888 127.02 19.7788 125.86 20.5908 124.874C21.3448 123.888 22.3888 123.308 23.6648 123.134C24.9408 123.018 26.1008 123.308 27.0868 124.062ZM27.2028 130.036C27.8408 129.224 28.0728 128.354 27.9568 127.31C27.8408 126.266 27.3768 125.454 26.5648 124.874C25.7528 124.294 24.8248 124.062 23.7808 124.178C22.7368 124.294 21.9248 124.758 21.2868 125.57C20.6488 126.382 20.4168 127.252 20.5328 128.296C20.6488 129.34 21.1128 130.152 21.9248 130.732C22.7368 131.37 23.6648 131.602 24.7088 131.428C25.7528 131.254 26.5648 130.79 27.2028 130.036Z" fill="#2A2A2A"/>
<path d="M27.9566 118.9L18.8506 114.376L28.0726 110.142V111.186L20.8806 114.434L27.9566 117.914V118.9Z" fill="#2A2A2A"/>
<path d="M28.4205 98.484C29.1745 99.528 29.4065 100.688 29.2325 101.964C29.0005 103.24 28.4205 104.284 27.3765 104.98C26.3325 105.734 25.2305 105.966 23.8965 105.792C22.6205 105.56 21.5765 104.98 20.8805 103.936C20.1265 102.892 19.8945 101.732 20.0685 100.456C20.3005 99.18 20.8805 98.136 21.9245 97.44C22.9685 96.686 24.0705 96.454 25.4045 96.628C26.7385 96.802 27.6665 97.44 28.4205 98.484ZM26.8545 104.168C27.6665 103.588 28.1885 102.776 28.3045 101.732C28.4785 100.688 28.2465 99.818 27.6665 99.006C27.0865 98.194 26.2745 97.73 25.2305 97.556C24.1865 97.382 23.2585 97.614 22.4465 98.194C21.6345 98.774 21.1125 99.586 20.9965 100.572C20.8225 101.616 21.0545 102.486 21.6345 103.298C22.2145 104.11 23.0265 104.574 24.0705 104.748C25.1145 104.98 26.0425 104.748 26.8545 104.168Z" fill="#2A2A2A"/>
<path d="M23.8391 85.202L24.7091 85.492L23.5491 89.32L31.3211 91.64L31.0311 92.51L22.3311 89.9L23.8391 85.202Z" fill="#2A2A2A"/>
<path d="M34.1625 83.636L25.8105 79.924L26.2165 79.054L32.5385 81.838L28.7685 72.964L37.1205 76.676L36.7145 77.546L30.3925 74.762L34.1625 83.636Z" fill="#2A2A2A"/>
<path d="M40.1368 71.34L32.4229 66.352L32.9449 65.598L38.7449 69.368L36.4249 60.03L44.1389 65.018L43.6168 65.83L37.8168 62.06L40.1368 71.34Z" fill="#2A2A2A"/>
<path d="M187.108 63.742L194.706 58.638L195.228 59.392L189.486 63.278L198.998 64.844L191.4 69.948L190.878 69.136L196.62 65.25L187.108 63.742Z" fill="#2A2A2A"/>
<path d="M194.416 75.284L202.594 71.456L203 72.326L199.404 74.008L201.666 78.822L205.262 77.14L205.668 78.01L197.49 81.838L197.084 80.968L200.854 79.17L198.592 74.356L194.822 76.154L194.416 75.284Z" fill="#2A2A2A"/>
<path d="M199.637 87.522L208.337 84.97L208.627 85.84L204.741 87L206.249 92.104L210.019 91.002L210.309 91.872L201.609 94.424L201.319 93.554L205.321 92.394L203.813 87.29L199.811 88.45L199.637 87.522Z" fill="#2A2A2A"/>
<path d="M205.089 107.532C204.103 106.778 203.523 105.734 203.349 104.458C203.175 103.182 203.465 102.022 204.219 101.036C204.973 100.05 206.017 99.47 207.293 99.296C208.569 99.122 209.729 99.412 210.715 100.224C211.701 100.978 212.281 102.022 212.455 103.298C212.629 104.574 212.339 105.734 211.585 106.72C210.831 107.706 209.787 108.286 208.511 108.46C207.235 108.634 206.133 108.344 205.089 107.532ZM204.973 101.616C204.335 102.428 204.103 103.298 204.277 104.342C204.393 105.386 204.857 106.198 205.669 106.778C206.481 107.358 207.409 107.59 208.453 107.474C209.497 107.358 210.309 106.894 210.947 106.082C211.585 105.27 211.817 104.4 211.643 103.356C211.527 102.312 211.063 101.5 210.251 100.92C209.439 100.34 208.511 100.05 207.467 100.224C206.423 100.34 205.611 100.804 204.973 101.616Z" fill="#2A2A2A"/>
<path d="M204.219 114.26L213.267 114.376L213.209 117.334C213.209 118.146 212.977 118.784 212.513 119.248C212.049 119.712 211.527 119.944 210.831 119.944C209.961 119.944 209.323 119.596 208.917 118.842C208.569 119.944 207.757 120.524 206.597 120.466C205.785 120.466 205.205 120.176 204.741 119.596C204.277 119.016 204.103 118.32 204.103 117.334L204.219 114.26ZM205.089 115.246V117.566C205.089 118.204 205.205 118.726 205.495 119.074C205.785 119.422 206.191 119.596 206.713 119.596C207.235 119.596 207.641 119.422 207.931 119.132C208.221 118.784 208.395 118.32 208.395 117.624V115.304L205.089 115.246ZM209.265 115.246V117.276C209.265 117.798 209.381 118.204 209.671 118.494C209.961 118.784 210.309 118.958 210.773 118.958C211.237 118.958 211.585 118.842 211.875 118.494C212.165 118.204 212.339 117.798 212.339 117.276V115.246H209.265Z" fill="#2A2A2A"/>
<path d="M203.987 123.83L212.455 129.456L202.769 132.53L202.885 131.544L205.611 130.732L206.191 126.44L203.813 124.874L203.987 123.83ZM207.003 126.904L206.539 130.384L210.425 129.166L207.003 126.904Z" fill="#2A2A2A"/>
<path d="M200.796 143.55L200.506 144.594L197.78 143.84L198.012 142.97L199.81 143.492L201.724 136.88L210.424 139.374L210.192 140.244L202.362 137.982L201.028 142.622L208.858 144.884L208.626 145.754L200.796 143.55Z" fill="#2A2A2A"/>
<path d="M197.664 149.292L205.958 153.12L205.552 153.99L199.288 151.09L202.942 160.022L194.648 156.194L195.054 155.324L201.318 158.224L197.664 149.292Z" fill="#2A2A2A"/>
<path d="M191.458 161.53L199.056 166.634L198.534 167.388L192.792 163.56L194.996 172.956L187.398 167.852L187.92 167.04L193.662 170.868L191.458 161.53Z" fill="#2A2A2A"/>
<path d="M117.683 149.582L117.509 149.408L116.929 149.176C108.171 140.476 95.7588 135.546 82.9408 135.546C81.8388 135.546 80.6208 135.604 79.2288 135.72L78.5908 135.778V75.168L79.1128 75.11C80.5048 74.994 81.7228 74.936 82.8828 74.936C95.9328 74.936 108.519 79.924 117.451 88.682C126.441 79.924 139.027 74.936 152.019 74.936C153.179 74.936 154.397 74.994 155.789 75.11L156.311 75.168V135.72L155.673 135.662C154.281 135.546 153.063 135.488 151.961 135.488C139.143 135.488 126.731 140.476 117.973 149.118L117.683 149.582ZM117.451 147.9L117.625 148.016C126.615 139.316 139.143 134.386 152.077 134.386C153.063 134.386 154.049 134.444 155.267 134.502V76.27C154.107 76.212 153.063 76.154 152.077 76.154C139.143 76.154 126.673 81.2 117.915 89.958L117.509 90.364L117.103 89.958C108.287 81.2 95.8748 76.154 82.9408 76.154C81.9548 76.154 80.9108 76.212 79.7508 76.27V134.502C80.9108 134.444 81.9548 134.386 82.9408 134.386C95.8748 134.386 108.403 139.316 117.393 147.958L117.451 147.9Z" fill="#2A2A2A"/>
<path d="M117.74 164.778L117.508 164.546L117.276 164.778L116.87 164.372C104.4 152.076 86.8263 145 68.6143 145C67.0483 145 65.3663 145.058 63.3363 145.232L63.2783 144.072C65.3083 143.898 66.9903 143.84 68.6143 143.84C86.9423 143.84 104.632 150.858 117.276 163.154L117.508 162.922L117.74 163.154C130.384 150.858 148.074 143.84 166.402 143.84C168.026 143.84 169.708 143.898 171.738 144.072L171.68 145.232C169.708 145.058 168.026 145 166.402 145C148.19 145 130.558 152.076 118.146 164.372L117.74 164.778Z" fill="#2A2A2A"/>
<path d="M117.508 170.578C107.938 170.578 100.166 162.806 100.166 153.236C100.166 152.888 100.166 152.54 100.224 152.192L100.282 151.148L101.094 151.554C101.906 152.018 102.834 152.192 103.82 152.192C107.126 152.192 108.75 149.93 109.214 147.842C109.736 145.406 108.866 142.332 106.256 141.172L105.444 140.824L106.14 140.244C109.33 137.46 113.39 135.894 117.624 135.894C122.032 135.894 126.266 137.576 129.514 140.65L130.094 141.23L129.398 141.578C126.904 142.912 126.15 145.928 126.73 148.306C127.368 150.916 129.34 152.424 132.066 152.424C132.762 152.424 133.458 152.308 134.154 152.018L134.908 151.728L134.966 152.772C134.966 152.946 134.966 153.062 134.966 153.236C134.85 162.748 127.078 170.578 117.508 170.578ZM101.326 152.888C101.326 153.004 101.326 153.062 101.326 153.178C101.326 162.11 108.576 169.36 117.508 169.36C126.382 169.36 133.632 162.168 133.69 153.294C133.11 153.468 132.53 153.526 131.95 153.526C128.122 153.526 126.092 150.916 125.512 148.48C124.874 145.928 125.57 142.622 128.064 140.882C125.106 138.33 121.394 136.996 117.508 136.996C113.854 136.996 110.316 138.272 107.416 140.534C110.026 142.158 110.838 145.464 110.258 148.074C109.736 150.626 107.706 153.352 103.762 153.352C102.892 153.352 102.08 153.178 101.326 152.888Z" fill="#2A2A2A"/>
</g>
<defs>
<clipPath id="clip0_264_679">
<rect width="232" height="232" fill="white"/>
</clipPath>
</defs>
</svg>
