<svg width="232" height="232" viewBox="0 0 232 232" fill="none" xmlns="http://www.w3.org/2000/svg">
<g clip-path="url(#clip0_264_769)">
<path d="M116 232C180.065 232 232 180.065 232 116C232 51.935 180.065 0 116 0C51.935 0 0 51.935 0 116C0 180.065 51.935 232 116 232Z" fill="#7BBC48"/>
<path d="M75.9796 34.568L70.9336 22.272L79.5176 25.868L83.0556 17.284L88.1016 29.58L85.3756 30.682L82.9396 24.708L80.9676 29.406L76.2696 27.434L78.7056 33.408L75.9796 34.568Z" fill="#2A2A2A"/>
<path d="M101.558 24.534C100.572 26.1 99.1215 27.086 97.3235 27.434C95.5255 27.84 93.8435 27.492 92.2775 26.506C90.7115 25.52 89.7255 24.07 89.3775 22.272C89.0295 20.474 89.3195 18.792 90.3055 17.226C91.2915 15.66 92.7415 14.674 94.5395 14.326C96.3375 13.92 98.0195 14.268 99.5855 15.254C101.152 16.24 102.138 17.69 102.486 19.488C102.834 21.286 102.544 22.968 101.558 24.534ZM93.8435 24.128C94.7135 24.708 95.6415 24.882 96.6855 24.65C97.7295 24.418 98.4835 23.896 99.0635 22.968C99.5855 22.098 99.7595 21.112 99.5275 20.068C99.2955 19.024 98.7735 18.212 97.9035 17.632C97.0335 17.052 96.1055 16.878 95.0615 17.11C94.0175 17.342 93.2635 17.864 92.6835 18.792C92.1615 19.662 91.9875 20.648 92.2195 21.692C92.4515 22.736 93.0315 23.548 93.8435 24.128Z" fill="#2A2A2A"/>
<path d="M104.109 25.926L109.735 12.238L117.043 25.114L113.911 25.288L110.141 18.618L107.241 25.694L104.109 25.926Z" fill="#2A2A2A"/>
<path d="M128.875 24.244C127.425 25.462 125.801 25.926 123.945 25.81C122.089 25.636 120.581 24.882 119.363 23.432C118.145 21.982 117.623 20.358 117.797 18.502C117.971 16.646 118.725 15.138 120.175 13.92C121.625 12.702 123.249 12.238 125.047 12.354C126.903 12.528 128.411 13.282 129.629 14.732C130.847 16.182 131.311 17.806 131.195 19.662C131.079 21.576 130.267 23.084 128.875 24.244ZM121.683 21.634C122.321 22.446 123.191 22.91 124.235 22.968C125.279 23.084 126.207 22.736 126.961 22.098C127.715 21.402 128.179 20.532 128.295 19.488C128.411 18.444 128.121 17.458 127.483 16.646C126.845 15.834 125.975 15.37 124.931 15.312C123.887 15.196 122.959 15.544 122.205 16.182C121.451 16.878 120.987 17.748 120.871 18.792C120.755 19.836 120.987 20.822 121.683 21.634Z" fill="#2A2A2A"/>
<path d="M131.08 29.058L132.472 23.664L133.98 24.07L141.694 15.254L144.188 26.68L145.696 27.086L144.304 32.48L141.52 31.784L142.216 29.116L134.56 27.144L133.864 29.812L131.08 29.058ZM141.114 25.868L140.128 21.054L136.938 24.824L141.114 25.868Z" fill="#2A2A2A"/>
<path d="M146.855 30.682L151.901 18.56L159.441 21.692L158.339 24.418L153.583 22.446L152.713 24.476L156.483 26.042L155.381 28.652L151.611 27.086L150.741 29.116L155.497 31.088L154.395 33.814L146.855 30.682Z" fill="#2A2A2A"/>
<path d="M155.729 33.988L163.501 31.262L163.327 23.258L166.169 25.114L166.401 33.06L169.939 27.55L172.433 29.174L168.895 34.684L176.203 31.552L179.045 33.408L171.679 36.54L172.491 44.776L169.417 42.804L168.663 35.032L165.357 40.194L162.863 38.57L166.169 33.408L158.803 35.96L155.729 33.988Z" fill="#2A2A2A"/>
<path d="M181.597 41.992L182.989 43.326C183.917 44.196 184.439 45.24 184.497 46.4C184.555 47.56 184.207 48.604 183.337 49.532C182.525 50.46 181.481 50.924 180.321 50.924C179.161 50.924 178.059 50.518 177.131 49.648L173.535 46.342L182.467 36.714L184.613 38.744L181.597 41.992ZM177.711 46.226L179.103 47.502C179.451 47.85 179.857 48.024 180.263 48.024C180.669 48.024 181.017 47.85 181.365 47.502C181.713 47.154 181.829 46.748 181.771 46.342C181.713 45.936 181.539 45.588 181.133 45.24L179.741 43.964L177.711 46.226Z" fill="#2A2A2A"/>
<path d="M46.9805 190.182L55.2745 179.8L56.2605 189.08L65.4825 188.036L57.1885 198.418L54.8685 196.562L58.8705 191.516L53.8245 192.096L53.2445 187.05L49.2425 192.096L46.9805 190.182Z" fill="#2A2A2A"/>
<path d="M70.8767 204.334C69.0787 204.856 67.3967 204.624 65.7727 203.754C64.1487 202.826 63.1047 201.492 62.5827 199.694C62.0607 197.896 62.2927 196.214 63.1627 194.59C64.0907 192.966 65.4247 191.922 67.2227 191.4C69.0207 190.878 70.7027 191.11 72.3267 191.98C73.9507 192.908 74.9947 194.242 75.5167 196.04C76.0387 197.838 75.8067 199.52 74.9367 201.144C74.0087 202.768 72.6747 203.812 70.8767 204.334ZM65.4247 198.94C65.6567 199.926 66.2947 200.738 67.2227 201.202C68.1507 201.666 69.0787 201.84 70.1227 201.55C71.1087 201.26 71.8627 200.622 72.3847 199.694C72.9067 198.766 73.0227 197.78 72.7907 196.794C72.5587 195.808 71.9207 194.996 70.9927 194.532C70.0647 194.068 69.1367 193.894 68.0927 194.184C67.1067 194.474 66.3527 195.112 65.8307 196.04C65.3087 196.968 65.1347 197.954 65.4247 198.94Z" fill="#2A2A2A"/>
<path d="M75.1689 208.278L79.9249 196.04L83.9849 197.606C85.1449 198.07 86.0149 198.882 86.4789 199.984C86.9429 201.086 87.0009 202.246 86.5369 203.406C86.0729 204.566 85.3189 205.378 84.1589 205.9C83.0569 206.364 81.8969 206.422 80.6789 205.958L79.4029 205.436L77.8949 209.38L75.1689 208.278ZM80.4469 202.884L81.6649 203.348C82.1289 203.522 82.5349 203.522 82.9409 203.29C83.3469 203.116 83.6369 202.768 83.8109 202.362C83.9849 201.956 83.9849 201.492 83.8109 201.086C83.6369 200.68 83.3469 200.332 82.8829 200.216L81.6649 199.752L80.4469 202.884Z" fill="#2A2A2A"/>
<path d="M83.9844 214.716L85.3764 209.322L86.8844 209.67L94.5404 200.854L97.0924 212.28L98.6004 212.628L97.2084 218.022L94.4244 217.326L95.1204 214.658L87.4644 212.744L86.7684 215.412L83.9844 214.716ZM94.0184 211.468L93.0324 206.654L89.9004 210.424L94.0184 211.468Z" fill="#2A2A2A"/>
<path d="M111.419 215.006C109.969 216.166 108.345 216.688 106.489 216.514C104.633 216.34 103.125 215.528 101.965 214.078C100.805 212.628 100.283 211.004 100.457 209.148C100.631 207.292 101.443 205.784 102.893 204.624C104.343 203.464 105.967 202.942 107.823 203.116C109.679 203.29 111.187 204.102 112.347 205.552C113.507 207.002 114.029 208.626 113.855 210.482C113.681 212.28 112.869 213.788 111.419 215.006ZM104.227 212.28C104.865 213.092 105.735 213.556 106.779 213.672C107.823 213.788 108.751 213.498 109.563 212.802C110.375 212.106 110.781 211.236 110.897 210.192C111.013 209.148 110.723 208.162 110.085 207.35C109.447 206.538 108.577 206.074 107.533 205.958C106.489 205.842 105.561 206.132 104.749 206.828C103.937 207.524 103.531 208.394 103.415 209.438C103.299 210.54 103.589 211.468 104.227 212.28Z" fill="#2A2A2A"/>
<path d="M116.871 216.92L116.175 203.812L121.105 203.58C122.207 203.522 123.135 203.87 123.947 204.566C124.759 205.262 125.165 206.19 125.223 207.234C125.281 208.104 124.991 208.916 124.411 209.554C124.991 209.844 125.455 210.25 125.803 210.714C126.151 211.236 126.383 211.816 126.383 212.512C126.441 213.614 126.093 214.542 125.397 215.354C124.643 216.166 123.773 216.572 122.613 216.63L116.871 216.92ZM119.423 208.916L121.047 208.858C121.453 208.858 121.743 208.684 122.033 208.452C122.265 208.22 122.381 207.872 122.381 207.524C122.381 207.176 122.207 206.828 121.917 206.596C121.627 206.364 121.337 206.248 120.931 206.248L119.307 206.306L119.423 208.916ZM119.655 214.02L122.207 213.904C122.613 213.904 122.903 213.73 123.193 213.498C123.425 213.266 123.541 212.918 123.541 212.57C123.541 212.222 123.367 211.874 123.077 211.642C122.787 211.41 122.497 211.294 122.091 211.294L119.539 211.41L119.655 214.02Z" fill="#2A2A2A"/>
<path d="M130.21 216.108L127.658 203.058L130.558 202.478L131.892 209.206L138.678 200.738L141.23 213.788L138.33 214.368L136.996 207.64L130.21 216.108Z" fill="#2A2A2A"/>
<path d="M145.406 212.802L140.94 200.274L143.724 199.288L146.044 205.726L151.496 196.33L156.02 208.858L153.236 209.844L150.916 203.406L145.406 212.802Z" fill="#2A2A2A"/>
<path d="M28.4773 123.018C28.5933 124.294 28.3033 125.454 27.4913 126.44C26.6793 127.426 25.6353 128.006 24.3593 128.122C23.0833 128.238 21.9233 127.948 20.9373 127.136C19.9513 126.324 19.3713 125.28 19.2553 124.004C19.1973 123.25 19.2553 122.554 19.4873 121.916C19.7193 121.22 20.0673 120.698 20.5313 120.292L21.1693 120.93C20.7633 121.278 20.5313 121.742 20.2993 122.264C20.1253 122.786 20.0673 123.366 20.1253 123.946C20.2413 124.99 20.7053 125.802 21.4593 126.44C22.2713 127.078 23.1413 127.31 24.2433 127.194C25.2873 127.078 26.1573 126.614 26.7953 125.86C27.4333 125.106 27.7233 124.178 27.6073 123.134C27.5493 122.554 27.3753 121.974 27.0853 121.51C26.7953 121.046 26.3893 120.64 25.9833 120.408L26.5053 119.654C27.0273 119.944 27.4913 120.408 27.8393 121.046C28.1293 121.626 28.3613 122.264 28.4773 123.018Z" fill="#2A2A2A"/>
<path d="M27.8976 114.84L18.8496 114.666L18.9656 109.504H19.8936L19.7776 113.738L22.7936 113.796L22.8516 110.316H23.7796L23.7216 113.796L26.9696 113.854L27.0856 109.62H28.0136L27.8976 114.84Z" fill="#2A2A2A"/>
<path d="M28.3615 104.458L19.3135 102.95L24.8815 99.47L20.7055 94.366L29.7535 95.874L29.5795 96.802L22.9095 95.7L26.2735 99.702L21.8075 102.428L28.5355 103.53L28.3615 104.458Z" fill="#2A2A2A"/>
<path d="M26.5051 87.696L27.0271 86.072C27.3171 85.144 27.7811 84.506 28.4191 84.158C29.0571 83.752 29.7531 83.694 30.5071 83.926C31.2611 84.158 31.7831 84.622 32.0731 85.318C32.3631 86.014 32.3631 86.768 32.0731 87.696L31.2611 90.19L22.6191 87.464L22.9091 86.594L26.5051 87.696ZM30.7391 89.03L31.2611 87.406C31.4931 86.768 31.4931 86.188 31.3191 85.724C31.1451 85.26 30.7971 84.97 30.2171 84.796C29.6951 84.622 29.2311 84.68 28.8251 84.912C28.4191 85.144 28.1291 85.608 27.8971 86.304L27.3751 87.928L30.7391 89.03Z" fill="#2A2A2A"/>
<path d="M34.2198 81.548L31.7258 77.546C31.3198 78.126 30.8558 78.474 30.3338 78.59C29.8118 78.706 29.2318 78.648 28.6518 78.416C27.8978 78.068 27.4338 77.546 27.2018 76.85C26.9698 76.154 27.0858 75.4 27.4338 74.53L28.5358 72.152L36.8298 75.864L36.4238 76.734L33.0598 75.226L32.3638 76.792L34.6838 80.562L34.2198 81.548ZM31.5518 76.386L32.2478 74.878L28.9418 73.37L28.2458 74.936C27.9558 75.574 27.8978 76.096 28.0718 76.56C28.2458 77.024 28.5358 77.372 29.0578 77.604C29.5798 77.836 30.0438 77.836 30.5078 77.662C30.9138 77.372 31.2618 76.966 31.5518 76.386Z" fill="#2A2A2A"/>
<path d="M202.479 110.026H205.263V110.896L213.499 114.666L205.263 118.436V119.248H202.479V118.32H204.393V110.896H202.479V110.026ZM205.263 111.824V117.45L211.469 114.666L205.263 111.824Z" fill="#2A2A2A"/>
<path d="M203.87 123.772L212.86 124.932L212.164 130.036L211.236 129.92L211.816 125.744L208.8 125.338L208.336 128.76L207.408 128.644L207.872 125.222L204.624 124.816L204.044 128.992L203.116 128.876L203.87 123.772Z" fill="#2A2A2A"/>
<path d="M202.014 134.676L209.96 136.59L210.598 134.038L211.468 134.27L210.018 140.302L209.148 140.07L209.786 137.518L201.84 135.604L202.014 134.676Z" fill="#2A2A2A"/>
<path d="M199.81 142.39L208.394 145.696L208.046 146.566L201.55 144.072L205.784 152.714L197.2 149.466L197.548 148.596L204.044 151.09L199.81 142.39Z" fill="#2A2A2A"/>
<path d="M146.103 103.53C149.351 104.052 152.193 101.268 151.729 97.962C149.815 84.332 139.259 72.906 124.933 70.644C110.607 68.382 97.0347 75.922 91.0027 88.276C89.5527 91.234 91.3507 94.772 94.5987 95.294L146.103 103.53Z" fill="#7BBC48"/>
<path d="M146.856 104.168C146.566 104.168 146.276 104.168 145.986 104.11L94.5403 95.932C92.8003 95.642 91.3503 94.598 90.5383 93.032C89.7263 91.466 89.7263 89.668 90.4803 88.044C96.8023 74.994 110.722 67.802 124.99 70.064C139.316 72.326 150.278 83.52 152.25 97.846C152.482 99.586 151.902 101.326 150.626 102.544C149.64 103.588 148.306 104.168 146.856 104.168ZM119.77 70.818C107.822 70.818 96.8603 77.546 91.5243 88.566C90.8863 89.842 90.9443 91.292 91.5823 92.51C92.2203 93.728 93.3803 94.54 94.7143 94.772L146.16 102.95C147.552 103.182 148.886 102.718 149.872 101.79C150.858 100.804 151.322 99.47 151.148 98.078C149.234 84.216 138.678 73.486 124.874 71.282C123.134 70.934 121.452 70.818 119.77 70.818Z" fill="#2A2A2A"/>
<path d="M143.434 134.56C146.972 135.14 150.046 132.066 149.524 128.528C147.494 113.738 136.01 101.384 120.466 98.89C104.922 96.396 90.1903 104.632 83.6363 118.03C82.0703 121.278 84.0423 125.106 87.5803 125.686L143.434 134.56Z" fill="#7BBC48"/>
<path d="M144.246 135.198C143.956 135.198 143.608 135.198 143.318 135.14L87.4645 126.266C85.6085 125.976 84.0425 124.816 83.1725 123.192C82.3025 121.51 82.2445 119.538 83.1145 117.856C90.0165 103.762 105.038 95.932 120.524 98.368C136.068 100.862 147.9 112.926 150.104 128.47C150.394 130.384 149.756 132.24 148.364 133.516C147.262 134.618 145.812 135.198 144.246 135.198ZM143.492 133.98C145 134.212 146.45 133.748 147.552 132.704C148.654 131.602 149.176 130.152 148.944 128.586C146.856 113.564 135.372 101.848 120.35 99.412C105.328 97.034 90.7705 104.574 84.1585 118.262C83.4625 119.654 83.5205 121.22 84.2165 122.554C84.9125 123.888 86.1885 124.816 87.6385 125.048L143.492 133.98Z" fill="#2A2A2A"/>
<path d="M138.505 165.3C142.043 165.88 145.117 162.806 144.595 159.268C142.565 144.478 131.081 132.124 115.537 129.63C99.9926 127.136 85.2606 135.372 78.7066 148.77C77.1406 152.018 79.1126 155.846 82.6506 156.426L138.505 165.3Z" fill="#7BBC48"/>
<path d="M139.374 165.938C139.084 165.938 138.736 165.938 138.446 165.88L82.5924 157.006C80.7364 156.716 79.1704 155.556 78.3004 153.932C77.4304 152.25 77.3724 150.278 78.2424 148.596C85.1444 134.502 100.166 126.672 115.652 129.108C131.196 131.602 143.028 143.666 145.232 159.21C145.522 161.124 144.884 162.98 143.492 164.314C142.332 165.358 140.882 165.938 139.374 165.938ZM109.968 129.804C96.9764 129.804 85.0864 137.112 79.2284 149.06C78.5324 150.452 78.5904 152.018 79.2864 153.352C79.9824 154.686 81.2584 155.614 82.7084 155.846L138.62 164.72C140.128 164.952 141.578 164.488 142.68 163.444C143.782 162.342 144.304 160.892 144.072 159.326C141.984 144.304 130.5 132.588 115.478 130.152C113.622 129.92 111.766 129.804 109.968 129.804Z" fill="#2A2A2A"/>
<path d="M122.438 77.256L115.826 68.15C115.188 67.222 115.362 66.004 116.29 65.308L125.454 58.696C126.382 58.058 127.6 58.232 128.296 59.16L134.908 68.266C135.546 69.194 135.372 70.412 134.444 71.108L125.222 77.72C124.352 78.358 123.076 78.184 122.438 77.256Z" fill="#7BBC48"/>
<path d="M124.642 77.662C124.352 77.662 124.12 77.662 123.83 77.604C122.438 77.372 121.278 76.676 120.466 75.516L116.87 70.586C116.058 69.484 115.71 68.092 115.942 66.7C116.174 65.308 116.87 64.148 118.03 63.336L122.96 59.74C124.062 58.928 125.454 58.58 126.846 58.812C128.238 59.044 129.398 59.74 130.21 60.9L133.806 65.83C134.618 66.932 134.966 68.324 134.734 69.716C134.502 71.108 133.806 72.268 132.646 73.08L127.716 76.676C126.788 77.314 125.744 77.662 124.642 77.662ZM121.394 74.82C122.032 75.69 122.96 76.27 124.004 76.444C125.048 76.618 126.15 76.386 127.02 75.748L131.95 72.152C132.82 71.514 133.4 70.586 133.574 69.542C133.748 68.498 133.516 67.396 132.878 66.526L129.282 61.596C128.644 60.726 127.716 60.146 126.672 59.972C125.628 59.798 124.526 60.03 123.656 60.668L118.726 64.264C117.856 64.902 117.276 65.83 117.102 66.874C116.928 67.918 117.16 69.02 117.798 69.89L121.394 74.82Z" fill="#2A2A2A"/>
<path d="M122.728 94.54C125.454 93.612 128.064 96.222 127.136 98.948C126.788 100.05 126.962 101.21 127.658 102.138C129.398 104.458 127.716 107.706 124.816 107.706C123.656 107.706 122.612 108.228 121.916 109.156C120.234 111.534 116.638 110.954 115.768 108.17C115.42 107.068 114.55 106.198 113.506 105.908C110.78 105.038 110.2 101.384 112.52 99.76C113.448 99.122 114.028 98.02 113.97 96.86C113.912 93.96 117.218 92.336 119.538 94.018C120.466 94.714 121.684 94.888 122.728 94.54Z" fill="#7BBC48"/>
<path d="M119.132 111.244C118.9 111.244 118.726 111.244 118.494 111.186C116.986 110.954 115.71 109.852 115.246 108.402C114.956 107.474 114.26 106.778 113.332 106.488C111.824 106.024 110.78 104.806 110.548 103.24C110.316 101.732 110.954 100.224 112.23 99.296C112.984 98.774 113.448 97.846 113.448 96.918C113.448 95.352 114.26 93.96 115.652 93.264C117.044 92.568 118.668 92.684 119.944 93.612C120.698 94.192 121.684 94.366 122.612 94.018C124.062 93.496 125.686 93.902 126.788 95.004C127.89 96.106 128.238 97.73 127.774 99.18C127.484 100.108 127.6 101.094 128.18 101.848C129.108 103.066 129.224 104.748 128.528 106.14C127.832 107.532 126.44 108.402 124.874 108.344C123.888 108.344 123.018 108.808 122.496 109.562C121.626 110.606 120.408 111.244 119.132 111.244ZM117.508 93.902C117.044 93.902 116.638 94.018 116.174 94.25C115.188 94.772 114.55 95.758 114.608 96.86C114.608 98.194 113.97 99.47 112.868 100.224C111.94 100.862 111.476 101.906 111.65 103.066C111.824 104.168 112.578 105.038 113.622 105.386C114.898 105.792 115.884 106.778 116.29 108.054C116.638 109.156 117.508 109.852 118.61 110.084C119.712 110.258 120.756 109.794 121.452 108.924C122.206 107.822 123.482 107.242 124.816 107.242C125.976 107.242 126.904 106.662 127.426 105.676C127.948 104.69 127.832 103.53 127.194 102.602C126.382 101.558 126.15 100.108 126.614 98.89C126.962 97.846 126.73 96.686 125.918 95.932C125.106 95.12 124.004 94.888 122.96 95.236C121.684 95.642 120.292 95.468 119.248 94.656C118.668 94.134 118.088 93.902 117.508 93.902Z" fill="#2A2A2A"/>
<path d="M115.536 138.33C120.341 138.33 124.236 134.435 124.236 129.63C124.236 124.825 120.341 120.93 115.536 120.93C110.731 120.93 106.836 124.825 106.836 129.63C106.836 134.435 110.731 138.33 115.536 138.33Z" fill="#7BBC48"/>
<path d="M115.594 138.91C115.13 138.91 114.608 138.852 114.144 138.794C111.708 138.388 109.562 137.112 108.112 135.082C106.662 133.052 106.082 130.616 106.43 128.18C106.836 125.744 108.112 123.598 110.142 122.148C112.172 120.698 114.608 120.118 117.044 120.466C122.09 121.278 125.57 126.034 124.758 131.08C124.352 133.516 123.076 135.662 121.046 137.112C119.422 138.33 117.508 138.91 115.594 138.91ZM115.536 121.51C113.854 121.51 112.172 122.032 110.78 123.076C109.04 124.352 107.88 126.208 107.532 128.354C107.184 130.5 107.706 132.646 108.982 134.386C110.258 136.126 112.114 137.286 114.26 137.634C116.406 137.982 118.552 137.46 120.292 136.184C122.032 134.908 123.192 133.052 123.54 130.906C124.236 126.498 121.22 122.322 116.812 121.626C116.406 121.568 115.942 121.51 115.536 121.51Z" fill="#2A2A2A"/>
</g>
<defs>
<clipPath id="clip0_264_769">
<rect width="232" height="232" fill="white"/>
</clipPath>
</defs>
</svg>
