<svg width="232" height="232" viewBox="0 0 232 232" fill="none" xmlns="http://www.w3.org/2000/svg">
<g clip-path="url(#clip0_264_394)">
<path d="M116 231.942C180.065 231.942 232 180.033 232 116C232 51.967 180.065 0.0579987 116 0.0579987C51.935 0.0579987 0 51.967 0 116C0 180.033 51.935 231.942 116 231.942Z" fill="#7260A9"/>
<path d="M94.7718 30.856L92.7998 17.69L100.224 23.258L105.734 15.834L107.648 29L104.748 29.406L103.82 23.026L100.804 27.086L96.7438 24.07L97.6718 30.45L94.7718 30.856Z" fill="#2A2A2A"/>
<path d="M121.974 27.318C120.64 28.594 119.016 29.174 117.16 29.116C115.304 29.058 113.738 28.362 112.462 26.97C111.186 25.636 110.606 24.012 110.664 22.156C110.722 20.3 111.418 18.734 112.81 17.458C114.144 16.182 115.768 15.602 117.624 15.66C119.48 15.718 121.046 16.414 122.322 17.806C123.598 19.14 124.178 20.764 124.12 22.62C124.062 24.476 123.366 26.042 121.974 27.318ZM114.666 25.056C115.362 25.81 116.232 26.216 117.276 26.274C118.32 26.332 119.248 25.984 120.002 25.23C120.756 24.476 121.104 23.606 121.162 22.504C121.22 21.46 120.872 20.532 120.176 19.72C119.48 18.966 118.61 18.56 117.566 18.502C116.522 18.444 115.594 18.792 114.84 19.546C114.086 20.3 113.738 21.17 113.68 22.272C113.622 23.374 113.97 24.302 114.666 25.056Z" fill="#2A2A2A"/>
<path d="M124.12 29.29L132.936 17.4L136.88 31.668L133.806 31.088L131.776 23.722L127.252 29.928L124.12 29.29Z" fill="#2A2A2A"/>
<path d="M148.596 33.698C146.914 34.51 145.232 34.626 143.492 33.988C141.752 33.408 140.476 32.248 139.664 30.566C138.852 28.884 138.736 27.202 139.374 25.462C139.954 23.722 141.114 22.446 142.796 21.634C144.478 20.822 146.16 20.706 147.9 21.344C149.64 21.924 150.916 23.084 151.728 24.766C152.54 26.448 152.656 28.13 152.018 29.87C151.38 31.61 150.278 32.886 148.596 33.698ZM142.216 29.348C142.622 30.276 143.376 30.914 144.362 31.262C145.348 31.61 146.334 31.552 147.262 31.088C148.19 30.624 148.828 29.87 149.176 28.826C149.524 27.84 149.466 26.854 149.06 25.868C148.654 24.94 147.9 24.302 146.914 23.954C145.928 23.606 144.942 23.664 144.014 24.128C143.086 24.592 142.448 25.346 142.1 26.39C141.752 27.434 141.81 28.42 142.216 29.348Z" fill="#2A2A2A"/>
<path d="M149.523 38.918L152.191 33.988L153.525 34.742L163.153 28.072L162.805 39.788L164.139 40.542L161.471 45.472L158.977 44.138L160.311 41.702L153.351 37.932L152.017 40.31L149.523 38.918ZM160.079 38.222L160.311 33.35L156.309 36.25L160.079 38.222Z" fill="#2A2A2A"/>
<path d="M164.488 44.312L172.318 33.756L178.872 38.628L177.132 40.948L172.956 37.874L171.622 39.672L174.87 42.108L173.188 44.37L169.94 41.934L168.606 43.732L172.782 46.806L171.042 49.126L164.488 44.312Z" fill="#2A2A2A"/>
<path d="M172.26 49.648L180.496 48.894L182.236 41.064L184.556 43.558L182.816 51.33L187.63 46.806L189.66 48.952L184.904 53.476L192.792 52.258L195.112 54.752L187.166 56.028L185.948 64.206L183.454 61.538L184.614 53.824L180.148 58.058L178.118 55.912L182.584 51.678L174.812 52.374L172.26 49.648Z" fill="#2A2A2A"/>
<path d="M195.46 63.684L196.504 65.308C197.2 66.41 197.432 67.512 197.258 68.672C197.026 69.832 196.446 70.76 195.402 71.398C194.358 72.094 193.256 72.268 192.154 71.978C190.994 71.688 190.066 71.05 189.37 69.948L186.702 65.83L197.722 58.638L199.346 61.132L195.46 63.684ZM190.588 66.874L191.632 68.44C191.922 68.846 192.212 69.136 192.618 69.252C193.024 69.368 193.372 69.31 193.778 69.02C194.184 68.73 194.416 68.44 194.474 68.034C194.532 67.628 194.416 67.222 194.126 66.816L193.082 65.25L190.588 66.874Z" fill="#2A2A2A"/>
<path d="M28.7676 174.696L39.3816 166.634L38.1056 175.798L47.3276 177.016L36.7136 185.02L34.9156 182.642L40.0196 178.756L34.9736 178.06L35.6696 173.014L30.5656 176.9L28.7676 174.696Z" fill="#2A2A2A"/>
<path d="M48.5453 194.242C46.6893 194.3 45.0653 193.662 43.7313 192.386C42.3973 191.11 41.7013 189.544 41.6433 187.688C41.5853 185.832 42.2233 184.208 43.4993 182.874C44.7753 181.54 46.3413 180.844 48.1973 180.786C50.0533 180.728 51.6773 181.366 53.0113 182.642C54.3453 183.918 55.0413 185.484 55.0993 187.34C55.1573 189.196 54.5193 190.82 53.2433 192.154C51.9673 193.488 50.4013 194.184 48.5453 194.242ZM44.5433 187.688C44.5433 188.732 44.9493 189.602 45.7033 190.356C46.4573 191.11 47.3853 191.4 48.4293 191.342C49.4733 191.284 50.3433 190.878 51.0973 190.066C51.8513 189.312 52.1993 188.384 52.1993 187.34C52.1993 186.296 51.7933 185.426 51.0393 184.672C50.2853 183.918 49.3573 183.628 48.3133 183.686C47.2693 183.744 46.3993 184.15 45.6453 184.962C44.8913 185.716 44.5433 186.644 44.5433 187.688Z" fill="#2A2A2A"/>
<path d="M51.7354 199.114L59.3334 188.384L62.8714 190.878C63.9154 191.632 64.5534 192.56 64.7274 193.778C64.9594 194.996 64.6694 196.098 63.9734 197.084C63.2774 198.128 62.2914 198.708 61.0734 198.94C59.8554 199.114 58.7534 198.882 57.7094 198.128L56.6074 197.316L54.1714 200.738L51.7354 199.114ZM58.1734 195.17L59.2754 195.924C59.6814 196.214 60.0874 196.272 60.5514 196.214C61.0154 196.098 61.3634 195.866 61.6534 195.518C61.9434 195.17 62.0014 194.706 61.9434 194.3C61.8854 193.836 61.6534 193.488 61.2474 193.198L60.1454 192.444L58.1734 195.17Z" fill="#2A2A2A"/>
<path d="M58.6953 207.466L61.3633 202.536L62.6973 203.29L72.2673 196.562L71.9773 208.278L73.3113 209.032L70.6433 213.962L68.1493 212.628L69.4253 210.192L62.4653 206.422L61.1893 208.858L58.6953 207.466ZM69.2513 206.77L69.4833 201.84L65.5393 204.74L69.2513 206.77Z" fill="#2A2A2A"/>
<path d="M85.2599 214.426C83.5779 215.238 81.8959 215.296 80.0979 214.716C78.3579 214.078 77.0819 212.976 76.2699 211.294C75.4579 209.612 75.3999 207.93 75.9799 206.19C76.6179 204.45 77.7199 203.174 79.4019 202.362C81.0839 201.55 82.7659 201.492 84.5639 202.072C86.3039 202.71 87.5799 203.812 88.3919 205.494C89.2039 207.176 89.2619 208.858 88.6819 210.598C88.1019 212.338 86.9419 213.614 85.2599 214.426ZM78.9379 210.076C79.3439 211.004 80.0979 211.7 81.0839 212.048C82.0699 212.396 83.0559 212.338 83.9839 211.874C84.9119 211.41 85.5499 210.656 85.8979 209.67C86.2459 208.684 86.2459 207.698 85.7819 206.712C85.3759 205.784 84.6219 205.088 83.6359 204.74C82.6499 204.392 81.6639 204.45 80.7359 204.914C79.8079 205.378 79.1699 206.132 78.8219 207.118C78.4739 208.104 78.5319 209.09 78.9379 210.076Z" fill="#2A2A2A"/>
<path d="M90.0732 217.616L92.6252 204.74L97.4972 205.668C98.5412 205.9 99.3532 206.422 99.9912 207.35C100.571 208.22 100.803 209.206 100.571 210.25C100.397 211.12 99.9332 211.816 99.2372 212.28C99.7592 212.686 100.107 213.208 100.339 213.788C100.571 214.368 100.629 215.006 100.455 215.644C100.223 216.688 99.7012 217.558 98.7732 218.138C97.8452 218.718 96.8592 218.95 95.7572 218.718L90.0732 217.616ZM94.4812 210.482L96.1052 210.772C96.5112 210.83 96.8592 210.772 97.1492 210.598C97.4392 210.424 97.6132 210.134 97.7292 209.786C97.7872 209.438 97.7292 209.09 97.5552 208.8C97.3232 208.51 97.0332 208.336 96.6852 208.22L95.0612 207.93L94.4812 210.482ZM93.4952 215.528L95.9892 215.992C96.3952 216.05 96.7432 215.992 97.0332 215.818C97.3232 215.644 97.4972 215.354 97.6132 215.006C97.6712 214.658 97.6132 214.31 97.4392 214.02C97.2072 213.73 96.9172 213.556 96.5692 213.44L94.0752 212.918L93.4952 215.528Z" fill="#2A2A2A"/>
<path d="M103.182 220.11L103.878 206.828L106.836 207.002L106.488 213.846L115.13 207.292L114.434 220.574L111.476 220.4L111.824 213.556L103.182 220.11Z" fill="#2A2A2A"/>
<path d="M118.783 220.574L117.449 207.35L120.407 207.06L121.103 213.904L128.643 206.074L129.977 219.298L127.019 219.588L126.323 212.744L118.783 220.574Z" fill="#2A2A2A"/>
<path d="M28.5355 138.446C28.8255 139.722 28.6515 140.882 28.0135 141.926C27.3755 143.028 26.3895 143.724 25.1135 144.014C23.8375 144.304 22.6775 144.13 21.5755 143.492C20.4735 142.854 19.7775 141.868 19.4875 140.65C19.3135 139.954 19.3135 139.2 19.4295 138.504C19.6035 137.808 19.8355 137.228 20.2415 136.764L20.9955 137.286C20.6475 137.692 20.4735 138.156 20.2995 138.736C20.1835 139.258 20.1835 139.838 20.3575 140.418C20.5895 141.404 21.1695 142.158 22.0395 142.68C22.9095 143.202 23.8375 143.318 24.8815 143.086C25.9255 142.854 26.6795 142.274 27.2015 141.462C27.7235 140.592 27.8395 139.664 27.6075 138.678C27.4915 138.098 27.2015 137.576 26.8535 137.17C26.5055 136.764 26.0995 136.416 25.5775 136.184L25.9835 135.372C26.5635 135.604 27.0275 136.01 27.4915 136.532C28.0135 137.112 28.3615 137.75 28.5355 138.446Z" fill="#2A2A2A"/>
<path d="M24.8819 122.844C25.8679 123.656 26.3899 124.7 26.5059 126.034C26.6219 127.31 26.2739 128.47 25.4619 129.456C24.6499 130.442 23.6059 130.964 22.2719 131.08C20.9379 131.196 19.8359 130.848 18.8499 130.036C17.8639 129.224 17.3419 128.18 17.2259 126.846C17.1099 125.57 17.4579 124.41 18.2699 123.424C19.0819 122.438 20.1259 121.916 21.4599 121.8C22.7939 121.684 23.8959 122.032 24.8819 122.844ZM24.7659 128.76C25.4039 128.006 25.6939 127.078 25.5779 126.034C25.4619 124.99 25.0559 124.178 24.3019 123.54C23.5479 122.902 22.6199 122.612 21.5759 122.728C20.5319 122.844 19.6619 123.25 19.0239 124.004C18.3859 124.758 18.0959 125.686 18.2119 126.672C18.3279 127.716 18.7339 128.528 19.4879 129.166C20.2419 129.804 21.1699 130.094 22.2139 129.978C23.2579 129.978 24.1279 129.572 24.7659 128.76Z" fill="#2A2A2A"/>
<path d="M25.5199 109.156L25.5779 108.054L28.3619 108.228L28.3039 109.156L26.3899 109.04L25.9259 115.884L16.8779 115.304L16.9359 114.376L25.0559 114.898L25.3459 110.084L17.2259 109.562L17.2839 108.634L25.5199 109.156Z" fill="#2A2A2A"/>
<path d="M27.3763 102.95L18.4443 100.978L18.6183 100.05L25.4043 101.558L19.9523 93.612L28.8843 95.584L28.7103 96.512L21.9243 95.004L27.3763 102.95Z" fill="#2A2A2A"/>
<path d="M30.1596 91.292L23.1416 83.984L33.2336 83.114L32.8856 84.042L30.0436 84.274L28.5356 88.334L30.5076 90.364L30.1596 91.292ZM27.8396 87.58L29.0576 84.332L24.9976 84.68L27.8396 87.58Z" fill="#2A2A2A"/>
<path d="M34.4519 80.388L28.4199 72.21L38.5699 72.674L38.1059 73.602L30.2179 73.196L34.9159 79.518L34.4519 80.388Z" fill="#2A2A2A"/>
<path d="M37.0042 65.424L37.9902 64.032C38.5122 63.278 39.1502 62.756 39.9042 62.582C40.6002 62.408 41.2962 62.582 41.9342 62.988C42.5722 63.452 42.9782 64.032 43.0362 64.786C43.0942 65.54 42.8622 66.294 42.3402 67.048L40.8322 69.194L33.4082 63.974L33.9302 63.22L37.0042 65.424ZM40.6002 68.034L41.5862 66.642C41.9922 66.062 42.1662 65.54 42.1082 65.076C42.0502 64.612 41.8182 64.206 41.3542 63.858C40.8902 63.51 40.4262 63.452 39.9622 63.568C39.4982 63.684 39.0342 64.032 38.6862 64.612L37.7002 66.004L40.6002 68.034Z" fill="#2A2A2A"/>
<path d="M47.0964 60.842L40.4844 54.694L41.1224 53.998L44.0224 56.666L47.6764 52.722L44.7764 50.054L45.4144 49.358L52.0844 55.506L51.4464 56.202L48.3144 53.36L44.6604 57.304L47.7344 60.146L47.0964 60.842Z" fill="#2A2A2A"/>
<path d="M55.2735 52.374L52.8955 42.514L62.0595 46.864L61.2475 47.502L58.6955 46.284L55.3315 49.01L56.0275 51.736L55.2735 52.374ZM55.1575 48.082L57.8835 45.878L54.2295 44.08L55.1575 48.082Z" fill="#2A2A2A"/>
<path d="M64.7859 45.066L64.9599 40.368C64.3219 40.6 63.7419 40.658 63.2199 40.426C62.6979 40.252 62.2339 39.846 61.9439 39.324C61.5379 38.628 61.4219 37.932 61.5959 37.236C61.8279 36.54 62.2919 35.96 63.1039 35.438L65.3659 34.046L70.1219 41.76L69.3099 42.224L67.3959 39.092L65.9459 40.02L65.7719 44.486L64.7859 45.066ZM65.4819 39.266L66.9319 38.396L65.0179 35.322L63.5679 36.192C62.9879 36.54 62.6399 36.946 62.4659 37.41C62.3499 37.874 62.4079 38.338 62.6979 38.802C62.9879 39.266 63.3939 39.556 63.8579 39.672C64.3799 39.73 64.9019 39.614 65.4819 39.266Z" fill="#2A2A2A"/>
<path d="M197.606 89.262C197.142 88.044 197.2 86.884 197.78 85.724C198.302 84.564 199.23 83.81 200.448 83.346C201.666 82.882 202.884 82.94 203.986 83.52C205.146 84.042 205.9 84.97 206.364 86.188C206.596 86.884 206.712 87.58 206.596 88.276C206.538 88.972 206.306 89.61 205.958 90.074L205.204 89.61C205.494 89.146 205.668 88.682 205.726 88.102C205.784 87.522 205.726 87 205.494 86.42C205.146 85.434 204.508 84.738 203.58 84.332C202.652 83.926 201.724 83.868 200.738 84.216C199.752 84.564 199.056 85.202 198.592 86.072C198.128 86.942 198.128 87.928 198.476 88.856C198.65 89.436 198.998 89.9 199.404 90.306C199.81 90.712 200.274 91.002 200.738 91.118L200.39 91.93C199.81 91.756 199.288 91.408 198.766 90.944C198.186 90.538 197.838 89.958 197.606 89.262Z" fill="#2A2A2A"/>
<path d="M199.578 95.12L209.438 97.44L201.434 103.646L201.26 102.66L203.522 100.92L202.594 96.686L199.81 96.048L199.578 95.12ZM203.522 96.918L204.276 100.34L207.524 97.846L203.522 96.918Z" fill="#2A2A2A"/>
<path d="M202.014 107.358L211.12 106.72L206.48 111.418L211.758 115.42L202.594 116.058L202.536 115.13L209.322 114.666L205.146 111.534L208.858 107.822L202.072 108.286L202.014 107.358Z" fill="#2A2A2A"/>
<path d="M203.174 128.876C202.362 127.89 202.014 126.788 202.13 125.454C202.246 124.12 202.768 123.076 203.754 122.264C204.74 121.452 205.842 121.104 207.176 121.22C208.452 121.336 209.554 121.858 210.366 122.844C211.178 123.83 211.526 124.932 211.41 126.266C211.294 127.542 210.772 128.644 209.786 129.456C208.8 130.268 207.698 130.616 206.364 130.5C205.03 130.384 203.986 129.862 203.174 128.876ZM204.276 123.076C203.522 123.714 203.058 124.584 203 125.57C202.884 126.614 203.174 127.484 203.87 128.238C204.508 128.992 205.378 129.398 206.422 129.514C207.466 129.63 208.394 129.34 209.148 128.702C209.902 128.064 210.366 127.252 210.424 126.208C210.54 125.164 210.25 124.294 209.554 123.482C208.916 122.728 208.046 122.264 207.002 122.206C205.958 122.148 205.088 122.438 204.276 123.076Z" fill="#2A2A2A"/>
<path d="M201.086 134.154L209.96 136.068L209.438 138.562C209.264 139.49 208.858 140.186 208.278 140.592C207.698 140.998 207.002 141.172 206.19 140.998C205.378 140.824 204.798 140.418 204.45 139.78C204.102 139.142 203.986 138.388 204.218 137.46L204.566 135.894L200.97 135.14L201.086 134.154ZM205.32 136.01L204.972 137.576C204.856 138.214 204.856 138.794 205.088 139.2C205.32 139.606 205.726 139.896 206.306 140.012C206.828 140.128 207.35 140.07 207.698 139.78C208.104 139.49 208.336 139.026 208.51 138.33L208.858 136.764L205.32 136.01Z" fill="#2A2A2A"/>
<path d="M198.998 142.796L207.64 145.58L206.074 150.51L205.204 150.22L206.48 146.16L203.58 145.232L202.536 148.538L201.666 148.248L202.71 144.942L199.578 143.956L198.302 148.016L197.432 147.726L198.998 142.796Z" fill="#2A2A2A"/>
<path d="M196.62 149.988L203.232 157.702L193.082 157.934L193.488 157.006L196.33 156.948L198.07 153.004L196.214 150.858L196.62 149.988ZM198.708 153.758L197.258 156.948L201.376 156.832L198.708 153.758Z" fill="#2A2A2A"/>
<path d="M192.154 159.732L197.78 168.2L187.688 167.214L188.21 166.344L196.04 167.156L191.632 160.602L192.154 159.732Z" fill="#2A2A2A"/>
<path d="M185.484 170.114L192.618 175.856L192.038 176.61L186.644 172.26L188.036 181.772L180.902 176.03L181.482 175.276L186.876 179.626L185.484 170.114Z" fill="#2A2A2A"/>
<path d="M182.816 184.788H183.744C183.744 185.832 183.338 186.702 182.642 187.398C182.062 187.978 181.424 188.268 180.786 188.268C180.09 188.268 179.51 188.036 179.046 187.514C178.408 186.818 178.234 186.064 178.582 185.194C178.118 185.426 177.654 185.542 177.19 185.426C176.726 185.368 176.262 185.136 175.914 184.73C175.334 184.15 175.102 183.454 175.218 182.7C175.334 181.946 175.682 181.308 176.262 180.67C176.726 180.206 177.19 179.916 177.77 179.742C178.35 179.568 178.872 179.51 179.394 179.568L179.336 180.496C178.872 180.438 178.466 180.438 178.002 180.612C177.538 180.786 177.19 181.018 176.842 181.308C176.378 181.714 176.146 182.236 176.088 182.7C176.03 183.222 176.204 183.628 176.552 184.034C176.9 184.382 177.306 184.556 177.828 184.556C178.292 184.556 178.756 184.266 179.22 183.86L179.916 183.164L180.496 183.744L179.8 184.44C179.452 184.788 179.22 185.194 179.22 185.6C179.22 186.006 179.394 186.412 179.684 186.702C180.032 187.05 180.38 187.224 180.844 187.224C181.25 187.224 181.656 186.992 182.062 186.644C182.584 186.238 182.816 185.6 182.816 184.788Z" fill="#2A2A2A"/>
<path d="M172.318 184.672L174.522 194.59L165.416 190.066L166.228 189.428L168.78 190.704L172.202 188.036L171.564 185.252L172.318 184.672ZM172.318 188.964L169.592 191.11L173.246 192.966L172.318 188.964Z" fill="#2A2A2A"/>
<path d="M157.412 196.098L156.484 196.678L155.034 194.3L155.846 193.836L156.832 195.46L162.748 191.922L167.446 199.694L166.634 200.158L162.4 193.198L158.282 195.692L162.516 202.652L161.704 203.116L157.412 196.098Z" fill="#2A2A2A"/>
<path d="M152.076 197.722L155.672 206.132L154.802 206.48L152.076 200.1L148.77 209.148L145.174 200.738L146.044 200.39L148.77 206.77L152.076 197.722Z" fill="#2A2A2A"/>
<path d="M141.52 202.014L140.012 206.48C140.708 206.422 141.288 206.538 141.694 206.886C142.158 207.234 142.448 207.698 142.622 208.336C142.854 209.09 142.738 209.786 142.332 210.424C141.926 211.062 141.288 211.468 140.36 211.758L137.808 212.454L135.372 203.754L136.242 203.522L137.228 207.06L138.91 206.596L140.302 202.362L141.52 202.014ZM139.258 207.408L137.634 207.872L138.62 211.352L140.244 210.888C140.882 210.714 141.346 210.424 141.636 210.018C141.926 209.612 141.926 209.148 141.81 208.568C141.636 208.046 141.346 207.64 140.94 207.408C140.418 207.234 139.896 207.234 139.258 207.408Z" fill="#2A2A2A"/>
<path d="M112.404 166.982C137.293 166.982 157.47 146.805 157.47 121.916C157.47 97.0267 137.293 76.85 112.404 76.85C87.5146 76.85 67.3379 97.0267 67.3379 121.916C67.3379 146.805 87.5146 166.982 112.404 166.982Z" fill="#7360A9"/>
<path d="M112.404 167.562C106.314 167.562 100.282 166.344 94.482 163.85C83.288 159.094 74.588 150.22 70.064 138.91C65.54 127.6 65.656 115.188 70.412 103.994C80.272 80.852 107.126 70.064 130.268 79.924C153.41 89.784 164.198 116.638 154.338 139.78C149.582 150.974 140.708 159.674 129.398 164.198C123.888 166.46 118.146 167.562 112.404 167.562ZM112.462 77.488C95.178 77.488 78.706 87.638 71.514 104.516C66.874 115.42 66.7 127.542 71.166 138.562C75.574 149.582 84.042 158.224 94.946 162.864C105.85 167.504 117.972 167.678 128.992 163.212C140.012 158.804 148.654 150.336 153.294 139.432C162.922 116.87 152.424 90.712 129.862 81.084C124.178 78.648 118.262 77.488 112.462 77.488Z" fill="#2A2A2A"/>
<path d="M141.288 170.81C138.504 150.046 123.134 132.53 102.138 126.208C86.1882 121.974 68.9042 125.512 55.8542 135.778L55.1582 134.85C68.4982 124.352 86.1882 120.698 102.486 125.048C123.946 131.486 139.606 149.408 142.448 170.578L141.288 170.81Z" fill="#2A2A2A"/>
<path d="M128.355 120.988C125.281 128.238 116.871 131.602 109.621 128.528C102.371 125.454 99.0067 117.044 102.081 109.794" fill="#7360A9"/>
<path d="M115.188 130.268C113.216 130.268 111.244 129.862 109.388 129.05C105.734 127.484 102.892 124.584 101.442 120.93C99.9343 117.218 99.9924 113.216 101.558 109.562L102.602 110.026C101.152 113.39 101.152 117.102 102.486 120.524C103.878 123.946 106.488 126.614 109.852 128.006C113.216 129.456 116.928 129.456 120.35 128.122C123.772 126.73 126.44 124.178 127.832 120.756L128.876 121.22C126.44 126.846 120.93 130.268 115.188 130.268Z" fill="#2A2A2A"/>
<path d="M136.755 63.3213L134.023 69.7224L135.09 70.1777L137.822 63.7766L136.755 63.3213Z" fill="#2A2A2A"/>
<path d="M123.862 93.569L121.13 99.9702L122.197 100.425L124.929 94.0243L123.862 93.569Z" fill="#2A2A2A"/>
<path d="M147.73 73.9149L141.272 76.5124L141.705 77.5886L148.163 74.9912L147.73 73.9149Z" fill="#2A2A2A"/>
<path d="M117.276 86.1456L110.818 88.743L111.251 89.8193L117.709 87.2218L117.276 86.1456Z" fill="#2A2A2A"/>
<path d="M134.838 93.6511L133.762 94.0836L136.356 100.542L137.433 100.109L134.838 93.6511Z" fill="#2A2A2A"/>
<path d="M122.612 63.197L121.536 63.6295L124.132 70.0877L125.208 69.6551L122.612 63.197Z" fill="#2A2A2A"/>
<path d="M129.398 101.79L128.238 101.732L128.47 94.772L129.63 94.83L129.398 101.79Z" fill="#2A2A2A"/>
<path d="M130.501 68.962L129.341 68.904L129.573 61.944L130.733 62.002L130.501 68.962Z" fill="#2A2A2A"/>
<path d="M119.64 90.278L114.565 95.0414L115.359 95.8872L120.434 91.1237L119.64 90.278Z" fill="#2A2A2A"/>
<path d="M143.602 67.8334L138.527 72.5968L139.321 73.4426L144.396 68.6791L143.602 67.8334Z" fill="#2A2A2A"/>
<path d="M109.649 80.6201L109.611 81.7795L116.568 82.0042L116.605 80.8448L109.649 80.6201Z" fill="#2A2A2A"/>
<path d="M142.454 81.7339L142.417 82.8933L149.374 83.1181L149.411 81.9586L142.454 81.7339Z" fill="#2A2A2A"/>
<path d="M116.302 66.9457L115.456 67.7391L120.217 72.8165L121.063 72.023L116.302 66.9457Z" fill="#2A2A2A"/>
<path d="M138.754 90.9226L137.907 91.7159L142.667 96.794L143.514 96.0006L138.754 90.9226Z" fill="#2A2A2A"/>
</g>
<defs>
<clipPath id="clip0_264_394">
<rect width="232" height="232" fill="white"/>
</clipPath>
</defs>
</svg>
