<svg width="161" height="161" viewBox="0 0 161 161" fill="none" xmlns="http://www.w3.org/2000/svg">
<path d="M154.054 112.445C136.41 153.068 89.1766 171.696 48.5541 154.053C7.93151 136.41 -10.6969 89.1761 6.94633 48.5536C24.5896 7.93102 71.8233 -10.6974 112.446 6.94585C153.068 24.5891 171.697 71.8228 154.054 112.445Z" fill="#FDC844"/>
<path fill-rule="evenodd" clip-rule="evenodd" d="M55.2216 138.701C87.3652 152.661 124.74 137.921 138.701 105.778C152.661 73.6339 137.921 36.259 105.778 22.2983C73.634 8.33765 36.2591 23.0779 22.2984 55.2215C8.33774 87.3651 23.078 124.74 55.2216 138.701ZM54.4249 140.535C87.5816 154.936 126.135 139.731 140.535 106.574C154.936 73.4175 139.731 34.8646 106.574 20.4639C73.4176 6.06317 34.8647 21.268 20.464 54.4248C6.06326 87.5815 21.2681 126.135 54.4249 140.535Z" fill="#2A2A2A"/>
<path fill-rule="evenodd" clip-rule="evenodd" d="M100.049 122.265C110.229 117.5 118.318 109.18 122.796 98.8702L124.631 99.6669C119.959 110.424 111.519 119.104 100.897 124.076C90.2752 129.048 78.2032 129.97 66.9499 126.667C55.6966 123.365 46.037 116.066 39.7865 106.143C33.536 96.2193 31.1252 84.3547 33.007 72.7788L34.9811 73.0997C33.1775 84.1944 35.4881 95.5658 41.4788 105.077C47.4694 114.588 56.7276 121.583 67.5131 124.748C78.2986 127.913 89.8688 127.03 100.049 122.265Z" fill="#2A2A2A"/>
<path d="M77.5125 55.9831C74.1012 67.7253 67.6086 76.1615 63.0107 74.8258C58.4129 73.49 57.4509 62.8883 60.8621 51.146C64.2734 39.4038 70.766 30.9676 75.3639 32.3034C79.9618 33.6391 80.9237 44.2409 77.5125 55.9831Z" fill="#2A2A2A"/>
<path d="M111.499 66.3946C108.088 78.1368 101.595 86.573 96.9971 85.2373C92.3992 83.9015 91.4372 73.2998 94.8485 61.5575C98.2597 49.8153 104.752 41.3791 109.35 42.7149C113.948 44.0506 114.91 54.6524 111.499 66.3946Z" fill="#2A2A2A"/>
</svg>
