<svg width="161" height="161" viewBox="0 0 161 161" fill="none" xmlns="http://www.w3.org/2000/svg">
<path d="M160.155 72.7956C164.309 116.889 131.932 156.001 87.8382 160.155C43.7449 164.309 4.63289 131.931 0.479053 87.838C-3.67478 43.7447 28.7026 4.63264 72.7959 0.478809C116.889 -3.67502 156.001 28.7023 160.155 72.7956Z" fill="#F0858F"/>
<path fill-rule="evenodd" clip-rule="evenodd" d="M86.2679 143.491C121.158 140.204 146.777 109.256 143.49 74.3657C140.204 39.4757 109.255 13.8563 74.3652 17.1431C39.4752 20.4299 13.8558 51.3783 17.1427 86.2683C20.4295 121.158 51.3779 146.778 86.2679 143.491ZM86.4555 145.482C122.445 142.092 148.872 110.168 145.482 74.1781C142.091 38.1884 110.167 11.7615 74.1776 15.1519C38.188 18.5423 11.761 50.4662 15.1515 86.4559C18.5419 122.446 50.4658 148.873 86.4555 145.482Z" fill="#2A2A2A"/>
<path fill-rule="evenodd" clip-rule="evenodd" d="M117.596 107.461C124.212 98.3737 127.282 87.1831 126.227 75.9923L128.219 75.8047C129.319 87.4809 126.116 99.1568 119.213 108.638C112.31 118.119 102.182 124.752 90.7322 127.291C79.2825 129.83 67.2997 128.1 57.036 122.426C46.7723 116.751 38.9345 107.524 34.9956 96.4769L36.8795 95.8052C40.6546 106.393 48.1666 115.237 58.0037 120.675C67.8407 126.114 79.3255 127.772 90.2992 125.339C101.273 122.905 110.98 116.548 117.596 107.461Z" fill="#2A2A2A"/>
<path d="M65.8677 60.2868C68.5474 72.2173 66.9326 82.7395 62.261 83.7887C57.5895 84.838 51.6301 76.017 48.9505 64.0866C46.2708 52.1561 47.8856 41.634 52.5571 40.5847C57.2287 39.5354 63.188 48.3564 65.8677 60.2868Z" fill="#2A2A2A"/>
<path d="M100.659 53.0022C103.338 64.9326 101.724 75.4548 97.0521 76.5041C92.3805 77.5533 86.4211 68.7324 83.7415 56.8019C81.0618 44.8714 82.6766 34.3493 87.3481 33.3C92.0197 32.2507 97.979 41.0717 100.659 53.0022Z" fill="#2A2A2A"/>
</svg>
