<svg width="220" height="68" viewBox="0 0 220 68" fill="none" xmlns="http://www.w3.org/2000/svg">
<g clip-path="url(#clip0_264_953)">
<path d="M6.10334 14.5442L24.5825 32.553L43.0617 14.5442V49.9912L49.1651 44.0428V0L24.5825 23.954L0 0V44.0428L6.10334 49.9912V14.5442Z" fill="#2A2A2A"/>
<path d="M96.3102 38.6296C90.8119 38.6296 86.3516 43.139 86.3516 48.6997C86.3516 54.2603 90.8119 58.7665 96.3102 58.7665C101.808 58.7665 106.272 54.2603 106.272 48.6997C106.272 43.139 101.812 38.6296 96.3102 38.6296ZM96.3102 55.1866C92.7737 55.1866 89.8912 52.2764 89.8912 48.6997C89.8912 45.1229 92.7737 42.2096 96.3102 42.2096C99.8466 42.2096 102.729 45.1197 102.729 48.6997C102.729 52.2796 99.8498 55.1737 96.3102 55.1737V55.1866Z" fill="#2A2A2A"/>
<path d="M150.287 38.6296C144.786 38.6296 140.325 43.1166 140.325 48.6869C140.325 54.2571 144.782 58.7537 150.284 58.7537C155.785 58.7537 160.246 54.2475 160.246 48.6869C160.246 43.1262 155.789 38.6296 150.287 38.6296ZM150.287 55.1866C146.747 55.1866 143.868 52.2764 143.868 48.6997C143.868 45.1229 146.747 42.2096 150.287 42.2096C153.827 42.2096 156.706 45.1197 156.706 48.6997C156.706 52.2796 153.827 55.1737 150.287 55.1737V55.1866Z" fill="#2A2A2A"/>
<path d="M130.633 38.8282L123.69 55.398H121.934V58.9779H139.349V55.398H137.592L130.633 38.8282ZM127.536 55.398L130.633 48.0073L133.73 55.398H127.536Z" fill="#2A2A2A"/>
<path d="M116.39 39.0879H109.743V58.7536H113.289V52.6642H116.39C120.095 52.6642 123.108 49.6194 123.108 45.8728C123.108 42.1262 120.095 39.0879 116.39 39.0879ZM116.39 49.0874H113.289V42.6775H116.39C117.253 42.6775 118.08 43.0151 118.69 43.6162C119.3 44.2172 119.643 45.0324 119.643 45.8824C119.643 46.7325 119.3 47.5477 118.69 48.1487C118.08 48.7498 117.253 49.0874 116.39 49.0874Z" fill="#2A2A2A"/>
<path d="M173.949 46.6997C174.342 45.9508 174.546 45.1198 174.544 44.2767C174.561 42.9178 174.029 41.608 173.066 40.635C172.102 39.6621 170.786 39.1056 169.407 39.0879H163.805V58.978H170.78C174.359 58.978 177.267 56.0358 177.267 52.4206C177.272 51.2641 176.968 50.1266 176.385 49.1225C175.803 48.1183 174.963 47.2828 173.949 46.6997ZM167.344 42.6679H169.407C169.838 42.6283 170.268 42.7593 170.602 43.0318C170.935 43.3044 171.145 43.6963 171.185 44.1213C171.225 44.5463 171.092 44.9696 170.816 45.2981C170.539 45.6266 170.141 45.8333 169.71 45.8728H169.404V45.9017H167.344V42.6679ZM170.78 55.398H167.344V49.4688H169.407C169.589 49.469 169.77 49.4593 169.95 49.44H170.78C171.565 49.4653 172.309 49.7903 172.855 50.3462C173.401 50.9021 173.706 51.6454 173.706 52.419C173.706 53.1926 173.401 53.9359 172.855 54.4918C172.309 55.0477 171.565 55.3727 170.78 55.398Z" fill="#2A2A2A"/>
<path d="M184.642 39.1263H181.103V58.6318L193.703 46.9625V58.7536H197.243V38.8282L184.642 50.4976V39.1263Z" fill="#2A2A2A"/>
<path d="M205.063 39.1264H201.521V58.6319L214.121 46.9626V58.7537H217.664V38.8284L205.063 50.4977V39.1264Z" fill="#2A2A2A"/>
<path d="M61.9443 39.1648V58.7536H65.6272V47.9785L72.2413 54.7218L78.8749 47.9785V58.7536H82.5415V39.1648L72.2413 49.5105L61.9443 39.1648Z" fill="#2A2A2A"/>
<path d="M39.6396 22.5984L24.583 37.274L9.52637 22.5984V53.3277L24.583 68.0001L39.6396 53.3277V22.5984Z" fill="#2A2A2A"/>
<path d="M134.185 29.4217C139.687 29.4217 144.144 24.9123 144.144 19.3516C144.144 13.791 139.687 9.28479 134.185 9.28479C128.684 9.28479 124.224 13.791 124.224 19.3516C124.224 24.9123 128.684 29.4217 134.185 29.4217ZM134.185 12.8647C137.722 12.8647 140.604 15.7749 140.604 19.3516C140.604 22.9284 137.722 25.8417 134.185 25.8417C132.464 25.804 130.826 25.1038 129.622 23.8911C128.418 22.6784 127.744 21.0495 127.744 19.3532C127.744 17.6569 128.418 16.028 129.622 14.8153C130.826 13.6026 132.464 12.9024 134.185 12.8647Z" fill="#2A2A2A"/>
<path d="M95.9713 29.4217C101.473 29.4217 105.933 24.9123 105.933 19.3516C105.933 13.791 101.473 9.28479 95.9713 9.28479C90.4698 9.28479 86.0127 13.791 86.0127 19.3516C86.0127 24.9123 90.4731 29.4217 95.9713 29.4217ZM95.9713 12.8647C99.511 12.8647 102.39 15.7749 102.39 19.3516C102.39 22.9284 99.511 25.8417 95.9713 25.8417C92.4316 25.8417 89.5524 22.9316 89.5524 19.3516C89.5524 15.7717 92.4349 12.8647 95.9713 12.8647Z" fill="#2A2A2A"/>
<path d="M153.969 9.0188L147.026 25.5885H145.27V29.1685H162.669V25.5885H160.912L153.969 9.0188ZM150.872 25.5885L153.969 18.1979L157.066 25.5885H150.872Z" fill="#2A2A2A"/>
<path d="M115.212 18.1979L119.789 29.1204H123.631L115.212 9.0188L106.792 29.1204H110.634L115.212 18.1979Z" fill="#2A2A2A"/>
<path d="M166.114 29.1686H177.397V25.5918H169.657V21.1433H175.39V17.5633H169.657V13.0315H177.397V9.45154H166.114V29.1686Z" fill="#2A2A2A"/>
<path d="M213.282 15.589H210.182V9.49951H206.639V29.1653H213.282C216.984 29.1653 220 26.1205 220 22.3771C220 18.6337 216.984 15.589 213.282 15.589ZM213.282 25.5885H210.182V19.1785H213.282C214.145 19.1785 214.972 19.5162 215.583 20.1173C216.193 20.7183 216.535 21.5335 216.535 22.3835C216.535 23.2335 216.193 24.0487 215.583 24.6498C214.972 25.2508 214.145 25.5885 213.282 25.5885Z" fill="#2A2A2A"/>
<path d="M61.9443 9.52844V29.1205H65.6272V18.3421L72.2413 25.0854L78.8749 18.3421V29.1205H82.5415V9.52844L72.2413 19.8741L61.9443 9.52844Z" fill="#2A2A2A"/>
<path d="M199.738 19.326L203.801 9.49317H200.001L196.686 17.5248H193.921V9.44189H190.378V17.5248H187.612L184.3 9.49317H180.497L184.561 19.326L180.497 29.1589H184.3L187.628 21.1016H190.378V29.1846H193.921V21.1016H196.67L200.001 29.1589H203.801L199.738 19.326Z" fill="#2A2A2A"/>
</g>
<defs>
<clipPath id="clip0_264_953">
<rect width="220" height="68" fill="white"/>
</clipPath>
</defs>
</svg>
