<svg width="115" height="36" viewBox="0 0 115 36" fill="none" xmlns="http://www.w3.org/2000/svg">
<g clip-path="url(#clip0_274_9185)">
<path d="M3.19038 7.69986L12.85 17.2339L22.5095 7.69986V26.4659L25.6999 23.3168V0L12.85 12.6815L0 0V23.3168L3.19038 26.4659V7.69986Z" fill="#2A2A2A"/>
<path d="M50.3443 20.4509C47.4702 20.4509 45.1387 22.8383 45.1387 25.7821C45.1387 28.726 47.4702 31.1116 50.3443 31.1116C53.2184 31.1116 55.5516 28.726 55.5516 25.7821C55.5516 22.8383 53.2201 20.4509 50.3443 20.4509ZM50.3443 29.2164C48.4957 29.2164 46.989 27.6757 46.989 25.7821C46.989 23.8886 48.4957 22.3462 50.3443 22.3462C52.1929 22.3462 53.6996 23.8869 53.6996 25.7821C53.6996 27.6774 52.1946 29.2096 50.3443 29.2096V29.2164Z" fill="#2A2A2A"/>
<path d="M78.5589 20.4509C75.6831 20.4509 73.3516 22.8264 73.3516 25.7753C73.3516 28.7243 75.6814 31.1048 78.5572 31.1048C81.433 31.1048 83.7645 28.7192 83.7645 25.7753C83.7645 22.8315 81.4347 20.4509 78.5589 20.4509ZM78.5589 29.2164C76.7086 29.2164 75.2036 27.6757 75.2036 25.7821C75.2036 23.8886 76.7086 22.3462 78.5589 22.3462C80.4092 22.3462 81.9142 23.8869 81.9142 25.7821C81.9142 27.6774 80.4092 29.2096 78.5589 29.2096V29.2164Z" fill="#2A2A2A"/>
<path d="M68.2858 20.5562L64.6566 29.3284H63.7383V31.2236H72.8418V29.3284H71.9234L68.2858 20.5562ZM66.6668 29.3284L68.2858 25.4157L69.9048 29.3284H66.6668Z" fill="#2A2A2A"/>
<path d="M60.8396 20.6936H57.3652V31.1049H59.2189V27.8811H60.8396C62.7766 27.8811 64.3514 26.2691 64.3514 24.2856C64.3514 22.3021 62.7766 20.6936 60.8396 20.6936ZM60.8396 25.9875H59.2189V22.594H60.8396C61.2907 22.594 61.7232 22.7727 62.0421 23.0909C62.3611 23.4091 62.5403 23.8407 62.5403 24.2907C62.5403 24.7407 62.3611 25.1723 62.0421 25.4905C61.7232 25.8087 61.2907 25.9875 60.8396 25.9875Z" fill="#2A2A2A"/>
<path d="M90.9276 24.7234C91.133 24.3269 91.2397 23.8869 91.2388 23.4406C91.2474 22.7212 90.9694 22.0278 90.4659 21.5127C89.9624 20.9976 89.2746 20.703 88.5535 20.6936H85.625V31.2236H89.2712C91.1418 31.2236 92.6622 29.666 92.6622 27.7521C92.6647 27.1398 92.5058 26.5376 92.2013 26.006C91.8969 25.4744 91.4576 25.0321 90.9276 24.7234ZM87.4753 22.5889H88.5535C88.779 22.568 89.0036 22.6373 89.1779 22.7816C89.3522 22.9259 89.4619 23.1334 89.4829 23.3584C89.5039 23.5834 89.4344 23.8075 89.2898 23.9814C89.1451 24.1553 88.9372 24.2647 88.7116 24.2856H88.5518V24.3009H87.4753V22.5889ZM89.2712 29.3284H87.4753V26.1894H88.5535C88.6484 26.1895 88.7432 26.1844 88.8375 26.1741H89.2712C89.6814 26.1875 90.0704 26.3596 90.3558 26.6539C90.6413 26.9482 90.8009 27.3417 90.8009 27.7512C90.8009 28.1608 90.6413 28.5543 90.3558 28.8486C90.0704 29.1429 89.6814 29.315 89.2712 29.3284Z" fill="#2A2A2A"/>
<path d="M96.5183 20.714H94.668V31.0404L101.255 24.8625V31.1049H103.105V20.5562L96.5183 26.734V20.714Z" fill="#2A2A2A"/>
<path d="M107.192 20.714H105.34V31.0404L111.926 24.8625V31.1049H113.778V20.5562L107.192 26.734V20.714Z" fill="#2A2A2A"/>
<path d="M32.3809 20.7344V31.1049H34.306V25.4004L37.7634 28.9704L41.2309 25.4004V31.1049H43.1475V20.7344L37.7634 26.2115L32.3809 20.7344Z" fill="#2A2A2A"/>
<path d="M20.7215 11.9639L12.851 19.7333L4.98047 11.9639V28.2323L12.851 36.0001L20.7215 28.2323V11.9639Z" fill="#2A2A2A"/>
<path d="M70.1429 15.5762C73.0186 15.5762 75.3485 13.1889 75.3485 10.245C75.3485 7.30116 73.0186 4.91553 70.1429 4.91553C67.2671 4.91553 64.9355 7.30116 64.9355 10.245C64.9355 13.1889 67.2671 15.5762 70.1429 15.5762ZM70.1429 6.8108C71.9915 6.8108 73.4982 8.35145 73.4982 10.245C73.4982 12.1386 71.9915 13.681 70.1429 13.681C69.243 13.661 68.3867 13.2903 67.7574 12.6483C67.128 12.0063 66.7756 11.1439 66.7756 10.2459C66.7756 9.34784 67.128 8.48548 67.7574 7.84346C68.3867 7.20143 69.243 6.83075 70.1429 6.8108Z" fill="#2A2A2A"/>
<path d="M50.1666 15.5762C53.0423 15.5762 55.3739 13.1889 55.3739 10.245C55.3739 7.30116 53.0423 4.91553 50.1666 4.91553C47.2908 4.91553 44.9609 7.30116 44.9609 10.245C44.9609 13.1889 47.2925 15.5762 50.1666 15.5762ZM50.1666 6.8108C52.0169 6.8108 53.5219 8.35145 53.5219 10.245C53.5219 12.1386 52.0169 13.681 50.1666 13.681C48.3163 13.681 46.8112 12.1403 46.8112 10.245C46.8112 8.34976 48.318 6.8108 50.1666 6.8108Z" fill="#2A2A2A"/>
<path d="M80.483 4.77466L76.8539 13.5469H75.9355V15.4421H85.0305V13.5469H84.1122L80.483 4.77466ZM78.864 13.5469L80.483 9.63416L82.102 13.5469H78.864Z" fill="#2A2A2A"/>
<path d="M60.2235 9.63416L62.6163 15.4167H64.6247L60.2235 4.77466L55.8223 15.4167H57.8307L60.2235 9.63416Z" fill="#2A2A2A"/>
<path d="M86.832 15.4421H92.7298V13.5485H88.684V11.1934H91.6805V9.29814H88.684V6.89893H92.7298V5.00366H86.832V15.4421Z" fill="#2A2A2A"/>
<path d="M111.488 8.25288H109.868V5.02905H108.016V15.4403H111.488C113.424 15.4403 115 13.8284 115 11.8466C115 9.8648 113.424 8.25288 111.488 8.25288ZM111.488 13.5468H109.868V10.1532H111.488C111.939 10.1532 112.372 10.332 112.691 10.6502C113.01 10.9684 113.189 11.4 113.189 11.85C113.189 12.3 113.01 12.7316 112.691 13.0498C112.372 13.368 111.939 13.5468 111.488 13.5468Z" fill="#2A2A2A"/>
<path d="M32.3809 5.04443V15.4167H34.306V9.7105L37.7634 13.2805L41.2309 9.7105V15.4167H43.1475V5.04443L37.7634 10.5216L32.3809 5.04443Z" fill="#2A2A2A"/>
<path d="M104.409 10.2313L106.533 5.02568H104.547L102.814 9.27775H101.368V4.99854H99.5164V9.27775H98.0708L96.3396 5.02568H94.3516L96.4756 10.2313L94.3516 15.437H96.3396L98.0793 11.1713H99.5164V15.4505H101.368V11.1713H102.805L104.547 15.437H106.533L104.409 10.2313Z" fill="#2A2A2A"/>
</g>
<defs>
<clipPath id="clip0_274_9185">
<rect width="115" height="36" fill="white"/>
</clipPath>
</defs>
</svg>
