<svg width="60" height="60" viewBox="0 0 60 60" fill="none" xmlns="http://www.w3.org/2000/svg">
<path d="M50 37.5V20.5C50 17.6997 50 16.2996 49.455 15.23C48.9757 14.2892 48.2108 13.5243 47.27 13.045C46.2004 12.5 44.8003 12.5 42 12.5H18C15.1997 12.5 13.7996 12.5 12.73 13.045C11.7892 13.5243 11.0243 14.2892 10.545 15.23C10 16.2996 10 17.6997 10 20.5V37.5M52.5 37.5V39.5C52.5 42.3003 52.5 43.7004 51.955 44.77C51.4757 45.7108 50.7108 46.4757 49.77 46.955C48.7004 47.5 47.3003 47.5 44.5 47.5H15.5C12.6997 47.5 11.2996 47.5 10.23 46.955C9.28924 46.4757 8.52433 45.7108 8.04497 44.77C7.5 43.7004 7.5 42.3003 7.5 39.5V37.5H20.8431C21.4546 37.5 21.7604 37.5 22.0481 37.5691C22.3032 37.6303 22.547 37.7313 22.7707 37.8684C23.023 38.023 23.2392 38.2392 23.6716 38.6716L23.8284 38.8284C24.2608 39.2608 24.477 39.477 24.7293 39.6316C24.953 39.7687 25.1968 39.8697 25.4519 39.9309C25.7396 40 26.0454 40 26.6569 40H33.3431C33.9546 40 34.2604 40 34.5481 39.9309C34.8032 39.8697 35.047 39.7687 35.2707 39.6316C35.523 39.477 35.7392 39.2608 36.1716 38.8284L36.3284 38.6716C36.7608 38.2392 36.977 38.023 37.2293 37.8684C37.453 37.7313 37.6968 37.6303 37.9519 37.5691C38.2396 37.5 38.5454 37.5 39.1569 37.5H52.5Z" stroke="#E9503E" stroke-width="2" stroke-linecap="round" stroke-linejoin="round"/>
</svg>
