<svg width="89" height="89" viewBox="0 0 89 89" fill="none" xmlns="http://www.w3.org/2000/svg">
<path fill-rule="evenodd" clip-rule="evenodd" d="M20.3943 7.41663C17.1174 7.41663 14.4609 10.0731 14.4609 13.35V75.65C14.4609 78.9269 17.1174 81.5833 20.3943 81.5833H68.6026C71.8795 81.5833 74.5359 78.9269 74.5359 75.65V25.9583L55.9943 7.41663H20.3943Z" fill="#E9503E"/>
<path d="M56.5451 57.3654C54.0425 57.1796 51.633 56.2501 49.6866 54.5772C45.8865 55.4135 42.2713 56.6214 38.6566 58.1089C35.7836 63.2204 33.0955 65.8228 30.7782 65.8228C30.3147 65.8228 29.7589 65.73 29.3881 65.451C28.3683 64.9865 27.8125 63.9639 27.8125 62.9418C27.8125 62.1051 27.9979 59.7819 36.8029 55.9711C38.8425 52.2535 40.4176 48.4432 41.7155 44.447C40.603 42.2164 38.1935 36.7327 39.8613 33.945C40.4176 32.9224 41.5301 32.3648 42.7353 32.4579C43.6619 32.4579 44.5885 32.9224 45.1448 33.6659C46.35 35.3389 46.2573 38.8706 44.6812 44.0752C46.1646 46.8594 48.1074 49.3732 50.4278 51.5104C52.3746 51.1382 54.3206 50.8596 56.267 50.8596C60.6234 50.9523 61.2723 52.997 61.1796 54.2055C61.1796 57.3654 58.1207 57.3654 56.5451 57.3654ZM30.5933 63.1273L30.8714 63.0345C32.1689 62.5701 33.1882 61.6407 33.9299 60.4322C32.5392 60.9899 31.4272 61.9193 30.5933 63.1277V63.1273ZM42.9202 35.2462H42.6421C42.5494 35.2462 42.364 35.2462 42.2713 35.3389C41.9005 36.9186 42.1786 38.5915 42.8275 40.0786C43.3838 38.4988 43.3838 36.8259 42.9202 35.2462ZM43.5692 48.7222L43.4765 48.9077L43.3838 48.8149C42.5494 50.9528 41.6223 53.0902 40.603 55.1349L40.7884 55.0422V55.2276C42.8496 54.4803 44.9544 53.8595 47.0912 53.3688L46.9985 53.2761H47.2766C45.886 51.8817 44.5885 50.302 43.5692 48.7222ZM56.1743 53.6478C55.3399 53.6478 54.5987 53.6478 53.7643 53.8332C54.6914 54.2982 55.6185 54.4841 56.5451 54.5772C57.1941 54.6699 57.843 54.5772 58.3988 54.3913C58.3988 54.1123 58.028 53.6478 56.1743 53.6478Z" fill="#EDE9E0"/>
<path d="M72.7982 24.2201H57.7344L74.5378 41.0235V25.9584L72.7982 24.2201Z" fill="url(#paint0_linear_625_3461)"/>
<path d="M61.9294 25.9583L74.5378 25.9583L55.9961 7.41663L55.9961 20.025C55.9961 23.3018 58.6525 25.9583 61.9294 25.9583Z" fill="#F0858F"/>
<defs>
<linearGradient id="paint0_linear_625_3461" x1="61.5007" y1="20.4538" x2="78.304" y2="37.2572" gradientUnits="userSpaceOnUse">
<stop stop-opacity="0.2"/>
<stop offset="1" stop-opacity="0"/>
</linearGradient>
</defs>
</svg>
