<svg width="115" height="112" viewBox="0 0 115 112" fill="none" xmlns="http://www.w3.org/2000/svg">
<g clip-path="url(#clip0_393_3996)">
<path d="M59.3246 111.839C90.0737 111.839 115.001 87.0198 115.001 56.4037C115.001 25.7876 90.0737 0.968384 59.3246 0.968384C28.5755 0.968384 3.64844 25.7876 3.64844 56.4037C3.64844 87.0198 28.5755 111.839 59.3246 111.839Z" fill="#E9503E"/>
<path d="M114.421 22.3236C114.531 21.6629 114.373 20.9859 113.982 20.4409C113.591 19.896 113 19.5275 112.336 19.4163L110.214 19.0562C110.12 19.2094 110.055 19.3784 110.023 19.5549L109.922 20.1565C109.89 20.3441 109.822 20.5236 109.721 20.6849C109.619 20.8461 109.487 20.9859 109.331 21.0962C109.176 21.2065 109 21.2851 108.814 21.3276C108.627 21.3702 108.435 21.3757 108.246 21.344L104.56 20.7223C104.181 20.6566 103.842 20.4443 103.618 20.1316C103.394 19.8188 103.304 19.4308 103.366 19.0517L103.467 18.4412C103.494 18.2635 103.488 18.0822 103.449 17.9067L99.1541 17.1777L70.2492 16.954L40.311 7.18552L35.7761 6.41621C35.6807 6.568 35.6151 6.73649 35.5829 6.91268L35.4684 7.60372C35.4046 7.98329 35.192 8.32209 34.8774 8.54562C34.5627 8.76915 34.1718 8.85911 33.7906 8.79571L30.1115 8.17624C29.921 8.14405 29.7388 8.07472 29.5754 7.97223C29.4119 7.86974 29.2704 7.73611 29.1589 7.57901C29.0475 7.42192 28.9683 7.24445 28.9259 7.0568C28.8836 6.86915 28.8789 6.67501 28.912 6.48554L29.0288 5.79226C29.0567 5.61531 29.0506 5.43469 29.0109 5.26L27.9193 5.07438C27.5905 5.01785 27.2538 5.02633 26.9284 5.09936C26.603 5.17239 26.2952 5.30852 26.0226 5.49999C25.75 5.69146 25.5179 5.93451 25.3396 6.21527C25.1614 6.49604 25.0404 6.80901 24.9836 7.13632C22.8319 19.6198 13.4185 75.2765 11.3251 87.7465C11.2153 88.4071 11.373 89.0842 11.7638 89.6292C12.1545 90.1741 12.7463 90.5426 13.4095 90.6538L14.582 90.8529C14.6332 90.7556 14.6731 90.6528 14.701 90.5465V90.4995C14.7339 90.3105 14.8038 90.1298 14.9068 89.9677C15.0098 89.8057 15.1439 89.6654 15.3014 89.5549C15.4589 89.4444 15.6367 89.3659 15.8246 89.3238C16.0126 89.2818 16.207 89.277 16.3968 89.3098L20.0759 89.927C20.4562 89.9922 20.7951 90.2043 21.019 90.5172C21.2428 90.8302 21.3333 91.2185 21.2708 91.5976V91.6602C21.2584 91.7702 21.2584 91.8812 21.2708 91.9912L25.6619 92.7359L56.1167 94.8224L85.5406 102.916L89.0265 103.506C89.0794 103.41 89.1201 103.307 89.1478 103.2L89.1702 103.066C89.2357 102.687 89.4488 102.35 89.763 102.127C90.0773 101.904 90.4673 101.814 90.8481 101.876L94.5294 102.498C94.91 102.563 95.2492 102.775 95.4727 103.089C95.6962 103.402 95.7859 103.791 95.7221 104.17L95.6996 104.314C95.691 104.423 95.6948 104.534 95.7109 104.642L97.8963 105.014C98.2255 105.07 98.5627 105.061 98.8885 104.988C99.2143 104.915 99.5225 104.778 99.7953 104.587C100.068 104.395 100.3 104.151 100.479 103.87C100.657 103.589 100.778 103.275 100.834 102.947C102.95 90.4481 112.357 34.7891 114.421 22.3236ZM27.1578 16.8623C27.2228 16.4839 27.4354 16.1464 27.7493 15.9235C28.0632 15.7006 28.4529 15.6104 28.8334 15.6726L32.5215 16.292C32.9019 16.3577 33.2409 16.5703 33.4647 16.8836C33.6885 17.1969 33.779 17.5855 33.7164 17.9649L33.3952 19.868C33.3298 20.2466 33.1167 20.5841 32.8025 20.807C32.4882 21.0298 32.0982 21.12 31.7174 21.0578L28.0338 20.4405C27.653 20.3754 27.3134 20.163 27.0892 19.8496C26.8649 19.5363 26.7742 19.1474 26.8367 18.7677L27.1578 16.8623ZM25.0847 29.1356C25.1512 28.7572 25.3649 28.4202 25.6795 28.1979C25.9941 27.9755 26.3841 27.8857 26.7648 27.948L30.4461 28.5675C30.8264 28.6327 31.1653 28.8448 31.3892 29.1578C31.613 29.4707 31.7035 29.859 31.641 30.2381L31.3199 32.139C31.2534 32.5153 31.0407 32.8504 30.728 33.0718C30.4153 33.2932 30.0276 33.3831 29.6488 33.3221L25.9629 32.7048C25.5825 32.6391 25.2435 32.4265 25.0197 32.1132C24.7959 31.8 24.7055 31.4114 24.768 31.032L25.0847 29.1356ZM23.0071 41.4066C23.0719 41.0277 23.2849 40.6898 23.5993 40.4668C23.9138 40.2439 24.3041 40.154 24.6849 40.2168L28.3662 40.834C28.7472 40.8986 29.087 41.111 29.3109 41.4246C29.5349 41.7381 29.6249 42.1273 29.5612 42.5069L29.2377 44.4145C29.1728 44.7934 28.9599 45.1312 28.6455 45.3542C28.331 45.5772 27.9407 45.6671 27.5599 45.6042L23.8785 44.987C23.4983 44.9219 23.1593 44.7097 22.9355 44.3968C22.7117 44.0839 22.6211 43.6955 22.6836 43.3164L23.0071 41.4066ZM20.6082 55.5897L20.9339 53.6731C20.9999 53.2949 21.2132 52.9579 21.5274 52.7355C21.8416 52.5132 22.2313 52.4233 22.6118 52.4856L26.2953 53.1051C26.6757 53.1696 27.0149 53.3817 27.2385 53.6949C27.462 54.0081 27.5518 54.3967 27.488 54.7756L27.1646 56.681C27.0986 57.0598 26.8851 57.3973 26.5704 57.6201C26.2558 57.8429 25.8655 57.933 25.4845 57.8708L21.8054 57.2513C21.4266 57.1866 21.0885 56.976 20.8645 56.665C20.6404 56.354 20.5484 55.9677 20.6082 55.5897ZM18.8675 65.953C18.9329 65.574 19.1463 65.2361 19.4611 65.0132C19.7759 64.7903 20.1665 64.7004 20.5476 64.7633L24.2267 65.3805C24.6071 65.4451 24.9462 65.6572 25.1698 65.9704C25.3934 66.2835 25.4831 66.6722 25.4194 67.0511L25.0959 68.9565C25.031 69.3355 24.8182 69.6736 24.5038 69.8969C24.1895 70.1202 23.7992 70.2107 23.4181 70.1485L19.7412 69.5335C19.3607 69.4689 19.0214 69.2569 18.7974 68.9438C18.5735 68.6307 18.4832 68.2421 18.5463 67.8629L18.8675 65.953ZM21.3382 82.424L17.6546 81.8045C17.2742 81.7399 16.9351 81.5278 16.7115 81.2146C16.4879 80.9015 16.3982 80.5128 16.4619 80.1339L16.7854 78.224C16.8524 77.8458 17.0662 77.509 17.3806 77.2864C17.6949 77.0638 18.0846 76.9732 18.4655 77.0343L22.1468 77.6538C22.5271 77.7189 22.866 77.9311 23.0899 78.244C23.3137 78.5569 23.4042 78.9452 23.3417 79.3243L23.016 81.2364C22.9506 81.6149 22.7375 81.9522 22.4231 82.1747C22.1087 82.3972 21.7187 82.4868 21.3382 82.424ZM101.614 29.4218C101.678 29.0429 101.891 28.7051 102.206 28.4821C102.52 28.2591 102.911 28.1692 103.291 28.2321L106.968 28.8493C107.349 28.9145 107.688 29.1266 107.912 29.4394C108.136 29.7522 108.227 30.1405 108.165 30.5199L107.844 32.4208C107.78 32.8 107.567 33.1382 107.253 33.3613C106.938 33.5843 106.547 33.674 106.166 33.6106L102.485 32.9933C102.105 32.9287 101.765 32.7167 101.541 32.4036C101.317 32.0905 101.227 31.7019 101.29 31.3227L101.614 29.4218ZM99.5405 41.6951C99.6054 41.3162 99.8183 40.9783 100.133 40.7553C100.447 40.5324 100.837 40.4425 101.218 40.5053L104.893 41.1248C105.273 41.1905 105.612 41.4031 105.836 41.7164C106.06 42.0296 106.15 42.4182 106.088 42.7976L105.769 44.7007C105.703 45.0797 105.49 45.4174 105.175 45.6399C104.86 45.8625 104.47 45.9518 104.089 45.8883L100.401 45.2733C100.021 45.2081 99.6818 44.9959 99.4584 44.6829C99.2349 44.3699 99.1449 43.9815 99.208 43.6027L99.5405 41.6951ZM97.4606 53.9683C97.526 53.5897 97.7391 53.2522 98.0534 53.0293C98.3677 52.8065 98.7577 52.7163 99.1384 52.7785L102.824 53.3958C103.205 53.4615 103.544 53.6741 103.767 53.9874C103.991 54.3006 104.082 54.6892 104.019 55.0686L103.693 56.974C103.628 57.3528 103.414 57.6903 103.099 57.9131C102.785 58.1359 102.394 58.226 102.013 58.1637L98.3366 57.5465C97.9561 57.4808 97.6171 57.2682 97.3934 56.9549C97.1696 56.6416 97.0791 56.253 97.1416 55.8737L97.4606 53.9683ZM95.0618 68.1469L95.3852 66.2393C95.4511 65.8607 95.6648 65.5233 95.9795 65.3009C96.2942 65.0784 96.6845 64.9889 97.0653 65.0518L100.749 65.6668C101.129 65.7324 101.468 65.9451 101.691 66.2585C101.915 66.5719 102.005 66.9605 101.942 67.3396L101.618 69.2495C101.552 69.6281 101.339 69.9654 101.024 70.1879C100.709 70.4104 100.319 70.4999 99.938 70.437L96.2567 69.8197C95.8763 69.7546 95.5371 69.5425 95.3129 69.2297C95.0888 68.9168 94.9977 68.5285 95.0595 68.1492L95.0618 68.1469ZM93.312 78.5103C93.3764 78.131 93.5891 77.7926 93.9036 77.5692C94.2181 77.3457 94.6087 77.2555 94.9899 77.3183L98.6712 77.94C99.0516 78.0052 99.3908 78.2173 99.615 78.5301C99.8391 78.8429 99.9302 79.2313 99.8684 79.6106L99.545 81.5182C99.4806 81.8974 99.2678 82.2356 98.9532 82.4587C98.6387 82.6818 98.248 82.7714 97.8671 82.708L94.1858 82.0907C93.8051 82.0261 93.4656 81.8142 93.2413 81.5012C93.017 81.1882 92.9262 80.7996 92.9886 80.4202L93.312 78.5103ZM95.7828 94.9835L92.1059 94.3752C91.7252 94.31 91.3858 94.0975 91.162 93.7841C90.9381 93.4707 90.8478 93.0818 90.911 92.7023L91.2322 90.8014C91.2976 90.4222 91.5109 90.0842 91.8256 89.8609C92.1403 89.6376 92.5309 89.5472 92.9122 89.6094L96.5824 90.2155C96.9629 90.2801 97.3022 90.4921 97.5262 90.8052C97.7501 91.1183 97.8404 91.5069 97.7773 91.8861L97.4583 93.7959C97.3934 94.173 97.1817 94.5094 96.8693 94.7321C96.5569 94.9548 96.1689 95.0459 95.7895 94.9857L95.7828 94.9835Z" fill="#2A2A2A"/>
<path d="M40.3108 7.18555L38.6128 17.2068C38.5508 17.586 38.6415 17.9743 38.8652 18.2875C39.0889 18.6006 39.4275 18.8133 39.8077 18.8796L95.7893 28.3283C96.1701 28.3911 96.5605 28.3012 96.8749 28.0782C97.1893 27.8553 97.4023 27.5174 97.4672 27.1385L99.154 17.1799L40.3108 7.18555Z" fill="#FDC844"/>
<path d="M25.6562 92.7359L27.4531 82.3613C27.5187 81.9721 27.7361 81.6244 28.0579 81.394C28.3797 81.1637 28.7799 81.0692 29.1714 81.1313L86.1144 90.8662C86.5046 90.937 86.8507 91.159 87.0768 91.4835C87.3029 91.8079 87.3906 92.2085 87.3205 92.5972L85.5236 102.907L25.6562 92.7359Z" fill="#E9503E"/>
<path d="M94.6471 34.4044L38.6722 24.9557C38.2914 24.8929 37.9011 24.9828 37.5867 25.2058C37.2722 25.4287 37.0593 25.7666 36.9944 26.1455L28.7849 74.5787C28.7224 74.9578 28.813 75.3461 29.0368 75.659C29.2606 75.9719 29.5996 76.1841 29.9799 76.2493L85.9615 85.698C86.3423 85.7608 86.7326 85.6709 87.0471 85.4479C87.3615 85.225 87.5744 84.8871 87.6393 84.5082L95.8398 36.0795C95.903 35.7001 95.8132 35.3112 95.5898 34.9975C95.3664 34.6837 95.0276 34.4706 94.6471 34.4044Z" fill="#FDC844"/>
<path d="M55.3282 40.2548L76.3854 55.9095C76.7117 56.1517 76.9641 56.4793 77.1146 56.8559C77.2652 57.2324 77.3079 57.6431 77.2381 58.0423C77.1682 58.4416 76.9886 58.8137 76.7191 59.1175C76.4497 59.4212 76.1009 59.6445 75.7115 59.7627L50.6788 67.2546C50.3207 67.3615 49.9411 67.3758 49.5759 67.2961C49.2107 67.2165 48.8719 67.0455 48.5914 66.7994C48.3109 66.5532 48.0981 66.24 47.9728 65.8893C47.8476 65.5385 47.8142 65.1618 47.8757 64.7946L51.8423 41.6436C51.905 41.2735 52.0622 40.9255 52.2989 40.6333C52.5355 40.3411 52.8437 40.1144 53.1937 39.9749C53.5438 39.8355 53.924 39.788 54.2978 39.837C54.6715 39.886 55.0264 40.0299 55.3282 40.2548Z" fill="#EDE9E0"/>
</g>
<defs>
<clipPath id="clip0_393_3996">
<rect width="115" height="112" fill="white"/>
</clipPath>
</defs>
</svg>
