<svg width="60" height="60" viewBox="0 0 60 60" fill="none" xmlns="http://www.w3.org/2000/svg">
<path d="M17.5 52.5H42.5M22.5 42.5V52.5M37.5 42.5V52.5M37.5 25C37.5 29.1421 34.1421 32.5 30 32.5C25.8579 32.5 22.5 29.1421 22.5 25C22.5 20.8579 25.8579 17.5 30 17.5C34.1421 17.5 37.5 20.8579 37.5 25ZM22 42.5H38C42.2004 42.5 44.3006 42.5 45.9049 41.6825C47.3161 40.9635 48.4635 39.8161 49.1825 38.4049C50 36.8006 50 34.7004 50 30.5V19.5C50 15.2996 50 13.1994 49.1825 11.5951C48.4635 10.1839 47.3161 9.0365 45.9049 8.31745C44.3006 7.5 42.2004 7.5 38 7.5H22C17.7996 7.5 15.6994 7.5 14.0951 8.31745C12.6839 9.0365 11.5365 10.1839 10.8175 11.5951C10 13.1994 10 15.2996 10 19.5V30.5C10 34.7004 10 36.8006 10.8175 38.4049C11.5365 39.8161 12.6839 40.9635 14.0951 41.6825C15.6994 42.5 17.7996 42.5 22 42.5Z" stroke="#E9503E" stroke-width="2" stroke-linecap="round" stroke-linejoin="round"/>
</svg>
