<svg width="74" height="61" viewBox="0 0 74 61" fill="none" xmlns="http://www.w3.org/2000/svg">
<path d="M39.8282 30.4986C39.8282 47.3452 30.912 61 19.9141 61C8.91625 61 0 47.3452 0 30.4986C0 26.4394 0.517524 22.5653 1.45714 19.0265C4.41766 7.86677 11.5674 0 19.9141 0C28.2608 0 35.4106 7.86677 38.3711 19.0265C39.3107 22.5682 39.8282 26.4423 39.8282 30.4986Z" fill="#EDE9E0"/>
<path d="M17.7485 9.51183C11.0613 9.51183 5.40042 16.2424 3.49516 25.52L16.8985 29.5994L2.8418 33.8783C3.34196 45.8244 9.82387 55.2784 17.7514 55.2784C25.6788 55.2784 32.6927 45.0323 32.6927 32.3951C32.6927 19.758 26.0026 9.51183 17.7514 9.51183H17.7485Z" fill="#2A2A2A"/>
<path d="M38.371 19.0265H1.45703C4.41755 7.86677 11.5673 0 19.914 0C28.2607 0 35.4105 7.86677 38.371 19.0265Z" fill="#E9503E"/>
<path d="M73.921 30.4986C73.921 47.3452 65.0048 61 54.0069 61C43.009 61 34.0928 47.3452 34.0928 30.4986C34.0928 26.4394 34.6103 22.5653 35.5499 19.0265C38.5104 7.86677 45.6602 0 54.0069 0C62.3536 0 69.5033 7.86677 72.4639 19.0265C73.4035 22.5682 73.921 26.4423 73.921 30.4986Z" fill="#EDE9E0"/>
<path d="M51.8383 9.51183C45.1511 9.51183 39.4903 16.2424 37.585 25.52L50.9883 29.5994L36.9316 33.8783C37.4318 45.8244 43.9137 55.2784 51.8412 55.2784C59.7687 55.2784 66.7826 45.0323 66.7826 32.3951C66.7826 19.758 60.0925 9.51183 51.8412 9.51183H51.8383Z" fill="#2A2A2A"/>
<path d="M72.4638 19.0265H35.5498C38.5103 7.86677 45.6601 0 54.0068 0C62.3535 0 69.5032 7.86677 72.4638 19.0265Z" fill="#E9503E"/>
</svg>
