<svg width="70" height="47" viewBox="0 0 70 47" fill="none" xmlns="http://www.w3.org/2000/svg">
<mask id="path-1-outside-1_264_1027" maskUnits="userSpaceOnUse" x="0.467773" y="0.800293" width="69" height="47" fill="black">
<rect fill="white" x="0.467773" y="0.800293" width="69" height="47"/>
<path fill-rule="evenodd" clip-rule="evenodd" d="M18.8134 31.7995C17.044 31.427 15.4274 30.7771 13.9691 29.8533C12.509 28.9295 11.2406 27.8139 10.1604 26.5083C9.08018 25.2027 8.22531 23.737 7.59022 22.1148C6.95512 20.4926 6.59008 18.7847 6.49323 16.9912C6.39266 15.1213 6.59008 13.4879 7.08549 12.0892C7.58091 10.6923 8.31657 9.56369 9.29064 8.70324C10.2647 7.84279 11.4492 7.27102 12.8442 6.98793C14.2373 6.70483 15.7832 6.74208 17.4799 7.09967C19.2492 7.47216 20.8714 8.12216 22.3427 9.04966C23.8141 9.97717 25.0898 11.0928 26.1701 12.3984C27.2484 13.7039 28.1052 15.1697 28.7403 16.7919C29.3754 18.4159 29.7404 20.1219 29.8372 21.9155C29.9341 23.709 29.7348 25.4188 29.2264 26.8137C28.7179 28.2087 27.9766 29.3374 27.0026 30.196C26.0285 31.0564 24.844 31.6282 23.449 31.9113C22.054 32.1944 20.5101 32.1571 18.8134 31.7995ZM13.2055 18.4066C13.5296 19.9134 13.9412 21.3344 14.4385 22.6716C14.9357 24.0089 15.5038 25.1878 16.1426 26.2084C16.7814 27.2291 17.4575 28.0653 18.1745 28.7172C18.8897 29.369 19.6291 29.7751 20.3909 29.9352C21.1042 30.0861 21.7113 29.9762 22.2142 29.6074C22.7171 29.2387 23.0914 28.6445 23.3391 27.8232C23.5868 27.0019 23.6949 25.9719 23.6651 24.7334C23.6353 23.4949 23.4546 22.0831 23.1268 20.4982C22.8027 18.9914 22.3856 17.5685 21.8752 16.2294C21.3649 14.8903 20.7969 13.7095 20.1711 12.6926C19.5453 11.6739 18.8674 10.8395 18.1392 10.1839C17.4109 9.53017 16.679 9.12415 15.9415 8.96957C15.2039 8.81499 14.621 8.9286 14.1181 9.29736C13.6153 9.66613 13.2409 10.2621 12.9932 11.0816C12.7455 11.9029 12.6375 12.9329 12.6673 14.1714C12.6971 15.4099 12.8777 16.8217 13.2055 18.4066ZM48.8455 37.6586C48.8361 37.4724 48.7281 37.2452 48.5177 36.9751C48.3072 36.7069 48.052 36.3419 47.7485 35.8819C47.4468 35.4218 47.1115 34.8556 46.7446 34.1833C46.3777 33.5109 46.022 32.6766 45.6756 31.6783L42.9247 23.368C42.8577 23.2227 42.8502 23.0551 42.9024 22.8689C42.9545 22.6826 43.0383 22.5355 43.1594 22.4275L47.0202 18.7622C47.7764 18.0488 48.4823 17.4789 49.1434 17.0487C49.8028 16.6203 50.3783 16.2776 50.8681 16.0244C51.356 15.7711 51.7602 15.5774 52.0787 15.447C52.3972 15.3166 52.5964 15.1676 52.6802 15C52.7473 14.9087 52.7901 14.8249 52.805 14.7486L52.8125 14.7095C52.833 14.6089 52.7752 14.5437 52.6355 14.5139L48.2178 13.5827C48.0781 13.5529 47.998 13.5883 47.9776 13.6888L47.9701 13.728C47.9589 13.7801 47.9571 13.8229 47.9608 13.8639C47.9626 13.9049 47.9608 13.9496 47.9496 13.9999C47.9813 14.1917 47.9422 14.3742 47.8341 14.5493C47.7243 14.7244 47.5287 14.9609 47.2493 15.2589C46.9681 15.5569 46.5863 15.9312 46.1039 16.3838C45.6197 16.8364 45.0107 17.4361 44.2713 18.1773L37.5366 24.9641C37.4156 25.0722 37.3262 25.1057 37.261 25.0647C37.1977 25.0256 37.1809 24.9288 37.2126 24.776L38.5573 18.399C38.7807 17.3374 39.008 16.4658 39.2352 15.7878C39.4624 15.1099 39.6766 14.553 39.8777 14.1191C40.0789 13.6851 40.2651 13.348 40.4365 13.1059C40.6078 12.8656 40.7363 12.6608 40.8201 12.4931C40.8872 12.4019 40.9319 12.3181 40.9468 12.2417L40.9542 12.2026C40.9747 12.102 40.9151 12.0368 40.7773 12.007L33.2995 10.4295C33.1599 10.3997 33.0798 10.4351 33.0593 10.5357L33.0518 10.5748C33.0351 10.6512 33.0407 10.7443 33.0649 10.856C33.0742 11.0423 33.1077 11.2825 33.1673 11.5712C33.2269 11.8618 33.2623 12.2454 33.2697 12.7241C33.2772 13.2009 33.2493 13.7969 33.1841 14.5102C33.145 14.9292 33.0798 15.406 32.9867 15.9443L32.9748 16.0114L32.9748 16.0115C32.9563 16.1169 32.9374 16.2249 32.9159 16.3354C32.8675 16.6017 32.8116 16.8792 32.7483 17.1735L30.5878 27.4207C30.3643 28.4823 30.1371 29.3539 29.9099 30.0337C29.6808 30.7117 29.4685 31.2685 29.2673 31.7006C29.0662 32.1346 28.8799 32.4717 28.7086 32.7138C28.6953 32.731 28.683 32.7492 28.671 32.767L28.6564 32.7883C28.5819 32.8945 28.5186 32.9913 28.4665 33.0807C28.4106 33.172 28.364 33.252 28.3268 33.3265C28.2579 33.4178 28.2169 33.5016 28.202 33.578L28.1946 33.6171C28.1741 33.7177 28.2318 33.7829 28.3715 33.8127L35.8492 35.3902C35.9889 35.42 36.069 35.3846 36.0914 35.284L36.0988 35.2449C36.1156 35.1685 36.11 35.0754 36.0839 34.9637C36.069 34.8016 36.0392 34.5986 35.9964 34.3509C35.9517 34.1032 35.9256 33.768 35.9182 33.3433C35.9107 32.9187 35.9386 32.3897 36.0001 31.7546C36.0616 31.1214 36.1901 30.3355 36.3875 29.3986C36.475 29.2049 36.5831 29.0429 36.7078 28.9125L38.7286 26.5621C38.8534 26.4299 38.9726 26.3833 39.0862 26.4206C39.1979 26.4578 39.2855 26.5621 39.3469 26.7335L40.2595 30.3355C40.5315 31.3449 40.7438 32.1756 40.8965 32.8293C41.0492 33.483 41.1535 34.0194 41.2113 34.4422C41.2671 34.865 41.282 35.1909 41.2578 35.4237C41.2317 35.6565 41.1777 35.8576 41.0958 36.0234C41.0269 36.1147 40.9859 36.1985 40.971 36.2748L40.9635 36.3139C40.9431 36.4145 41.0008 36.4797 41.1405 36.5095L48.6182 38.087C48.7579 38.1168 48.838 38.0814 48.8585 37.9808L48.8659 37.9417C48.8827 37.8654 48.8771 37.7722 48.8529 37.6605L48.8455 37.6586ZM62.0151 16.4921L55.9546 15.2144L53.1572 31.2055L58.1151 32.2503L62.0151 16.4921ZM57.7985 33.7514L52.8406 32.7066L51.5741 38.7093L56.532 39.7541L57.7985 33.7514Z"/>
</mask>
<path fill-rule="evenodd" clip-rule="evenodd" d="M18.8134 31.7995C17.044 31.427 15.4274 30.7771 13.9691 29.8533C12.509 28.9295 11.2406 27.8139 10.1604 26.5083C9.08018 25.2027 8.22531 23.737 7.59022 22.1148C6.95512 20.4926 6.59008 18.7847 6.49323 16.9912C6.39266 15.1213 6.59008 13.4879 7.08549 12.0892C7.58091 10.6923 8.31657 9.56369 9.29064 8.70324C10.2647 7.84279 11.4492 7.27102 12.8442 6.98793C14.2373 6.70483 15.7832 6.74208 17.4799 7.09967C19.2492 7.47216 20.8714 8.12216 22.3427 9.04966C23.8141 9.97717 25.0898 11.0928 26.1701 12.3984C27.2484 13.7039 28.1052 15.1697 28.7403 16.7919C29.3754 18.4159 29.7404 20.1219 29.8372 21.9155C29.9341 23.709 29.7348 25.4188 29.2264 26.8137C28.7179 28.2087 27.9766 29.3374 27.0026 30.196C26.0285 31.0564 24.844 31.6282 23.449 31.9113C22.054 32.1944 20.5101 32.1571 18.8134 31.7995ZM13.2055 18.4066C13.5296 19.9134 13.9412 21.3344 14.4385 22.6716C14.9357 24.0089 15.5038 25.1878 16.1426 26.2084C16.7814 27.2291 17.4575 28.0653 18.1745 28.7172C18.8897 29.369 19.6291 29.7751 20.3909 29.9352C21.1042 30.0861 21.7113 29.9762 22.2142 29.6074C22.7171 29.2387 23.0914 28.6445 23.3391 27.8232C23.5868 27.0019 23.6949 25.9719 23.6651 24.7334C23.6353 23.4949 23.4546 22.0831 23.1268 20.4982C22.8027 18.9914 22.3856 17.5685 21.8752 16.2294C21.3649 14.8903 20.7969 13.7095 20.1711 12.6926C19.5453 11.6739 18.8674 10.8395 18.1392 10.1839C17.4109 9.53017 16.679 9.12415 15.9415 8.96957C15.2039 8.81499 14.621 8.9286 14.1181 9.29736C13.6153 9.66613 13.2409 10.2621 12.9932 11.0816C12.7455 11.9029 12.6375 12.9329 12.6673 14.1714C12.6971 15.4099 12.8777 16.8217 13.2055 18.4066ZM48.8455 37.6586C48.8361 37.4724 48.7281 37.2452 48.5177 36.9751C48.3072 36.7069 48.052 36.3419 47.7485 35.8819C47.4468 35.4218 47.1115 34.8556 46.7446 34.1833C46.3777 33.5109 46.022 32.6766 45.6756 31.6783L42.9247 23.368C42.8577 23.2227 42.8502 23.0551 42.9024 22.8689C42.9545 22.6826 43.0383 22.5355 43.1594 22.4275L47.0202 18.7622C47.7764 18.0488 48.4823 17.4789 49.1434 17.0487C49.8028 16.6203 50.3783 16.2776 50.8681 16.0244C51.356 15.7711 51.7602 15.5774 52.0787 15.447C52.3972 15.3166 52.5964 15.1676 52.6802 15C52.7473 14.9087 52.7901 14.8249 52.805 14.7486L52.8125 14.7095C52.833 14.6089 52.7752 14.5437 52.6355 14.5139L48.2178 13.5827C48.0781 13.5529 47.998 13.5883 47.9776 13.6888L47.9701 13.728C47.9589 13.7801 47.9571 13.8229 47.9608 13.8639C47.9626 13.9049 47.9608 13.9496 47.9496 13.9999C47.9813 14.1917 47.9422 14.3742 47.8341 14.5493C47.7243 14.7244 47.5287 14.9609 47.2493 15.2589C46.9681 15.5569 46.5863 15.9312 46.1039 16.3838C45.6197 16.8364 45.0107 17.4361 44.2713 18.1773L37.5366 24.9641C37.4156 25.0722 37.3262 25.1057 37.261 25.0647C37.1977 25.0256 37.1809 24.9288 37.2126 24.776L38.5573 18.399C38.7807 17.3374 39.008 16.4658 39.2352 15.7878C39.4624 15.1099 39.6766 14.553 39.8777 14.1191C40.0789 13.6851 40.2651 13.348 40.4365 13.1059C40.6078 12.8656 40.7363 12.6608 40.8201 12.4931C40.8872 12.4019 40.9319 12.3181 40.9468 12.2417L40.9542 12.2026C40.9747 12.102 40.9151 12.0368 40.7773 12.007L33.2995 10.4295C33.1599 10.3997 33.0798 10.4351 33.0593 10.5357L33.0518 10.5748C33.0351 10.6512 33.0407 10.7443 33.0649 10.856C33.0742 11.0423 33.1077 11.2825 33.1673 11.5712C33.2269 11.8618 33.2623 12.2454 33.2697 12.7241C33.2772 13.2009 33.2493 13.7969 33.1841 14.5102C33.145 14.9292 33.0798 15.406 32.9867 15.9443L32.9748 16.0114L32.9748 16.0115C32.9563 16.1169 32.9374 16.2249 32.9159 16.3354C32.8675 16.6017 32.8116 16.8792 32.7483 17.1735L30.5878 27.4207C30.3643 28.4823 30.1371 29.3539 29.9099 30.0337C29.6808 30.7117 29.4685 31.2685 29.2673 31.7006C29.0662 32.1346 28.8799 32.4717 28.7086 32.7138C28.6953 32.731 28.683 32.7492 28.671 32.767L28.6564 32.7883C28.5819 32.8945 28.5186 32.9913 28.4665 33.0807C28.4106 33.172 28.364 33.252 28.3268 33.3265C28.2579 33.4178 28.2169 33.5016 28.202 33.578L28.1946 33.6171C28.1741 33.7177 28.2318 33.7829 28.3715 33.8127L35.8492 35.3902C35.9889 35.42 36.069 35.3846 36.0914 35.284L36.0988 35.2449C36.1156 35.1685 36.11 35.0754 36.0839 34.9637C36.069 34.8016 36.0392 34.5986 35.9964 34.3509C35.9517 34.1032 35.9256 33.768 35.9182 33.3433C35.9107 32.9187 35.9386 32.3897 36.0001 31.7546C36.0616 31.1214 36.1901 30.3355 36.3875 29.3986C36.475 29.2049 36.5831 29.0429 36.7078 28.9125L38.7286 26.5621C38.8534 26.4299 38.9726 26.3833 39.0862 26.4206C39.1979 26.4578 39.2855 26.5621 39.3469 26.7335L40.2595 30.3355C40.5315 31.3449 40.7438 32.1756 40.8965 32.8293C41.0492 33.483 41.1535 34.0194 41.2113 34.4422C41.2671 34.865 41.282 35.1909 41.2578 35.4237C41.2317 35.6565 41.1777 35.8576 41.0958 36.0234C41.0269 36.1147 40.9859 36.1985 40.971 36.2748L40.9635 36.3139C40.9431 36.4145 41.0008 36.4797 41.1405 36.5095L48.6182 38.087C48.7579 38.1168 48.838 38.0814 48.8585 37.9808L48.8659 37.9417C48.8827 37.8654 48.8771 37.7722 48.8529 37.6605L48.8455 37.6586ZM62.0151 16.4921L55.9546 15.2144L53.1572 31.2055L58.1151 32.2503L62.0151 16.4921ZM57.7985 33.7514L52.8406 32.7066L51.5741 38.7093L56.532 39.7541L57.7985 33.7514Z" fill="#EDE9E0"/>
<path d="M13.9691 29.8533L17.1799 24.7847L17.177 24.7828L13.9691 29.8533ZM18.8134 31.7995L20.0507 25.9285L20.0494 25.9282L18.8134 31.7995ZM7.59022 22.1148L2.00314 24.3021L2.00314 24.3021L7.59022 22.1148ZM6.49323 16.9912L0.50189 17.3134L0.501959 17.3147L6.49323 16.9912ZM7.08549 12.0892L1.43062 10.0836L1.42978 10.086L7.08549 12.0892ZM9.29064 8.70324L13.2629 13.2H13.2629L9.29064 8.70324ZM12.8442 6.98793L14.0375 12.8681L14.039 12.8678L12.8442 6.98793ZM17.4799 7.09967L16.2425 12.9707L16.2438 12.971L17.4799 7.09967ZM22.3427 9.04966L25.5423 3.97399L25.5423 3.97399L22.3427 9.04966ZM26.1701 12.3984L30.7961 8.5774L30.7929 8.57349L26.1701 12.3984ZM28.7403 16.7919L34.3282 14.6067L34.3273 14.6045L28.7403 16.7919ZM29.8372 21.9155L35.8285 21.592L29.8372 21.9155ZM29.2264 26.8137L23.5891 24.7591L23.5891 24.7591L29.2264 26.8137ZM27.0026 30.196L23.0351 25.6949L23.0303 25.6992L27.0026 30.196ZM23.449 31.9113L22.2557 26.0311L22.2557 26.0311L23.449 31.9113ZM14.4385 22.6716L20.0622 20.5804L20.0622 20.5804L14.4385 22.6716ZM13.2055 18.4066L7.32986 19.6218L7.33467 19.6451L7.33966 19.6683L13.2055 18.4066ZM16.1426 26.2084L21.2285 23.0251L21.2285 23.0251L16.1426 26.2084ZM18.1745 28.7172L22.2163 24.2828L22.2106 24.2775L18.1745 28.7172ZM20.3909 29.9352L21.6323 24.0651L21.6255 24.0636L20.3909 29.9352ZM22.2142 29.6074L18.666 24.769L18.666 24.769L22.2142 29.6074ZM23.3391 27.8232L17.5947 26.0907L17.5947 26.0907L23.3391 27.8232ZM23.6651 24.7334L29.6633 24.5891L23.6651 24.7334ZM23.1268 20.4982L29.0025 19.283L28.9977 19.2597L28.9927 19.2365L23.1268 20.4982ZM21.8752 16.2294L27.4819 14.0928V14.0928L21.8752 16.2294ZM20.1711 12.6926L15.0586 15.833L15.0611 15.8372L20.1711 12.6926ZM18.1392 10.1839L22.1536 5.72469L22.1473 5.71902L18.1392 10.1839ZM15.9415 8.96957L14.7106 14.842L14.7106 14.842L15.9415 8.96957ZM14.1181 9.29736L17.6663 14.1358L17.6663 14.1358L14.1181 9.29736ZM12.9932 11.0816L7.24985 9.34554L7.24876 9.34914L12.9932 11.0816ZM12.6673 14.1714L18.6655 14.0271V14.0271L12.6673 14.1714ZM48.5177 36.9751L53.2503 33.287L53.2441 33.279L53.2378 33.2711L48.5177 36.9751ZM48.8455 37.6586L42.8529 37.9582L43.075 42.399L47.3881 43.4789L48.8455 37.6586ZM47.7485 35.8819L42.7313 39.1724L42.736 39.1795L42.7406 39.1866L47.7485 35.8819ZM45.6756 31.6783L39.9795 33.5638L39.993 33.6046L40.0071 33.6453L45.6756 31.6783ZM42.9247 23.368L48.6208 21.4825L48.5143 21.161L48.3724 20.8536L42.9247 23.368ZM42.9024 22.8689L48.6802 24.4866L48.6802 24.4866L42.9024 22.8689ZM43.1594 22.4275L47.1541 26.9043L47.2232 26.8426L47.2904 26.7789L43.1594 22.4275ZM47.0202 18.7622L42.903 14.3977L42.8961 14.4042L42.8892 14.4107L47.0202 18.7622ZM49.1434 17.0487L45.8745 12.0174L45.871 12.0197L49.1434 17.0487ZM50.8681 16.0244L53.6241 21.3539L53.6324 21.3496L50.8681 16.0244ZM52.0787 15.447L49.8056 9.89422L49.8056 9.89424L52.0787 15.447ZM52.6802 15L47.845 11.4475L47.5423 11.8595L47.3137 12.3168L52.6802 15ZM52.805 14.7486L58.694 15.8977L58.6965 15.8844L58.6991 15.8712L52.805 14.7486ZM52.8125 14.7095L46.9332 13.5117L46.9256 13.5492L46.9184 13.5869L52.8125 14.7095ZM52.6355 14.5139L53.8874 8.64595L53.8803 8.64443L53.8731 8.64292L52.6355 14.5139ZM48.2178 13.5827L46.966 19.4506L46.9731 19.4522L46.9802 19.4537L48.2178 13.5827ZM47.9776 13.6888L42.0983 12.4911L42.0907 12.5286L42.0835 12.5662L47.9776 13.6888ZM47.9701 13.728L53.8369 14.985L53.8513 14.9179L53.8641 14.8505L47.9701 13.728ZM47.9608 13.8639L53.9546 13.5916L53.9484 13.4561L53.9362 13.321L47.9608 13.8639ZM47.9496 13.9999L42.0925 12.6984L41.8407 13.8316L42.0297 14.9769L47.9496 13.9999ZM47.8341 14.5493L52.916 17.739L52.9283 17.7195L52.9404 17.6999L47.8341 14.5493ZM47.2493 15.2589L51.6129 19.377L51.6198 19.3698L51.6266 19.3625L47.2493 15.2589ZM46.1039 16.3838L50.2008 20.7673L50.2092 20.7594L46.1039 16.3838ZM44.2713 18.1773L40.0233 13.94L40.0178 13.9456L40.0123 13.9511L44.2713 18.1773ZM37.5366 24.9641L41.5314 29.441L41.6673 29.3197L41.7956 29.1904L37.5366 24.9641ZM37.261 25.0647L40.454 19.9849L40.434 19.9723L40.414 19.9599L37.261 25.0647ZM37.2126 24.776L31.3417 23.5381L31.3396 23.548L31.3375 23.558L37.2126 24.776ZM38.5573 18.399L44.4282 19.6369L44.4286 19.635L38.5573 18.399ZM39.2352 15.7878L44.9241 17.6946L44.9242 17.6946L39.2352 15.7878ZM39.8777 14.1191L45.3214 16.6423L45.3214 16.6423L39.8777 14.1191ZM40.4365 13.1059L35.5515 9.62206L35.5452 9.63093L35.5389 9.63984L40.4365 13.1059ZM40.8201 12.4931L35.9849 8.94059L35.6822 9.35261L35.4535 9.80991L40.8201 12.4931ZM40.9468 12.2417L46.8357 13.3908L46.8383 13.3774L46.8409 13.3641L40.9468 12.2417ZM40.9542 12.2026L35.075 11.0049L35.0673 11.0425L35.0601 11.0802L40.9542 12.2026ZM40.7773 12.007L42.0453 6.14255L42.0306 6.13936L42.0158 6.13625L40.7773 12.007ZM33.2995 10.4295L32.0477 16.2975L32.0611 16.3003L33.2995 10.4295ZM33.0593 10.5357L27.18 9.33798L27.1724 9.37549L27.1652 9.4131L33.0593 10.5357ZM33.0518 10.5748L38.9123 11.8612L38.9302 11.7796L38.9459 11.6974L33.0518 10.5748ZM33.0649 10.856L39.0574 10.5564L39.0329 10.0657L38.9288 9.58552L33.0649 10.856ZM33.1673 11.5712L39.0449 10.3656L39.0434 10.3581L33.1673 11.5712ZM33.2697 12.7241L27.2705 12.8175L27.2705 12.8178L33.2697 12.7241ZM33.1841 14.5102L39.1581 15.0678L39.1592 15.0562L33.1841 14.5102ZM32.9867 15.9443L38.896 16.9836L38.8974 16.9754L38.8988 16.9671L32.9867 15.9443ZM32.9748 16.0114L27.0655 14.9721L27.0439 15.0949L27.0275 15.2184L32.9748 16.0114ZM32.9748 16.0115L38.8844 17.049L38.9058 16.9271L38.9222 16.8045L32.9748 16.0115ZM32.9159 16.3354L27.0262 15.1903L27.0192 15.2261L27.0127 15.2621L32.9159 16.3354ZM32.7483 17.1735L26.8825 15.9112L26.8799 15.9235L26.8773 15.9357L32.7483 17.1735ZM30.5878 27.4207L24.7169 26.1829L24.7165 26.1846L30.5878 27.4207ZM29.9099 30.0337L35.5941 31.9545L35.5973 31.9451L35.6004 31.9358L29.9099 30.0337ZM29.2673 31.7006L23.8278 29.1685L23.8237 29.1774L29.2673 31.7006ZM28.7086 32.7138L33.4644 36.372L33.5372 36.2773L33.6062 36.1798L28.7086 32.7138ZM28.671 32.767L33.6273 36.1486L33.6331 36.1401L33.6389 36.1315L28.671 32.767ZM28.6564 32.7883L33.5678 36.2348L33.5905 36.2025L33.6127 36.1699L28.6564 32.7883ZM28.4665 33.0807L33.5836 36.2137L33.6169 36.1591L33.6492 36.1039L28.4665 33.0807ZM28.3268 33.3265L33.115 36.9423L33.447 36.5026L33.6934 36.0098L28.3268 33.3265ZM28.202 33.578L22.3131 32.4289L22.3104 32.4424L22.3079 32.4559L28.202 33.578ZM28.1946 33.6171L34.0738 34.8148L34.0815 34.777L34.0887 34.7392L28.1946 33.6171ZM28.3715 33.8127L27.1196 39.6806L27.133 39.6835L28.3715 33.8127ZM35.8492 35.3902L37.101 29.5222L37.0877 29.5194L35.8492 35.3902ZM36.0914 35.284L41.9485 36.5856L41.9684 36.4961L41.9855 36.4061L36.0914 35.284ZM36.0988 35.2449L30.2384 33.9583L30.2204 34.0403L30.2047 34.1228L36.0988 35.2449ZM36.0839 34.9637L30.1091 35.5131L30.147 35.9246L30.2409 36.3271L36.0839 34.9637ZM35.9964 34.3509L41.9086 33.3285L41.9049 33.3069L41.901 33.2854L35.9964 34.3509ZM35.9182 33.3433L29.9191 33.4485V33.4486L35.9182 33.3433ZM36.0001 31.7546L30.0282 31.175L30.028 31.1767L36.0001 31.7546ZM36.3875 29.3986L30.9199 26.9277L30.6511 27.5226L30.5164 28.1614L36.3875 29.3986ZM36.7078 28.9125L41.0423 33.0613L41.1531 32.9456L41.2575 32.8241L36.7078 28.9125ZM38.7286 26.5621L34.3648 22.4442L34.2695 22.5452L34.1789 22.6505L38.7286 26.5621ZM39.0862 26.4206L40.9835 20.7285L40.9696 20.7238L40.9556 20.7192L39.0862 26.4206ZM39.3469 26.7335L45.1632 25.2599L45.0922 24.9797L44.9946 24.7078L39.3469 26.7335ZM40.2595 30.3355L34.4433 31.8091L34.4544 31.8526L34.466 31.896L40.2595 30.3355ZM40.8965 32.8293L35.0538 34.1942V34.1942L40.8965 32.8293ZM41.2113 34.4422L47.1595 33.6561L47.1578 33.6432L47.1561 33.6303L41.2113 34.4422ZM41.2578 35.4237L47.2205 36.0915L47.2232 36.0679L47.2256 36.0443L41.2578 35.4237ZM41.0958 36.0234L45.884 39.6391L46.2242 39.1885L46.4744 38.6825L41.0958 36.0234ZM40.971 36.2748L35.0821 35.1257L35.0794 35.1391L35.0769 35.1525L40.971 36.2748ZM40.9635 36.3139L46.8428 37.5117L46.8505 37.474L46.8576 37.4363L40.9635 36.3139ZM41.1405 36.5095L39.8886 42.3775L39.902 42.3803L41.1405 36.5095ZM48.6182 38.087L49.87 32.219L49.8567 32.2162L48.6182 38.087ZM48.8585 37.9808L54.7377 39.1786L54.7454 39.1409L54.7526 39.1032L48.8585 37.9808ZM48.8659 37.9417L43.0055 36.6553L42.9875 36.7371L42.9718 36.8194L48.8659 37.9417ZM48.8529 37.6605L54.7168 36.39L53.9273 32.7458L50.3102 31.8402L48.8529 37.6605ZM55.9546 15.2144L57.1923 9.34347L51.1147 8.0622L50.0444 14.1805L55.9546 15.2144ZM62.0151 16.4921L67.8393 17.9335L69.3319 11.9027L63.2528 10.6211L62.0151 16.4921ZM53.1572 31.2055L47.247 30.1715L46.2482 35.8812L51.9199 37.0765L53.1572 31.2055ZM58.1151 32.2503L56.8778 38.1213L62.5474 39.3162L63.9394 33.6917L58.1151 32.2503ZM52.8406 32.7066L54.0779 26.8356L48.2082 25.5986L46.9698 31.468L52.8406 32.7066ZM57.7985 33.7514L63.6692 34.9901L64.9081 29.118L59.0357 27.8804L57.7985 33.7514ZM51.5741 38.7093L45.7034 37.4706L44.4645 43.3428L50.3369 44.5803L51.5741 38.7093ZM56.532 39.7541L55.2947 45.6252L61.1644 46.8622L62.4027 40.9927L56.532 39.7541ZM10.7583 34.9219C12.8488 36.2461 15.1391 37.1575 17.5773 37.6708L20.0494 25.9282C18.9489 25.6966 18.0061 25.308 17.1799 24.7847L10.7583 34.9219ZM5.53759 30.3332C7.02593 32.132 8.77349 33.6662 10.7613 34.9237L17.177 24.7828C16.2444 24.1928 15.4553 23.4958 14.7832 22.6834L5.53759 30.3332ZM2.00314 24.3021C2.86106 26.4935 4.0346 28.5166 5.53759 30.3332L14.7832 22.6834C14.1258 21.8888 13.5896 20.9805 13.1773 19.9274L2.00314 24.3021ZM0.501959 17.3147C0.632105 19.7249 1.12683 22.0638 2.00314 24.3021L13.1773 19.9274C12.7834 18.9213 12.5481 17.8445 12.4845 16.6676L0.501959 17.3147ZM1.42978 10.086C0.611086 12.3974 0.369543 14.8527 0.50189 17.3134L12.4846 16.6689C12.4158 15.3898 12.5691 14.5784 12.7412 14.0924L1.42978 10.086ZM5.31835 4.20647C3.48117 5.82937 2.21887 7.86109 1.43062 10.0836L12.7404 14.0948C12.9429 13.5236 13.152 13.298 13.2629 13.2L5.31835 4.20647ZM11.6509 1.10779C9.3253 1.57974 7.15517 2.58389 5.31835 4.20647L13.2629 13.2C13.3742 13.1017 13.5731 12.9623 14.0375 12.8681L11.6509 1.10779ZM18.7172 1.22864C16.3907 0.738309 14.0011 0.630198 11.6494 1.1081L14.039 12.8678C14.4735 12.7795 15.1756 12.7458 16.2425 12.9707L18.7172 1.22864ZM25.5423 3.97399C23.4438 2.65113 21.1522 1.74128 18.7159 1.22837L16.2438 12.971C17.3461 13.203 18.2989 13.5932 19.1431 14.1253L25.5423 3.97399ZM30.7929 8.57349C29.2957 6.76402 27.5355 5.23045 25.5423 3.97399L19.1431 14.1253C20.0926 14.7239 20.8839 15.4215 21.5472 16.2232L30.7929 8.57349ZM34.3273 14.6045C33.468 12.4097 32.2924 10.3889 30.7961 8.57741L21.544 16.2193C22.2045 17.0189 22.7423 17.9297 23.1532 18.9792L34.3273 14.6045ZM35.8285 21.592C35.6983 19.1805 35.2032 16.8444 34.3282 14.6067L23.1523 18.9771C23.5475 19.9875 23.7825 21.0634 23.846 22.239L35.8285 21.592ZM34.8636 28.8684C35.7169 26.5274 35.9569 23.9705 35.8285 21.592L23.846 22.239C23.9112 23.4476 23.7527 24.3102 23.5891 24.7591L34.8636 28.8684ZM30.97 34.697C32.8006 33.0834 34.0627 31.0658 34.8636 28.8684L23.5891 24.7591C23.3731 25.3517 23.1527 25.5913 23.0351 25.6949L30.97 34.697ZM24.6423 37.7914C26.9679 37.3195 29.138 36.3153 30.9749 34.6927L23.0303 25.6992C22.919 25.7975 22.7201 25.9369 22.2557 26.0311L24.6423 37.7914ZM17.576 37.6706C19.9031 38.161 22.29 38.2688 24.6423 37.7914L22.2557 26.0311C21.818 26.12 21.117 26.1532 20.0507 25.9285L17.576 37.6706ZM20.0622 20.5804C19.6721 19.5312 19.3389 18.3888 19.0714 17.145L7.33966 19.6683C7.72028 21.4379 8.21031 23.1376 8.81472 24.7629L20.0622 20.5804ZM21.2285 23.0251C20.8408 22.4057 20.4429 21.6041 20.0622 20.5804L8.81471 24.7629C9.42858 26.4137 10.1668 27.97 11.0567 29.3918L21.2285 23.0251ZM22.2106 24.2775C21.987 24.0743 21.6469 23.6935 21.2285 23.0251L11.0567 29.3918C11.916 30.7646 12.928 32.0563 14.1385 33.1568L22.2106 24.2775ZM21.6255 24.0636C22.1354 24.1708 22.3295 24.3859 22.2163 24.2828L14.1328 33.1516C15.4499 34.3521 17.1228 35.3793 19.1563 35.8068L21.6255 24.0636ZM18.666 24.769C19.1416 24.4203 19.7119 24.1703 20.3181 24.0612C20.9012 23.9562 21.3636 24.0082 21.6323 24.0651L19.1494 35.8054C21.2308 36.2456 23.6514 35.9939 25.7624 34.4459L18.666 24.769ZM17.5947 26.0907C17.5953 26.0888 17.607 26.0499 17.6368 25.9822C17.6667 25.9142 17.7173 25.8114 17.7967 25.6854C17.9602 25.426 18.2375 25.0832 18.666 24.769L25.7624 34.4459C27.6467 33.064 28.5994 31.1612 29.0836 29.5557L17.5947 26.0907ZM17.6668 24.8777C17.6767 25.2882 17.6617 25.5926 17.6392 25.8062C17.6164 26.0221 17.5901 26.106 17.5947 26.0907L29.0836 29.5557C29.5773 27.9186 29.7021 26.2019 29.6633 24.5891L17.6668 24.8777ZM17.2512 21.7133C17.528 23.052 17.6479 24.0934 17.6668 24.8777L29.6633 24.5891C29.6226 22.8963 29.3812 21.1142 29.0025 19.283L17.2512 21.7133ZM16.2686 18.366C16.6626 19.4001 16.9962 20.5287 17.261 21.7598L28.9927 19.2365C28.6093 17.4541 28.1085 15.737 27.4819 14.0928L16.2686 18.366ZM15.0611 15.8372C15.454 16.4756 15.8649 17.3068 16.2686 18.366L27.4819 14.0928C26.865 12.4739 26.1397 10.9434 25.281 9.54804L15.0611 15.8372ZM14.1247 14.6431C14.3501 14.8459 14.6755 15.2093 15.0586 15.833L25.2836 9.55221C24.4152 8.13842 23.3847 6.83301 22.1536 5.7247L14.1247 14.6431ZM14.7106 14.842C14.1415 14.7227 13.9509 14.4871 14.1311 14.6488L22.1473 5.71902C20.871 4.57328 19.2165 3.52563 17.1723 3.09717L14.7106 14.842ZM17.6663 14.1358C17.2309 14.4551 16.6675 14.7208 16.0244 14.8387C15.4113 14.9512 14.9411 14.8903 14.7106 14.842L17.1723 3.09717C15.0482 2.65196 12.6624 2.92449 10.5699 4.45893L17.6663 14.1358ZM18.7366 12.8177C18.736 12.8193 18.7245 12.8576 18.6951 12.9244C18.6656 12.9914 18.6155 13.0932 18.5368 13.2183C18.3751 13.475 18.098 13.8192 17.6663 14.1358L10.5699 4.45893C8.6829 5.84276 7.7323 7.74947 7.24985 9.34554L18.7366 12.8177ZM18.6655 14.0271C18.6557 13.6166 18.6707 13.3122 18.6932 13.0986C18.7159 12.8827 18.7422 12.7988 18.7376 12.8141L7.24876 9.34914C6.75503 10.9862 6.6302 12.7029 6.66901 14.3157L18.6655 14.0271ZM19.0812 17.1915C18.8043 15.8528 18.6844 14.8114 18.6655 14.0271L6.66901 14.3157C6.70973 16.0085 6.95114 17.7906 7.32986 19.6218L19.0812 17.1915ZM43.7851 40.6633C43.7095 40.5663 43.5279 40.321 43.3448 39.9382C43.1665 39.5657 42.8991 38.8806 42.8529 37.9582L54.838 37.359C54.7347 35.2927 53.6872 33.8476 53.2503 33.287L43.7851 40.6633ZM42.7406 39.1866C43.074 39.6918 43.4351 40.2174 43.7975 40.6791L53.2378 33.2711C53.1793 33.1964 53.0301 32.9919 52.7563 32.5771L42.7406 39.1866ZM41.4778 37.0574C41.8974 37.8264 42.3163 38.5397 42.7313 39.1724L52.7656 32.5913C52.5772 32.304 52.3256 31.8849 52.0114 31.3091L41.4778 37.0574ZM40.0071 33.6453C40.4237 34.8458 40.9045 36.0069 41.4778 37.0574L52.0114 31.3091C51.8509 31.015 51.6202 30.5074 51.344 29.7113L40.0071 33.6453ZM37.2287 25.2535L39.9795 33.5638L51.3716 29.7928L48.6208 21.4825L37.2287 25.2535ZM37.1246 21.2511C36.7724 22.5089 36.6933 24.1844 37.477 25.8824L48.3724 20.8536C49.0221 22.2611 48.928 23.6014 48.6802 24.4866L37.1246 21.2511ZM39.1646 17.9506C37.9963 18.9931 37.4082 20.2383 37.1246 21.2511L48.6802 24.4866C48.5009 25.127 48.0803 26.0778 47.1541 26.9043L39.1646 17.9506ZM42.8892 14.4107L39.0284 18.0761L47.2904 26.7789L51.1513 23.1136L42.8892 14.4107ZM45.871 12.0197C44.8306 12.6966 43.8422 13.5117 42.903 14.3977L51.1375 23.1266C51.7106 22.586 52.1339 22.2612 52.4159 22.0777L45.871 12.0197ZM48.1121 10.6948C47.3852 11.0707 46.6296 11.5268 45.8745 12.0174L52.4124 22.08C52.9759 21.7139 53.3713 21.4846 53.6241 21.3539L48.1121 10.6948ZM49.8056 9.89424C49.2439 10.1242 48.657 10.4119 48.1038 10.6991L53.6324 21.3496C54.055 21.1302 54.2765 21.0306 54.3518 20.9998L49.8056 9.89424ZM47.3137 12.3168C47.8047 11.3346 48.4652 10.7368 48.8854 10.4241C49.3066 10.1106 49.658 9.95465 49.8056 9.89422L54.3517 20.9998C55.0389 20.7185 56.9604 19.8561 58.0468 17.6832L47.3137 12.3168ZM46.9161 13.5995C47.0348 12.9912 47.2318 12.513 47.3956 12.1855C47.5605 11.8557 47.7272 11.6078 47.845 11.4475L57.5155 18.5525C57.8344 18.1185 58.4392 17.2033 58.694 15.8977L46.9161 13.5995ZM46.9184 13.5869L46.911 13.626L58.6991 15.8712L58.7065 15.8321L46.9184 13.5869ZM51.3837 20.3819C50.9188 20.2827 49.5215 19.9291 48.3244 18.599C46.8388 16.9484 46.6424 14.9395 46.9332 13.5117L58.6917 15.9072C59.0031 14.3788 58.788 12.287 57.2438 10.5713C55.9879 9.17595 54.4919 8.77492 53.8874 8.64595L51.3837 20.3819ZM46.9802 19.4537L51.398 20.3849L53.8731 8.64292L49.4554 7.71169L46.9802 19.4537ZM53.8568 14.8866C53.5554 16.366 52.5405 18.1636 50.478 19.075C48.8386 19.7994 47.418 19.5471 46.966 19.4506L49.4697 7.71472C48.8779 7.58849 47.3474 7.33898 45.6279 8.09878C43.4854 9.04551 42.4202 10.9111 42.0983 12.4911L53.8568 14.8866ZM53.8641 14.8505L53.8716 14.8114L42.0835 12.5662L42.0761 12.6054L53.8641 14.8505ZM53.9362 13.321C53.9888 13.8999 53.9486 14.4638 53.8369 14.985L42.1033 12.4709C41.9692 13.0964 41.9254 13.746 41.9854 14.4069L53.9362 13.321ZM53.8068 15.3013C53.9568 14.6261 53.9748 14.0368 53.9546 13.5916L41.967 14.1362C41.9505 13.773 41.9648 13.273 42.0925 12.6984L53.8068 15.3013ZM52.9404 17.6999C53.7473 16.3922 54.1555 14.7554 53.8695 13.0228L42.0297 14.9769C41.8071 13.628 42.1371 12.3563 42.7279 11.3987L52.9404 17.6999ZM51.6266 19.3625C51.9584 19.0086 52.4847 18.4262 52.916 17.739L42.7523 11.3596C42.8243 11.2447 42.8833 11.1626 42.9161 11.1183C42.9504 11.0722 42.9724 11.0453 42.9766 11.0402C42.9823 11.0334 42.953 11.069 42.8721 11.1553L51.6266 19.3625ZM50.2092 20.7594C50.7291 20.2717 51.211 19.8029 51.6129 19.377L42.8857 11.1407C42.7252 11.3109 42.4434 11.5908 41.9986 12.0082L50.2092 20.7594ZM48.5192 22.4146C49.2507 21.6813 49.7978 21.144 50.2008 20.7673L42.007 12.0003C41.4415 12.5288 40.7706 13.1909 40.0233 13.94L48.5192 22.4146ZM41.7956 29.1904L48.5302 22.4036L40.0123 13.9511L33.2777 20.7379L41.7956 29.1904ZM34.068 30.1445C36.0774 31.4076 38.158 31.1758 39.447 30.7022C40.5319 30.3036 41.2489 29.693 41.5314 29.441L33.5419 20.4873C33.7033 20.3433 34.3151 19.8034 35.3087 19.4384C36.5064 18.9983 38.5098 18.7628 40.454 19.9849L34.068 30.1445ZM31.3375 23.558C31.2477 23.9913 31.1018 24.8792 31.2851 25.9633C31.4863 27.153 32.1851 28.9818 34.108 30.1695L40.414 19.9599C42.2736 21.1085 42.9323 22.8693 43.1172 23.9626C43.2842 24.9504 43.1458 25.7135 43.0876 25.994L31.3375 23.558ZM32.6864 17.161L31.3417 23.5381L43.0835 26.014L44.4282 19.6369L32.6864 17.161ZM33.5462 13.8811C33.2196 14.8556 32.937 15.9705 32.686 17.1629L44.4286 19.635C44.6245 18.7042 44.7963 18.0759 44.9241 17.6946L33.5462 13.8811ZM34.4341 11.5958C34.1058 12.3042 33.8122 13.0876 33.5462 13.8811L44.9242 17.6946C45.1126 17.1322 45.2474 16.8019 45.3214 16.6423L34.4341 11.5958ZM35.5389 9.63984C35.0718 10.2998 34.71 11.0005 34.4341 11.5959L45.3214 16.6423C45.3479 16.585 45.37 16.5395 45.3875 16.5047C45.4051 16.4697 45.4166 16.4484 45.4217 16.439C45.4271 16.4293 45.4237 16.4361 45.4112 16.4563C45.3989 16.4762 45.3734 16.5163 45.3341 16.5719L35.5389 9.63984ZM35.4535 9.80991C35.4876 9.74188 35.5161 9.68991 35.5357 9.65566C35.5554 9.62098 35.5697 9.59779 35.5764 9.58707C35.5886 9.56764 35.5829 9.57799 35.5515 9.62206L45.3214 16.5897C45.5801 16.2271 45.9061 15.7375 46.1867 15.1764L35.4535 9.80991ZM35.0578 11.0926C35.1845 10.4436 35.3992 9.94651 35.5604 9.63118C35.724 9.31115 35.8847 9.07704 35.9849 8.94059L45.6554 16.0457C45.9208 15.6844 46.5705 14.7501 46.8357 13.3908L35.0578 11.0926ZM35.0601 11.0802L35.0527 11.1193L46.8409 13.3641L46.8483 13.325L35.0601 11.0802ZM39.5093 17.8715C39.0372 17.7694 37.6646 17.4142 36.481 16.1094C35.0095 14.4871 34.7735 12.4849 35.075 11.0049L46.8335 13.4003C47.1555 11.8197 46.8999 9.73469 45.3693 8.04719C44.1266 6.67714 42.6553 6.27444 42.0453 6.14255L39.5093 17.8715ZM32.0611 16.3003L39.5388 17.8778L42.0158 6.13625L34.538 4.55875L32.0611 16.3003ZM38.9385 11.7334C38.6371 13.2128 37.6222 15.0105 35.5598 15.9218C33.9204 16.6462 32.4997 16.3939 32.0477 16.2975L34.5514 4.56158C33.9597 4.43536 32.4291 4.18584 30.7096 4.94566C28.5671 5.8924 27.5019 7.75801 27.18 9.33798L38.9385 11.7334ZM38.9459 11.6974L38.9533 11.6583L27.1652 9.4131L27.1578 9.45222L38.9459 11.6974ZM38.9288 9.58552C38.967 9.76187 39.0177 10.0447 39.0356 10.404C39.0535 10.7638 39.0421 11.2699 38.9123 11.8612L27.1914 9.28839C26.9106 10.5674 27.093 11.6286 27.2009 12.1266L38.9288 9.58552ZM39.0434 10.3581C39.0346 10.3157 39.0342 10.3075 39.0374 10.33C39.0391 10.3421 39.0424 10.3665 39.046 10.402C39.0495 10.4371 39.054 10.4893 39.0574 10.5564L27.0724 11.1556C27.1023 11.7546 27.1953 12.3199 27.2912 12.7844L39.0434 10.3581ZM39.269 12.6307C39.2584 11.9511 39.2078 11.1597 39.0449 10.3656L27.2897 12.7769C27.2762 12.7109 27.2689 12.6638 27.2655 12.6394C27.262 12.6144 27.2613 12.605 27.2621 12.6132C27.2628 12.6211 27.2645 12.642 27.2662 12.6773C27.2679 12.7124 27.2696 12.7588 27.2705 12.8175L39.269 12.6307ZM39.1592 15.0562C39.2359 14.2166 39.2809 13.3927 39.269 12.6303L27.2705 12.8178C27.2735 13.0091 27.2626 13.3771 27.209 13.9641L39.1592 15.0562ZM38.8988 16.9671C39.0123 16.3112 39.1014 15.6756 39.1581 15.0678L27.21 13.9526C27.1885 14.1828 27.1472 14.5009 27.0745 14.9214L38.8988 16.9671ZM38.8841 17.0507L38.896 16.9836L27.0773 14.905L27.0655 14.9721L38.8841 17.0507ZM38.9222 16.8045L38.9222 16.8044L27.0275 15.2184L27.0275 15.2185L38.9222 16.8045ZM38.8056 17.4805C38.8392 17.3079 38.8672 17.147 38.8844 17.049L27.0652 14.9739C27.0454 15.0868 27.0356 15.1419 27.0262 15.1903L38.8056 17.4805ZM38.614 18.4357C38.6876 18.0936 38.7567 17.7516 38.8191 17.4087L27.0127 15.2621C26.9782 15.4518 26.9356 15.6648 26.8825 15.9112L38.614 18.4357ZM36.4587 28.6585L38.6192 18.4113L26.8773 15.9357L24.7169 26.1829L36.4587 28.6585ZM35.6004 31.9358C35.9257 30.9627 36.2079 29.8501 36.4591 28.6568L24.7165 26.1846C24.5207 27.1145 24.3485 27.7452 24.2193 28.1317L35.6004 31.9358ZM34.7068 34.2328C35.0414 33.5141 35.3344 32.723 35.5941 31.9545L24.2256 28.113C24.0271 28.7004 23.8955 29.023 23.8278 29.1685L34.7068 34.2328ZM33.6062 36.1798C34.0733 35.5199 34.435 34.8192 34.711 34.2239L23.8237 29.1774C23.7971 29.2347 23.7751 29.2802 23.7576 29.315C23.74 29.35 23.7285 29.3713 23.7233 29.3807C23.718 29.3904 23.7214 29.3837 23.7339 29.3634C23.7461 29.3436 23.7716 29.3034 23.811 29.2478L33.6062 36.1798ZM33.6389 36.1315C33.649 36.1165 33.6299 36.1449 33.606 36.1791C33.5795 36.2171 33.5303 36.2864 33.4644 36.372L23.9528 29.0556C23.8737 29.1585 23.8117 29.2455 23.7727 29.3013C23.7362 29.3533 23.705 29.3997 23.7031 29.4025L33.6389 36.1315ZM33.6127 36.1699L33.6273 36.1486L23.7147 29.3854L23.7002 29.4067L33.6127 36.1699ZM33.6492 36.1039C33.6184 36.1566 33.5947 36.1939 33.582 36.2134C33.5692 36.233 33.5636 36.2409 33.5678 36.2348L23.7451 29.3418C23.6087 29.5361 23.446 29.7794 23.2838 30.0575L33.6492 36.1039ZM33.6934 36.0098C33.6505 36.0955 33.616 36.1573 33.599 36.1869C33.5823 36.2161 33.5745 36.2284 33.5836 36.2137L23.3494 29.9477C23.2647 30.0861 23.1128 30.3381 22.9602 30.6433L33.6934 36.0098ZM34.0909 34.7271C33.8745 35.8364 33.384 36.5859 33.115 36.9423L23.5386 29.7108C23.1317 30.2497 22.5593 31.1669 22.3131 32.4289L34.0909 34.7271ZM34.0887 34.7392L34.0961 34.7001L22.3079 32.4559L22.3004 32.495L34.0887 34.7392ZM29.6234 27.9447C30.0884 28.0439 31.4858 28.3976 32.6829 29.7279C34.1683 31.3784 34.3646 33.3872 34.0738 34.8148L22.3153 32.4194C22.004 33.9476 22.219 36.0392 23.763 37.755C25.0188 39.1505 26.5149 39.5516 27.1196 39.6806L29.6234 27.9447ZM37.0877 29.5194L29.61 27.9419L27.133 39.6835L34.6108 41.2609L37.0877 29.5194ZM30.2343 33.9824C30.5548 32.5399 31.5682 30.7859 33.6008 29.8928C35.2309 29.1766 36.6425 29.4244 37.101 29.5222L34.5974 41.2581C35.1956 41.3857 36.7171 41.6308 38.4279 40.8791C40.5409 39.9507 41.6056 38.1286 41.9485 36.5856L30.2343 33.9824ZM30.2047 34.1228L30.1972 34.1619L41.9855 36.4061L41.993 36.367L30.2047 34.1228ZM30.2409 36.3271C30.1628 35.9926 29.9878 35.0998 30.2384 33.9583L41.9593 36.5314C42.2434 35.2373 42.0572 34.1582 41.927 33.6002L30.2409 36.3271ZM30.0841 35.3733C30.0989 35.4587 30.1073 35.513 30.1117 35.5436C30.1165 35.5765 30.1136 35.5619 30.1091 35.5131L42.0587 34.4142C42.0221 34.016 41.9608 33.6303 41.9086 33.3285L30.0841 35.3733ZM29.9191 33.4486C29.9289 34.0097 29.9643 34.7102 30.0917 35.4164L41.901 33.2854C41.9134 33.3539 41.9198 33.4023 41.9226 33.4258C41.9256 33.4501 41.926 33.4586 41.9253 33.4489C41.9246 33.4395 41.923 33.4173 41.9214 33.3807C41.9198 33.3444 41.9183 33.2972 41.9172 33.2381L29.9191 33.4486ZM30.028 31.1767C29.9552 31.9295 29.9061 32.7075 29.9191 33.4485L41.9172 33.2381C41.9153 33.1299 41.9221 32.85 41.9722 32.3326L30.028 31.1767ZM30.5164 28.1614C30.2923 29.2251 30.1184 30.2449 30.0282 31.175L41.972 32.3343C42.0047 31.9979 42.0879 31.4458 42.2585 30.6359L30.5164 28.1614ZM32.3733 24.7638C31.7243 25.4419 31.2531 26.1904 30.9199 26.9277L41.8551 31.8696C41.6969 32.2195 41.4418 32.6439 41.0423 33.0613L32.3733 24.7638ZM34.1789 22.6505L32.1582 25.001L41.2575 32.8241L43.2783 30.4737L34.1789 22.6505ZM40.9556 20.7192C37.6065 19.6211 35.1787 21.5817 34.3648 22.4442L43.0924 30.68C42.7821 31.0089 42.138 31.6049 41.1137 32.0091C39.9641 32.4627 38.5811 32.5693 37.2168 32.1219L40.9556 20.7192ZM44.9946 24.7078C44.6463 23.7366 43.6046 21.6021 40.9835 20.7285L37.1889 32.1127C34.7913 31.3135 33.9246 29.3876 33.6992 28.7592L44.9946 24.7078ZM46.0758 28.8618L45.1632 25.2599L33.5307 28.2071L34.4433 31.8091L46.0758 28.8618ZM46.7392 31.4643C46.565 30.7189 46.3336 29.8166 46.053 28.7749L34.466 31.896C34.7293 32.8732 34.9225 33.6322 35.0538 34.1942L46.7392 31.4643ZM47.1561 33.6303C47.0633 32.9511 46.9145 32.215 46.7392 31.4643L35.0538 34.1942C35.1839 34.7511 35.2437 35.0877 35.2664 35.254L47.1561 33.6303ZM47.2256 36.0443C47.3222 35.1155 47.2372 34.2441 47.1595 33.6561L35.263 35.2283C35.2747 35.3171 35.2733 35.331 35.2712 35.2859C35.27 35.2611 35.2682 35.209 35.2694 35.1341C35.2706 35.0606 35.275 34.9473 35.29 34.803L47.2256 36.0443ZM46.4744 38.6825C46.939 37.7427 47.1379 36.8296 47.2205 36.0915L35.2951 34.7559C35.3256 34.4834 35.4165 33.9726 35.7172 33.3643L46.4744 38.6825ZM46.8599 37.4239C46.6434 38.5336 46.1528 39.2831 45.884 39.6391L36.3076 32.4077C35.901 32.9462 35.3284 33.8634 35.0821 35.1257L46.8599 37.4239ZM46.8576 37.4363L46.8651 37.3972L35.0769 35.1525L35.0695 35.1916L46.8576 37.4363ZM42.3924 30.6416C42.8574 30.7408 44.2548 31.0944 45.4519 32.4247C46.9372 34.0752 47.1336 36.084 46.8428 37.5117L35.0843 35.1162C34.773 36.6445 34.988 38.7361 36.532 40.4518C37.7878 41.8473 39.2838 42.2484 39.8886 42.3774L42.3924 30.6416ZM49.8567 32.2162L42.379 30.6387L39.902 42.3803L47.3797 43.9578L49.8567 32.2162ZM42.9793 36.7831C43.2807 35.3035 44.2958 33.5058 46.3583 32.5946C47.9977 31.8703 49.4182 32.1226 49.87 32.219L47.3664 43.955C47.958 44.0811 49.4884 44.3307 51.2078 43.571C53.3504 42.6244 54.4158 40.7588 54.7377 39.1786L42.9793 36.7831ZM42.9718 36.8194L42.9644 36.8585L54.7526 39.1032L54.76 39.064L42.9718 36.8194ZM42.989 38.931C42.9507 38.7546 42.9001 38.4717 42.8822 38.1125C42.8643 37.7527 42.8757 37.2467 43.0055 36.6553L54.7264 39.2281C55.0072 37.9491 54.8247 36.888 54.7168 36.39L42.989 38.931ZM47.3881 43.4789L47.3956 43.4808L50.3102 31.8402L50.3028 31.8383L47.3881 43.4789ZM54.7169 21.0854L60.7774 22.363L63.2528 10.6211L57.1923 9.34347L54.7169 21.0854ZM59.0675 32.2394L61.8649 16.2483L50.0444 14.1805L47.247 30.1715L59.0675 32.2394ZM59.3524 26.3793L54.3945 25.3344L51.9199 37.0765L56.8778 38.1213L59.3524 26.3793ZM56.1908 15.0506L52.2908 30.8089L63.9394 33.6917L67.8393 17.9335L56.1908 15.0506ZM51.6033 38.5776L56.5612 39.6225L59.0357 27.8804L54.0779 26.8356L51.6033 38.5776ZM57.4449 39.9479L58.7114 33.9452L46.9698 31.468L45.7034 37.4706L57.4449 39.9479ZM57.7693 33.8831L52.8114 32.8382L50.3369 44.5803L55.2947 45.6252L57.7693 33.8831ZM51.9277 32.5128L50.6612 38.5155L62.4027 40.9927L63.6692 34.9901L51.9277 32.5128Z" fill="#A3358C" mask="url(#path-1-outside-1_264_1027)"/>
</svg>
